<svg xmlns="http://www.w3.org/2000/svg" viewBox="0 0 554 423.625"><defs><style>.a{fill:#f7f8fc;}.b{fill:#8b22e2;}.c{fill:#b4bacc;}.d{fill:#6122be;}.e{fill:#fff;}.f{fill:#ecf2b8;}.g{fill:#b9edd7;}.h{fill:#a9edf7;}.i{fill:#d8b9ea;}.j{fill:#eaaa7f;}.k{fill:#1e2e72;}.l{fill:#75342c;}.m{opacity:0.1;isolation:isolate;}.n{fill:#fa0;}.o{fill:#d38509;}.p{fill:#5c79bf;}.q{fill:#6884dd;}.r{fill:#f2866d;}.s{fill:none;stroke:#ba7343;stroke-miterlimit:10;}.t{fill:#ba7343;}.u{fill:#441512;}.v{fill:#ff4f5b;}.w{fill:#7e7a83;opacity:0.2;}.aa,.ab,.ac,.ad,.ae,.af,.ag,.ai,.aj,.ak,.al,.am,.an,.ao,.ap,.w,.x,.y,.z{fill-rule:evenodd;}.x{fill:#fbfbfb;}.y{fill:#fc0505;}.z{fill:#040404;}.aa{fill:#9c7c7c;}.ab{fill:#9f9f9f;}.ac{fill:#0778cf;}.ad{fill:#4bdbfb;}.ae{fill:#24abeb;}.af{fill:#094874;}.ag{fill:#cacaca;}.ah{fill:#eb3c00;}.ai{fill:#047cd3;}.aj{fill:#4ad8f8;}.ak{fill:#fbfbfc;}.al{fill:#166384;}.am{fill:#2a9f4a;}.an{fill:#f8a50c;}.ao{fill:#1464d4;}.ap{fill:#4484f4;}</style></defs><g transform="translate(0 21.466)"><g transform="translate(23.924)"><path class="a" d="M37.316,20H383.354A15.026,15.026,0,0,1,398.38,35.026V251.192a15.026,15.026,0,0,1-15.026,15.026H37.316A15.026,15.026,0,0,1,22.29,251.192V35.026A15.026,15.026,0,0,1,37.316,20Z" transform="translate(-22.29 -20)"/><g transform="translate(1.191 17.055)"><path class="b" d="M399.7,36.1c0,.107-84.255.215-188.152.215S23.4,36.319,23.4,36.1s84.255-.215,188.152-.215S399.7,36.008,399.7,36.1Z" transform="translate(-23.4 -35.89)"/></g><g transform="translate(9.016 7.127)"><path class="b" d="M34.983,28.787a2.147,2.147,0,1,1-2.147-2.147h0A2.147,2.147,0,0,1,34.983,28.787Z" transform="translate(-30.69 -26.64)"/></g><g transform="translate(16.862 7.127)"><path class="b" d="M42.293,28.787a2.147,2.147,0,1,1-2.147-2.147h0A2.147,2.147,0,0,1,42.293,28.787Z" transform="translate(-38 -26.64)"/></g><g transform="translate(24.6 7.127)"><path class="b" d="M49.5,28.787a2.147,2.147,0,1,1-2.147-2.147h0A2.147,2.147,0,0,1,49.5,28.787Z" transform="translate(-45.21 -26.64)"/></g><g transform="translate(122.594 49.705)"><path class="c" d="M370.278,245.339c0-1.61,0-68.692-.107-178.707l.107.215H136.725l.215-.215V245.339l-.215-.215,233.554.215-233.554.215h-.215V66.31h.215l233.554.107h.107v.215C370.386,176.529,370.278,243.729,370.278,245.339Z" transform="translate(-136.51 -66.31)"/></g><g transform="translate(60.412 49.609)"><path class="c" d="M78.656,244.927c-.107,0-.107-40.035,0-89.407s.429-89.3.537-89.3.107,40.035,0,89.407S78.763,244.927,78.656,244.927Z" transform="translate(-78.575 -66.22)"/></g><g transform="translate(110.46 49.759)"><path class="c" d="M125.286,245.067c-.107,0-.107-40.035,0-89.407s.429-89.3.537-89.3.107,40.035,0,89.407S125.393,245.067,125.286,245.067Z" transform="translate(-125.205 -66.36)"/></g><g transform="translate(181.197 49.909)"><path class="c" d="M191.271,245.207c-.215,0-.215-40.035,0-89.407s.429-89.3.644-89.3.215,40.035,0,89.407S191.486,245.207,191.271,245.207Z" transform="translate(-191.11 -66.5)"/></g><g transform="translate(242.312 50.188)"><path class="c" d="M248.211,245.467c-.215,0-.215-40.035,0-89.407s.429-89.3.644-89.3.215,40.035,0,89.407S248.426,245.467,248.211,245.467Z" transform="translate(-248.05 -66.76)"/></g><g transform="translate(303.437 50.339)"><g transform="translate(0)"><path class="c" d="M305.161,245.607c-.215,0-.215-40.035,0-89.407s.429-89.3.644-89.3.215,40.035,0,89.407S305.376,245.607,305.161,245.607Z" transform="translate(-305 -66.9)"/></g></g><path class="c" d="M98.585,126h18.568a1.417,1.417,0,0,1,1.4,1.4h0a1.417,1.417,0,0,1-1.4,1.4H98.585a1.417,1.417,0,0,1-1.4-1.4h0A1.417,1.417,0,0,1,98.585,126Z" transform="translate(-16.799 -12.228)"/><path class="c" d="M105.585,132.8h13.427a1.417,1.417,0,0,1,1.4,1.4h0a1.417,1.417,0,0,1-1.4,1.4H105.6a1.417,1.417,0,0,1-1.4-1.4h0a1.417,1.417,0,0,1,1.385-1.4Z" transform="translate(-16.285 -11.73)"/><path class="c" d="M98.985,139.7h18.568a1.417,1.417,0,0,1,1.4,1.4h0a1.417,1.417,0,0,1-1.4,1.4H98.985a1.417,1.417,0,0,1-1.4-1.4h0A1.417,1.417,0,0,1,98.985,139.7Z" transform="translate(-16.769 -11.224)"/><path class="d" d="M22.49,35H132.612V265.978H38.16a15.692,15.692,0,0,1-15.67-15.67h0Z" transform="translate(-22.275 -18.9)"/><path class="e" d="M49.037,79.9h66.331a2.147,2.147,0,0,1,2.147,2.147h0a2.147,2.147,0,0,1-2.147,2.147H49.037a2.147,2.147,0,0,1-2.147-2.147h0A2.082,2.082,0,0,1,48.908,79.9Z" transform="translate(-20.486 -15.608)"/><path class="e" d="M49.037,96.8h66.331a2.147,2.147,0,0,1,2.147,2.147h0a2.147,2.147,0,0,1-2.147,2.147H49.037a2.147,2.147,0,0,1-2.147-2.147h0A2.082,2.082,0,0,1,48.908,96.8Z" transform="translate(-20.486 -14.369)"/><path class="e" d="M49.037,113.6h66.331a2.147,2.147,0,0,1,2.147,2.147h0a2.147,2.147,0,0,1-2.147,2.147H49.037a2.147,2.147,0,0,1-2.147-2.147h0a2.082,2.082,0,0,1,2.018-2.147Z" transform="translate(-20.486 -13.138)"/><path class="e" d="M49.037,130.5h66.331a2.147,2.147,0,0,1,2.147,2.147h0a2.147,2.147,0,0,1-2.147,2.147H49.037a2.147,2.147,0,0,1-2.147-2.147h0a2.082,2.082,0,0,1,2.018-2.147Z" transform="translate(-20.486 -11.899)"/><path class="f" d="M148.755,83.4h31.663a8.265,8.265,0,0,1,8.265,8.265v3.757a8.265,8.265,0,0,1-8.265,8.265H148.755a8.265,8.265,0,0,1-8.265-8.265V91.665a8.34,8.34,0,0,1,8.265-8.265Z" transform="translate(-13.624 -15.352)"/><path class="f" d="M203.154,172.1H237.94a8.265,8.265,0,0,1,8.265,8.265v27.37A8.265,8.265,0,0,1,237.94,216H203.165a8.265,8.265,0,0,1-8.265-8.265v-27.37a8.2,8.2,0,0,1,8.136-8.265Z" transform="translate(-9.635 -8.849)"/><path class="f" d="M259.155,82.8h37.888a8.265,8.265,0,0,1,8.265,8.265h0v50.768a8.264,8.264,0,0,1-8.265,8.265H259.155a8.265,8.265,0,0,1-8.265-8.265V90.957a8.318,8.318,0,0,1,8.265-8.157Z" transform="translate(-5.53 -15.396)"/><path class="f" d="M314.158,151.9h35.752a6.848,6.848,0,0,1,6.869,6.826h0a6.848,6.848,0,0,1-6.826,6.869H314.169a6.848,6.848,0,0,1-6.869-6.826h0a6.848,6.848,0,0,1,6.826-6.869Z" transform="translate(-1.394 -10.33)"/><path class="g" d="M314.158,167.8h35.752a6.848,6.848,0,0,1,6.869,6.826h0a6.848,6.848,0,0,1-6.826,6.869H314.169a6.848,6.848,0,0,1-6.869-6.826h0a6.848,6.848,0,0,1,6.826-6.869Z" transform="translate(-1.394 -9.164)"/><path class="g" d="M202.559,84H238.3a6.848,6.848,0,0,1,6.869,6.826h0a6.848,6.848,0,0,1-6.826,6.869H202.559a6.848,6.848,0,0,1-6.869-6.826h0A6.9,6.9,0,0,1,202.559,84Z" transform="translate(-9.577 -15.308)"/><path class="g" d="M202.559,155.1H238.3a6.848,6.848,0,0,1,6.869,6.826h0a6.848,6.848,0,0,1-6.826,6.869H202.559a6.848,6.848,0,0,1-6.869-6.826h0a6.987,6.987,0,0,1,6.869-6.869Z" transform="translate(-9.577 -10.095)"/><path class="h" d="M203.954,100.9h32.854a8.265,8.265,0,0,1,8.265,8.265V146.3a8.265,8.265,0,0,1-8.265,8.265H203.965A8.265,8.265,0,0,1,195.7,146.3V109.165A8.4,8.4,0,0,1,203.954,100.9Z" transform="translate(-9.576 -14.069)"/><path class="h" d="M316.055,83.2h31.126a8.265,8.265,0,0,1,8.265,8.265h0V144.7a8.265,8.265,0,0,1-8.265,8.265H316.055a8.265,8.265,0,0,1-8.265-8.265h0V91.465a8.265,8.265,0,0,1,8.265-8.265Z" transform="translate(-1.358 -15.366)"/><path class="i" d="M147.855,106H180.7a8.265,8.265,0,0,1,8.265,8.265v50.124a8.265,8.265,0,0,1-8.265,8.265H147.855a8.265,8.265,0,0,1-8.265-8.265V114.265A8.34,8.34,0,0,1,147.855,106Z" transform="translate(-13.69 -13.695)"/><path class="i" d="M259.655,149.2h37.137a8.265,8.265,0,0,1,8.265,8.265h0v.322a8.265,8.265,0,0,1-8.265,8.265H259.655a8.265,8.265,0,0,1-8.265-8.265v-.322A8.34,8.34,0,0,1,259.655,149.2Z" transform="translate(-5.493 -10.528)"/><path class="c" d="M140.554,50.5H229.21a3.853,3.853,0,0,1,3.864,3.842h0a3.853,3.853,0,0,1-3.842,3.864H140.554a3.853,3.853,0,0,1-3.864-3.842h0a3.843,3.843,0,0,1,3.821-3.864Z" transform="translate(-13.903 -17.764)"/></g><g transform="translate(346.359 49.597)"><path class="j" d="M498,366.159l.376,13.363,6.923,7.8,3.166-9.885-1.932-12.73Z" transform="translate(-309.848 -44.324)"/><path class="k" d="M498.376,375.42,498,386.615a7.213,7.213,0,0,0,4.293,6.966,3.9,3.9,0,0,0,5.195-1.642c3.757-5.528,1.02-15.284,1.02-15.284S502.8,386.829,498.376,375.42Z" transform="translate(-309.848 -43.539)"/><path class="j" d="M454.541,368.214v4.293l-12.021,3.327h24.257l-2.683-9.875Z" transform="translate(-313.915 -44.233)"/><path class="k" d="M443.811,375.033a15.484,15.484,0,0,1-2.233.29,4.1,4.1,0,0,0-2.758,2.243c-.612,1.846-.429,3.08,2.2,3.939,2.093.7,16.776.279,22.54.086a4.658,4.658,0,0,0,4.529-3.875,4.776,4.776,0,0,0-1.46-3.961s-10.733,2.147-16.347-.526Z" transform="translate(-314.208 -43.7)"/><path class="e" d="M341.064,103.1l32.521,9.016-16.218,32.736L322.7,131.328S340.528,112.76,341.064,103.1Z" transform="translate(-322.7 -63.505)"/><path class="l" d="M460.861,73.5s-6.225,5.474-2.469,8.05,6.333-2.361,6.333-2.361Z" transform="translate(-312.84 -65.675)"/><path class="j" d="M464.21,118.349,466.679,98.6l10.733.537v19.212Z" transform="translate(-312.325 -63.835)"/><path class="m" d="M466.269,102.154,477.324,99.9,465.41,110.526Z" transform="translate(-312.237 -63.739)"/><path class="j" d="M482.664,88.264c-.107,8.587-5.689,17.388-12.343,17.388S458.3,97.28,458.3,86.976,463.667,68.3,470.321,68.3c5.8,0,11.914,8.05,12.987,16.529C483.641,86.01,482.782,86.976,482.664,88.264Z" transform="translate(-312.758 -66.056)"/><path class="n" d="M368.91,136.086l5.581-10.626,46.035,23.506s24.257-39.176,30.482-40.035,21.252,0,21.252,0,.107,4.293,6.333,3.864,6.333-3.971,6.333-3.971,18.89-1.825,22.325,2.9c6.225,8.372,2.147,106.688,2.147,106.688l-55.49-4.079,2.039-86.08L427.932,160.88a9.853,9.853,0,0,1-12.343,2.147Z" transform="translate(-319.312 -63.111)"/><path class="m" d="M492.11,134.482l9.231,66.653-.859,16.314,2.469-58.388L495.974,120.1Z" transform="translate(-310.28 -62.258)"/><path class="o" d="M517.345,186.091c-7.835,7.191-44.435-16.314-44.435-16.314l2.039-8.157L505,173.1s-25.438-62.789-8.05-63C508.007,109.993,525.181,178.9,517.345,186.091Z" transform="translate(-311.687 -62.992)"/><path class="p" d="M448.931,206.9,436.91,284.608l15.778,98.208,15.563,1.288-15.563-99.6,30.8-75.239" transform="translate(-314.327 -55.895)"/><path class="e" d="M457.383,148l18.783,2.147L470.584,180.2,449,174.94Z" transform="translate(-313.44 -60.213)"/><path class="q" d="M502,210.954l9.875,169.477L497.8,382.9,471.4,208.7Z" transform="translate(-311.798 -55.763)"/><path class="l" d="M462.856,68.561s-7.835-.537-6.333,5.689,5.045,8.05,8.372,5.474,5.8,2.791,8.157,1.825a18.108,18.108,0,0,0,4.937-3.113v9.231c0,.215.215.537.429.537a.558.558,0,0,0,.429-.215c.966-1.932,4.937-4.079,3.649,3.435-.644,3.649,5.689-11.377,4.83-13.846s1.5-4.937-4.723-7.835-6.118-3.864-10.411-3.435a48.943,48.943,0,0,0-9.338,2.254Z" transform="translate(-312.903 -66.209)"/><path class="j" d="M475.755,158.171c-11.7-3.649-17.066,3.327-11.806,5.9a108.754,108.754,0,0,0,14.382,5.152Z" transform="translate(-312.493 -59.543)"/><path class="j" d="M376.722,127.174l-13.2-5.474-1.61,5.474,13.2,6.655Z" transform="translate(-319.825 -62.141)"/><ellipse class="j" cx="4.401" cy="9.445" rx="4.401" ry="9.445" transform="translate(28.491 59.429) rotate(-63.64)"/><circle class="r" cx="2.361" cy="2.361" r="2.361" transform="translate(147.699 24.139)"/><circle class="r" cx="2.361" cy="2.361" r="2.361" transform="translate(160.15 23.388)"/><path class="s" d="M467.907,86.8l-1.4,6.011a.676.676,0,0,0,.429.837h.107l1.181.322" transform="translate(-312.158 -64.7)"/><path class="s" d="M465.61,95.944a2.876,2.876,0,0,0,2.9,2.361c2.683.215,3.22-3.005,3.22-3.005" transform="translate(-312.222 -64.077)"/><circle class="t" cx="0.859" cy="0.859" r="0.859" transform="translate(151.563 20.061)"/><circle class="t" cx="0.859" cy="0.859" r="0.859" transform="translate(158.754 20.276)"/><path class="m" d="M473.135,212.7,450.81,282.573,475.5,226.009Z" transform="translate(-313.307 -55.469)"/><path class="m" d="M423.91,159.688,451.28,121.8l.644,5.259Z" transform="translate(-315.28 -62.134)"/></g><g transform="translate(0 65.323)"><path class="j" d="M57.9,116.2a50.367,50.367,0,0,0,2.683,4.508c.966,1.073-2.254,2.147-2.254,2.147" transform="translate(4.245 -78.27)"/><path class="j" d="M17.413,182.911s-2.576,10.84-1.288,14.812,21.359-2.254,21.359-2.254L39.63,178.94Z" transform="translate(1.156 -73.67)"/><path class="j" d="M67.2,148.324l41.43-18.783L122.261,90l2.9,3.971-8.694,49.051L70.527,160.195Z" transform="translate(4.927 -80.19)"/><ellipse class="j" cx="14.06" cy="19.427" rx="14.06" ry="19.427" transform="translate(34.99 20.693)"/><path class="j" d="M39.754,132.843,37.5,149.372l7.728-1.61,2.683-16.422Z" transform="translate(2.749 -77.16)"/><path class="j" d="M29.033,264.64l14.06,1.073s-6.547,58.6-7.084,60.213c-2.576,8.372-23.935,71.8-23.935,71.8L2.2,397.195l20.286-70.839Z" transform="translate(0.161 -67.386)"/><path class="j" d="M52.5,267h9.875l10.948,63L45.2,398.159l-8.8-1.61L60.872,327.32Z" transform="translate(2.669 -67.213)"/><path class="u" d="M41.066,100.17s-11.7-2.469-14.919,8.694,5.474,23.677,13.416,27.971,9.875-18.354,13.2-26.3,13.2,0,2.147-10.626C49.331,94.739,41.066,100.17,41.066,100.17Z" transform="translate(1.867 -79.627)"/><path class="m" d="M52.8,277.543l1.932,13.588,9.875-9.767L52.8,277.5" transform="translate(3.871 -66.444)"/><path class="m" d="M26.2,274.84l-1.5,13.738,15.241-8.694Z" transform="translate(1.811 -66.639)"/><path class="u" d="M29.89,110.523c-.537-1.5-12.45-5.474-15.241.537s2.254,33.7-1.5,35.956,9.231-3.542,10.948-9.982.537-20.393,3.22-21.681S29.89,110.523,29.89,110.523Z" transform="translate(0.914 -78.882)"/><path class="b" d="M34.453,205.378,0,286.027s19.212-9.338,36.922-2.039,50.983,4.186,54.632-2.039-27.8-82.109-27.8-82.109Z" transform="translate(0 -72.137)"/><path class="v" d="M24.121,153c-5.8,3.757-7.621,36.278-7.621,36.278l11.055-.537S32.6,204.3,30.882,210.528c-1.825,6.762,35.1-4.4,35.1-4.4l-.215-39.97L85.944,154.78,81.865,137.5l-21.037,3.542S28.736,150.058,24.121,153Z" transform="translate(1.21 -76.708)"/><path class="m" d="M21.3,277.464c0-.751,11.806-34.024,11.806-34.024l2.254,37.308Z" transform="translate(1.562 -68.941)"/><path class="m" d="M56.7,284.236l.537-42.4,12.88,42.718Z" transform="translate(4.157 -69.058)"/><path class="m" d="M61.6,208l17.066,77.171s7.835-.751,8.909-4.723-13.631-48.256-18.032-55.276S61.6,208,61.6,208Z" transform="translate(4.516 -71.539)"/><path class="m" d="M62.891,164.977,55.7,160.04l27.37-6.44Z" transform="translate(4.084 -75.527)"/><path class="m" d="M78.3,141.2l2.576,10.948,5.259-1.717Z" transform="translate(5.741 -76.437)"/><path class="m" d="M27.294,186.835,28.26,162.9,18.6,187.05Z" transform="translate(1.364 -74.846)"/><path class="m" d="M39.2,134.34l7.728,2.147-.966,4.937Z" transform="translate(2.874 -76.94)"/><circle class="t" cx="0.859" cy="0.859" r="0.859" transform="translate(58.71 34.646)"/><path class="s" d="M54.9,126a2.34,2.34,0,0,0,2.147,1.5" transform="translate(4.025 -77.551)"/><circle class="r" cx="2.361" cy="2.361" r="2.361" transform="translate(55.276 40.549)"/><path class="q" d="M2.153,388.193s8.479-1.825,13.953.107,8.479,7.513,2.039,6.869c-4.079-.429-10.089-.859-14.06-1.181a2.866,2.866,0,0,1-2.7-3.016c0-.075,0-.14,0-.2s.107-.537.107-.751Z" transform="translate(0.101 -58.385)"/><path class="q" d="M36.374,387.593s8.479-1.825,13.953.107,8.479,7.513,2.039,6.869c-4.4-.429-11.055-.966-14.919-1.181a2.286,2.286,0,0,1-2.147-2.436h0a.794.794,0,0,1,.107-.537Z" transform="translate(2.587 -58.429)"/><ellipse class="j" cx="7.835" cy="3.971" rx="7.835" ry="3.971" transform="translate(123.386 13.977) rotate(-63.12)"/></g></g><path class="w" d="M400.066,95.573h-32.2a5.367,5.367,0,0,1-5.367-5.367v-32.2a5.367,5.367,0,0,1,5.367-5.367h32.2a5.367,5.367,0,0,1,5.367,5.367v32.2A5.452,5.452,0,0,1,400.066,95.573Z" transform="translate(26.577 3.859)"/><g transform="translate(394.44 61.838)"><path class="x" d="M375.121,57.642c-2.576.107-4.186.644-5.474,2.039a8.211,8.211,0,0,0-2.147,5.8V82.543A7.825,7.825,0,0,0,369.54,87.8a7.213,7.213,0,0,0,5.689,2.039h17.066c.859-.107,1.288-.107,1.825-.215A6.8,6.8,0,0,0,399.27,84.9a9.251,9.251,0,0,0,.429-2.361V65.37c-.107-2.683-.644-4.293-2.039-5.689a7.213,7.213,0,0,0-5.689-2.039H375.121m12.343,6.118v2.254h-.429V65.37l-.107.107a1.2,1.2,0,0,1-1.685.247,1.074,1.074,0,0,1-.247-.247,1.728,1.728,0,0,1-.322-1.181A1.513,1.513,0,0,1,385,63.116a1.363,1.363,0,0,1,1.932,0h0V61.463h.429l.107,2.254m-13.416-.322c.429.966.751,1.717.751,1.717a11.1,11.1,0,0,0,.751-1.717l.751-1.717h.429v4.293H376.3v-3.22l-.644,1.4-.644,1.4h-.429l-.644-1.4a8.22,8.22,0,0,1-.644-1.4v3.22h-.429V61.678h.429l.751,1.717m5.474-.644a1.17,1.17,0,0,1,.859.859,2.747,2.747,0,0,1,0,1.61,1.406,1.406,0,0,1-1.814.805,1.384,1.384,0,0,1-.762-.7,2.662,2.662,0,0,1,0-1.825,1.352,1.352,0,0,1,1.717-.751m3.649,0a1.073,1.073,0,0,1,.751.751v2.469h-.429V64.79c0-1.181,0-1.181-.107-1.4a.9.9,0,0,0-1.245-.258.976.976,0,0,0-.258.258c-.107.215-.107.215-.107,1.4v1.181h-.429v-3.22h.429v.215c0,.322,0,.322.107.107a1.073,1.073,0,0,1,1.288-.322m6.869,0a1.073,1.073,0,0,1,.751.751v2.469h-.429v-.322l-.107.107a1.309,1.309,0,0,1-1.717.107.912.912,0,0,1-.075-1.288,1.127,1.127,0,0,1,.29-.215,2.318,2.318,0,0,1,1.073-.215h.429v-.215c0-.644-.215-.859-.751-.859a.6.6,0,0,0-.644.429v.107h-.429V63.5a1.17,1.17,0,0,1,.966-.859c.215,0,.537,0,.644.107m2.039.429a10.473,10.473,0,0,1,.429,1.4,5.111,5.111,0,0,1,.322.966s.215-.644.429-1.4l.429-1.4h.644a12.321,12.321,0,0,0-.537,1.61c-.751,2.147-.751,2.147-.966,2.361-.215.429-.537.429-1.073.429h-.107v-.429h.215c.429,0,.537-.107.644-.537l.107-.215-.537-1.717a7.417,7.417,0,0,1-.537-1.717h.644l-.107.644m-13.2-.107a.891.891,0,0,0-.537.537,2.394,2.394,0,0,0,0,1.5.923.923,0,0,0,1.234.376.9.9,0,0,0,.376-.376,2.147,2.147,0,0,0,0-1.61,1.181,1.181,0,0,0-1.073-.429m7.084,0c-.429.107-.644.429-.644,1.073-.107.966.215,1.4.751,1.5s.859-.215,1.073-.751a2.2,2.2,0,0,0,0-1.181c-.322-.429-.751-.751-1.181-.644m3.435,1.4a.558.558,0,0,0-.515.6.461.461,0,0,0,.086.258.859.859,0,0,0,1.213.107.88.88,0,0,0,.182-.215.794.794,0,0,0,.107-.537v-.215H389.4m-9.875,12.021V84h-.644V69.835s-.859.537-1.932,1.181-1.932,1.181-1.932,1.181v-.644l1.932-1.181,1.932-1.181h.644v7.3M392.187,69.3v.322l-3.327,7.191L385.532,84h-.859s1.5-3.22,3.327-7.191,3.327-7.191,3.327-7.191h-8.265v-.644h9.016l.107.322" transform="translate(-367.496 -57.614)"/><path class="y" d="M386.775,62.051c0,.859,0,.859-.107.751a1.277,1.277,0,0,0-1.792-.1,1.169,1.169,0,0,0-.247.311,2.147,2.147,0,0,0,.107,2.147,1.267,1.267,0,0,0,1.75.29,1.234,1.234,0,0,0,.29-.29V65.7h.429V61.3h-.429v.751m-14.275,1.5V65.7h.429v-3.22s.322.644.644,1.4a8.226,8.226,0,0,1,.644,1.4h.429l.215-.429c.107-.215.429-.859.644-1.4a3.876,3.876,0,0,0,.429-1.073v3.22h.429V61.3h-.429v.107c-.429,1.073-1.4,3.435-1.4,3.435a11.1,11.1,0,0,1-.751-1.717l-.751-1.717h-.429l-.107,2.147m6.011-1.181c-.751.107-1.181.644-1.181,1.717s.429,1.61,1.288,1.717c1.073.107,1.61-.644,1.5-2.039a1.406,1.406,0,0,0-1.406-1.406h-.2m3.649,0a1.76,1.76,0,0,0-.751.429h0v-.429h-.429v3.22h.429v-1.17c0-1.181,0-1.181.107-1.4a.9.9,0,0,1,1.245-.258.977.977,0,0,1,.258.258c.107.215.107.215.107,1.4v1.073h.429V64.305c0-1.288,0-1.288-.107-1.5a1.546,1.546,0,0,0-1.288-.429m6.977,0c-.537.107-.966.429-.966.966h.429v-.107c.107-.429.429-.537.859-.429s.537.322.537.859v.215h-.537c-.537,0-.644,0-.859.107a.945.945,0,0,0,.215,1.825,1.385,1.385,0,0,0,1.288-.429c.107-.107.107-.107.107.215v.215h.429V64.627c0-1.4,0-1.288-.107-1.5a1.674,1.674,0,0,0-1.4-.751m1.932.107a10.618,10.618,0,0,1,.537,1.717l.537,1.61v.215c-.107.429-.322.537-.644.537h-.215v.429h.107a1.073,1.073,0,0,0,1.181-.537c.107-.215,1.4-3.757,1.4-3.864h-.537l-.429,1.4a7,7,0,0,0-.429,1.4s-.215-.537-.429-1.288-.429-1.288-.429-1.4a1.073,1.073,0,0,0-.644-.215M378.94,62.8c.429.107.751.644.644,1.5-.107.644-.429,1.073-.966,1.073s-.966-.429-.966-1.4.537-1.4,1.288-1.181m7.084,0c.215.107.429.215.429.429a2.146,2.146,0,0,1,0,1.61.848.848,0,0,1-1.138.419.794.794,0,0,1-.365-.311,2.372,2.372,0,0,1,0-1.717c.322-.429.644-.644,1.073-.429m4.079,1.61c0,.429,0,.429-.215.644a.837.837,0,0,1-1.073.215.547.547,0,0,1-.29-.73.493.493,0,0,1,.182-.236,1.385,1.385,0,0,1,.751-.107h.429l.215.215" transform="translate(-367.129 -57.344)"/><path class="z" d="M376.432,69.438,374.5,70.619v.6s.859-.537,1.932-1.181,1.932-1.181,1.932-1.181V83.026h.644V68h-.644l-1.932,1.4m6.225-.859v.322h8.157s-1.4,3.113-3.22,6.977-3.22,7.084-3.327,7.191l-.107.215h.859l3.327-7.191,3.327-7.191v-.644h-9.016v.322" transform="translate(-366.983 -56.852)"/><path class="aa" d="M378.1,75.443v7.041h0V75.4" transform="translate(-366.719 -56.31)"/><path class="ab" d="M378.3,68.24h0m8.587,0h0" transform="translate(-366.704 -56.835)"/></g><path class="w" d="M293.806,42.933h-32.2a5.367,5.367,0,0,1-5.367-5.367V5.367A5.367,5.367,0,0,1,261.607,0h32.2a5.367,5.367,0,0,1,5.367,5.367h0v32.2A5.367,5.367,0,0,1,293.806,42.933Z" transform="translate(18.787)"/><g transform="translate(280.957 7.148)"><path class="x" d="M269,15.7c-2.361.322-3.757,2.039-3.757,4.615a4.057,4.057,0,0,0,3.327,4.4,5.839,5.839,0,0,0,1.932,0c2.147-.429,3.327-2.147,3.327-4.615a4.057,4.057,0,0,0-3.327-4.4H269m.966,1.5c1.288.215,2.039,1.288,2.039,3.113s-.859,3.005-2.469,3.005-2.469-1.181-2.469-3.005c0-2.039,1.181-3.327,2.9-3.113" transform="translate(-261.512 -5.997)"/><path class="ac" d="M271.4,6.7a1.17,1.17,0,0,0-.859.859l-.107.215v5.367h-7.621a1.449,1.449,0,0,0-.966.966c-.107.322-.107,13.738,0,13.953a1.309,1.309,0,0,0,.966.859H276.55a1.267,1.267,0,0,0,.966-.966V14.216l-.107-.107a1.535,1.535,0,0,0-.966-.859h.322c.429,0,.429,0,.537.107l.215.107V11.1h13.631V9.451c0-1.61,0-1.61-.107-1.717a1.181,1.181,0,0,0-.859-.859l-.215-.107H271.291l.107-.107m6.547,6.655h0l.215.107-.215-.107h0m-7.3,3.005a4.154,4.154,0,0,1,3.435,4.615c-.107,2.791-1.717,4.508-4.293,4.508-3.005,0-4.83-2.576-4.186-5.8a4.175,4.175,0,0,1,4.851-3.37h.193m7.728,4.293v3.22h0v2.361l.322.215c.215.107.751.429,1.181.644s.966.537.966.537c.215.107,0,.215,2.039-.966.966-.537,1.825-.966,1.932-1.073a10.819,10.819,0,0,0,1.717-.966l1.61-.859h-3.22v-6.44h-6.44V20.57m-9.23-2.683c-1.181.215-1.825,1.181-2.039,2.683-.215,2.039.966,3.435,2.576,3.327,1.4-.107,2.254-1.181,2.254-3.005.215-2.147-1.073-3.435-2.791-3.005m23.506,3.971h0c0,.107-.107.107,0,0a.1.1,0,0,1-.107.107h0a.1.1,0,0,0-.107.107h0l-.107.107-.107.107h0l-.429.215-.429.215v-.859l-1.61.859-1.61.859h1.5l-1.825,1.073c-.966.537-2.361,1.288-2.9,1.61a23.45,23.45,0,0,0-2.254,1.288c-1.181.644-1.4.751-1.61.751s10.411,6.225,11.055,6.547h.107l.107-.107a1.31,1.31,0,0,0,.322-.537V21.9m-14.382,6.655a1.406,1.406,0,0,1-.644.966c-.322.215-.107.107-4.615.107h-4.079v1.5h8.372a1.674,1.674,0,0,0,.859-.644c.215-.322.215-.322.215-1.181-.107-.644-.107-.859-.107-.751" transform="translate(-261.765 -6.66)"/><path class="ad" d="M284.586,13.92v3.22h6.44V10.7h-6.44v3.22M266.34,17.247h0c.107-.107.215-.107,0,0h0m0,6.762.107.107-.107-.107h0m6.011.107h0c.107,0,.107-.107,0,0h0" transform="translate(-261.43 -6.364)"/><path class="ae" d="M280.786,10.6h-3.649v2.361l.107.107a1.406,1.406,0,0,1,.537.751v3.327h6.44v-6.44h3.22c-1.61-.107-4.615-.107-6.655-.107m-8.522,6.655.107.107a.1.1,0,0,0-.107-.107h0c-.107-.107,0-.107,0,0m15.348-.107h-3.22v6.44h3.22l1.61-.859,1.61-.859V17.147h-3.22m-16.744,1.073.107.107-.107-.107-.107-.107.107.107m6.977,9.982c0,1.61,0,1.5-.215,1.825a1.342,1.342,0,0,1-.859.644H268.4v1.5c0,1.717,0,1.717.215,2.039a1.653,1.653,0,0,0,.966.751c.215.107,21.359.107,21.574,0a4.661,4.661,0,0,1,.537-.215s-2.361-1.4-5.152-3.005c-5.045-3.005-7.084-4.186-7.621-4.508-.107-.107-.429-.215-.537-.322a1.3,1.3,0,0,1-.322-.215c-.215.107-.215.751-.215,1.5" transform="translate(-261.279 -6.371)"/><path class="af" d="M276.153,12.715a1.31,1.31,0,0,1,.966.859l.107.107V27.42a1.266,1.266,0,0,1-.966.966H268.64v.644h4.079c4.83,0,4.508,0,4.937-.429s.429-.537.429-1.5v-.644s1.825,1.073,2.254,1.288.537.322,2.039-.537c.644-.322,1.61-.966,2.254-1.288s1.932-1.073,2.9-1.61l1.825-1.073h-1.717l-1.61.859c-.859.537-1.717.966-1.717.966s-.859.537-1.825,1.073c-2.039,1.181-1.825,1.073-2.039.966a6.515,6.515,0,0,0-.966-.537c-.429-.215-.966-.537-1.181-.644l-.322-.215V23.341h0v-9.66l-.107-.215a1.428,1.428,0,0,0-1.5-.966c-.215.215-.322.215-.215.215m14.7,8.587v1.181h.107s.322-.215.537-.322c.644-.429.751-.537.751-.859s-.322-.644-1.4-1.181V21.3" transform="translate(-261.261 -6.232)"/></g><path class="ag" d="M199.156,128.933h-32.2a5.367,5.367,0,0,1-5.367-5.367v-32.2A5.367,5.367,0,0,1,166.957,86h32.2a5.367,5.367,0,0,1,5.367,5.367v32.2A5.367,5.367,0,0,1,199.156,128.933Z" transform="translate(11.847 6.305)"/><path class="ah" d="M186.477,90.71s-17.645,6.6-17.667,6.622,0,4.465,0,9.9V117.1l2.147-.859,2.995-1.17.794-.311v-16.1s11.6-2.791,11.635-2.78,0,23.613,0,23.613-3.95-.526-8.748-1.191l-8.748-1.191s3.885,1.46,8.683,3.22,8.747,3.22,8.8,3.22,2.275-.6,4.948-1.342l4.851-1.342V93.511l-4.8-1.417Z" transform="translate(12.376 6.651)"/><path class="w" d="M397.266,232.773h-32.2a5.367,5.367,0,0,1-5.367-5.367v-32.2a5.367,5.367,0,0,1,5.367-5.367h32.2a5.367,5.367,0,0,1,5.367,5.367v32.2A5.367,5.367,0,0,1,397.266,232.773Z" transform="translate(26.372 13.918)"/><g transform="translate(391.358 210.95)"><path class="ai" d="M365.672,202.2a1.706,1.706,0,0,0-.966.966c-.107.215-.107,14.168,0,14.382a1.449,1.449,0,0,0,.966.966c.215.107,14.06.107,14.382,0a1.535,1.535,0,0,0,.966-.859l.107-.107V203.382a1.374,1.374,0,0,0-1.073-1.073c-.322-.215-14.168-.107-14.382-.107m9.875,4.4v.751h-3.864V209.5h3.649V211h-3.649v2.361h4.079v1.5h-5.8v-8.8h5.581v.537m10.626,3.757a3.649,3.649,0,0,0-3.327,3.005c0,.215,0,.537-.107,3.649v3.435l1.825,1.825c1.932,1.932,1.932,1.932,2.361,2.039l.215.107h3.971c4.4,0,4.079,0,4.508-.215a1.91,1.91,0,0,0,1.073-1.288l.107-.215v-3.971c0-4.186,0-4.079-.107-4.4s-.215-.429-2.039-2.361l-1.825-1.825h-3.22a30.574,30.574,0,0,1-3.435.215m-4.508,8.157v.644l-.107.107a1.32,1.32,0,0,1-.859.429H368.892v.537h11.914a1.535,1.535,0,0,0,.966-.859c-.107-.215-.107-.322-.107-.859h0" transform="translate(-364.625 -196.127)"/><path class="aj" d="M370.11,196.755a2.147,2.147,0,0,0-1.5,1.5c0,.107,0,.322-.107,2.254v2.039h11.806l.215.107a1.127,1.127,0,0,1,.751.644c.215.322.107.215.107,3.435v3.005l.107-.107a4.293,4.293,0,0,0,.859-1.4c.215-.537.215-.429.215-4.186v-3.435l-1.825-1.825c-1.932-1.932-1.932-1.932-2.361-2.147l-.215-.107h-3.971c-3.005.215-3.971.215-4.079.215M371.4,212.64v1.181h0V212.64" transform="translate(-364.341 -196.54)"/><path class="ae" d="M386.968,196.848c-.537.107-.537.107-2.576,2.147l-1.825,1.825v3.327c0,3.757,0,3.649-.215,4.186a3.756,3.756,0,0,1-.859,1.4l-.215.215v9.982a1.449,1.449,0,0,1-.966.966H368.4v1.073c0,1.717.107,2.147.859,2.683s.215.429,4.83.429c4.4,0,4.079,0,4.508-.215l.215-.107,1.825-1.825,1.825-1.825v-3.478c0-3.757,0-3.542.215-4.186a3.95,3.95,0,0,1,2.361-2.361c.537-.215.429-.215,4.186-.215h3.435l1.825-1.825c1.932-1.932,1.932-1.932,2.147-2.361l.107-.215v-8.157a2.147,2.147,0,0,0-1.5-1.5c-.429-.107-8.05-.107-8.265,0m-6.011,6.118.107.107-.107-.107a.1.1,0,0,0-.107-.107h0l.107.107" transform="translate(-364.348 -196.526)"/><path class="ak" d="M369.6,210.141v4.4h5.8v-1.5h-4.079v-2.361h3.649v-1.288h-3.649v-2.147h3.864v-1.5H369.6v4.4" transform="translate(-364.26 -195.865)"/><path class="al" d="M379.785,202.2a1.138,1.138,0,0,1,.966,1.073v14.168l-.107.107a1.535,1.535,0,0,1-.966.859c-.215,0-.322.107-5.8.107H368.3v1.073h5.8c6.547,0,6.011,0,6.44-.215.215-.107.537-.322.537-.322v-16.1c.107-.429-.429-.751-1.288-.751h0" transform="translate(-364.356 -196.125)"/></g><path class="w" d="M294.066,274.013h-32.2a5.367,5.367,0,0,1-5.367-5.367v-32.2a5.367,5.367,0,0,1,5.367-5.367h32.2a5.367,5.367,0,0,1,5.367,5.367v32.2A5.367,5.367,0,0,1,294.066,274.013Z" transform="translate(18.806 16.942)"/><g transform="translate(280.028 252.487)"><path class="x" d="M268.4,251.689V260.6h17.817V242.78H268.4v8.909m6.333-5.259c2.683.429,3.542,3.435,1.5,4.83-.322.215-.322.215,0,.322,2.361,1.181,1.932,4.508-.751,5.367a3.8,3.8,0,0,1-4.83-2.254c-.107-.215-.215-.215.751-.537s.751-.322.859-.107a1.932,1.932,0,0,0,1.932,1.5,1.632,1.632,0,1,0,.537-3.22,5.688,5.688,0,0,0-.859-.107h-.751v-1.5h.644c.537,0,.644,0,.751-.107,1.5-.537,1.5-2.469-.107-2.683a1.631,1.631,0,0,0-1.932.966.4.4,0,0,0-.107.322,9.742,9.742,0,0,1-1.5-.644c-.107-.107.322-.859.751-1.181a3.681,3.681,0,0,1,1.932-.966h1.181m8.479,5.367v5.173h-1.717v-8.157l-.859.644-.859.644-.429-.644-.429-.644,1.5-1.073,1.5-1.073H283v5.152" transform="translate(-260.35 -234.687)"/><path class="am" d="M260.9,262.278v2.9l.107.215a2.608,2.608,0,0,0,1.825,1.825l.215.107H286.66V259.38H260.9v2.9" transform="translate(-260.9 -233.47)"/><path class="an" d="M285,255.66v12.88l3.971-3.971,3.971-3.971V242.78H285v12.88" transform="translate(-259.133 -234.687)"/><path class="ao" d="M285,239.274v3.971h7.943v-5.839l-.107-.215a2.608,2.608,0,0,0-1.825-1.825l-.215-.107H285v3.971" transform="translate(-259.133 -235.239)"/><path class="ap" d="M263.039,235.39A2.651,2.651,0,0,0,261,237.43v23.613h7.943V243.225H286.76V235.24H274.953c-10.3,0-11.806,0-11.914.107m11.055,11.592a2.812,2.812,0,0,0-1.932.966c-.429.429-.859,1.181-.751,1.181l1.5.644a.44.44,0,0,0,.107-.322,1.8,1.8,0,0,1,1.932-.966,1.352,1.352,0,0,1,.107,2.683,2.952,2.952,0,0,0-.751.107h-.644v1.5h.751c.644,0,.751,0,.859.107,2.039.644,1.61,3.113-.537,3.22a1.857,1.857,0,0,1-1.932-1.5c-.107-.215,0-.215-.859.107s-.751.322-.751.537a3.789,3.789,0,0,0,4.83,2.254,2.93,2.93,0,0,0,.751-5.367c-.215-.107-.215-.107,0-.322a2.555,2.555,0,0,0-.429-4.508,5.216,5.216,0,0,0-2.254-.322m6.977,1.288-1.5,1.073.429.644.429.644a3.82,3.82,0,0,0,.859-.644l.859-.644v8.157h1.717v-10.3h-1.073l-1.717,1.073" transform="translate(-260.893 -235.24)"/></g></svg>