<svg xmlns="http://www.w3.org/2000/svg" xmlns:xlink="http://www.w3.org/1999/xlink" width="1084" zoomAndPan="magnify" viewBox="0 0 812.88 554.249966" height="739" preserveAspectRatio="xMidYMid meet" version="1.2"><defs><clipPath id="6f9a70c4ed"><path d="M 0.488281 0 L 812.269531 0 L 812.269531 553.5 L 0.488281 553.5 Z M 0.488281 0 "/></clipPath><filter x="0%" y="0%" width="100%" filterUnits="objectBoundingBox" id="56835234a8" height="100%"><feColorMatrix values="0 0 0 0 1 0 0 0 0 1 0 0 0 0 1 0 0 0 1 0" type="matrix" in="SourceGraphic"/></filter><clipPath id="7a873f3441"><path d="M 210 15 L 812.269531 15 L 812.269531 553.171875 L 210 553.171875 Z M 210 15 "/></clipPath><clipPath id="0a5680176b"><path d="M 0.683594 215 L 408 215 L 408 459 L 0.683594 459 Z M 0.683594 215 "/></clipPath><clipPath id="9483e21ce4"><path d="M 275 0.242188 L 602 0.242188 L 602 184 L 275 184 Z M 275 0.242188 "/></clipPath><clipPath id="318ef6cd4d"><rect x="0" width="603" y="0" height="539"/></clipPath><clipPath id="7e47c6cbd4"><path d="M 1.160156 0 L 421.34375 0 L 421.34375 226 L 1.160156 226 Z M 1.160156 0 "/></clipPath><clipPath id="ac514f98db"><rect x="0" width="423" y="0" height="227"/></clipPath><clipPath id="bfc9f3e5cc"><path d="M 0.488281 40.328125 L 420.671875 40.328125 L 420.671875 266.523438 L 0.488281 266.523438 Z M 0.488281 40.328125 "/></clipPath><clipPath id="e11f65043f"><rect x="0" width="813" y="0" height="554"/></clipPath></defs><g id="bc0994ddcb"><g clip-rule="nonzero" clip-path="url(#6f9a70c4ed)"><g mask="url(#a59440c1f4)" transform="matrix(1,0,0,1,0.000000000000000056,0.000000000000017092)"><g clip-path="url(#e11f65043f)"><g clip-rule="nonzero" clip-path="url(#7a873f3441)"><g mask="url(#20569a837f)" transform="matrix(1,0,0,1,210,15)"><g id="c110db18c0" clip-path="url(#318ef6cd4d)"><g clip-rule="nonzero" clip-path="url(#0a5680176b)"><path style=" stroke:none;fill-rule:nonzero;fill:#eb8b56;fill-opacity:1;" d="M 143.667969 287.945312 C 143.96875 286.566406 144.417969 285.425781 144.546875 284.253906 C 145.128906 279.027344 146.582031 274.007812 148.34375 269.101562 C 150.414062 263.332031 152.863281 257.699219 155.882812 252.347656 C 157.566406 249.367188 159.363281 246.457031 161.699219 243.90625 C 163.121094 242.355469 164.234375 240.503906 165.742188 239.058594 C 168.335938 236.570312 171.03125 234.167969 173.867188 231.960938 C 176.378906 230 179.050781 228.207031 181.804688 226.601562 C 185.355469 224.53125 188.949219 222.554688 192.808594 221.003906 C 196.464844 219.535156 200.253906 218.585938 204.007812 217.53125 C 206.8125 216.746094 209.796875 216.601562 212.6875 216.101562 C 218.253906 215.132812 223.863281 215.722656 229.445312 215.75 C 231.875 215.761719 234.386719 216.21875 236.800781 216.976562 C 239.28125 217.753906 241.890625 218.117188 244.390625 218.839844 C 252.03125 221.054688 258.914062 224.710938 265.308594 229.453125 C 268.792969 232.039062 271.882812 235.003906 274.753906 238.171875 C 278.527344 242.335938 281.476562 247.105469 283.726562 252.277344 C 283.785156 252.40625 283.820312 252.550781 283.910156 252.652344 C 284.203125 252.980469 284.519531 253.292969 284.828125 253.609375 C 284.835938 253.15625 284.929688 252.6875 284.839844 252.253906 C 284.238281 249.292969 283.515625 246.378906 282.503906 243.511719 C 281.175781 239.757812 279.824219 236.035156 277.875 232.550781 C 277.640625 232.125 277.695312 231.539062 277.617188 231.027344 C 278.035156 231.289062 278.539062 231.46875 278.855469 231.820312 C 282.683594 236.078125 285.628906 240.902344 288.164062 246.027344 C 289.964844 249.667969 291.460938 253.421875 292.550781 257.304688 C 293.355469 260.179688 293.90625 263.121094 294.21875 266.140625 C 294.628906 270.085938 294.480469 274.007812 294.542969 277.933594 C 294.566406 279.226562 294.265625 280.519531 294.121094 281.8125 C 294.054688 282.386719 294.25 282.671875 294.867188 282.453125 C 297.769531 281.4375 300.773438 281.160156 303.824219 281.167969 C 305.628906 281.175781 307.4375 281.183594 309.242188 281.167969 C 313.667969 281.121094 317.9375 282.070312 322.164062 283.246094 C 324.3125 283.847656 326.5625 284.3125 328.53125 285.304688 C 330.785156 286.433594 333.019531 287.644531 335.054688 289.25 C 337.621094 291.273438 339.792969 293.566406 341.515625 296.289062 C 343.6875 299.726562 345.351562 303.433594 346.476562 307.328125 C 346.9375 308.90625 346.875 310.648438 346.96875 312.320312 C 347.058594 313.953125 347.421875 314.46875 348.929688 314.121094 C 353.660156 313.03125 358.457031 313.273438 363.242188 313.246094 C 367.730469 313.226562 372.027344 314.179688 376.328125 315.441406 C 380.441406 316.648438 384.457031 318.027344 388.195312 320.066406 C 391.203125 321.707031 394.171875 323.5 396.574219 326.027344 C 398.511719 328.070312 400.546875 330.050781 402.292969 332.25 C 404.527344 335.070312 406.117188 338.3125 407.023438 341.792969 C 407.566406 343.863281 408.011719 346.0625 407.902344 348.179688 C 407.683594 352.507812 406.980469 356.761719 405.371094 360.882812 C 403.761719 364.980469 401.457031 368.492188 398.296875 371.511719 C 397.195312 372.566406 397.183594 372.769531 398.324219 373.832031 C 401.816406 377.085938 403.148438 381.394531 404.375 385.792969 C 405.402344 389.464844 405.644531 393.253906 405.160156 396.929688 C 404.609375 401.066406 403.617188 405.207031 401.519531 408.945312 C 400.175781 411.335938 398.585938 413.519531 396.738281 415.554688 C 391.960938 420.816406 385.980469 424.238281 379.652344 427.230469 C 375.824219 429.042969 371.808594 430.292969 367.710938 431.070312 C 364.742188 431.636719 361.6875 431.988281 358.625 432.195312 C 355.667969 432.398438 352.722656 432.445312 349.769531 432.515625 C 346.996094 432.585938 344.273438 432.152344 341.554688 431.636719 C 340.207031 431.382812 338.820312 431.335938 337.453125 431.164062 C 335.167969 430.875 332.839844 430.753906 330.609375 430.222656 C 326.792969 429.320312 323.023438 428.21875 319.269531 427.078125 C 317.277344 426.46875 315.367188 425.597656 313.421875 424.839844 C 313.191406 424.75 312.972656 424.621094 312.753906 424.507812 C 312.839844 424.816406 312.828125 425.261719 313.03125 425.417969 C 313.878906 426.054688 314.773438 426.632812 315.675781 427.191406 C 321.449219 430.769531 327.25 434.304688 333.820312 436.28125 C 335.039062 436.648438 336.328125 436.761719 337.566406 437.0625 C 337.875 437.140625 338.109375 437.503906 338.378906 437.738281 C 338.105469 437.808594 337.835938 437.925781 337.5625 437.9375 C 332.226562 438.210938 327.085938 437.25 321.960938 435.816406 C 318.3125 434.796875 314.75 433.625 311.304688 432.074219 C 305.351562 429.398438 300.527344 425.246094 296.285156 420.394531 C 295.34375 419.3125 294.800781 417.867188 294.125 416.5625 C 293.050781 414.472656 292.703125 414.4375 290.867188 416.101562 C 289.90625 416.96875 288.878906 417.789062 287.796875 418.503906 C 284.453125 420.707031 280.710938 422.105469 276.976562 423.453125 C 274.414062 424.378906 271.742188 424.992188 269.117188 425.746094 C 266.710938 426.433594 264.261719 426.804688 261.78125 427.167969 C 256.941406 427.882812 252.105469 427.480469 247.277344 427.496094 C 244.359375 427.507812 241.449219 426.902344 238.636719 426.042969 C 236.574219 425.414062 234.503906 424.757812 232.527344 423.902344 C 231.179688 423.316406 229.945312 422.441406 228.761719 421.558594 C 228.175781 421.121094 227.910156 421.222656 227.484375 421.660156 C 226.386719 422.796875 225.242188 423.894531 224.136719 425.027344 C 220.433594 428.828125 215.8125 431.164062 210.921875 432.929688 C 207.175781 434.28125 203.277344 435.109375 199.230469 435.324219 C 197.652344 435.40625 196.050781 435.664062 194.445312 435.683594 C 190.804688 435.726562 187.230469 435.074219 183.722656 434.277344 C 179.230469 433.257812 174.988281 431.4375 170.851562 429.378906 C 167.609375 427.765625 164.589844 425.878906 162.117188 423.195312 C 161.558594 422.585938 160.960938 422.011719 160.363281 421.4375 C 159.339844 420.457031 159.367188 420.484375 158.570312 421.820312 C 157.558594 423.515625 156.554688 425.222656 155.425781 426.839844 C 153.414062 429.71875 151.113281 432.289062 148.335938 434.527344 C 146.078125 436.34375 143.878906 438.222656 141.515625 439.921875 C 138.640625 441.988281 135.523438 443.585938 132.394531 445.183594 C 131.707031 445.535156 130.960938 445.90625 130.449219 446.460938 C 127.671875 449.488281 123.957031 451.074219 120.390625 452.757812 C 117.070312 454.324219 113.445312 455.238281 109.980469 456.515625 C 107.738281 457.34375 105.421875 457.703125 103.066406 457.8125 C 98.839844 458.007812 94.582031 457.878906 90.390625 458.367188 C 87.949219 458.65625 85.523438 458.824219 83.117188 458.667969 C 80.34375 458.492188 77.59375 457.882812 74.835938 457.4375 C 72.019531 456.980469 69.1875 456.578125 66.398438 455.988281 C 64.207031 455.527344 62.042969 454.902344 59.917969 454.191406 C 56.550781 453.058594 53.253906 451.722656 49.882812 450.617188 C 46.863281 449.632812 44.117188 448.1875 41.34375 446.65625 C 38.003906 444.808594 34.8125 442.742188 31.667969 440.617188 C 29.042969 438.84375 26.585938 436.792969 24.164062 434.742188 C 22.015625 432.921875 20.003906 430.933594 17.945312 429.011719 C 13.886719 425.214844 10.460938 420.855469 7.792969 416.039062 C 5.273438 411.484375 3.355469 406.59375 1.167969 401.851562 C 1.109375 401.722656 0.898438 401.605469 0.914062 401.515625 C 1.027344 400.851562 1.179688 400.199219 1.320312 399.542969 C 1.632812 400.042969 2.09375 400.5 2.226562 401.046875 C 2.707031 402.988281 4.28125 404.15625 5.429688 405.582031 C 8.128906 408.949219 10.917969 412.269531 13.898438 415.394531 C 15.796875 417.386719 18.070312 419.035156 20.234375 420.765625 C 22.652344 422.703125 25.125 424.570312 27.589844 426.453125 C 30.445312 428.636719 33.308594 430.808594 36.183594 432.972656 C 38.566406 434.769531 41.109375 436.339844 43.550781 438.03125 C 47.429688 440.722656 51.699219 442.375 56.09375 443.792969 C 60.617188 445.253906 65.199219 446.546875 69.777344 447.832031 C 70.945312 448.160156 72.199219 448.1875 73.414062 448.324219 C 73.609375 448.347656 73.820312 448.230469 74.023438 448.179688 C 73.855469 447.964844 73.730469 447.664062 73.511719 447.558594 C 73.136719 447.382812 72.691406 447.355469 72.296875 447.214844 C 69.21875 446.105469 66.207031 444.746094 63.050781 443.9375 C 60.160156 443.195312 57.507812 442.0625 54.898438 440.683594 C 49.28125 437.71875 43.789062 434.5625 38.671875 430.773438 C 34.828125 427.929688 30.890625 425.207031 27.464844 421.835938 C 25.617188 420.015625 23.628906 418.339844 21.757812 416.546875 C 18.757812 413.664062 16.457031 410.207031 14.023438 406.871094 C 12.609375 404.933594 11.351562 402.875 10.109375 400.816406 C 9.425781 399.6875 8.8125 398.492188 8.355469 397.253906 C 6.96875 393.535156 5.609375 389.804688 4.367188 386.03125 C 3.675781 383.9375 3.296875 381.773438 3.078125 379.539062 C 2.777344 376.503906 3.070312 373.433594 2.609375 370.46875 C 2.136719 367.417969 2.089844 364.371094 2.347656 361.390625 C 2.675781 357.59375 3.257812 353.820312 4.363281 350.070312 C 6.417969 343.09375 9.78125 336.871094 13.777344 330.925781 C 14.558594 329.757812 15.832031 328.9375 16.765625 327.855469 C 21.535156 322.34375 27.425781 318.1875 33.523438 314.375 C 38.445312 311.296875 43.773438 308.972656 49.542969 307.804688 C 53.246094 307.058594 56.933594 306.378906 60.734375 306.445312 C 61.644531 306.457031 62.675781 306.898438 63.5 306.035156 C 63.605469 305.921875 63.980469 305.933594 64.152344 306.03125 C 65.613281 306.867188 67.195312 306.367188 68.71875 306.460938 C 74.789062 306.828125 80.671875 307.960938 86.328125 310.304688 C 89.578125 311.652344 92.667969 313.246094 95.625 315.128906 C 96.722656 315.824219 97.3125 315.582031 97.582031 314.289062 C 98.773438 308.625 101.453125 303.78125 105.980469 300.175781 C 109.574219 297.316406 113.691406 295.371094 118.199219 294.246094 C 121.886719 293.324219 125.589844 292.664062 129.386719 292.933594 C 133.578125 293.234375 137.703125 293.929688 141.59375 295.628906 C 142.757812 296.136719 143.125 295.964844 143.214844 294.78125 C 143.378906 292.578125 143.519531 290.375 143.667969 287.945312 M 87.871094 323.1875 C 87.46875 322.886719 87.097656 322.519531 86.65625 322.292969 C 82.527344 320.164062 78.289062 318.371094 73.625 317.75 C 70.863281 317.382812 68.136719 316.679688 65.367188 316.46875 C 63.191406 316.300781 60.984375 316.515625 58.773438 316.753906 C 55.6875 317.089844 52.652344 317.585938 49.632812 318.226562 C 46.195312 318.957031 43 320.445312 39.914062 322.011719 C 36.777344 323.597656 33.824219 325.628906 31.011719 327.757812 C 28.972656 329.300781 26.960938 330.949219 25.675781 333.355469 C 24.28125 335.964844 22.601562 338.4375 20.910156 340.871094 C 18.648438 344.125 17.003906 347.679688 15.84375 351.425781 C 14.445312 355.957031 13.441406 360.597656 13.5625 365.386719 C 13.640625 368.488281 13.390625 371.699219 14.113281 374.660156 C 15.101562 378.695312 16.710938 382.605469 18.351562 386.441406 C 20.492188 391.453125 23.554688 395.980469 26.828125 400.304688 C 29.296875 403.558594 31.640625 406.960938 34.757812 409.6875 C 37.417969 412.015625 40.039062 414.386719 42.699219 416.710938 C 44.738281 418.492188 46.84375 420.191406 48.863281 421.996094 C 51.960938 424.765625 55.441406 426.898438 59.175781 428.730469 C 64.8125 431.496094 70.464844 434.207031 76.488281 436.007812 C 79.515625 436.914062 82.507812 437.941406 85.660156 438.445312 C 87.570312 438.75 89.496094 439.03125 91.371094 439.40625 C 93.441406 439.820312 95.523438 439.804688 97.582031 440.117188 C 99.417969 440.394531 101.359375 440.082031 103.269531 439.863281 C 106.421875 439.507812 109.546875 439.097656 112.632812 438.390625 C 115.792969 437.667969 118.953125 436.945312 122.085938 436.125 C 127.40625 434.730469 132.105469 432.085938 136.402344 428.707031 C 138.117188 427.363281 139.65625 425.746094 141.5 424.613281 C 143.648438 423.292969 144.980469 421.304688 146.339844 419.378906 C 149.65625 414.6875 151.046875 409.292969 151.324219 403.621094 C 151.464844 400.808594 154.34375 398.636719 156.707031 398.746094 C 158.792969 398.835938 160.796875 399.875 161.742188 402.105469 C 162.9375 404.921875 163.964844 407.835938 165.417969 410.515625 C 166.535156 412.578125 167.910156 414.691406 169.691406 416.148438 C 172.273438 418.261719 175.257812 419.882812 178.46875 421.058594 C 183.515625 422.898438 188.53125 424.734375 194.03125 424.390625 C 196.527344 424.238281 199.101562 424.417969 201.507812 423.871094 C 206.429688 422.75 211.203125 420.996094 215.289062 417.953125 C 217.164062 416.5625 218.714844 414.808594 219.246094 412.152344 C 219.644531 410.152344 219.390625 408.152344 219.910156 406.148438 C 220.363281 404.390625 221.246094 402.980469 222.566406 402.335938 C 226.113281 400.597656 229.863281 402.941406 230.464844 405.828125 C 231.230469 409.503906 233.371094 412.207031 237.015625 413.613281 C 240.746094 415.054688 244.5 416.371094 248.570312 416.246094 C 252.722656 416.117188 256.90625 416.699219 261.03125 415.808594 C 262.898438 415.40625 264.800781 415.121094 266.625 414.582031 C 271.503906 413.132812 276.371094 411.613281 280.980469 409.4375 C 282.390625 408.773438 283.691406 407.820312 284.71875 406.507812 C 286.023438 404.855469 286.769531 402.992188 287.332031 401.03125 C 288.304688 397.628906 292.210938 394.9375 295.90625 397.578125 C 297.710938 398.867188 299.289062 400.570312 300.671875 402.324219 C 302.847656 405.078125 304.921875 407.921875 307.882812 409.882812 C 310.523438 411.632812 313.136719 413.539062 316.019531 414.773438 C 319.980469 416.472656 324.136719 417.78125 328.300781 418.910156 C 331.585938 419.804688 335.011719 420.199219 338.382812 420.765625 C 339.738281 420.992188 341.15625 420.925781 342.476562 421.261719 C 345.039062 421.914062 347.660156 421.925781 350.246094 422.078125 C 354.273438 422.316406 358.28125 421.699219 362.300781 421.285156 C 366.296875 420.871094 370.050781 419.683594 373.679688 418.179688 C 379.46875 415.78125 384.71875 412.539062 389.09375 407.886719 C 392.597656 404.167969 394.136719 399.675781 394.789062 394.882812 C 395.277344 391.308594 394.515625 387.789062 393.171875 384.308594 C 392.109375 381.554688 390.273438 380.195312 387.816406 379.222656 C 387.246094 379 386.605469 378.847656 386 378.847656 C 385.375 378.847656 384.753906 379.179688 384.128906 379.191406 C 381.652344 379.246094 379.046875 377.5 378.605469 375.558594 C 377.996094 372.863281 379.007812 369.992188 381.246094 368.847656 C 383.78125 367.550781 386.1875 366.15625 388.457031 364.378906 C 390.417969 362.851562 391.921875 360.976562 392.953125 358.949219 C 394.164062 356.558594 395 353.929688 395.441406 351.148438 C 395.882812 348.398438 395.667969 345.90625 394.917969 343.316406 C 394.019531 340.21875 392.066406 337.761719 390.066406 335.402344 C 387.574219 332.46875 384.324219 330.382812 380.921875 328.632812 C 377.070312 326.652344 372.976562 325.160156 368.78125 324.164062 C 365.292969 323.335938 361.726562 322.6875 358.066406 322.695312 C 354.628906 322.703125 351.328125 323.359375 348.007812 324.066406 C 345.734375 324.554688 343.925781 325.398438 342.871094 327.695312 C 341.863281 329.886719 338.441406 331.171875 336.292969 330.3125 C 334.226562 329.484375 332.136719 326.597656 332.539062 324.480469 C 332.746094 323.382812 333.023438 322.277344 333.445312 321.246094 C 334.480469 318.722656 335.21875 316.1875 335.285156 313.40625 C 335.347656 310.808594 334.683594 308.421875 333.847656 306.070312 C 332.792969 303.105469 331.105469 300.402344 328.898438 298.214844 C 326.75 296.082031 323.964844 294.730469 321.035156 293.832031 C 318.46875 293.042969 315.9375 292.15625 313.203125 291.980469 C 311.210938 291.851562 309.242188 291.308594 307.25 291.148438 C 306.199219 291.066406 305.113281 291.566406 304.054688 291.53125 C 301.40625 291.449219 298.828125 291.820312 296.296875 292.476562 C 291.933594 293.609375 287.644531 294.957031 284.628906 298.617188 C 283.960938 299.425781 283.101562 299.726562 282.25 300.003906 C 279.355469 300.941406 275.597656 298.199219 275.621094 295.15625 C 275.628906 293.636719 275.652344 292.039062 276.125 290.628906 C 276.496094 289.515625 276.257812 288.4375 276.527344 287.40625 C 277.429688 283.953125 277.730469 280.433594 277.839844 276.894531 C 277.964844 272.953125 277.34375 269.109375 276.578125 265.242188 C 275.898438 261.820312 274.800781 258.617188 273.335938 255.496094 C 271.636719 251.875 269.390625 248.640625 266.90625 245.484375 C 264.230469 242.085938 261.011719 239.367188 257.554688 236.9375 C 252.679688 233.503906 247.390625 230.800781 241.683594 228.925781 C 235.660156 226.949219 229.578125 225.460938 223.183594 225.589844 C 220.703125 225.636719 218.214844 225.542969 215.730469 225.617188 C 213.984375 225.671875 212.21875 225.765625 210.503906 226.082031 C 207.867188 226.566406 205.25 227.171875 202.667969 227.878906 C 199.304688 228.800781 195.90625 229.636719 192.808594 231.339844 C 190.726562 232.484375 188.570312 233.488281 186.5 234.644531 C 181.355469 237.503906 176.976562 241.394531 172.625 245.28125 C 171.242188 246.519531 170.28125 248.21875 169.070312 249.660156 C 165.175781 254.296875 162.226562 259.546875 160.058594 265.125 C 158.167969 269.996094 156.304688 274.894531 155.222656 280.09375 C 154.5 283.554688 153.542969 287.03125 153.261719 290.515625 C 152.867188 295.492188 152.898438 300.546875 154.050781 305.496094 C 154.261719 306.398438 154.449219 307.320312 154.496094 308.242188 C 154.644531 311.019531 152.878906 312.339844 150.605469 313.339844 C 148.566406 314.234375 147.019531 313.238281 145.535156 312.140625 C 144.242188 311.179688 143.046875 310.074219 141.882812 308.960938 C 138.242188 305.480469 133.757812 304.148438 128.894531 303.761719 C 125.597656 303.503906 122.410156 304.328125 119.3125 305.195312 C 116.839844 305.886719 114.511719 307.148438 112.496094 308.914062 C 110.40625 310.742188 109.183594 313.015625 108.53125 315.640625 C 107.820312 318.5 107.433594 321.464844 108.511719 324.230469 C 109.148438 325.863281 109.335938 327.421875 109.328125 329.082031 C 109.320312 333.027344 105.109375 335.554688 101.390625 334.089844 C 99.679688 333.417969 98.878906 332.070312 97.78125 330.867188 C 95.015625 327.84375 91.71875 325.449219 87.871094 323.1875 Z M 87.871094 323.1875 "/></g><g clip-rule="nonzero" clip-path="url(#9483e21ce4)"><path style=" stroke:none;fill-rule:nonzero;fill:#eb8b56;fill-opacity:1;" d="M 509.742188 170.589844 C 505.734375 174.191406 501.277344 176.671875 496.445312 178.675781 C 492.234375 180.425781 487.871094 181.332031 483.476562 182.300781 C 482.226562 182.578125 481.027344 182.5625 479.804688 182.675781 C 478.210938 182.828125 476.601562 183.203125 475.027344 183.082031 C 471.914062 182.835938 468.789062 182.726562 465.675781 182.308594 C 463.734375 182.046875 461.886719 181.757812 460.15625 180.859375 C 459.898438 180.726562 459.703125 180.476562 459.480469 180.277344 C 459.722656 180.175781 459.960938 179.984375 460.203125 179.980469 C 461.707031 179.953125 463.214844 179.964844 464.71875 179.964844 C 468.851562 179.972656 472.832031 178.996094 476.863281 178.242188 C 482.027344 177.28125 486.53125 175 490.910156 172.296875 C 491.550781 171.902344 492.320312 171.714844 493.003906 171.367188 C 493.304688 171.214844 493.527344 170.910156 493.785156 170.675781 C 493.378906 170.648438 492.933594 170.511719 492.570312 170.621094 C 491.371094 170.992188 490.171875 171.375 489.035156 171.894531 C 484.964844 173.75 480.585938 174.457031 476.28125 175.46875 C 473.257812 176.179688 470.214844 176.546875 467.136719 176.914062 C 464.691406 177.207031 462.269531 177.332031 459.863281 177.191406 C 457.503906 177.054688 455.128906 176.839844 452.765625 176.433594 C 450.722656 176.085938 448.617188 176.03125 446.609375 175.4375 C 444.398438 174.785156 442.140625 174.226562 440.023438 173.335938 C 436.5625 171.875 433.085938 170.386719 429.828125 168.53125 C 425.953125 166.316406 421.992188 164.164062 418.675781 161.082031 C 417.324219 159.828125 415.867188 158.6875 414.578125 157.382812 C 413.832031 156.625 413.421875 156.992188 412.988281 157.566406 C 409.605469 162.015625 405.597656 165.507812 400.148438 167.394531 C 396.371094 168.699219 392.617188 169.648438 388.636719 169.558594 C 385.835938 169.496094 383.007812 169.464844 380.25 169.058594 C 378.203125 168.757812 376.234375 167.890625 374.25 167.222656 C 373.929688 167.113281 373.667969 166.742188 373.457031 166.4375 C 373.316406 166.230469 373.3125 165.929688 373.242188 165.675781 C 373.523438 165.617188 373.832031 165.457031 374.074219 165.523438 C 376.539062 166.226562 379.066406 166.59375 381.605469 166.382812 C 385.800781 166.03125 389.953125 165.371094 393.996094 164.144531 C 394.191406 164.085938 394.375 163.945312 394.53125 163.804688 C 394.808594 163.566406 395.0625 163.300781 395.324219 163.046875 C 394.984375 162.964844 394.582031 162.714844 394.320312 162.824219 C 391.660156 163.914062 388.867188 163.636719 386.101562 163.714844 C 382.238281 163.820312 378.5 163.273438 374.878906 161.894531 C 371.648438 160.667969 368.632812 159.03125 365.847656 157 C 364.425781 155.964844 363.136719 154.734375 361.882812 153.492188 C 361.070312 152.6875 360.453125 152.59375 359.675781 153.472656 C 359.027344 154.207031 358.289062 154.855469 357.609375 155.5625 C 354.382812 158.898438 350.695312 161.585938 346.332031 163.230469 C 344.4375 163.945312 342.496094 164.5625 340.53125 165.035156 C 336.574219 165.984375 332.503906 166.367188 328.496094 165.898438 C 321.339844 165.054688 314.328125 163.425781 308.097656 159.589844 C 305.792969 158.175781 303.742188 156.390625 301.9375 154.253906 C 300.246094 152.253906 298.914062 150.132812 297.699219 147.851562 C 296.636719 145.859375 296.230469 143.695312 295.996094 141.570312 C 295.597656 137.972656 295.605469 134.328125 295.484375 130.699219 C 295.425781 128.960938 294.953125 127.875 293.390625 127.617188 C 291.40625 127.292969 289.945312 126.0625 288.65625 124.90625 C 283.671875 120.441406 279.433594 115.320312 276.824219 109.070312 C 276.152344 107.46875 275.871094 105.667969 275.632812 103.925781 C 275.445312 102.523438 275.609375 101.070312 275.589844 99.640625 C 275.550781 96.304688 276.464844 93.144531 277.636719 90.097656 C 279.519531 85.195312 282.679688 81.097656 286.753906 77.882812 C 289.429688 75.773438 292.257812 73.726562 295.710938 72.824219 C 296.964844 72.496094 298.03125 71.46875 299.285156 71.125 C 302.191406 70.324219 305.125 69.542969 308.199219 69.71875 C 309.175781 69.773438 310.15625 69.734375 311.132812 69.726562 C 312.898438 69.710938 312.800781 69.726562 312.363281 67.835938 C 311.902344 65.824219 311.320312 63.757812 311.351562 61.726562 C 311.425781 56.773438 312.710938 52.195312 315.214844 47.75 C 317.339844 43.988281 320.140625 40.996094 323.226562 38.25 C 326.164062 35.636719 329.75 33.851562 333.355469 32.242188 C 337.453125 30.410156 341.644531 28.882812 346.113281 28.117188 C 348.320312 27.742188 350.492188 27.296875 352.746094 27.238281 C 354.871094 27.179688 356.996094 26.769531 359.109375 26.839844 C 365.046875 27.046875 370.8125 28.128906 376.296875 30.566406 C 381.164062 32.734375 385.671875 35.449219 389.855469 38.730469 C 392.523438 40.820312 395.21875 42.875 397.886719 44.96875 C 398.503906 45.453125 398.703125 45.582031 398.976562 44.601562 C 399.972656 41.03125 402.101562 38.125 404.550781 35.382812 C 407.105469 32.523438 410.179688 30.414062 413.550781 28.722656 C 415.761719 27.613281 418.199219 27.117188 420.660156 26.800781 C 421.652344 26.671875 422.640625 26.472656 423.636719 26.363281 C 424.746094 26.234375 425.800781 26.382812 426.675781 27.195312 C 426.855469 27.359375 427.128906 27.414062 427.359375 27.523438 C 427.074219 27.734375 426.8125 28.0625 426.492188 28.136719 C 425.722656 28.316406 424.910156 28.296875 424.148438 28.492188 C 421.183594 29.253906 418.839844 31.121094 416.535156 32.980469 C 415.132812 34.105469 413.941406 35.492188 412.6875 36.792969 C 412.351562 37.144531 412.101562 37.597656 411.894531 38.042969 C 411.769531 38.3125 411.808594 38.65625 411.777344 38.964844 C 412.035156 38.882812 412.355469 38.875 412.539062 38.710938 C 415.695312 35.917969 419.457031 34.445312 423.515625 33.574219 C 426.601562 32.910156 429.710938 32.5 432.855469 32.699219 C 437.722656 33.003906 442.363281 34.019531 446.4375 36.984375 C 448.773438 38.683594 451.382812 40.003906 453.730469 41.6875 C 454.808594 42.457031 455.035156 42.074219 455.425781 41.160156 C 455.972656 39.878906 456.851562 38.695312 457.167969 37.371094 C 457.722656 35.035156 459.207031 33.21875 460.335938 31.230469 C 461.804688 28.640625 463.609375 26.238281 465.371094 23.828125 C 466.566406 22.183594 467.859375 20.597656 469.242188 19.109375 C 471.085938 17.125 473.007812 15.207031 474.984375 13.355469 C 477.558594 10.949219 480.476562 8.980469 483.457031 7.109375 C 486.792969 5.015625 490.382812 3.488281 494.128906 2.347656 C 495.949219 1.792969 497.828125 1.429688 499.695312 1.0625 C 503.597656 0.300781 507.558594 0.464844 511.476562 0.644531 C 519.191406 1.003906 526.695312 2.371094 533.433594 6.480469 C 535.507812 7.746094 537.613281 8.957031 539.378906 10.679688 C 542.476562 13.699219 545.625 16.664062 548.769531 19.628906 C 551.738281 22.429688 553.84375 25.847656 555.789062 29.375 C 557.203125 31.945312 558.667969 34.5 559.917969 37.148438 C 561.671875 40.859375 563.339844 44.617188 564.855469 48.429688 C 565.613281 50.328125 566.175781 52.339844 566.121094 54.460938 C 566.082031 56.046875 566.253906 56.132812 567.953125 56.175781 C 571.425781 56.261719 574.902344 56.574219 578.214844 57.59375 C 580.316406 58.242188 582.28125 59.425781 584.210938 60.535156 C 586.9375 62.101562 589.34375 64.132812 591.472656 66.433594 C 594.441406 69.636719 596.777344 73.175781 598.277344 77.390625 C 599.578125 81.039062 600.144531 84.765625 600.960938 88.484375 C 601.773438 92.199219 601.914062 95.910156 601.757812 99.640625 C 601.609375 103.265625 600.886719 106.796875 599.191406 110.085938 C 598.300781 111.8125 597.671875 113.675781 596.8125 115.421875 C 595.113281 118.875 592.90625 122.019531 590.03125 124.558594 C 587.582031 126.722656 584.984375 128.746094 582.042969 130.296875 C 579.445312 131.664062 576.871094 133.003906 574.058594 133.941406 C 571.925781 134.652344 569.8125 134.851562 567.640625 134.765625 C 566.382812 134.71875 565.605469 134.949219 564.828125 136.191406 C 562.144531 140.46875 557.976562 142.601562 553.175781 143.871094 C 549.921875 144.730469 546.640625 144.960938 543.378906 144.660156 C 539.601562 144.308594 535.910156 143.367188 532.59375 141.292969 C 531.171875 140.40625 530.546875 140.722656 529.957031 142.257812 C 527.875 147.683594 525.191406 152.816406 522.234375 157.796875 C 521.242188 159.46875 519.78125 160.882812 518.433594 162.324219 C 516.84375 164.027344 515.175781 165.664062 513.492188 167.277344 C 512.324219 168.390625 511.070312 169.414062 509.742188 170.589844 M 450.894531 50.976562 C 448.546875 49.382812 446.1875 47.808594 443.855469 46.191406 C 439.65625 43.273438 435.128906 41.390625 429.898438 41.722656 C 428.601562 41.808594 427.296875 41.921875 426.027344 42.1875 C 423.402344 42.730469 420.835938 43.671875 418.742188 45.265625 C 414.101562 48.800781 412.007812 53.871094 411.179688 59.480469 C 410.90625 61.324219 409.664062 62.128906 408.328125 62.746094 C 407.03125 63.34375 405.636719 63.039062 404.519531 61.984375 C 401.710938 59.320312 398.910156 56.644531 396.082031 54.003906 C 394.789062 52.796875 393.519531 51.546875 392.105469 50.503906 C 388.542969 47.886719 384.945312 45.308594 381.273438 42.84375 C 379.300781 41.523438 377.199219 40.363281 375.050781 39.339844 C 373.234375 38.476562 371.300781 37.839844 369.371094 37.246094 C 365.65625 36.105469 361.875 35.21875 357.945312 35.402344 C 356.121094 35.484375 354.308594 35.777344 352.484375 35.816406 C 350.664062 35.855469 348.933594 36.246094 347.214844 36.75 C 344.402344 37.582031 341.5 38.078125 338.839844 39.4375 C 334.101562 41.863281 329.351562 44.238281 325.929688 48.527344 C 322.984375 52.226562 319.679688 57.90625 320.738281 63.867188 C 321.214844 66.550781 321.664062 69.140625 323.457031 71.34375 C 324.238281 72.304688 324.71875 73.515625 325.285156 74.640625 C 326.039062 76.140625 325.734375 77.457031 324.65625 78.75 C 323.257812 80.4375 320.765625 80.398438 319.273438 79.742188 C 316.851562 78.679688 314.304688 78.054688 311.691406 77.882812 C 306.636719 77.550781 301.972656 78.832031 297.558594 81.367188 C 293.691406 83.582031 290.675781 86.507812 288.707031 90.484375 C 287.515625 92.894531 286.976562 95.5 286.335938 98.101562 C 285.753906 100.472656 286.441406 102.40625 287.082031 104.488281 C 287.535156 105.96875 288.605469 107.03125 289.4375 108.265625 C 292.113281 112.226562 295.566406 115.421875 299.242188 118.347656 C 300.785156 119.574219 302.484375 120.941406 304.757812 120.824219 C 305.214844 120.800781 305.683594 121.117188 306.15625 121.226562 C 308.660156 121.796875 310.308594 124.632812 308.996094 126.378906 C 307.476562 128.40625 305.542969 129.921875 302.777344 129.820312 C 302.023438 129.792969 301.257812 129.730469 300.523438 129.847656 C 300.097656 129.914062 299.511719 129.851562 299.851562 130.90625 C 300.582031 133.1875 300.679688 135.671875 301.402344 137.957031 C 302.226562 140.558594 303.300781 143.140625 305.214844 145.171875 C 308.851562 149.027344 313.332031 151.636719 318.332031 153.277344 C 321.195312 154.214844 324.152344 154.917969 327.105469 155.527344 C 328.65625 155.847656 330.308594 155.796875 331.886719 155.898438 C 334.292969 156.058594 336.800781 155.628906 339.167969 155.054688 C 341.378906 154.519531 343.601562 153.703125 345.574219 152.574219 C 347.4375 151.507812 349.09375 149.988281 350.644531 148.464844 C 353.078125 146.070312 355.304688 143.457031 357.707031 141.027344 C 360.089844 138.617188 364.042969 139.242188 365.539062 142.316406 C 367.183594 145.691406 369.457031 148.363281 372.675781 150.371094 C 376.9375 153.027344 381.492188 154.480469 386.492188 154.675781 C 389.855469 154.804688 393.082031 154.238281 396.332031 153.359375 C 401.003906 152.101562 405.363281 150.332031 409.210938 147.347656 C 411.539062 145.546875 414.917969 145.425781 416.601562 147.691406 C 417.34375 148.683594 418.15625 149.628906 418.996094 150.539062 C 422.644531 154.515625 427.164062 157.308594 431.878906 159.789062 C 435.019531 161.441406 438.222656 162.996094 441.480469 164.410156 C 444.25 165.609375 447.132812 166.429688 450.160156 166.953125 C 453.207031 167.476562 456.203125 168.203125 459.324219 168.230469 C 464.503906 168.28125 469.609375 167.875 474.617188 166.429688 C 477.386719 165.632812 480.253906 165.164062 483.003906 164.308594 C 488.082031 162.734375 492.988281 160.703125 497.472656 157.8125 C 501.859375 154.984375 506.324219 152.332031 509.742188 148.136719 C 512.5625 144.675781 514.695312 140.898438 516.675781 136.976562 C 517.144531 136.050781 517.589844 135.046875 517.722656 134.035156 C 518 131.929688 518.113281 129.800781 518.199219 127.675781 C 518.296875 125.320312 519.9375 123.128906 522.386719 122.253906 C 523.839844 121.738281 526.929688 122.769531 527.90625 124.433594 C 529.492188 127.148438 531.652344 129.257812 534.152344 131.054688 C 539.320312 134.773438 544.839844 136.175781 551.183594 134.214844 C 554.90625 133.0625 556.984375 130.800781 557.984375 127.222656 C 558.207031 126.425781 558.5 125.625 558.890625 124.894531 C 559.8125 123.160156 562.246094 122.089844 563.785156 122.78125 C 565.074219 123.363281 566.394531 123.925781 567.054688 125.398438 C 567.230469 125.792969 567.945312 126.132812 568.433594 126.15625 C 569.199219 126.199219 569.992188 125.984375 570.761719 125.832031 C 573.445312 125.292969 575.59375 123.625 577.859375 122.273438 C 579.886719 121.066406 581.734375 119.527344 583.542969 117.996094 C 587.304688 114.8125 589.507812 110.519531 591.304688 106.089844 C 592.28125 103.683594 592.816406 101.074219 592.832031 98.335938 C 592.855469 94.21875 592.265625 90.214844 591.359375 86.257812 C 590.617188 83 589.65625 79.804688 587.832031 76.878906 C 585.46875 73.082031 582.351562 70.058594 578.675781 67.695312 C 574.480469 64.996094 569.601562 64.605469 564.777344 64.867188 C 563.441406 64.941406 562.035156 65.078125 560.667969 65.207031 C 559.570312 65.308594 558.761719 64.765625 557.964844 64.089844 C 555.898438 62.34375 556.28125 59.847656 556.769531 57.902344 C 557.261719 55.953125 556.726562 54.285156 556.371094 52.671875 C 555.761719 49.917969 554.605469 47.246094 553.414062 44.660156 C 551.6875 40.925781 549.765625 37.28125 547.84375 33.640625 C 546.300781 30.71875 544.539062 27.914062 542.097656 25.640625 C 539.074219 22.820312 536.0625 19.980469 532.871094 17.359375 C 530.796875 15.660156 528.582031 13.933594 526.136719 12.933594 C 520.828125 10.765625 515.242188 9.488281 509.433594 9.648438 C 506.785156 9.722656 504.0625 9.59375 501.507812 10.167969 C 497.714844 11.027344 493.9375 12.078125 490.515625 14.128906 C 486.542969 16.511719 482.707031 19.035156 479.488281 22.394531 C 477.695312 24.265625 475.9375 26.175781 474.21875 28.117188 C 471.757812 30.898438 469.746094 34.023438 468.101562 37.328125 C 465.988281 41.558594 464.183594 45.941406 462.175781 50.226562 C 460.734375 53.304688 458.796875 54.097656 455.570312 52.996094 C 454.058594 52.476562 452.601562 51.804688 450.894531 50.976562 Z M 450.894531 50.976562 "/></g><path style=" stroke:none;fill-rule:nonzero;fill:#eb8b56;fill-opacity:1;" d="M 422.542969 424.957031 C 424.242188 422.449219 425.65625 419.9375 427.761719 417.917969 C 429.757812 415.996094 431.714844 414.03125 433.644531 412.035156 C 437.132812 408.429688 441.621094 406.40625 446.007812 404.242188 C 448.96875 402.777344 452.183594 402.046875 455.410156 401.292969 C 459.636719 400.304688 463.890625 400.324219 468.144531 400.488281 C 472.585938 400.65625 476.960938 401.328125 481.28125 402.527344 C 485.261719 403.636719 488.65625 405.59375 491.847656 408.144531 C 496.449219 411.820312 499.90625 416.359375 502.910156 421.371094 C 504.039062 423.253906 504.976562 425.179688 505.859375 427.164062 C 506.578125 428.777344 506.753906 428.824219 507.898438 427.695312 C 509.730469 425.886719 512.175781 425.320312 514.441406 424.402344 C 516.789062 423.453125 519.207031 422.878906 521.78125 423 C 522.839844 423.054688 523.945312 422.5 524.976562 422.628906 C 527.589844 422.957031 530.246094 423.113281 532.777344 423.941406 C 534.566406 424.527344 536.445312 424.953125 538.101562 425.796875 C 540.109375 426.820312 541.972656 428.148438 543.808594 429.46875 C 545.054688 430.363281 546.152344 431.460938 547.300781 432.488281 C 547.390625 432.570312 547.351562 432.800781 547.371094 432.960938 C 547.222656 432.964844 547.042969 433.03125 546.933594 432.964844 C 545.894531 432.378906 544.871094 431.761719 543.832031 431.171875 C 540.597656 429.324219 537.074219 428.4375 533.402344 427.992188 C 531.558594 427.769531 529.742188 427.214844 527.902344 427.152344 C 525.863281 427.082031 523.808594 427.394531 521.765625 427.570312 C 521.625 427.582031 521.410156 427.828125 521.402344 427.976562 C 521.394531 428.132812 521.585938 428.429688 521.703125 428.433594 C 522.457031 428.476562 523.207031 428.460938 523.964844 428.457031 C 527.804688 428.4375 531.597656 428.929688 535.164062 430.3125 C 537.703125 431.296875 540.125 432.53125 542.382812 434.210938 C 546.050781 436.929688 548.226562 440.636719 550.273438 444.503906 C 550.757812 445.421875 551.105469 446.425781 551.386719 447.425781 C 551.691406 448.507812 552.484375 448.464844 553.234375 448.292969 C 553.898438 448.140625 554.492188 447.703125 555.136719 447.4375 C 557.125 446.621094 559.1875 446.109375 561.347656 446.082031 C 562.777344 446.0625 564.210938 446.136719 565.636719 446.066406 C 569.011719 445.894531 572.140625 446.921875 575.15625 448.183594 C 577.722656 449.261719 580.394531 450.371094 582.554688 452.058594 C 585.3125 454.210938 587.546875 457.027344 590.117188 459.4375 C 592.632812 461.792969 594 464.894531 595.625 467.792969 C 596.65625 469.644531 597.160156 471.832031 597.695312 473.917969 C 598.15625 475.710938 598.386719 477.570312 598.617188 479.414062 C 598.796875 480.851562 598.371094 482.339844 599.058594 483.753906 C 599.238281 484.121094 599.273438 484.804688 599.050781 485.066406 C 598.292969 485.945312 598.707031 486.925781 598.648438 487.847656 C 598.359375 492.335938 597.019531 496.285156 593.75 499.628906 C 591.097656 502.335938 587.921875 503.945312 584.480469 505.117188 C 583.007812 505.617188 581.339844 505.613281 579.753906 505.695312 C 577.949219 505.785156 576.136719 505.800781 574.335938 505.6875 C 573.199219 505.613281 572.449219 506.046875 571.988281 506.964844 C 569.523438 511.886719 565.722656 515.613281 561.582031 519.132812 C 558.660156 521.613281 555.605469 523.859375 552.417969 525.953125 C 548.203125 528.722656 543.660156 530.515625 538.679688 531.546875 C 532.628906 532.796875 526.558594 532.464844 520.519531 532.277344 C 514.019531 532.082031 508.070312 529.53125 502.488281 526.296875 C 500.511719 525.152344 498.710938 523.660156 496.976562 522.160156 C 494.617188 520.125 492.394531 517.925781 490.117188 515.796875 C 489.898438 515.585938 489.664062 515.386719 489.480469 515.152344 C 488.050781 513.300781 488.042969 513.371094 486.566406 515.316406 C 484.003906 518.695312 481.402344 522.105469 477.867188 524.519531 C 475.867188 525.882812 473.582031 526.863281 471.34375 527.832031 C 467.652344 529.425781 463.863281 530.65625 459.796875 531.066406 C 456.53125 531.394531 453.285156 531.910156 450 531.894531 C 448.480469 531.886719 446.960938 531.621094 445.445312 531.46875 C 443.925781 531.316406 442.398438 531.292969 440.875 531.140625 C 438 530.847656 435.195312 530.324219 432.421875 529.632812 C 428.21875 528.582031 424.300781 526.832031 421.019531 523.925781 C 419.453125 522.539062 418.019531 521.003906 416.570312 519.488281 C 415.957031 518.84375 415.546875 518.601562 414.8125 519.394531 C 413.277344 521.054688 411.582031 522.558594 410.050781 524.214844 C 406.113281 528.476562 401.160156 531.046875 395.753906 532.789062 C 392.320312 533.898438 388.835938 534.796875 385.1875 535.144531 C 381.945312 535.449219 378.757812 536.3125 375.539062 536.878906 C 374.257812 537.101562 372.957031 537.277344 371.660156 537.324219 C 366.90625 537.515625 362.148438 537.683594 357.390625 537.78125 C 354.476562 537.839844 351.613281 537.210938 348.726562 536.964844 C 345.277344 536.667969 341.949219 535.894531 338.65625 535.023438 C 336.257812 534.382812 333.972656 533.253906 331.699219 532.203125 C 326.230469 529.6875 322.601562 525.359375 319.839844 520.125 C 318.527344 517.628906 317.257812 515.0625 316.890625 512.335938 C 316.519531 509.59375 315.90625 506.867188 316.574219 503.917969 C 317.230469 501.027344 317.660156 498.0625 318.539062 495.214844 C 319.628906 491.671875 321.355469 488.46875 323.84375 485.65625 C 325.261719 484.054688 326.253906 482.054688 327.742188 480.535156 C 329.679688 478.554688 331.734375 476.5625 334.078125 475.136719 C 337.523438 473.042969 341.210938 471.308594 344.914062 469.691406 C 346.5 469.003906 348.398438 469.050781 350.132812 468.65625 C 354.039062 467.769531 357.992188 468.410156 361.917969 468.234375 C 362.394531 468.214844 362.90625 468.382812 363.34375 468.585938 C 363.535156 468.667969 363.585938 469.066406 363.699219 469.316406 C 363.433594 469.402344 363.140625 469.613281 362.921875 469.550781 C 360.78125 468.953125 358.671875 469.597656 356.722656 470.109375 C 353.03125 471.082031 349.402344 472.375 345.964844 474.101562 C 345.335938 474.417969 344.777344 474.878906 344.203125 475.296875 C 344.070312 475.398438 344.011719 475.609375 343.914062 475.769531 C 344.125 475.8125 344.359375 475.9375 344.535156 475.882812 C 346.074219 475.417969 347.59375 474.910156 349.125 474.429688 C 351.097656 473.8125 353.117188 473.476562 355.148438 473.101562 C 358.457031 472.484375 361.566406 473.296875 364.769531 473.609375 C 368.46875 473.96875 372.074219 474.679688 375.601562 475.832031 C 376.359375 476.078125 376.890625 475.800781 377.246094 475.140625 C 377.714844 474.28125 378.042969 473.324219 378.625 472.554688 C 382.070312 467.992188 386.191406 464.347656 391.6875 462.269531 C 394.453125 461.222656 397.320312 460.632812 400.085938 459.652344 C 400.488281 459.507812 400.984375 459.632812 401.433594 459.632812 C 403.46875 459.632812 405.507812 459.738281 407.53125 459.605469 C 409.914062 459.445312 412.089844 460.128906 414.132812 461.132812 C 415.253906 461.679688 415.207031 461.277344 415.203125 460.464844 C 415.199219 459.335938 415.164062 458.203125 415.210938 457.078125 C 415.339844 454.125 415.359375 451.164062 415.6875 448.234375 C 416.25 443.15625 417.019531 438.09375 418.847656 433.285156 C 419.832031 430.691406 421.125 428.207031 422.273438 425.671875 C 422.355469 425.488281 422.378906 425.269531 422.542969 424.957031 M 385.835938 478.382812 C 385.609375 479.917969 384.820312 481.355469 385.351562 483.019531 C 385.773438 484.355469 384.992188 485.558594 384.320312 486.628906 C 383.171875 488.457031 380.613281 489.265625 378.515625 488.527344 C 377.074219 488.019531 375.730469 487.238281 374.28125 486.765625 C 372.152344 486.066406 369.980469 485.492188 367.804688 484.949219 C 366.296875 484.570312 364.757812 484.257812 363.214844 484.050781 C 361.480469 483.8125 359.683594 483.914062 357.992188 483.53125 C 355.59375 482.992188 353.308594 483.148438 350.894531 483.507812 C 347.21875 484.050781 343.796875 485.332031 340.507812 486.816406 C 336.144531 488.78125 332.707031 492.105469 329.917969 495.976562 C 329.003906 497.242188 328.164062 498.871094 328.097656 500.371094 C 327.945312 503.75 327.511719 507.230469 329.296875 510.449219 C 329.964844 511.648438 330.117188 513.128906 330.742188 514.359375 C 332.425781 517.679688 334.261719 520.859375 337.960938 522.460938 C 340.675781 523.632812 343.371094 524.652344 346.308594 525.246094 C 350.339844 526.058594 354.347656 526.839844 358.460938 526.941406 C 360.417969 526.992188 362.375 526.949219 364.332031 526.949219 C 365.914062 526.949219 367.503906 527.066406 369.070312 526.921875 C 371.066406 526.738281 373.035156 526.316406 375.023438 526.054688 C 376.539062 525.855469 378.074219 525.839844 379.574219 525.574219 C 382.652344 525.035156 385.691406 524.308594 388.769531 523.808594 C 393.070312 523.101562 397.050781 521.585938 400.601562 519.121094 C 402.835938 517.570312 404.96875 515.875 406.699219 513.648438 C 408.332031 511.546875 410.125 509.574219 411.253906 507.15625 C 412.730469 503.984375 416.851562 502.640625 419.824219 505.042969 C 421.089844 506.066406 422.046875 507.253906 422.742188 508.578125 C 424.378906 511.691406 426.605469 514.253906 429.324219 516.410156 C 430.132812 517.050781 431.117188 517.515625 432.085938 517.898438 C 437.683594 520.097656 443.570312 520.847656 449.515625 521.035156 C 452.757812 521.136719 456.003906 521.15625 459.277344 520.707031 C 462.476562 520.273438 465.519531 519.480469 468.417969 518.183594 C 471.332031 516.882812 474.152344 515.394531 475.992188 512.523438 C 477.265625 510.53125 478.761719 508.664062 480.292969 506.851562 C 481.964844 504.871094 483.753906 502.992188 485.5625 501.132812 C 485.976562 500.714844 486.648438 500.398438 487.238281 500.320312 C 490.652344 499.878906 493.277344 501.003906 495.210938 504.027344 C 496.910156 506.679688 498.839844 509.21875 500.902344 511.597656 C 502.554688 513.503906 504.816406 514.765625 506.808594 516.316406 C 511.742188 520.167969 517.375 521.644531 523.449219 521.988281 C 525.347656 522.09375 527.25 522.464844 529.132812 522.382812 C 531.351562 522.289062 533.546875 521.75 535.765625 521.542969 C 540.359375 521.121094 544.480469 519.503906 548.359375 517.035156 C 553.066406 514.039062 557.730469 511.011719 561.074219 506.425781 C 562.789062 504.074219 564.675781 501.761719 564.34375 498.503906 C 564.28125 497.890625 564.730469 497.160156 565.097656 496.582031 C 566.804688 493.898438 569.617188 494.039062 572.074219 494.523438 C 575.046875 495.101562 578.003906 495.53125 580.972656 495.257812 C 583.15625 495.058594 585.167969 494.113281 586.449219 492.066406 C 587.484375 490.414062 587.941406 488.644531 588.3125 486.722656 C 589.050781 482.902344 588.820312 479.207031 587.769531 475.53125 C 587.199219 473.527344 586.617188 471.515625 585.46875 469.710938 C 583.371094 466.421875 581.003906 463.398438 577.988281 460.871094 C 573.949219 457.484375 569.328125 455.570312 564.105469 455.152344 C 562.832031 455.050781 561.476562 455.257812 560.238281 455.597656 C 557.277344 456.414062 554.410156 457.4375 552.828125 460.449219 C 552.398438 461.265625 551.714844 461.964844 551.085938 462.664062 C 549.902344 463.976562 548.257812 464.035156 546.835938 463.539062 C 545.28125 462.996094 543.640625 462.199219 543.5 460.085938 C 543.40625 458.640625 543.355469 457.164062 543.003906 455.777344 C 542.394531 453.414062 541.792969 451.050781 540.863281 448.761719 C 540.210938 447.167969 539.421875 445.667969 538.375 444.386719 C 534.714844 439.925781 529.675781 438.289062 524.125 437.96875 C 522.226562 437.859375 520.328125 437.886719 518.433594 438.363281 C 516.546875 438.835938 514.792969 439.40625 513.320312 440.773438 C 511.652344 442.324219 510.472656 444.21875 509.367188 446.152344 C 508.175781 448.234375 506.648438 449.4375 504.117188 449.265625 C 501.929688 449.121094 499.867188 447.574219 499.71875 445.4375 C 499.527344 442.632812 498.722656 439.949219 498.339844 437.191406 C 497.960938 434.449219 496.996094 431.898438 495.875 429.402344 C 494.742188 426.886719 493.191406 424.605469 491.578125 422.375 C 489.527344 419.539062 487.113281 417.011719 484.328125 414.945312 C 480.390625 412.019531 475.726562 411.09375 470.914062 410.839844 C 470.238281 410.808594 469.511719 410.996094 468.886719 410.8125 C 465.160156 409.714844 461.453125 410.5 457.792969 411.023438 C 455.550781 411.34375 453.417969 412.410156 451.21875 413.089844 C 446.296875 414.613281 442.1875 417.527344 438.429688 420.882812 C 433.984375 424.851562 430.640625 429.65625 428.273438 435.175781 C 426.207031 439.992188 425.308594 445.039062 424.6875 450.175781 C 424.019531 455.699219 423.96875 461.21875 424.683594 466.742188 C 424.742188 467.1875 424.761719 467.65625 424.675781 468.09375 C 424.339844 469.816406 423.757812 471.464844 421.917969 472.078125 C 420.523438 472.542969 419.035156 472.496094 417.679688 471.808594 C 416 470.953125 414.402344 469.914062 412.683594 469.152344 C 411.285156 468.535156 409.785156 467.980469 408.285156 467.8125 C 404.632812 467.402344 401.019531 467.960938 397.570312 469.148438 C 392.726562 470.8125 388.484375 473.351562 385.835938 478.382812 Z M 385.835938 478.382812 "/><path style=" stroke:none;fill-rule:nonzero;fill:#eb8b56;fill-opacity:1;" d="M 442.3125 32.226562 C 439.136719 31.171875 436.1875 30.117188 433.238281 29.0625 C 432.910156 28.945312 432.589844 28.796875 432.25 28.726562 C 431.683594 28.613281 431.222656 28.34375 431.5 27.742188 C 431.679688 27.355469 432.160156 26.859375 432.523438 26.847656 C 434.628906 26.777344 436.757812 26.628906 438.761719 27.546875 C 440.53125 28.359375 442.328125 29.117188 444.070312 29.980469 C 445.410156 30.648438 446.195312 31.964844 445.777344 32.597656 C 445.300781 33.332031 444.386719 33.320312 442.859375 32.539062 C 442.730469 32.476562 442.644531 32.332031 442.3125 32.226562 Z M 442.3125 32.226562 "/><path style=" stroke:none;fill-rule:nonzero;fill:#eb8b56;fill-opacity:1;" d="M 354.660156 438.398438 C 353.148438 438.546875 351.859375 438.839844 350.574219 438.816406 C 348.382812 438.78125 346.195312 438.566406 344.007812 438.382812 C 343.609375 438.347656 343.203125 438.140625 342.855469 437.925781 C 342.667969 437.8125 342.589844 437.511719 342.460938 437.292969 C 342.648438 437.210938 342.835938 437.046875 343.015625 437.058594 C 343.585938 437.089844 344.152344 437.203125 344.722656 437.265625 C 345.441406 437.351562 346.273438 437.683594 346.859375 437.441406 C 348.300781 436.839844 349.773438 437.273438 351.1875 437.011719 C 353.011719 436.671875 354.863281 436.566406 356.695312 436.25 C 358.515625 435.9375 360.371094 435.832031 362.152344 435.25 C 362.316406 435.195312 362.722656 435.363281 362.71875 435.414062 C 362.707031 435.671875 362.671875 436.078125 362.507812 436.160156 C 361.515625 436.644531 360.515625 437.199219 359.453125 437.457031 C 358.203125 437.761719 356.882812 437.777344 355.601562 437.960938 C 355.347656 438 355.125 438.246094 354.660156 438.398438 Z M 354.660156 438.398438 "/><path style=" stroke:none;fill-rule:nonzero;fill:#eb8b56;fill-opacity:1;" d="M 553.90625 442.464844 C 553.75 442.847656 553.609375 443.054688 553.421875 443.140625 C 553.339844 443.175781 553.074219 442.988281 553.015625 442.847656 C 552.039062 440.636719 551.152344 438.386719 550.09375 436.222656 C 549.75 435.511719 550.195312 435.621094 550.441406 435.714844 C 550.875 435.875 551.480469 436.117188 551.605469 436.46875 C 552.242188 438.222656 553.476562 439.769531 553.476562 441.75 C 553.476562 441.914062 553.753906 442.078125 553.90625 442.464844 Z M 553.90625 442.464844 "/></g><mask id="20569a837f"><g filter="url(#56835234a8)"><rect x="0" width="813" height="554" y="0" style="fill:#000000;fill-opacity:0.07;stroke:none;"/></g></mask></g></g><g mask="url(#c1231b533b)" transform="matrix(1,0,0,1,69,0.000000000000017092)"><g id="3c479969e8" clip-path="url(#ac514f98db)"><path style=" stroke:none;fill-rule:nonzero;fill:#f2b581;fill-opacity:1;" d="M 358.234375 73.726562 C 358.304688 72.5625 358.464844 71.410156 358.464844 70.222656 C 358.464844 32.257812 318.195312 1.480469 268.53125 1.480469 C 239.707031 1.480469 214.121094 11.890625 197.65625 27.996094 C 184.214844 21.882812 168.570312 18.3125 151.792969 18.3125 C 107.992188 18.3125 71.546875 42.261719 63.535156 73.9375 C 28.105469 83.160156 2.589844 108.746094 2.589844 138.941406 C 2.589844 176.914062 42.855469 207.679688 92.523438 207.679688 C 111.652344 207.679688 129.351562 203.078125 143.925781 195.304688 C 160.203125 212.949219 187.027344 224.507812 217.429688 224.507812 C 245.460938 224.507812 270.496094 214.699219 286.980469 199.320312 C 299.753906 204.652344 314.402344 207.679688 329.96875 207.679688 C 379.644531 207.679688 419.910156 176.914062 419.910156 138.941406 C 419.910156 108.554688 394.046875 82.785156 358.234375 73.726562 "/><g clip-rule="nonzero" clip-path="url(#7e47c6cbd4)"><path style=" stroke:none;fill-rule:nonzero;fill:#f2b581;fill-opacity:1;" d="M 358.234375 73.726562 L 359.648438 73.816406 C 359.714844 72.71875 359.878906 71.53125 359.878906 70.222656 C 359.878906 50.722656 349.523438 33.125 332.980469 20.488281 C 316.425781 7.84375 293.65625 0.0664062 268.53125 0.0664062 C 239.363281 0.0664062 213.433594 10.585938 196.667969 26.984375 L 197.65625 27.996094 L 198.242188 26.707031 C 184.613281 20.511719 168.769531 16.898438 151.792969 16.898438 C 129.632812 16.898438 109.316406 22.953125 93.484375 33.054688 C 77.65625 43.15625 66.277344 57.332031 62.164062 73.589844 L 63.535156 73.9375 L 63.179688 72.570312 C 45.238281 77.242188 29.773438 86.058594 18.757812 97.601562 C 7.738281 109.132812 1.171875 123.4375 1.175781 138.941406 C 1.171875 158.445312 11.527344 176.035156 28.074219 188.671875 C 44.625 201.316406 67.398438 209.089844 92.523438 209.09375 C 111.878906 209.09375 129.800781 204.445312 144.589844 196.550781 L 143.925781 195.304688 L 142.882812 196.257812 C 159.488281 214.242188 186.667969 225.910156 217.429688 225.917969 C 245.789062 225.917969 271.152344 216.015625 287.945312 200.355469 L 286.980469 199.320312 L 286.441406 200.628906 C 299.390625 206.035156 314.214844 209.09375 329.96875 209.09375 C 355.101562 209.089844 377.871094 201.316406 394.429688 188.671875 C 410.976562 176.035156 421.332031 158.445312 421.324219 138.941406 C 421.332031 123.339844 414.675781 108.941406 403.519531 97.359375 C 392.363281 85.769531 376.71875 76.949219 358.582031 72.359375 L 358.234375 73.726562 L 359.648438 73.816406 L 358.234375 73.726562 L 357.890625 75.101562 C 375.5625 79.570312 390.75 88.164062 401.480469 99.320312 C 412.21875 110.480469 418.496094 124.160156 418.496094 138.941406 C 418.496094 157.40625 408.714844 174.183594 392.710938 186.421875 C 376.710938 198.65625 354.515625 206.265625 329.96875 206.265625 C 314.582031 206.265625 300.125 203.273438 287.527344 198.015625 L 286.683594 197.667969 L 286.019531 198.285156 C 269.832031 213.386719 245.128906 223.09375 217.429688 223.09375 C 187.378906 223.09375 160.921875 211.652344 144.964844 194.34375 L 144.21875 193.542969 L 143.257812 194.054688 C 128.898438 201.722656 111.425781 206.265625 92.523438 206.265625 C 67.984375 206.265625 45.789062 198.65625 29.789062 186.421875 C 13.785156 174.183594 4.003906 157.40625 4 138.941406 C 4.003906 124.25 10.195312 110.664062 20.800781 99.550781 C 31.398438 88.445312 46.410156 79.859375 63.894531 75.308594 L 64.699219 75.097656 L 64.910156 74.285156 C 68.800781 58.867188 79.660156 45.230469 95.003906 35.441406 C 110.34375 25.648438 130.148438 19.726562 151.792969 19.726562 C 168.371094 19.726562 183.816406 23.257812 197.070312 29.28125 L 197.949219 29.683594 L 198.644531 29.003906 C 214.792969 13.195312 240.042969 2.890625 268.53125 2.890625 C 293.070312 2.890625 315.269531 10.503906 331.261719 22.738281 C 347.273438 34.980469 357.050781 51.757812 357.050781 70.222656 C 357.050781 71.28125 356.902344 72.410156 356.824219 73.644531 L 356.753906 74.8125 L 357.890625 75.101562 L 358.234375 73.726562 "/></g></g><mask id="c1231b533b"><g filter="url(#56835234a8)"><rect x="0" width="813" height="554" y="0" style="fill:#000000;fill-opacity:0.2;stroke:none;"/></g></mask></g><path style=" stroke:none;fill-rule:nonzero;fill:#eb8b56;fill-opacity:1;" d="M 357.5625 114.054688 C 357.632812 112.890625 357.792969 111.738281 357.792969 110.550781 C 357.792969 72.585938 317.523438 41.808594 267.859375 41.808594 C 239.035156 41.808594 213.449219 52.21875 196.984375 68.324219 C 183.542969 62.210938 167.898438 58.640625 151.121094 58.640625 C 107.320312 58.640625 70.875 82.589844 62.863281 114.265625 C 27.433594 123.488281 1.917969 149.074219 1.917969 179.269531 C 1.917969 217.242188 42.183594 248.007812 91.851562 248.007812 C 110.980469 248.007812 128.679688 243.40625 143.253906 235.632812 C 159.53125 253.277344 186.355469 264.835938 216.757812 264.835938 C 244.789062 264.835938 269.824219 255.027344 286.308594 239.648438 C 299.082031 244.980469 313.730469 248.007812 329.296875 248.007812 C 378.972656 248.007812 419.238281 217.242188 419.238281 179.269531 C 419.238281 148.882812 393.375 123.113281 357.5625 114.054688 "/><g clip-rule="nonzero" clip-path="url(#bfc9f3e5cc)"><path style=" stroke:none;fill-rule:nonzero;fill:#eb8b56;fill-opacity:1;" d="M 357.5625 114.054688 L 358.976562 114.144531 C 359.042969 113.046875 359.207031 111.859375 359.207031 110.550781 C 359.207031 91.050781 348.851562 73.453125 332.308594 60.816406 C 315.753906 48.171875 292.984375 40.394531 267.859375 40.394531 C 238.691406 40.394531 212.765625 50.914062 195.996094 67.3125 L 196.984375 68.324219 L 197.570312 67.035156 C 183.941406 60.839844 168.097656 57.226562 151.121094 57.226562 C 128.964844 57.226562 108.644531 63.28125 92.8125 73.382812 C 76.984375 83.484375 65.605469 97.660156 61.492188 113.917969 L 62.863281 114.265625 L 62.507812 112.898438 C 44.566406 117.570312 29.101562 126.386719 18.085938 137.929688 C 7.066406 149.460938 0.5 163.765625 0.507812 179.269531 C 0.5 198.773438 10.855469 216.363281 27.402344 229 C 43.953125 241.644531 66.726562 249.417969 91.851562 249.421875 C 111.207031 249.421875 129.128906 244.773438 143.917969 236.878906 L 143.253906 235.632812 L 142.210938 236.585938 C 158.820312 254.570312 185.996094 266.238281 216.757812 266.246094 C 245.117188 266.246094 270.480469 256.34375 287.273438 240.683594 L 286.308594 239.648438 L 285.769531 240.957031 C 298.71875 246.363281 313.542969 249.421875 329.296875 249.421875 C 354.429688 249.417969 377.199219 241.644531 393.757812 229 C 410.304688 216.363281 420.660156 198.773438 420.652344 179.269531 C 420.660156 163.667969 414.003906 149.269531 402.847656 137.6875 C 391.691406 126.097656 376.046875 117.277344 357.910156 112.6875 L 357.5625 114.054688 L 358.976562 114.144531 L 357.5625 114.054688 L 357.21875 115.429688 C 374.890625 119.898438 390.078125 128.492188 400.808594 139.648438 C 411.546875 150.808594 417.824219 164.488281 417.824219 179.269531 C 417.824219 197.734375 408.042969 214.511719 392.039062 226.75 C 376.039062 238.984375 353.84375 246.59375 329.296875 246.59375 C 313.910156 246.59375 299.453125 243.601562 286.855469 238.34375 L 286.011719 237.996094 L 285.347656 238.613281 C 269.160156 253.714844 244.457031 263.421875 216.757812 263.421875 C 186.707031 263.421875 160.25 251.980469 144.292969 234.671875 L 143.546875 233.871094 L 142.585938 234.382812 C 128.226562 242.050781 110.753906 246.59375 91.851562 246.59375 C 67.3125 246.59375 45.117188 238.984375 29.117188 226.75 C 13.113281 214.511719 3.332031 197.734375 3.328125 179.269531 C 3.332031 164.578125 9.523438 150.992188 20.128906 139.878906 C 30.726562 128.773438 45.738281 120.1875 63.222656 115.636719 L 64.027344 115.425781 L 64.238281 114.613281 C 68.128906 99.195312 78.988281 85.558594 94.332031 75.769531 C 109.671875 65.976562 129.476562 60.054688 151.121094 60.054688 C 167.699219 60.054688 183.144531 63.585938 196.398438 69.609375 L 197.277344 70.011719 L 197.972656 69.332031 C 214.121094 53.523438 239.371094 43.21875 267.859375 43.21875 C 292.398438 43.21875 314.597656 50.832031 330.589844 63.066406 C 346.601562 75.308594 356.378906 92.085938 356.378906 110.550781 C 356.378906 111.609375 356.230469 112.738281 356.152344 113.972656 L 356.082031 115.140625 L 357.21875 115.429688 L 357.5625 114.054688 "/></g></g><mask id="a59440c1f4"><g filter="url(#56835234a8)"><rect x="0" width="812.88" y="0" height="554.249966" style="fill:#000000;fill-opacity:0.2;stroke:none;"/></g></mask></g></g></g></svg>