<svg xmlns="http://www.w3.org/2000/svg" xmlns:xlink="http://www.w3.org/1999/xlink" width="1893" zoomAndPan="magnify" viewBox="0 0 1419.75 760.499977" height="1014" preserveAspectRatio="xMidYMid meet" version="1.2"><defs><filter x="0%" y="0%" width="100%" filterUnits="objectBoundingBox" id="8a4666946d" height="100%"><feColorMatrix values="0 0 0 0 1 0 0 0 0 1 0 0 0 0 1 0 0 0 1 0" type="matrix" in="SourceGraphic"/></filter><clipPath id="2975d7a405"><path d="M 0.683594 216 L 409 216 L 409 460 L 0.683594 460 Z M 0.683594 216 "/></clipPath><clipPath id="a27ae1ca9f"><path d="M 275 0.703125 L 602.511719 0.703125 L 602.511719 184 L 275 184 Z M 275 0.703125 "/></clipPath><clipPath id="af615b39f2"><path d="M 316 401 L 600 401 L 600 538.820312 L 316 538.820312 Z M 316 401 "/></clipPath><clipPath id="611d345d28"><rect x="0" width="603" y="0" height="539"/></clipPath><clipPath id="185fa6bdc9"><path d="M 1.0625 1.453125 L 421.535156 1.453125 L 421.535156 227.800781 L 1.0625 227.800781 Z M 1.0625 1.453125 "/></clipPath><clipPath id="159ccb5262"><rect x="0" width="423" y="0" height="229"/></clipPath><clipPath id="9ef14e3d66"><path d="M 0.339844 245 L 422 245 L 422 474 L 0.339844 474 Z M 0.339844 245 "/></clipPath><clipPath id="3f666aab09"><path d="M 0.339844 1.808594 L 420.816406 1.808594 L 420.816406 228 L 0.339844 228 Z M 0.339844 1.808594 "/></clipPath><clipPath id="9179478ba6"><rect x="0" width="422" y="0" height="229"/></clipPath><clipPath id="1c1799477c"><path d="M 1 0.300781 L 384.859375 0.300781 L 384.859375 245.53125 L 1 245.53125 Z M 1 0.300781 "/></clipPath><clipPath id="fb77a92810"><rect x="0" width="385" y="0" height="246"/></clipPath><clipPath id="4bff64fb68"><path d="M 1133 0 L 1419.160156 0 L 1419.160156 155 L 1133 155 Z M 1133 0 "/></clipPath><clipPath id="b0b88138f4"><path d="M 0.523438 0 L 286.085938 0 L 286.085938 153.648438 L 0.523438 153.648438 Z M 0.523438 0 "/></clipPath><clipPath id="67b7a04fff"><rect x="0" width="287" y="0" height="155"/></clipPath><clipPath id="046af3d0f5"><path d="M 0.195312 1.394531 L 285.757812 1.394531 L 285.757812 155 L 0.195312 155 Z M 0.195312 1.394531 "/></clipPath><clipPath id="3fc9df0931"><rect x="0" width="287" y="0" height="156"/></clipPath></defs><g id="1d71fb382a"><g mask="url(#d73c9cf385)" transform="matrix(1,0,0,1,210,221)"><g clip-path="url(#611d345d28)"><g clip-rule="nonzero" clip-path="url(#2975d7a405)"><path style=" stroke:none;fill-rule:nonzero;fill:#eb8b56;fill-opacity:1;" d="M 143.765625 288.609375 C 144.066406 287.226562 144.515625 286.085938 144.644531 284.914062 C 145.230469 279.683594 146.683594 274.660156 148.445312 269.75 C 150.519531 263.976562 152.964844 258.339844 155.988281 252.988281 C 157.671875 250.003906 159.472656 247.089844 161.8125 244.535156 C 163.230469 242.984375 164.347656 241.132812 165.855469 239.683594 C 168.449219 237.195312 171.148438 234.792969 173.984375 232.582031 C 176.5 230.621094 179.171875 228.828125 181.929688 227.21875 C 185.480469 225.148438 189.078125 223.167969 192.9375 221.621094 C 196.601562 220.152344 200.390625 219.199219 204.148438 218.144531 C 206.957031 217.359375 209.941406 217.214844 212.835938 216.714844 C 218.40625 215.746094 224.015625 216.332031 229.601562 216.359375 C 232.035156 216.375 234.546875 216.832031 236.960938 217.589844 C 239.445312 218.367188 242.058594 218.730469 244.558594 219.457031 C 252.203125 221.667969 259.09375 225.328125 265.492188 230.074219 C 268.980469 232.664062 272.070312 235.628906 274.941406 238.800781 C 278.71875 242.964844 281.671875 247.738281 283.921875 252.914062 C 283.980469 253.042969 284.015625 253.191406 284.105469 253.289062 C 284.398438 253.621094 284.714844 253.929688 285.023438 254.246094 C 285.03125 253.792969 285.125 253.324219 285.035156 252.890625 C 284.433594 249.929688 283.710938 247.011719 282.699219 244.144531 C 281.367188 240.386719 280.015625 236.664062 278.066406 233.171875 C 277.832031 232.75 277.886719 232.160156 277.808594 231.652344 C 278.226562 231.910156 278.730469 232.09375 279.046875 232.445312 C 282.875 236.703125 285.824219 241.53125 288.363281 246.660156 C 290.164062 250.304688 291.660156 254.058594 292.753906 257.945312 C 293.558594 260.820312 294.109375 263.765625 294.421875 266.789062 C 294.832031 270.734375 294.683594 274.660156 294.746094 278.589844 C 294.765625 279.882812 294.46875 281.179688 294.320312 282.472656 C 294.257812 283.042969 294.453125 283.332031 295.070312 283.113281 C 297.972656 282.09375 300.980469 281.816406 304.03125 281.828125 C 305.839844 281.832031 307.648438 281.84375 309.457031 281.824219 C 313.886719 281.777344 318.15625 282.730469 322.386719 283.90625 C 324.539062 284.507812 326.785156 284.972656 328.757812 285.964844 C 331.015625 287.09375 333.25 288.304688 335.285156 289.914062 C 337.851562 291.9375 340.027344 294.234375 341.75 296.957031 C 343.925781 300.394531 345.585938 304.105469 346.714844 308.003906 C 347.175781 309.585938 347.113281 311.324219 347.207031 313 C 347.296875 314.632812 347.660156 315.148438 349.167969 314.800781 C 353.90625 313.710938 358.703125 313.953125 363.492188 313.925781 C 367.984375 313.90625 372.28125 314.859375 376.589844 316.121094 C 380.703125 317.328125 384.722656 318.707031 388.464844 320.75 C 391.472656 322.394531 394.445312 324.1875 396.847656 326.714844 C 398.789062 328.761719 400.824219 330.742188 402.570312 332.945312 C 404.808594 335.765625 406.398438 339.007812 407.304688 342.492188 C 407.847656 344.566406 408.292969 346.765625 408.183594 348.882812 C 407.964844 353.214844 407.261719 357.472656 405.648438 361.59375 C 404.042969 365.695312 401.734375 369.210938 398.570312 372.230469 C 397.46875 373.289062 397.460938 373.492188 398.601562 374.554688 C 402.09375 377.808594 403.425781 382.121094 404.65625 386.519531 C 405.683594 390.195312 405.925781 393.992188 405.4375 397.667969 C 404.890625 401.808594 403.894531 405.949219 401.792969 409.691406 C 400.453125 412.085938 398.863281 414.269531 397.011719 416.308594 C 392.234375 421.570312 386.246094 424.996094 379.914062 427.988281 C 376.082031 429.800781 372.0625 431.054688 367.964844 431.832031 C 364.996094 432.398438 361.9375 432.75 358.875 432.957031 C 355.914062 433.160156 352.964844 433.207031 350.007812 433.28125 C 347.234375 433.347656 344.507812 432.914062 341.789062 432.398438 C 340.441406 432.144531 339.054688 432.097656 337.6875 431.925781 C 335.398438 431.636719 333.070312 431.515625 330.835938 430.984375 C 327.019531 430.082031 323.242188 428.980469 319.488281 427.835938 C 317.496094 427.226562 315.582031 426.355469 313.636719 425.597656 C 313.40625 425.507812 313.1875 425.375 312.96875 425.265625 C 313.054688 425.574219 313.042969 426.019531 313.246094 426.175781 C 314.09375 426.8125 314.992188 427.394531 315.894531 427.949219 C 321.671875 431.53125 327.476562 435.070312 334.050781 437.046875 C 335.269531 437.414062 336.5625 437.527344 337.800781 437.828125 C 338.105469 437.90625 338.34375 438.269531 338.613281 438.503906 C 338.339844 438.574219 338.070312 438.691406 337.792969 438.703125 C 332.457031 438.976562 327.3125 438.015625 322.179688 436.582031 C 318.53125 435.558594 314.96875 434.390625 311.519531 432.835938 C 305.5625 430.15625 300.734375 426.003906 296.488281 421.148438 C 295.546875 420.066406 295.003906 418.621094 294.328125 417.3125 C 293.253906 415.222656 292.90625 415.1875 291.066406 416.851562 C 290.105469 417.722656 289.078125 418.542969 287.996094 419.257812 C 284.648438 421.464844 280.90625 422.859375 277.167969 424.210938 C 274.601562 425.136719 271.929688 425.75 269.300781 426.503906 C 266.894531 427.191406 264.441406 427.566406 261.960938 427.929688 C 257.117188 428.640625 252.28125 428.238281 247.445312 428.257812 C 244.527344 428.269531 241.613281 427.660156 238.800781 426.804688 C 236.734375 426.171875 234.664062 425.515625 232.683594 424.65625 C 231.339844 424.074219 230.105469 423.195312 228.917969 422.3125 C 228.332031 421.875 228.066406 421.976562 227.640625 422.417969 C 226.539062 423.554688 225.394531 424.652344 224.292969 425.785156 C 220.582031 429.585938 215.957031 431.925781 211.066406 433.691406 C 207.316406 435.042969 203.417969 435.871094 199.367188 436.089844 C 197.789062 436.171875 196.183594 436.429688 194.578125 436.449219 C 190.933594 436.492188 187.359375 435.839844 183.847656 435.039062 C 179.351562 434.019531 175.109375 432.199219 170.96875 430.140625 C 167.722656 428.523438 164.703125 426.636719 162.230469 423.953125 C 161.667969 423.34375 161.070312 422.765625 160.472656 422.191406 C 159.449219 421.210938 159.476562 421.238281 158.679688 422.574219 C 157.667969 424.269531 156.664062 425.980469 155.53125 427.597656 C 153.519531 430.476562 151.214844 433.054688 148.4375 435.292969 C 146.175781 437.109375 143.976562 438.988281 141.613281 440.691406 C 138.734375 442.757812 135.617188 444.355469 132.484375 445.957031 C 131.792969 446.308594 131.046875 446.679688 130.539062 447.230469 C 127.757812 450.261719 124.042969 451.851562 120.472656 453.535156 C 117.148438 455.101562 113.523438 456.019531 110.054688 457.296875 C 107.8125 458.125 105.496094 458.484375 103.136719 458.589844 C 98.90625 458.789062 94.644531 458.660156 90.453125 459.148438 C 88.007812 459.4375 85.582031 459.605469 83.171875 459.449219 C 80.394531 459.273438 77.644531 458.664062 74.886719 458.214844 C 72.066406 457.757812 69.234375 457.359375 66.441406 456.769531 C 64.25 456.304688 62.082031 455.679688 59.957031 454.96875 C 56.589844 453.835938 53.289062 452.5 49.914062 451.394531 C 46.894531 450.40625 44.144531 448.960938 41.371094 447.429688 C 38.027344 445.578125 34.835938 443.511719 31.6875 441.386719 C 29.0625 439.609375 26.605469 437.558594 24.179688 435.507812 C 22.027344 433.683594 20.015625 431.695312 17.957031 429.769531 C 13.894531 425.972656 10.46875 421.609375 7.796875 416.789062 C 5.273438 412.230469 3.355469 407.335938 1.167969 402.59375 C 1.109375 402.464844 0.898438 402.347656 0.914062 402.253906 C 1.027344 401.59375 1.179688 400.941406 1.320312 400.28125 C 1.632812 400.78125 2.09375 401.242188 2.226562 401.789062 C 2.707031 403.730469 4.28125 404.898438 5.429688 406.328125 C 8.132812 409.695312 10.921875 413.019531 13.902344 416.144531 C 15.804688 418.140625 18.082031 419.789062 20.246094 421.523438 C 22.664062 423.460938 25.140625 425.328125 27.605469 427.210938 C 30.464844 429.394531 33.332031 431.570312 36.203125 433.734375 C 38.589844 435.53125 41.132812 437.105469 43.578125 438.800781 C 47.460938 441.492188 51.730469 443.144531 56.128906 444.5625 C 60.65625 446.027344 65.242188 447.320312 69.824219 448.605469 C 70.992188 448.933594 72.246094 448.960938 73.464844 449.097656 C 73.660156 449.121094 73.871094 449.003906 74.074219 448.953125 C 73.90625 448.738281 73.777344 448.4375 73.558594 448.332031 C 73.183594 448.152344 72.742188 448.128906 72.347656 447.988281 C 69.265625 446.875 66.25 445.515625 63.09375 444.707031 C 60.199219 443.964844 57.546875 442.832031 54.933594 441.453125 C 49.3125 438.484375 43.816406 435.324219 38.699219 431.535156 C 34.847656 428.6875 30.910156 425.964844 27.480469 422.589844 C 25.632812 420.769531 23.644531 419.09375 21.769531 417.296875 C 18.765625 414.414062 16.464844 410.957031 14.03125 407.617188 C 12.613281 405.675781 11.355469 403.617188 10.113281 401.554688 C 9.429688 400.425781 8.816406 399.230469 8.359375 397.992188 C 6.972656 394.269531 5.613281 390.535156 4.367188 386.761719 C 3.675781 384.664062 3.296875 382.503906 3.078125 380.265625 C 2.777344 377.226562 3.070312 374.152344 2.609375 371.191406 C 2.132812 368.132812 2.085938 365.085938 2.347656 362.101562 C 2.675781 358.300781 3.257812 354.53125 4.363281 350.773438 C 6.417969 343.792969 9.785156 337.570312 13.78125 331.617188 C 14.566406 330.449219 15.84375 329.628906 16.777344 328.546875 C 21.546875 323.027344 27.445312 318.867188 33.546875 315.054688 C 38.472656 311.972656 43.800781 309.648438 49.578125 308.480469 C 53.28125 307.734375 56.972656 307.054688 60.773438 307.117188 C 61.683594 307.132812 62.714844 307.574219 63.539062 306.710938 C 63.648438 306.597656 64.023438 306.609375 64.195312 306.707031 C 65.65625 307.542969 67.242188 307.042969 68.761719 307.132812 C 74.839844 307.503906 80.726562 308.636719 86.386719 310.984375 C 89.636719 312.332031 92.730469 313.925781 95.6875 315.808594 C 96.785156 316.507812 97.378906 316.261719 97.648438 314.96875 C 98.839844 309.300781 101.519531 304.453125 106.054688 300.84375 C 109.648438 297.984375 113.769531 296.039062 118.277344 294.910156 C 121.96875 293.988281 125.675781 293.332031 129.476562 293.601562 C 133.667969 293.898438 137.796875 294.59375 141.6875 296.296875 C 142.851562 296.804688 143.222656 296.632812 143.3125 295.449219 C 143.476562 293.246094 143.617188 291.039062 143.765625 288.609375 M 87.929688 323.875 C 87.527344 323.574219 87.15625 323.207031 86.710938 322.980469 C 82.582031 320.847656 78.339844 319.054688 73.671875 318.433594 C 70.910156 318.066406 68.183594 317.363281 65.414062 317.152344 C 63.234375 316.984375 61.023438 317.195312 58.8125 317.4375 C 55.722656 317.773438 52.6875 318.269531 49.667969 318.910156 C 46.226562 319.640625 43.027344 321.132812 39.941406 322.695312 C 36.800781 324.285156 33.84375 326.316406 31.03125 328.445312 C 28.988281 329.992188 26.976562 331.640625 25.691406 334.050781 C 24.296875 336.660156 22.617188 339.132812 20.921875 341.570312 C 18.65625 344.828125 17.011719 348.382812 15.855469 352.132812 C 14.453125 356.664062 13.449219 361.308594 13.570312 366.105469 C 13.648438 369.207031 13.398438 372.421875 14.121094 375.382812 C 15.109375 379.417969 16.722656 383.332031 18.363281 387.171875 C 20.503906 392.1875 23.570312 396.71875 26.847656 401.042969 C 29.316406 404.300781 31.660156 407.707031 34.78125 410.4375 C 37.441406 412.761719 40.0625 415.136719 42.726562 417.460938 C 44.765625 419.242188 46.875 420.945312 48.894531 422.75 C 51.996094 425.523438 55.476562 427.65625 59.214844 429.492188 C 64.855469 432.257812 70.511719 434.96875 76.539062 436.773438 C 79.566406 437.679688 82.566406 438.707031 85.71875 439.210938 C 87.628906 439.519531 89.558594 439.796875 91.433594 440.175781 C 93.503906 440.585938 95.589844 440.570312 97.648438 440.882812 C 99.484375 441.160156 101.425781 440.851562 103.339844 440.632812 C 106.492188 440.273438 109.621094 439.863281 112.710938 439.15625 C 115.871094 438.433594 119.035156 437.710938 122.167969 436.890625 C 127.496094 435.496094 132.195312 432.851562 136.496094 429.46875 C 138.210938 428.121094 139.75 426.503906 141.59375 425.371094 C 143.746094 424.050781 145.078125 422.058594 146.441406 420.132812 C 149.757812 415.4375 151.152344 410.039062 151.429688 404.363281 C 151.566406 401.550781 154.449219 399.378906 156.8125 399.484375 C 158.898438 399.578125 160.90625 400.617188 161.855469 402.84375 C 163.050781 405.667969 164.074219 408.582031 165.53125 411.261719 C 166.648438 413.324219 168.027344 415.441406 169.808594 416.902344 C 172.394531 419.015625 175.378906 420.636719 178.59375 421.8125 C 183.640625 423.652344 188.660156 425.492188 194.164062 425.148438 C 196.660156 424.996094 199.238281 425.175781 201.644531 424.628906 C 206.570312 423.503906 211.347656 421.75 215.4375 418.707031 C 217.3125 417.3125 218.863281 415.5625 219.398438 412.898438 C 219.796875 410.898438 219.542969 408.898438 220.058594 406.890625 C 220.515625 405.132812 221.398438 403.722656 222.71875 403.078125 C 226.265625 401.339844 230.023438 403.683594 230.621094 406.570312 C 231.390625 410.25 233.53125 412.957031 237.175781 414.363281 C 240.910156 415.804688 244.667969 417.121094 248.738281 416.996094 C 252.898438 416.867188 257.082031 417.449219 261.210938 416.558594 C 263.078125 416.15625 264.980469 415.871094 266.808594 415.332031 C 271.691406 413.882812 276.5625 412.363281 281.175781 410.183594 C 282.585938 409.519531 283.886719 408.5625 284.914062 407.253906 C 286.21875 405.601562 286.96875 403.734375 287.53125 401.769531 C 288.5 398.367188 292.410156 395.675781 296.109375 398.316406 C 297.917969 399.605469 299.496094 401.3125 300.878906 403.0625 C 303.058594 405.824219 305.128906 408.667969 308.097656 410.628906 C 310.738281 412.378906 313.351562 414.289062 316.234375 415.523438 C 320.203125 417.222656 324.359375 418.535156 328.527344 419.664062 C 331.816406 420.558594 335.242188 420.953125 338.617188 421.519531 C 339.972656 421.746094 341.390625 421.679688 342.710938 422.015625 C 345.277344 422.667969 347.898438 422.679688 350.488281 422.832031 C 354.519531 423.074219 358.53125 422.457031 362.550781 422.039062 C 366.546875 421.625 370.304688 420.4375 373.9375 418.929688 C 379.730469 416.53125 384.984375 413.285156 389.363281 408.632812 C 392.867188 404.910156 394.410156 400.417969 395.0625 395.621094 C 395.550781 392.042969 394.789062 388.523438 393.441406 385.035156 C 392.378906 382.28125 390.542969 380.917969 388.082031 379.949219 C 387.511719 379.726562 386.871094 379.574219 386.265625 379.574219 C 385.640625 379.574219 385.019531 379.90625 384.394531 379.917969 C 381.914062 379.972656 379.308594 378.222656 378.867188 376.28125 C 378.253906 373.585938 379.269531 370.714844 381.507812 369.566406 C 384.042969 368.265625 386.453125 366.871094 388.722656 365.09375 C 390.6875 363.566406 392.195312 361.6875 393.226562 359.660156 C 394.4375 357.265625 395.269531 354.636719 395.714844 351.851562 C 396.15625 349.101562 395.941406 346.609375 395.1875 344.015625 C 394.289062 340.917969 392.335938 338.457031 390.332031 336.097656 C 387.84375 333.160156 384.589844 331.074219 381.183594 329.324219 C 377.328125 327.339844 373.230469 325.847656 369.035156 324.851562 C 365.542969 324.019531 361.976562 323.371094 358.3125 323.382812 C 354.875 323.390625 351.570312 324.046875 348.246094 324.753906 C 345.972656 325.242188 344.164062 326.085938 343.105469 328.386719 C 342.101562 330.578125 338.675781 331.863281 336.523438 331.003906 C 334.457031 330.175781 332.367188 327.289062 332.769531 325.167969 C 332.976562 324.070312 333.253906 322.964844 333.675781 321.933594 C 334.710938 319.40625 335.449219 316.871094 335.515625 314.085938 C 335.578125 311.488281 334.914062 309.097656 334.078125 306.746094 C 333.023438 303.777344 331.332031 301.070312 329.125 298.882812 C 326.972656 296.75 324.1875 295.398438 321.257812 294.496094 C 318.6875 293.707031 316.15625 292.824219 313.417969 292.644531 C 311.425781 292.515625 309.457031 291.976562 307.460938 291.8125 C 306.410156 291.730469 305.320312 292.230469 304.261719 292.195312 C 301.613281 292.113281 299.035156 292.484375 296.5 293.144531 C 292.132812 294.273438 287.839844 295.625 284.824219 299.285156 C 284.15625 300.097656 283.296875 300.398438 282.445312 300.671875 C 279.546875 301.613281 275.789062 298.871094 275.808594 295.824219 C 275.820312 294.304688 275.84375 292.703125 276.3125 291.292969 C 276.6875 290.179688 276.449219 289.097656 276.714844 288.070312 C 277.617188 284.613281 277.921875 281.089844 278.03125 277.546875 C 278.15625 273.605469 277.53125 269.757812 276.765625 265.886719 C 276.089844 262.464844 274.988281 259.257812 273.523438 256.136719 C 271.824219 252.511719 269.574219 249.273438 267.089844 246.117188 C 264.414062 242.714844 261.191406 239.996094 257.730469 237.5625 C 252.851562 234.128906 247.5625 231.425781 241.847656 229.550781 C 235.824219 227.570312 229.738281 226.082031 223.339844 226.210938 C 220.851562 226.257812 218.363281 226.160156 215.878906 226.234375 C 214.128906 226.289062 212.363281 226.382812 210.644531 226.699219 C 208.011719 227.183594 205.390625 227.789062 202.804688 228.5 C 199.441406 229.421875 196.039062 230.257812 192.941406 231.960938 C 190.859375 233.105469 188.703125 234.113281 186.625 235.269531 C 181.480469 238.132812 177.097656 242.023438 172.742188 245.914062 C 171.359375 247.152344 170.398438 248.851562 169.1875 250.292969 C 165.289062 254.933594 162.335938 260.1875 160.167969 265.773438 C 158.277344 270.644531 156.410156 275.550781 155.328125 280.75 C 154.605469 284.214844 153.644531 287.691406 153.367188 291.179688 C 152.96875 296.160156 153 301.21875 154.15625 306.167969 C 154.367188 307.074219 154.550781 307.996094 154.601562 308.921875 C 154.75 311.695312 152.980469 313.019531 150.707031 314.019531 C 148.667969 314.914062 147.117188 313.917969 145.636719 312.820312 C 144.339844 311.859375 143.144531 310.753906 141.976562 309.636719 C 138.335938 306.152344 133.851562 304.820312 128.980469 304.433594 C 125.679688 304.175781 122.492188 305.003906 119.394531 305.867188 C 116.917969 306.558594 114.585938 307.824219 112.570312 309.589844 C 110.480469 311.421875 109.257812 313.695312 108.605469 316.324219 C 107.894531 319.183594 107.507812 322.148438 108.585938 324.917969 C 109.222656 326.550781 109.40625 328.109375 109.402344 329.773438 C 109.394531 333.722656 105.179688 336.25 101.457031 334.785156 C 99.746094 334.109375 98.945312 332.761719 97.847656 331.558594 C 95.078125 328.53125 91.78125 326.136719 87.929688 323.875 Z M 87.929688 323.875 "/></g><g clip-rule="nonzero" clip-path="url(#a27ae1ca9f)"><path style=" stroke:none;fill-rule:nonzero;fill:#eb8b56;fill-opacity:1;" d="M 510.09375 171.171875 C 506.085938 174.777344 501.625 177.253906 496.785156 179.261719 C 492.574219 181.011719 488.207031 181.917969 483.808594 182.890625 C 482.558594 183.167969 481.359375 183.152344 480.136719 183.265625 C 478.542969 183.414062 476.929688 183.792969 475.355469 183.671875 C 472.238281 183.425781 469.113281 183.316406 465.996094 182.894531 C 464.054688 182.636719 462.207031 182.34375 460.472656 181.449219 C 460.214844 181.316406 460.019531 181.0625 459.796875 180.867188 C 460.039062 180.761719 460.277344 180.570312 460.519531 180.566406 C 462.027344 180.539062 463.535156 180.550781 465.042969 180.554688 C 469.175781 180.558594 473.15625 179.582031 477.195312 178.828125 C 482.363281 177.863281 486.867188 175.585938 491.25 172.878906 C 491.890625 172.484375 492.660156 172.292969 493.34375 171.949219 C 493.644531 171.796875 493.867188 171.492188 494.125 171.253906 C 493.71875 171.230469 493.277344 171.089844 492.910156 171.203125 C 491.710938 171.574219 490.507812 171.957031 489.371094 172.472656 C 485.296875 174.335938 480.917969 175.042969 476.609375 176.054688 C 473.585938 176.765625 470.539062 177.128906 467.460938 177.5 C 465.015625 177.789062 462.589844 177.917969 460.179688 177.777344 C 457.820312 177.636719 455.441406 177.421875 453.078125 177.019531 C 451.035156 176.667969 448.925781 176.617188 446.917969 176.023438 C 444.707031 175.371094 442.445312 174.8125 440.328125 173.917969 C 436.867188 172.457031 433.382812 170.96875 430.125 169.109375 C 426.246094 166.894531 422.285156 164.738281 418.964844 161.65625 C 417.613281 160.402344 416.152344 159.261719 414.863281 157.953125 C 414.117188 157.195312 413.707031 157.5625 413.273438 158.136719 C 409.890625 162.59375 405.878906 166.085938 400.425781 167.972656 C 396.644531 169.277344 392.886719 170.226562 388.90625 170.136719 C 386.101562 170.074219 383.273438 170.046875 380.511719 169.636719 C 378.464844 169.335938 376.496094 168.472656 374.507812 167.800781 C 374.1875 167.691406 373.925781 167.316406 373.714844 167.011719 C 373.574219 166.808594 373.570312 166.507812 373.5 166.25 C 373.78125 166.195312 374.089844 166.03125 374.332031 166.101562 C 376.800781 166.804688 379.328125 167.171875 381.871094 166.960938 C 386.066406 166.609375 390.222656 165.945312 394.269531 164.722656 C 394.464844 164.664062 394.648438 164.519531 394.804688 164.382812 C 395.082031 164.144531 395.335938 163.875 395.597656 163.621094 C 395.257812 163.539062 394.851562 163.292969 394.59375 163.398438 C 391.929688 164.492188 389.136719 164.210938 386.367188 164.289062 C 382.503906 164.398438 378.757812 163.847656 375.136719 162.472656 C 371.902344 161.242188 368.886719 159.601562 366.101562 157.570312 C 364.679688 156.535156 363.386719 155.304688 362.132812 154.0625 C 361.320312 153.253906 360.703125 153.160156 359.921875 154.042969 C 359.277344 154.777344 358.535156 155.425781 357.855469 156.128906 C 354.625 159.472656 350.9375 162.160156 346.570312 163.804688 C 344.675781 164.519531 342.734375 165.136719 340.765625 165.609375 C 336.808594 166.5625 332.730469 166.945312 328.722656 166.472656 C 321.5625 165.632812 314.546875 164.003906 308.3125 160.164062 C 306.003906 158.746094 303.953125 156.960938 302.144531 154.824219 C 300.453125 152.824219 299.121094 150.699219 297.902344 148.417969 C 296.839844 146.421875 296.433594 144.257812 296.199219 142.132812 C 295.800781 138.53125 295.808594 134.882812 295.6875 131.253906 C 295.628906 129.511719 295.15625 128.425781 293.59375 128.167969 C 291.605469 127.84375 290.144531 126.609375 288.855469 125.457031 C 283.867188 120.988281 279.625 115.863281 277.011719 109.609375 C 276.339844 108.003906 276.058594 106.203125 275.824219 104.460938 C 275.632812 103.054688 275.800781 101.605469 275.78125 100.171875 C 275.738281 96.832031 276.65625 93.671875 277.828125 90.621094 C 279.710938 85.71875 282.871094 81.613281 286.953125 78.398438 C 289.628906 76.285156 292.460938 74.242188 295.914062 73.335938 C 297.167969 73.007812 298.238281 71.980469 299.492188 71.636719 C 302.398438 70.835938 305.332031 70.054688 308.414062 70.226562 C 309.386719 70.28125 310.371094 70.242188 311.347656 70.234375 C 313.113281 70.21875 313.015625 70.238281 312.578125 68.34375 C 312.117188 66.332031 311.535156 64.265625 311.566406 62.230469 C 311.636719 57.273438 312.925781 52.695312 315.433594 48.246094 C 317.554688 44.480469 320.359375 41.488281 323.449219 38.738281 C 326.386719 36.125 329.976562 34.335938 333.585938 32.726562 C 337.683594 30.894531 341.878906 29.363281 346.351562 28.597656 C 348.558594 28.222656 350.734375 27.777344 352.988281 27.71875 C 355.113281 27.660156 357.242188 27.25 359.355469 27.320312 C 365.300781 27.527344 371.070312 28.609375 376.558594 31.050781 C 381.425781 33.21875 385.9375 35.933594 390.125 39.21875 C 392.796875 41.308594 395.492188 43.367188 398.160156 45.460938 C 398.777344 45.945312 398.976562 46.074219 399.25 45.09375 C 400.25 41.519531 402.378906 38.613281 404.828125 35.871094 C 407.386719 33.007812 410.460938 30.898438 413.835938 29.207031 C 416.050781 28.09375 418.488281 27.597656 420.949219 27.28125 C 421.945312 27.152344 422.929688 26.953125 423.929688 26.839844 C 425.039062 26.714844 426.097656 26.863281 426.972656 27.675781 C 427.148438 27.839844 427.425781 27.898438 427.65625 28.003906 C 427.367188 28.214844 427.105469 28.542969 426.785156 28.617188 C 426.015625 28.796875 425.203125 28.78125 424.441406 28.976562 C 421.476562 29.734375 419.128906 31.605469 416.820312 33.464844 C 415.417969 34.59375 414.226562 35.976562 412.972656 37.28125 C 412.636719 37.632812 412.386719 38.085938 412.179688 38.53125 C 412.054688 38.800781 412.09375 39.144531 412.058594 39.453125 C 412.316406 39.375 412.640625 39.363281 412.820312 39.199219 C 415.980469 36.40625 419.746094 34.933594 423.808594 34.058594 C 426.894531 33.394531 430.007812 32.984375 433.152344 33.183594 C 438.023438 33.492188 442.667969 34.507812 446.746094 37.472656 C 449.082031 39.171875 451.691406 40.496094 454.042969 42.175781 C 455.125 42.949219 455.351562 42.566406 455.742188 41.648438 C 456.289062 40.367188 457.167969 39.1875 457.484375 37.859375 C 458.039062 35.519531 459.523438 33.703125 460.652344 31.714844 C 462.121094 29.125 463.929688 26.71875 465.691406 24.304688 C 466.890625 22.664062 468.183594 21.074219 469.566406 19.585938 C 471.410156 17.597656 473.335938 15.679688 475.3125 13.828125 C 477.886719 11.417969 480.808594 9.449219 483.789062 7.578125 C 487.128906 5.480469 490.722656 3.953125 494.472656 2.8125 C 496.292969 2.257812 498.171875 1.890625 500.042969 1.523438 C 503.945312 0.761719 507.910156 0.925781 511.832031 1.109375 C 519.546875 1.46875 527.058594 2.835938 533.804688 6.945312 C 535.878906 8.210938 537.984375 9.425781 539.753906 11.148438 C 542.851562 14.167969 546 17.136719 549.148438 20.105469 C 552.117188 22.90625 554.226562 26.328125 556.171875 29.855469 C 557.589844 32.429688 559.054688 34.984375 560.308594 37.636719 C 562.0625 41.351562 563.730469 45.109375 565.246094 48.925781 C 566.003906 50.824219 566.570312 52.835938 566.515625 54.960938 C 566.472656 56.546875 566.644531 56.632812 568.34375 56.675781 C 571.824219 56.761719 575.300781 57.074219 578.613281 58.09375 C 580.71875 58.742188 582.683594 59.925781 584.613281 61.039062 C 587.34375 62.609375 589.75 64.636719 591.882812 66.941406 C 594.851562 70.148438 597.1875 73.6875 598.691406 77.90625 C 599.992188 81.554688 600.558594 85.285156 601.375 89.007812 C 602.1875 92.726562 602.332031 96.441406 602.175781 100.171875 C 602.023438 103.800781 601.300781 107.332031 599.605469 110.625 C 598.714844 112.355469 598.085938 114.214844 597.226562 115.964844 C 595.527344 119.417969 593.316406 122.566406 590.441406 125.105469 C 587.988281 127.273438 585.386719 129.296875 582.445312 130.847656 C 579.84375 132.21875 577.269531 133.558594 574.457031 134.496094 C 572.320312 135.207031 570.207031 135.40625 568.03125 135.320312 C 566.773438 135.273438 565.996094 135.503906 565.21875 136.75 C 562.53125 141.027344 558.359375 143.164062 553.558594 144.433594 C 550.300781 145.292969 547.019531 145.527344 543.753906 145.222656 C 539.972656 144.871094 536.277344 143.929688 532.964844 141.855469 C 531.539062 140.964844 530.914062 141.28125 530.324219 142.820312 C 528.242188 148.246094 525.554688 153.386719 522.597656 158.367188 C 521.601562 160.042969 520.136719 161.457031 518.792969 162.898438 C 517.203125 164.605469 515.53125 166.242188 513.84375 167.855469 C 512.675781 168.96875 511.421875 169.992188 510.09375 171.171875 M 451.207031 51.472656 C 448.859375 49.878906 446.496094 48.304688 444.164062 46.683594 C 439.960938 43.765625 435.429688 41.882812 430.195312 42.214844 C 428.898438 42.296875 427.589844 42.414062 426.320312 42.675781 C 423.695312 43.222656 421.128906 44.164062 419.03125 45.761719 C 414.386719 49.296875 412.289062 54.371094 411.464844 59.984375 C 411.191406 61.828125 409.945312 62.632812 408.609375 63.25 C 407.3125 63.851562 405.914062 63.546875 404.800781 62.488281 C 401.988281 59.820312 399.183594 57.148438 396.355469 54.503906 C 395.0625 53.296875 393.792969 52.042969 392.375 51.003906 C 388.808594 48.382812 385.210938 45.800781 381.539062 43.335938 C 379.5625 42.015625 377.457031 40.851562 375.308594 39.832031 C 373.492188 38.964844 371.554688 38.328125 369.625 37.734375 C 365.90625 36.589844 362.125 35.707031 358.191406 35.886719 C 356.367188 35.972656 354.550781 36.261719 352.726562 36.304688 C 350.90625 36.34375 349.171875 36.734375 347.453125 37.238281 C 344.640625 38.066406 341.734375 38.566406 339.074219 39.929688 C 334.332031 42.355469 329.578125 44.730469 326.15625 49.023438 C 323.207031 52.726562 319.902344 58.410156 320.960938 64.375 C 321.4375 67.058594 321.886719 69.648438 323.679688 71.855469 C 324.460938 72.816406 324.945312 74.03125 325.507812 75.15625 C 326.265625 76.65625 325.957031 77.972656 324.878906 79.265625 C 323.480469 80.953125 320.984375 80.914062 319.492188 80.257812 C 317.070312 79.195312 314.523438 78.570312 311.90625 78.398438 C 306.847656 78.066406 302.183594 79.351562 297.761719 81.886719 C 293.894531 84.105469 290.878906 87.03125 288.90625 91.011719 C 287.710938 93.421875 287.175781 96.027344 286.535156 98.632812 C 285.949219 101.003906 286.636719 102.941406 287.28125 105.023438 C 287.734375 106.503906 288.804688 107.566406 289.636719 108.804688 C 292.316406 112.765625 295.769531 115.964844 299.449219 118.890625 C 300.992188 120.121094 302.691406 121.488281 304.96875 121.367188 C 305.425781 121.34375 305.894531 121.664062 306.367188 121.773438 C 308.871094 122.34375 310.523438 125.183594 309.210938 126.929688 C 307.6875 128.957031 305.75 130.472656 302.984375 130.371094 C 302.230469 130.34375 301.464844 130.285156 300.730469 130.398438 C 300.304688 130.46875 299.71875 130.402344 300.058594 131.460938 C 300.789062 133.742188 300.882812 136.230469 301.609375 138.515625 C 302.433594 141.117188 303.507812 143.703125 305.425781 145.734375 C 309.066406 149.59375 313.546875 152.207031 318.550781 153.84375 C 321.417969 154.785156 324.375 155.488281 327.332031 156.097656 C 328.882812 156.417969 330.535156 156.367188 332.113281 156.472656 C 334.523438 156.628906 337.03125 156.199219 339.402344 155.625 C 341.617188 155.089844 343.839844 154.273438 345.8125 153.144531 C 347.679688 152.074219 349.335938 150.554688 350.882812 149.03125 C 353.324219 146.632812 355.550781 144.019531 357.957031 141.585938 C 360.339844 139.175781 364.292969 139.800781 365.792969 142.875 C 367.4375 146.253906 369.710938 148.929688 372.933594 150.9375 C 377.199219 153.597656 381.753906 155.050781 386.757812 155.246094 C 390.125 155.375 393.351562 154.808594 396.605469 153.929688 C 401.28125 152.667969 405.640625 150.898438 409.496094 147.914062 C 411.824219 146.109375 415.203125 145.988281 416.890625 148.257812 C 417.632812 149.25 418.445312 150.195312 419.285156 151.109375 C 422.9375 155.082031 427.457031 157.878906 432.175781 160.359375 C 435.320312 162.015625 438.527344 163.574219 441.785156 164.984375 C 444.558594 166.183594 447.441406 167.007812 450.46875 167.53125 C 453.523438 168.054688 456.519531 168.78125 459.644531 168.808594 C 464.824219 168.859375 469.9375 168.453125 474.945312 167.007812 C 477.714844 166.210938 480.585938 165.738281 483.339844 164.886719 C 488.417969 163.308594 493.328125 161.277344 497.816406 158.386719 C 502.207031 155.554688 506.675781 152.898438 510.09375 148.703125 C 512.914062 145.238281 515.050781 141.457031 517.03125 137.53125 C 517.5 136.605469 517.949219 135.601562 518.082031 134.589844 C 518.359375 132.484375 518.46875 130.351562 518.558594 128.226562 C 518.65625 125.871094 520.296875 123.675781 522.746094 122.800781 C 524.199219 122.285156 527.296875 123.316406 528.269531 124.980469 C 529.855469 127.699219 532.019531 129.808594 534.519531 131.605469 C 539.691406 135.328125 545.21875 136.734375 551.5625 134.769531 C 555.289062 133.617188 557.367188 131.351562 558.371094 127.773438 C 558.59375 126.972656 558.886719 126.171875 559.277344 125.441406 C 560.199219 123.707031 562.636719 122.636719 564.175781 123.328125 C 565.464844 123.910156 566.789062 124.476562 567.445312 125.949219 C 567.621094 126.34375 568.339844 126.679688 568.824219 126.707031 C 569.59375 126.75 570.382812 126.535156 571.15625 126.378906 C 573.839844 125.84375 575.992188 124.171875 578.261719 122.820312 C 580.289062 121.613281 582.136719 120.070312 583.945312 118.539062 C 587.710938 115.355469 589.914062 111.058594 591.714844 106.625 C 592.691406 104.21875 593.226562 101.605469 593.242188 98.863281 C 593.265625 94.746094 592.675781 90.738281 591.769531 86.78125 C 591.027344 83.519531 590.0625 80.320312 588.238281 77.394531 C 585.871094 73.59375 582.753906 70.570312 579.078125 68.203125 C 574.878906 65.503906 569.996094 65.113281 565.167969 65.375 C 563.832031 65.445312 562.425781 65.585938 561.054688 65.714844 C 559.957031 65.816406 559.148438 65.273438 558.347656 64.597656 C 556.28125 62.851562 556.664062 60.351562 557.15625 58.40625 C 557.648438 56.457031 557.113281 54.785156 556.753906 53.171875 C 556.144531 50.414062 554.988281 47.738281 553.796875 45.15625 C 552.070312 41.417969 550.144531 37.769531 548.222656 34.128906 C 546.679688 31.199219 544.914062 28.394531 542.472656 26.117188 C 539.449219 23.296875 536.433594 20.457031 533.238281 17.835938 C 531.164062 16.132812 528.945312 14.40625 526.5 13.40625 C 521.1875 11.234375 515.597656 9.957031 509.789062 10.117188 C 507.136719 10.191406 504.410156 10.058594 501.855469 10.640625 C 498.058594 11.5 494.277344 12.550781 490.851562 14.601562 C 486.882812 16.984375 483.039062 19.511719 479.820312 22.871094 C 478.027344 24.746094 476.265625 26.65625 474.546875 28.597656 C 472.082031 31.382812 470.070312 34.507812 468.421875 37.8125 C 466.3125 42.050781 464.503906 46.4375 462.496094 50.722656 C 461.054688 53.800781 459.113281 54.597656 455.886719 53.492188 C 454.375 52.976562 452.914062 52.300781 451.207031 51.472656 Z M 451.207031 51.472656 "/></g><g clip-rule="nonzero" clip-path="url(#af615b39f2)"><path style=" stroke:none;fill-rule:nonzero;fill:#eb8b56;fill-opacity:1;" d="M 422.835938 425.714844 C 424.535156 423.203125 425.949219 420.691406 428.054688 418.667969 C 430.054688 416.746094 432.015625 414.78125 433.941406 412.785156 C 437.433594 409.175781 441.925781 407.148438 446.316406 404.984375 C 449.28125 403.519531 452.496094 402.789062 455.722656 402.035156 C 459.957031 401.046875 464.210938 401.066406 468.46875 401.230469 C 472.910156 401.394531 477.292969 402.066406 481.613281 403.269531 C 485.597656 404.378906 488.992188 406.335938 492.1875 408.890625 C 496.792969 412.566406 500.253906 417.113281 503.257812 422.128906 C 504.386719 424.011719 505.328125 425.9375 506.207031 427.925781 C 506.925781 429.539062 507.105469 429.582031 508.246094 428.453125 C 510.082031 426.644531 512.53125 426.078125 514.796875 425.160156 C 517.144531 424.207031 519.5625 423.636719 522.144531 423.757812 C 523.203125 423.808594 524.308594 423.257812 525.339844 423.386719 C 527.957031 423.714844 530.613281 423.867188 533.144531 424.699219 C 534.9375 425.285156 536.816406 425.707031 538.472656 426.554688 C 540.480469 427.578125 542.347656 428.90625 544.183594 430.226562 C 545.433594 431.121094 546.53125 432.222656 547.679688 433.253906 C 547.769531 433.332031 547.730469 433.5625 547.75 433.722656 C 547.601562 433.726562 547.417969 433.792969 547.3125 433.730469 C 546.269531 433.140625 545.25 432.523438 544.210938 431.933594 C 540.96875 430.085938 537.445312 429.195312 533.769531 428.75 C 531.925781 428.527344 530.109375 427.972656 528.265625 427.910156 C 526.226562 427.839844 524.171875 428.15625 522.125 428.332031 C 521.984375 428.34375 521.769531 428.589844 521.761719 428.734375 C 521.753906 428.890625 521.945312 429.1875 522.066406 429.195312 C 522.816406 429.238281 523.570312 429.21875 524.324219 429.21875 C 528.167969 429.199219 531.964844 429.691406 535.535156 431.074219 C 538.074219 432.058594 540.496094 433.296875 542.757812 434.976562 C 546.425781 437.695312 548.605469 441.402344 550.652344 445.273438 C 551.136719 446.191406 551.488281 447.199219 551.769531 448.199219 C 552.070312 449.28125 552.867188 449.238281 553.617188 449.066406 C 554.28125 448.914062 554.875 448.476562 555.519531 448.210938 C 557.507812 447.394531 559.570312 446.882812 561.734375 446.855469 C 563.167969 446.832031 564.601562 446.910156 566.027344 446.839844 C 569.40625 446.667969 572.535156 447.691406 575.550781 448.957031 C 578.121094 450.035156 580.792969 451.144531 582.957031 452.832031 C 585.71875 454.988281 587.953125 457.808594 590.523438 460.21875 C 593.042969 462.578125 594.414062 465.679688 596.035156 468.582031 C 597.070312 470.433594 597.574219 472.621094 598.109375 474.710938 C 598.570312 476.503906 598.800781 478.363281 599.03125 480.210938 C 599.210938 481.648438 598.785156 483.140625 599.472656 484.550781 C 599.652344 484.917969 599.6875 485.605469 599.46875 485.863281 C 598.707031 486.746094 599.121094 487.726562 599.0625 488.648438 C 598.773438 493.140625 597.433594 497.09375 594.160156 500.4375 C 591.507812 503.148438 588.328125 504.757812 584.882812 505.929688 C 583.410156 506.433594 581.742188 506.425781 580.15625 506.507812 C 578.351562 506.597656 576.535156 506.613281 574.730469 506.5 C 573.59375 506.425781 572.84375 506.859375 572.386719 507.777344 C 569.917969 512.703125 566.113281 516.433594 561.96875 519.953125 C 559.046875 522.4375 555.992188 524.6875 552.800781 526.78125 C 548.582031 529.550781 544.039062 531.34375 539.054688 532.375 C 532.996094 533.632812 526.921875 533.296875 520.878906 533.109375 C 514.375 532.914062 508.417969 530.363281 502.832031 527.125 C 500.855469 525.980469 499.054688 524.488281 497.316406 522.984375 C 494.957031 520.945312 492.734375 518.746094 490.453125 516.617188 C 490.234375 516.40625 490 516.207031 489.820312 515.972656 C 488.386719 514.117188 488.382812 514.191406 486.902344 516.136719 C 484.335938 519.519531 481.734375 522.929688 478.195312 525.347656 C 476.199219 526.710938 473.910156 527.691406 471.667969 528.660156 C 467.976562 530.257812 464.183594 531.488281 460.113281 531.898438 C 456.847656 532.226562 453.597656 532.742188 450.3125 532.726562 C 448.789062 532.71875 447.269531 532.453125 445.75 532.300781 C 444.234375 532.144531 442.703125 532.125 441.179688 531.972656 C 438.304688 531.679688 435.496094 531.152344 432.71875 530.460938 C 428.511719 529.414062 424.59375 527.660156 421.308594 524.753906 C 419.742188 523.367188 418.304688 521.828125 416.859375 520.308594 C 416.246094 519.664062 415.832031 519.425781 415.097656 520.21875 C 413.5625 521.878906 411.867188 523.382812 410.332031 525.042969 C 406.394531 529.304688 401.433594 531.875 396.027344 533.621094 C 392.59375 534.730469 389.105469 535.632812 385.453125 535.980469 C 382.210938 536.285156 379.019531 537.144531 375.796875 537.714844 C 374.515625 537.9375 373.214844 538.113281 371.917969 538.160156 C 367.160156 538.351562 362.398438 538.519531 357.640625 538.617188 C 354.722656 538.675781 351.855469 538.046875 348.96875 537.800781 C 345.515625 537.5 342.183594 536.730469 338.890625 535.855469 C 336.488281 535.21875 334.203125 534.085938 331.929688 533.035156 C 326.457031 530.515625 322.824219 526.183594 320.0625 520.945312 C 318.746094 518.449219 317.476562 515.882812 317.109375 513.152344 C 316.738281 510.410156 316.125 507.683594 316.792969 504.730469 C 317.449219 501.839844 317.878906 498.871094 318.757812 496.023438 C 319.847656 492.476562 321.578125 489.273438 324.066406 486.457031 C 325.488281 484.851562 326.480469 482.851562 327.96875 481.332031 C 329.910156 479.347656 331.964844 477.355469 334.308594 475.925781 C 337.757812 473.832031 341.445312 472.097656 345.152344 470.480469 C 346.742188 469.789062 348.640625 469.835938 350.375 469.445312 C 354.28125 468.554688 358.238281 469.199219 362.167969 469.019531 C 362.644531 469 363.15625 469.171875 363.59375 469.371094 C 363.785156 469.457031 363.835938 469.851562 363.949219 470.105469 C 363.6875 470.191406 363.390625 470.402344 363.171875 470.339844 C 361.03125 469.742188 358.921875 470.382812 356.96875 470.898438 C 353.277344 471.871094 349.644531 473.164062 346.203125 474.890625 C 345.574219 475.207031 345.015625 475.667969 344.441406 476.089844 C 344.304688 476.191406 344.246094 476.402344 344.152344 476.558594 C 344.359375 476.601562 344.59375 476.730469 344.773438 476.675781 C 346.3125 476.210938 347.835938 475.703125 349.367188 475.222656 C 351.339844 474.601562 353.363281 474.269531 355.390625 473.890625 C 358.703125 473.277344 361.816406 474.089844 365.019531 474.398438 C 368.722656 474.761719 372.332031 475.472656 375.863281 476.625 C 376.617188 476.871094 377.148438 476.59375 377.507812 475.933594 C 377.976562 475.074219 378.304688 474.117188 378.886719 473.347656 C 382.335938 468.78125 386.457031 465.132812 391.957031 463.054688 C 394.722656 462.007812 397.59375 461.414062 400.363281 460.433594 C 400.765625 460.292969 401.257812 460.414062 401.710938 460.414062 C 403.746094 460.414062 405.785156 460.523438 407.8125 460.386719 C 410.199219 460.226562 412.375 460.910156 414.421875 461.914062 C 415.539062 462.460938 415.492188 462.0625 415.488281 461.246094 C 415.484375 460.117188 415.449219 458.984375 415.496094 457.855469 C 415.625 454.902344 415.644531 451.9375 415.972656 449.007812 C 416.539062 443.925781 417.308594 438.859375 419.136719 434.050781 C 420.125 431.453125 421.417969 428.96875 422.566406 426.429688 C 422.648438 426.246094 422.671875 426.027344 422.835938 425.714844 M 386.101562 479.175781 C 385.875 480.714844 385.085938 482.152344 385.617188 483.816406 C 386.039062 485.152344 385.257812 486.359375 384.585938 487.429688 C 383.433594 489.261719 380.875 490.070312 378.777344 489.332031 C 377.335938 488.820312 375.988281 488.039062 374.539062 487.566406 C 372.410156 486.867188 370.238281 486.289062 368.058594 485.746094 C 366.546875 485.367188 365.011719 485.054688 363.464844 484.847656 C 361.730469 484.613281 359.933594 484.710938 358.238281 484.332031 C 355.839844 483.789062 353.554688 483.949219 351.136719 484.304688 C 347.460938 484.847656 344.035156 486.132812 340.742188 487.617188 C 336.375 489.582031 332.933594 492.910156 330.144531 496.785156 C 329.230469 498.050781 328.390625 499.679688 328.324219 501.179688 C 328.167969 504.5625 327.734375 508.042969 329.523438 511.265625 C 330.191406 512.46875 330.34375 513.949219 330.972656 515.179688 C 332.65625 518.5 334.492188 521.683594 338.195312 523.285156 C 340.910156 524.460938 343.605469 525.480469 346.546875 526.074219 C 350.582031 526.886719 354.589844 527.667969 358.707031 527.769531 C 360.664062 527.820312 362.625 527.777344 364.582031 527.777344 C 366.164062 527.777344 367.757812 527.894531 369.324219 527.75 C 371.320312 527.566406 373.292969 527.144531 375.28125 526.882812 C 376.796875 526.683594 378.335938 526.667969 379.835938 526.402344 C 382.914062 525.863281 385.957031 525.136719 389.039062 524.632812 C 393.339844 523.929688 397.324219 522.410156 400.878906 519.945312 C 403.113281 518.390625 405.246094 516.695312 406.980469 514.464844 C 408.613281 512.367188 410.410156 510.390625 411.539062 507.96875 C 413.015625 504.796875 417.140625 503.453125 420.113281 505.859375 C 421.378906 506.878906 422.335938 508.070312 423.035156 509.394531 C 424.671875 512.511719 426.902344 515.074219 429.621094 517.230469 C 430.429688 517.871094 431.414062 518.339844 432.386719 518.71875 C 437.988281 520.917969 443.878906 521.671875 449.828125 521.859375 C 453.070312 521.960938 456.320312 521.980469 459.59375 521.53125 C 462.796875 521.097656 465.839844 520.304688 468.738281 519.007812 C 471.65625 517.703125 474.480469 516.214844 476.320312 513.339844 C 477.597656 511.347656 479.09375 509.480469 480.625 507.667969 C 482.296875 505.683594 484.089844 503.804688 485.898438 501.945312 C 486.3125 501.523438 486.984375 501.207031 487.574219 501.128906 C 490.992188 500.6875 493.621094 501.816406 495.554688 504.839844 C 497.253906 507.496094 499.183594 510.03125 501.25 512.414062 C 502.902344 514.320312 505.167969 515.585938 507.160156 517.136719 C 512.097656 520.988281 517.730469 522.46875 523.8125 522.8125 C 525.710938 522.917969 527.613281 523.292969 529.5 523.210938 C 531.71875 523.113281 533.914062 522.574219 536.132812 522.367188 C 540.734375 521.945312 544.855469 520.328125 548.738281 517.855469 C 553.449219 514.855469 558.113281 511.832031 561.460938 507.238281 C 563.179688 504.886719 565.066406 502.574219 564.734375 499.3125 C 564.671875 498.699219 565.121094 497.96875 565.488281 497.390625 C 567.195312 494.703125 570.011719 494.847656 572.472656 495.328125 C 575.445312 495.90625 578.402344 496.339844 581.375 496.066406 C 583.558594 495.867188 585.574219 494.917969 586.855469 492.871094 C 587.890625 491.214844 588.347656 489.445312 588.71875 487.523438 C 589.457031 483.703125 589.226562 480.003906 588.175781 476.324219 C 587.605469 474.316406 587.023438 472.304688 585.871094 470.5 C 583.777344 467.207031 581.40625 464.179688 578.390625 461.652344 C 574.34375 458.261719 569.71875 456.347656 564.496094 455.929688 C 563.222656 455.828125 561.867188 456.035156 560.625 456.375 C 557.660156 457.195312 554.792969 458.21875 553.207031 461.230469 C 552.777344 462.050781 552.097656 462.75 551.46875 463.445312 C 550.28125 464.761719 548.636719 464.820312 547.214844 464.324219 C 545.660156 463.777344 544.015625 462.984375 543.878906 460.867188 C 543.78125 459.421875 543.730469 457.945312 543.378906 456.554688 C 542.769531 454.191406 542.164062 451.824219 541.238281 449.539062 C 540.585938 447.9375 539.792969 446.4375 538.746094 445.160156 C 535.082031 440.691406 530.042969 439.054688 524.488281 438.734375 C 522.589844 438.625 520.6875 438.65625 518.792969 439.128906 C 516.902344 439.605469 515.148438 440.175781 513.675781 441.542969 C 512.003906 443.09375 510.824219 444.992188 509.71875 446.925781 C 508.527344 449.007812 507 450.210938 504.464844 450.042969 C 502.277344 449.894531 500.210938 448.347656 500.066406 446.207031 C 499.871094 443.402344 499.066406 440.71875 498.6875 437.957031 C 498.304688 435.214844 497.339844 432.660156 496.21875 430.164062 C 495.085938 427.644531 493.535156 425.363281 491.917969 423.128906 C 489.863281 420.292969 487.449219 417.761719 484.664062 415.695312 C 480.722656 412.769531 476.054688 411.839844 471.238281 411.589844 C 470.5625 411.554688 469.835938 411.742188 469.210938 411.558594 C 465.480469 410.464844 461.769531 411.246094 458.109375 411.773438 C 455.863281 412.09375 453.730469 413.160156 451.53125 413.839844 C 446.605469 415.363281 442.492188 418.277344 438.730469 421.636719 C 434.285156 425.609375 430.9375 430.417969 428.570312 435.941406 C 426.5 440.757812 425.601562 445.808594 424.980469 450.953125 C 424.3125 456.480469 424.261719 462.003906 424.976562 467.527344 C 425.035156 467.972656 425.054688 468.445312 424.96875 468.882812 C 424.632812 470.605469 424.050781 472.257812 422.210938 472.867188 C 420.8125 473.332031 419.324219 473.289062 417.96875 472.597656 C 416.285156 471.742188 414.6875 470.699219 412.964844 469.941406 C 411.570312 469.324219 410.070312 468.765625 408.566406 468.597656 C 404.914062 468.191406 401.296875 468.746094 397.84375 469.933594 C 392.996094 471.601562 388.75 474.140625 386.101562 479.175781 Z M 386.101562 479.175781 "/></g><path style=" stroke:none;fill-rule:nonzero;fill:#eb8b56;fill-opacity:1;" d="M 442.617188 32.710938 C 439.4375 31.65625 436.488281 30.601562 433.535156 29.546875 C 433.207031 29.429688 432.886719 29.277344 432.546875 29.207031 C 431.980469 29.09375 431.523438 28.824219 431.796875 28.222656 C 431.976562 27.835938 432.460938 27.339844 432.820312 27.328125 C 434.929688 27.257812 437.058594 27.109375 439.0625 28.027344 C 440.835938 28.839844 442.632812 29.597656 444.378906 30.464844 C 445.71875 31.132812 446.503906 32.449219 446.085938 33.082031 C 445.605469 33.816406 444.695312 33.804688 443.164062 33.023438 C 443.035156 32.960938 442.949219 32.816406 442.617188 32.710938 Z M 442.617188 32.710938 "/><path style=" stroke:none;fill-rule:nonzero;fill:#eb8b56;fill-opacity:1;" d="M 354.90625 439.164062 C 353.390625 439.316406 352.101562 439.605469 350.8125 439.585938 C 348.621094 439.546875 346.433594 439.332031 344.246094 439.148438 C 343.847656 439.113281 343.441406 438.90625 343.09375 438.695312 C 342.902344 438.578125 342.824219 438.277344 342.699219 438.058594 C 342.882812 437.976562 343.074219 437.8125 343.253906 437.824219 C 343.824219 437.855469 344.390625 437.96875 344.960938 438.035156 C 345.679688 438.117188 346.511719 438.453125 347.097656 438.207031 C 348.539062 437.605469 350.015625 438.039062 351.429688 437.777344 C 353.253906 437.4375 355.109375 437.332031 356.941406 437.015625 C 358.761719 436.703125 360.621094 436.59375 362.402344 436.015625 C 362.566406 435.960938 362.972656 436.128906 362.96875 436.175781 C 362.957031 436.4375 362.921875 436.84375 362.757812 436.921875 C 361.765625 437.410156 360.765625 437.964844 359.703125 438.222656 C 358.449219 438.527344 357.128906 438.542969 355.847656 438.726562 C 355.59375 438.765625 355.371094 439.011719 354.90625 439.164062 Z M 354.90625 439.164062 "/><path style=" stroke:none;fill-rule:nonzero;fill:#eb8b56;fill-opacity:1;" d="M 554.289062 443.234375 C 554.132812 443.617188 553.992188 443.824219 553.804688 443.910156 C 553.722656 443.945312 553.457031 443.757812 553.394531 443.617188 C 552.421875 441.40625 551.535156 439.15625 550.476562 436.988281 C 550.128906 436.277344 550.578125 436.386719 550.824219 436.476562 C 551.257812 436.640625 551.863281 436.878906 551.988281 437.234375 C 552.625 438.988281 553.859375 440.539062 553.859375 442.519531 C 553.859375 442.683594 554.136719 442.847656 554.289062 443.234375 Z M 554.289062 443.234375 "/></g><mask id="d73c9cf385"><g filter="url(#8a4666946d)"><rect x="0" width="1419.75" y="0" height="760.499977" style="fill:#000000;fill-opacity:0.2;stroke:none;"/></g></mask></g><g mask="url(#2746bca8f0)" transform="matrix(1,0,0,1,69,205)"><g clip-path="url(#159ccb5262)"><path style=" stroke:none;fill-rule:nonzero;fill:#f2b581;fill-opacity:1;" d="M 358.382812 75.230469 C 358.453125 74.066406 358.613281 72.910156 358.613281 71.722656 C 358.613281 33.734375 318.316406 2.933594 268.617188 2.933594 C 239.773438 2.933594 214.167969 13.351562 197.695312 29.464844 C 184.242188 23.347656 168.585938 19.777344 151.796875 19.777344 C 107.964844 19.777344 71.496094 43.742188 63.476562 75.441406 C 28.027344 84.671875 2.492188 110.273438 2.492188 140.488281 C 2.492188 178.488281 42.785156 209.277344 92.488281 209.277344 C 111.628906 209.277344 129.34375 204.671875 143.925781 196.890625 C 160.214844 214.546875 187.054688 226.117188 217.480469 226.117188 C 245.53125 226.117188 270.582031 216.300781 287.078125 200.910156 C 299.863281 206.246094 314.519531 209.277344 330.097656 209.277344 C 379.808594 209.277344 420.101562 178.488281 420.101562 140.488281 C 420.101562 110.082031 394.222656 84.292969 358.382812 75.230469 "/><g clip-rule="nonzero" clip-path="url(#185fa6bdc9)"><path style=" stroke:none;fill-rule:nonzero;fill:#f2b581;fill-opacity:1;" d="M 358.382812 75.230469 L 359.796875 75.320312 C 359.863281 74.21875 360.03125 73.03125 360.03125 71.722656 C 360.03125 52.207031 349.667969 34.601562 333.109375 21.957031 C 316.546875 9.300781 293.761719 1.519531 268.617188 1.519531 C 239.429688 1.519531 213.484375 12.046875 196.707031 28.453125 L 197.695312 29.464844 L 198.28125 28.179688 C 184.640625 21.976562 168.785156 18.363281 151.796875 18.363281 C 129.625 18.363281 109.292969 24.421875 93.449219 34.527344 C 77.609375 44.636719 66.226562 58.824219 62.105469 75.09375 L 63.476562 75.441406 L 63.125 74.070312 C 45.167969 78.746094 29.695312 87.570312 18.667969 99.121094 C 7.644531 110.660156 1.074219 124.976562 1.078125 140.488281 C 1.074219 160.007812 11.433594 177.609375 27.992188 190.253906 C 44.554688 202.910156 67.347656 210.683594 92.488281 210.691406 C 111.855469 210.691406 129.789062 206.039062 144.589844 198.140625 L 143.925781 196.890625 L 142.882812 197.847656 C 159.5 215.839844 186.695312 227.519531 217.480469 227.523438 C 245.859375 227.523438 271.242188 217.617188 288.046875 201.949219 L 287.078125 200.910156 L 286.539062 202.21875 C 299.5 207.628906 314.332031 210.691406 330.097656 210.691406 C 355.25 210.683594 378.035156 202.910156 394.605469 190.253906 C 411.160156 177.609375 421.523438 160.007812 421.515625 140.488281 C 421.523438 124.875 414.863281 110.46875 403.699219 98.878906 C 392.535156 87.277344 376.878906 78.453125 358.730469 73.859375 L 358.382812 75.230469 L 359.796875 75.320312 L 358.382812 75.230469 L 358.039062 76.605469 C 375.726562 81.078125 390.921875 89.675781 401.660156 100.839844 C 412.40625 112.011719 418.6875 125.699219 418.6875 140.488281 C 418.6875 158.96875 408.902344 175.757812 392.886719 188.003906 C 376.875 200.246094 354.664062 207.863281 330.097656 207.863281 C 314.703125 207.863281 300.234375 204.867188 287.628906 199.605469 L 286.78125 199.257812 L 286.117188 199.875 C 269.921875 214.984375 245.199219 224.699219 217.480469 224.699219 C 187.410156 224.699219 160.933594 213.25 144.964844 195.929688 L 144.21875 195.128906 L 143.257812 195.640625 C 128.890625 203.3125 111.402344 207.863281 92.488281 207.863281 C 67.933594 207.863281 45.722656 200.246094 29.710938 188.003906 C 13.695312 175.757812 3.90625 158.96875 3.902344 140.488281 C 3.90625 125.789062 10.101562 112.191406 20.714844 101.074219 C 31.320312 89.960938 46.339844 81.367188 63.835938 76.8125 L 64.644531 76.601562 L 64.855469 75.789062 C 68.75 60.359375 79.617188 46.714844 94.96875 36.914062 C 110.320312 27.117188 130.136719 21.191406 151.796875 21.191406 C 168.386719 21.191406 183.84375 24.722656 197.109375 30.753906 L 197.988281 31.15625 L 198.683594 30.476562 C 214.84375 14.65625 240.109375 4.34375 268.617188 4.34375 C 293.175781 4.34375 315.386719 11.964844 331.390625 24.203125 C 347.414062 36.457031 357.199219 53.246094 357.199219 71.722656 C 357.199219 72.78125 357.050781 73.910156 356.972656 75.148438 L 356.902344 76.3125 L 358.039062 76.605469 L 358.382812 75.230469 "/></g></g><mask id="2746bca8f0"><g filter="url(#8a4666946d)"><rect x="0" width="1419.75" y="0" height="760.499977" style="fill:#000000;fill-opacity:0.2;stroke:none;"/></g></mask></g><g clip-rule="nonzero" clip-path="url(#9ef14e3d66)"><g mask="url(#5656c7046b)" transform="matrix(1,0,0,1,0,245)"><g clip-path="url(#9179478ba6)"><path style=" stroke:none;fill-rule:nonzero;fill:#eb8b56;fill-opacity:1;" d="M 357.664062 75.585938 C 357.734375 74.421875 357.894531 73.265625 357.894531 72.078125 C 357.894531 34.089844 317.59375 3.289062 267.894531 3.289062 C 239.054688 3.289062 213.449219 13.707031 196.972656 29.824219 C 183.523438 23.703125 167.867188 20.132812 151.078125 20.132812 C 107.246094 20.132812 70.777344 44.097656 62.757812 75.796875 C 27.304688 85.027344 1.773438 110.628906 1.773438 140.84375 C 1.773438 178.84375 42.066406 209.632812 91.765625 209.632812 C 110.910156 209.632812 128.621094 205.027344 143.207031 197.246094 C 159.492188 214.90625 186.335938 226.472656 216.757812 226.472656 C 244.8125 226.472656 269.863281 216.65625 286.359375 201.265625 C 299.140625 206.605469 313.800781 209.632812 329.378906 209.632812 C 379.089844 209.632812 419.382812 178.84375 419.382812 140.84375 C 419.382812 110.4375 393.503906 84.652344 357.664062 75.585938 "/><g clip-rule="nonzero" clip-path="url(#3f666aab09)"><path style=" stroke:none;fill-rule:nonzero;fill:#eb8b56;fill-opacity:1;" d="M 357.664062 75.585938 L 359.078125 75.675781 C 359.144531 74.574219 359.308594 73.386719 359.308594 72.078125 C 359.308594 52.5625 348.949219 34.957031 332.390625 22.3125 C 315.828125 9.65625 293.042969 1.875 267.894531 1.875 C 238.710938 1.875 212.761719 12.402344 195.984375 28.8125 L 196.972656 29.824219 L 197.558594 28.535156 C 183.921875 22.332031 168.066406 18.71875 151.078125 18.71875 C 128.90625 18.71875 108.574219 24.777344 92.726562 34.882812 C 76.890625 44.992188 65.503906 59.179688 61.386719 75.449219 L 62.757812 75.796875 L 62.402344 74.425781 C 44.449219 79.101562 28.972656 87.929688 17.949219 99.476562 C 6.921875 111.019531 0.351562 125.332031 0.359375 140.84375 C 0.351562 160.363281 10.714844 177.964844 27.273438 190.609375 C 43.835938 203.265625 66.625 211.042969 91.765625 211.046875 C 111.136719 211.046875 129.070312 206.394531 143.871094 198.496094 L 143.207031 197.246094 L 142.164062 198.203125 C 158.78125 216.199219 185.976562 227.875 216.757812 227.882812 C 245.136719 227.882812 270.519531 217.972656 287.328125 202.304688 L 286.359375 201.265625 L 285.816406 202.574219 C 298.777344 207.984375 313.609375 211.046875 329.378906 211.046875 C 354.527344 211.042969 377.316406 203.265625 393.882812 190.609375 C 410.441406 177.964844 420.804688 160.363281 420.796875 140.84375 C 420.804688 125.230469 414.144531 110.824219 402.980469 99.234375 C 391.816406 87.636719 376.160156 78.808594 358.011719 74.214844 L 357.664062 75.585938 L 359.078125 75.675781 L 357.664062 75.585938 L 357.320312 76.964844 C 375.003906 81.433594 390.203125 90.035156 400.941406 101.195312 C 411.683594 112.367188 417.96875 126.054688 417.96875 140.84375 C 417.96875 159.324219 408.179688 176.113281 392.164062 188.359375 C 376.152344 200.601562 353.941406 208.21875 329.378906 208.21875 C 313.980469 208.21875 299.511719 205.222656 286.90625 199.960938 L 286.0625 199.613281 L 285.398438 200.230469 C 269.199219 215.339844 244.480469 225.058594 216.757812 225.058594 C 186.6875 225.058594 160.210938 213.605469 144.246094 196.285156 L 143.5 195.484375 L 142.539062 196 C 128.167969 203.667969 110.683594 208.21875 91.765625 208.21875 C 67.210938 208.21875 45 200.601562 28.992188 188.359375 C 12.976562 176.113281 3.1875 159.324219 3.183594 140.84375 C 3.1875 126.144531 9.382812 112.546875 19.992188 101.429688 C 30.597656 90.316406 45.621094 81.722656 63.117188 77.167969 L 63.925781 76.957031 L 64.132812 76.144531 C 68.03125 60.714844 78.894531 47.070312 94.246094 37.273438 C 109.601562 27.472656 129.417969 21.550781 151.078125 21.550781 C 167.667969 21.550781 183.125 25.082031 196.386719 31.109375 L 197.265625 31.511719 L 197.964844 30.832031 C 214.121094 15.011719 239.390625 4.699219 267.894531 4.699219 C 292.457031 4.699219 314.667969 12.320312 330.671875 24.5625 C 346.691406 36.8125 356.480469 53.601562 356.480469 72.078125 C 356.480469 73.140625 356.332031 74.265625 356.253906 75.503906 L 356.179688 76.671875 L 357.320312 76.964844 L 357.664062 75.585938 "/></g></g><mask id="5656c7046b"><g filter="url(#8a4666946d)"><rect x="0" width="1419.75" y="0" height="760.499977" style="fill:#000000;fill-opacity:0.2;stroke:none;"/></g></mask></g></g><g mask="url(#80a5abbda9)" transform="matrix(1,0,0,1,955,28)"><g clip-path="url(#fb77a92810)"><g clip-rule="nonzero" clip-path="url(#1c1799477c)"><path style=" stroke:none;fill-rule:nonzero;fill:#eb8b56;fill-opacity:1;" d="M 371.863281 203.789062 C 361.832031 220.179688 334.839844 237.078125 289.050781 235.316406 L 98.03125 237.71875 C 48.371094 241.210938 21.121094 225.789062 12.171875 210.1875 C 7.410156 201.890625 7.484375 193.019531 12.382812 185.855469 C 20.457031 174.03125 39.265625 168.773438 63.175781 171.46875 C 62.421875 173.695312 61.789062 175.976562 61.3125 178.285156 C 60.917969 180.195312 62.148438 182.0625 64.054688 182.453125 C 64.292969 182.503906 64.53125 182.527344 64.769531 182.527344 C 66.40625 182.527344 67.875 181.382812 68.21875 179.714844 C 68.878906 176.523438 69.851562 173.40625 71.074219 170.421875 C 71.25 170.140625 71.375 169.824219 71.464844 169.496094 C 77.316406 155.976562 88.492188 145.277344 100.582031 142.496094 C 113.238281 139.578125 125.671875 145.5 136.519531 159.609375 C 136.546875 159.644531 136.582031 159.671875 136.617188 159.707031 C 136.699219 159.808594 136.789062 159.902344 136.878906 159.988281 C 136.957031 160.066406 137.039062 160.136719 137.121094 160.203125 C 137.210938 160.28125 137.304688 160.34375 137.40625 160.40625 C 137.503906 160.46875 137.601562 160.53125 137.707031 160.582031 C 137.800781 160.632812 137.902344 160.675781 138.003906 160.714844 C 138.121094 160.761719 138.234375 160.804688 138.355469 160.839844 C 138.402344 160.851562 138.445312 160.875 138.496094 160.886719 C 138.554688 160.902344 138.621094 160.902344 138.679688 160.910156 C 138.789062 160.933594 138.898438 160.945312 139.011719 160.957031 C 139.144531 160.972656 139.277344 160.976562 139.40625 160.972656 C 139.496094 160.96875 139.582031 160.964844 139.664062 160.953125 C 139.8125 160.941406 139.957031 160.917969 140.09375 160.886719 C 140.171875 160.867188 140.25 160.847656 140.332031 160.820312 C 140.46875 160.78125 140.605469 160.734375 140.738281 160.671875 C 140.820312 160.636719 140.894531 160.601562 140.96875 160.558594 C 141.097656 160.488281 141.21875 160.414062 141.335938 160.332031 C 141.375 160.304688 141.421875 160.285156 141.460938 160.253906 C 141.5 160.226562 141.527344 160.195312 141.558594 160.164062 C 141.664062 160.078125 141.761719 159.984375 141.855469 159.882812 C 141.925781 159.8125 141.996094 159.738281 142.054688 159.660156 C 142.132812 159.566406 142.203125 159.464844 142.269531 159.363281 C 142.332031 159.265625 142.386719 159.171875 142.4375 159.074219 C 142.492188 158.972656 142.535156 158.871094 142.574219 158.769531 C 142.621094 158.652344 142.664062 158.535156 142.695312 158.414062 C 142.707031 158.367188 142.734375 158.324219 142.746094 158.277344 C 152.738281 116.433594 181.210938 107.148438 202.570312 111.933594 C 225.628906 117.089844 246.644531 139.367188 240.164062 170.496094 C 239.761719 172.402344 240.988281 174.273438 242.894531 174.667969 C 243.136719 174.722656 243.378906 174.742188 243.617188 174.742188 C 245.25 174.742188 246.714844 173.601562 247.066406 171.9375 C 254.46875 136.382812 230.460938 110.941406 204.105469 105.050781 C 179.058594 99.464844 149.59375 111.453125 137.679688 150.070312 C 126.101562 137.625 112.554688 132.5 99.003906 135.625 C 85.441406 138.742188 72.910156 150.144531 65.933594 164.695312 C 59.425781 163.863281 53.230469 163.585938 47.421875 163.832031 C 27.011719 143.460938 32.808594 116.121094 47.085938 99.078125 C 63.964844 78.9375 95.210938 69.109375 126.960938 92.585938 C 127.003906 92.617188 127.050781 92.636719 127.09375 92.667969 C 127.203125 92.738281 127.3125 92.804688 127.425781 92.863281 C 127.527344 92.914062 127.625 92.960938 127.722656 93 C 127.832031 93.046875 127.941406 93.085938 128.058594 93.117188 C 128.171875 93.152344 128.289062 93.179688 128.402344 93.199219 C 128.460938 93.214844 128.515625 93.234375 128.574219 93.242188 C 128.628906 93.25 128.675781 93.242188 128.726562 93.246094 C 128.871094 93.261719 129.011719 93.261719 129.15625 93.257812 C 129.226562 93.253906 129.300781 93.253906 129.378906 93.246094 C 129.546875 93.230469 129.714844 93.199219 129.882812 93.160156 C 129.929688 93.144531 129.976562 93.140625 130.023438 93.125 C 130.203125 93.074219 130.371094 93.007812 130.542969 92.929688 C 130.578125 92.910156 130.613281 92.894531 130.652344 92.878906 C 130.808594 92.796875 130.957031 92.703125 131.101562 92.601562 C 131.148438 92.566406 131.195312 92.535156 131.238281 92.5 C 131.359375 92.402344 131.46875 92.300781 131.578125 92.1875 C 131.640625 92.125 131.703125 92.058594 131.761719 91.984375 C 131.800781 91.933594 131.851562 91.894531 131.890625 91.847656 C 131.925781 91.792969 131.953125 91.734375 131.988281 91.683594 C 132.046875 91.589844 132.105469 91.492188 132.160156 91.394531 C 132.214844 91.285156 132.265625 91.175781 132.3125 91.0625 C 132.351562 90.964844 132.386719 90.863281 132.417969 90.761719 C 132.457031 90.636719 132.488281 90.511719 132.507812 90.382812 C 132.519531 90.328125 132.542969 90.28125 132.546875 90.226562 C 140.460938 32.621094 168.152344 15.4375 183.957031 10.320312 C 205.101562 3.472656 229.222656 10.007812 245.410156 26.957031 C 262.824219 45.1875 267.199219 70.613281 257.40625 96.71875 C 257.390625 96.765625 257.386719 96.816406 257.367188 96.867188 C 257.328125 96.992188 257.296875 97.117188 257.269531 97.246094 C 257.246094 97.347656 257.230469 97.453125 257.21875 97.558594 C 257.203125 97.675781 257.199219 97.796875 257.199219 97.917969 C 257.199219 98.027344 257.199219 98.136719 257.207031 98.242188 C 257.214844 98.359375 257.234375 98.472656 257.253906 98.589844 C 257.277344 98.699219 257.300781 98.808594 257.328125 98.917969 C 257.363281 99.023438 257.398438 99.132812 257.441406 99.238281 C 257.488281 99.351562 257.53125 99.460938 257.589844 99.570312 C 257.617188 99.621094 257.632812 99.675781 257.660156 99.722656 C 257.6875 99.769531 257.722656 99.804688 257.75 99.847656 C 257.820312 99.957031 257.894531 100.054688 257.972656 100.152344 C 258.039062 100.238281 258.113281 100.324219 258.1875 100.398438 C 258.269531 100.484375 258.355469 100.5625 258.445312 100.640625 C 258.53125 100.714844 258.617188 100.78125 258.710938 100.847656 C 258.808594 100.910156 258.90625 100.972656 259.003906 101.023438 C 259.109375 101.082031 259.214844 101.136719 259.324219 101.179688 C 259.375 101.203125 259.417969 101.234375 259.472656 101.257812 C 259.535156 101.28125 259.601562 101.289062 259.664062 101.308594 C 259.75 101.335938 259.835938 101.359375 259.921875 101.382812 C 260.058594 101.414062 260.195312 101.429688 260.328125 101.449219 C 260.40625 101.457031 260.488281 101.46875 260.566406 101.46875 C 260.613281 101.472656 260.660156 101.480469 260.710938 101.480469 C 260.828125 101.480469 260.945312 101.46875 261.0625 101.457031 C 261.101562 101.453125 261.140625 101.453125 261.183594 101.445312 C 261.390625 101.417969 261.597656 101.371094 261.796875 101.304688 C 261.839844 101.292969 261.878906 101.273438 261.921875 101.257812 C 262.078125 101.199219 262.234375 101.132812 262.382812 101.050781 C 262.414062 101.03125 262.445312 101.023438 262.480469 101.007812 C 280.976562 90.277344 298.882812 91.195312 311.609375 103.511719 C 323.828125 115.335938 327.664062 134.28125 320.523438 147.582031 C 320.503906 147.625 320.492188 147.675781 320.46875 147.71875 C 320.414062 147.832031 320.367188 147.953125 320.324219 148.074219 C 320.285156 148.179688 320.253906 148.285156 320.222656 148.390625 C 320.195312 148.5 320.175781 148.613281 320.160156 148.722656 C 320.140625 148.847656 320.128906 148.972656 320.121094 149.097656 C 320.121094 149.148438 320.105469 149.199219 320.105469 149.246094 C 320.105469 149.304688 320.121094 149.359375 320.125 149.414062 C 320.128906 149.539062 320.140625 149.660156 320.160156 149.785156 C 320.175781 149.898438 320.199219 150.007812 320.226562 150.117188 C 320.253906 150.226562 320.289062 150.328125 320.328125 150.4375 C 320.367188 150.546875 320.410156 150.65625 320.457031 150.757812 C 320.503906 150.859375 320.558594 150.957031 320.617188 151.054688 C 320.675781 151.152344 320.734375 151.242188 320.800781 151.332031 C 320.871094 151.425781 320.945312 151.515625 321.023438 151.605469 C 321.097656 151.6875 321.171875 151.761719 321.253906 151.835938 C 321.339844 151.914062 321.429688 151.988281 321.519531 152.058594 C 321.621094 152.128906 321.714844 152.199219 321.820312 152.257812 C 321.871094 152.289062 321.914062 152.328125 321.964844 152.359375 C 322.039062 152.398438 322.117188 152.425781 322.191406 152.460938 C 322.226562 152.476562 322.261719 152.492188 322.296875 152.511719 C 322.492188 152.585938 322.683594 152.648438 322.878906 152.691406 C 322.917969 152.699219 322.953125 152.703125 322.992188 152.707031 C 323.203125 152.746094 323.417969 152.777344 323.628906 152.777344 C 323.628906 152.777344 323.628906 152.777344 323.632812 152.777344 C 348.0625 152.777344 366.304688 160.328125 373.683594 173.5 C 378.765625 182.5625 378.101562 193.601562 371.863281 203.789062 Z M 379.835938 170.050781 C 371.746094 155.621094 353.363281 146.9375 328.949219 145.84375 C 334.304688 130.429688 329.449219 110.957031 316.511719 98.441406 C 303.386719 85.738281 285.175781 83.1875 266.628906 91.054688 C 273.53125 65.441406 267.757812 40.136719 250.511719 22.085938 C 232.460938 3.191406 205.488281 -4.054688 181.785156 3.609375 C 164.953125 9.058594 135.886719 26.691406 126.417969 83.636719 C 92.621094 61.734375 59.832031 72.882812 41.679688 94.550781 C 25.886719 113.398438 20.578125 142.535156 38.660156 164.648438 C 24.132812 166.785156 12.835938 172.691406 6.558594 181.878906 C 0.078125 191.367188 -0.109375 202.964844 6.054688 213.699219 C 15.140625 229.539062 40.320312 245.269531 84.28125 245.269531 C 88.769531 245.269531 93.445312 245.109375 98.324219 244.761719 L 288.957031 242.367188 C 330.308594 243.953125 363.535156 230.910156 377.882812 207.46875 C 385.484375 195.042969 386.195312 181.402344 379.835938 170.050781 "/></g></g><mask id="80a5abbda9"><g filter="url(#8a4666946d)"><rect x="0" width="1419.75" y="0" height="760.499977" style="fill:#000000;fill-opacity:0.2;stroke:none;"/></g></mask></g><g clip-rule="nonzero" clip-path="url(#4bff64fb68)"><g mask="url(#5eae88210f)" transform="matrix(1,0,0,1,1133,0)"><g clip-path="url(#67b7a04fff)"><path style=" stroke:none;fill-rule:nonzero;fill:#f2b581;fill-opacity:1;" d="M 243.15625 50.097656 C 243.203125 49.308594 243.3125 48.523438 243.3125 47.714844 C 243.3125 21.921875 215.949219 1.007812 182.199219 1.007812 C 162.617188 1.007812 145.230469 8.082031 134.042969 19.023438 C 124.910156 14.867188 114.277344 12.445312 102.875 12.445312 C 73.113281 12.445312 48.351562 28.714844 42.90625 50.242188 C 18.832031 56.507812 1.496094 73.894531 1.496094 94.410156 C 1.496094 120.214844 28.855469 141.121094 62.601562 141.121094 C 75.601562 141.121094 87.628906 137.992188 97.53125 132.710938 C 108.59375 144.699219 126.820312 152.554688 147.476562 152.554688 C 166.527344 152.554688 183.535156 145.890625 194.738281 135.4375 C 203.417969 139.0625 213.371094 141.121094 223.949219 141.121094 C 257.703125 141.121094 285.066406 120.214844 285.066406 94.410156 C 285.066406 73.761719 267.492188 56.253906 243.15625 50.097656 "/><g clip-rule="nonzero" clip-path="url(#b0b88138f4)"><path style=" stroke:none;fill-rule:nonzero;fill:#f2b581;fill-opacity:1;" d="M 243.15625 50.097656 L 244.117188 50.160156 C 244.160156 49.410156 244.273438 48.605469 244.273438 47.714844 C 244.273438 34.464844 237.238281 22.507812 225.996094 13.921875 C 214.746094 5.328125 199.273438 0.046875 182.199219 0.046875 C 162.382812 0.046875 144.765625 7.195312 133.371094 18.335938 L 134.042969 19.023438 L 134.441406 18.148438 C 125.179688 13.9375 114.414062 11.484375 102.875 11.484375 C 87.820312 11.484375 74.015625 15.597656 63.257812 22.460938 C 52.5 29.324219 44.769531 38.957031 41.972656 50.003906 L 42.90625 50.242188 L 42.664062 49.3125 C 30.472656 52.484375 19.964844 58.480469 12.476562 66.320312 C 4.992188 74.15625 0.53125 83.875 0.535156 94.410156 C 0.53125 107.664062 7.566406 119.617188 18.808594 128.203125 C 30.054688 136.796875 45.53125 142.078125 62.601562 142.082031 C 75.757812 142.082031 87.933594 138.921875 97.984375 133.558594 L 97.53125 132.710938 L 96.824219 133.359375 C 108.109375 145.578125 126.574219 153.507812 147.476562 153.511719 C 166.746094 153.511719 183.984375 146.78125 195.394531 136.144531 L 194.738281 135.4375 L 194.371094 136.328125 C 203.171875 140 213.242188 142.082031 223.949219 142.082031 C 241.027344 142.078125 256.5 136.796875 267.75 128.203125 C 278.992188 119.617188 286.03125 107.664062 286.027344 94.410156 C 286.03125 83.808594 281.507812 74.027344 273.925781 66.15625 C 266.347656 58.28125 255.714844 52.285156 243.390625 49.167969 L 243.15625 50.097656 L 244.117188 50.160156 L 243.15625 50.097656 L 242.921875 51.035156 C 254.929688 54.070312 265.25 59.910156 272.542969 67.488281 C 279.835938 75.074219 284.105469 84.367188 284.105469 94.410156 C 284.105469 106.960938 277.457031 118.359375 266.582031 126.675781 C 255.710938 134.988281 240.628906 140.160156 223.949219 140.160156 C 213.492188 140.160156 203.667969 138.125 195.109375 134.550781 L 194.535156 134.316406 L 194.085938 134.738281 C 183.085938 144.996094 166.300781 151.59375 147.476562 151.59375 C 127.058594 151.59375 109.078125 143.816406 98.238281 132.058594 L 97.730469 131.511719 L 97.078125 131.863281 C 87.320312 137.070312 75.449219 140.160156 62.601562 140.160156 C 45.929688 140.160156 30.847656 134.988281 19.976562 126.675781 C 9.101562 118.359375 2.453125 106.960938 2.453125 94.410156 C 2.453125 84.429688 6.660156 75.195312 13.867188 67.644531 C 21.066406 60.101562 31.269531 54.265625 43.148438 51.171875 L 43.695312 51.03125 L 43.839844 50.476562 C 46.484375 40 53.863281 30.734375 64.289062 24.082031 C 74.710938 17.429688 88.167969 13.40625 102.875 13.40625 C 114.140625 13.40625 124.636719 15.804688 133.644531 19.898438 L 134.242188 20.171875 L 134.714844 19.710938 C 145.6875 8.964844 162.84375 1.964844 182.199219 1.964844 C 198.878906 1.964844 213.960938 7.136719 224.828125 15.449219 C 235.707031 23.769531 242.351562 35.171875 242.351562 47.714844 C 242.351562 48.4375 242.25 49.203125 242.199219 50.042969 L 242.148438 50.835938 L 242.921875 51.035156 L 243.15625 50.097656 "/></g></g><mask id="5eae88210f"><g filter="url(#8a4666946d)"><rect x="0" width="1419.75" y="0" height="760.499977" style="fill:#000000;fill-opacity:0.2;stroke:none;"/></g></mask></g></g><g mask="url(#ff97654975)" transform="matrix(1,0,0,1,1086,26)"><g clip-path="url(#3fc9df0931)"><path style=" stroke:none;fill-rule:nonzero;fill:#eb8b56;fill-opacity:1;" d="M 242.828125 51.492188 C 242.878906 50.699219 242.988281 49.917969 242.988281 49.109375 C 242.988281 23.3125 215.621094 2.398438 181.875 2.398438 C 162.289062 2.398438 144.902344 9.472656 133.714844 20.417969 C 124.582031 16.261719 113.949219 13.839844 102.550781 13.839844 C 72.789062 13.839844 48.023438 30.109375 42.578125 51.636719 C 18.503906 57.902344 1.167969 75.289062 1.167969 95.804688 C 1.167969 121.609375 28.527344 142.515625 62.277344 142.515625 C 75.277344 142.515625 87.304688 139.386719 97.207031 134.105469 C 108.265625 146.09375 126.492188 153.949219 147.152344 153.949219 C 166.199219 153.949219 183.210938 147.285156 194.410156 136.832031 C 203.09375 140.457031 213.042969 142.515625 223.621094 142.515625 C 257.378906 142.515625 284.738281 121.609375 284.738281 95.804688 C 284.738281 75.15625 267.164062 57.648438 242.828125 51.492188 "/><g clip-rule="nonzero" clip-path="url(#046af3d0f5)"><path style=" stroke:none;fill-rule:nonzero;fill:#eb8b56;fill-opacity:1;" d="M 242.828125 51.492188 L 243.789062 51.550781 C 243.835938 50.804688 243.949219 50 243.949219 49.109375 C 243.949219 35.859375 236.910156 23.902344 225.667969 15.316406 C 214.421875 6.722656 198.949219 1.441406 181.875 1.441406 C 162.054688 1.441406 144.4375 8.589844 133.042969 19.730469 L 133.714844 20.417969 L 134.113281 19.542969 C 124.851562 15.332031 114.085938 12.878906 102.550781 12.878906 C 87.496094 12.878906 73.6875 16.992188 62.929688 23.855469 C 52.175781 30.71875 44.445312 40.351562 41.648438 51.398438 L 42.578125 51.636719 L 42.339844 50.703125 C 30.144531 53.878906 19.640625 59.871094 12.152344 67.714844 C 4.664062 75.550781 0.203125 85.269531 0.207031 95.804688 C 0.203125 109.058594 7.238281 121.011719 18.484375 129.597656 C 29.730469 138.191406 45.207031 143.46875 62.277344 143.472656 C 75.429688 143.472656 87.605469 140.316406 97.65625 134.953125 L 97.207031 134.105469 L 96.496094 134.753906 C 107.78125 146.972656 126.25 154.902344 147.152344 154.90625 C 166.421875 154.90625 183.65625 148.175781 195.070312 137.539062 L 194.410156 136.832031 L 194.042969 137.722656 C 202.84375 141.394531 212.917969 143.472656 223.621094 143.472656 C 240.703125 143.46875 256.171875 138.191406 267.425781 129.597656 C 278.667969 121.011719 285.703125 109.058594 285.699219 95.804688 C 285.703125 85.203125 281.179688 75.417969 273.601562 67.550781 C 266.019531 59.671875 255.390625 53.679688 243.066406 50.5625 L 242.828125 51.492188 L 243.789062 51.550781 L 242.828125 51.492188 L 242.597656 52.425781 C 254.605469 55.464844 264.925781 61.300781 272.214844 68.882812 C 279.511719 76.464844 283.777344 85.761719 283.777344 95.804688 C 283.777344 108.351562 277.132812 119.753906 266.257812 128.070312 C 255.386719 136.382812 240.304688 141.554688 223.621094 141.554688 C 213.167969 141.554688 203.34375 139.519531 194.785156 135.945312 L 194.210938 135.710938 L 193.757812 136.128906 C 182.761719 146.390625 165.972656 152.988281 147.152344 152.988281 C 126.734375 152.988281 108.753906 145.210938 97.910156 133.449219 L 97.40625 132.90625 L 96.753906 133.257812 C 86.996094 138.464844 75.121094 141.554688 62.277344 141.554688 C 45.605469 141.554688 30.523438 136.382812 19.648438 128.070312 C 8.773438 119.753906 2.128906 108.351562 2.125 95.804688 C 2.128906 85.820312 6.335938 76.589844 13.539062 69.039062 C 20.742188 61.492188 30.941406 55.65625 42.824219 52.566406 L 43.371094 52.421875 L 43.511719 51.871094 C 46.160156 41.394531 53.535156 32.128906 63.960938 25.476562 C 74.386719 18.820312 87.84375 14.800781 102.550781 14.800781 C 113.816406 14.800781 124.3125 17.195312 133.320312 21.292969 L 133.914062 21.566406 L 134.386719 21.101562 C 145.359375 10.359375 162.519531 3.355469 181.875 3.355469 C 198.550781 3.355469 213.632812 8.53125 224.5 16.84375 C 235.378906 25.164062 242.027344 36.566406 242.027344 49.109375 C 242.027344 49.832031 241.925781 50.597656 241.871094 51.4375 L 241.824219 52.226562 L 242.597656 52.425781 L 242.828125 51.492188 "/></g></g><mask id="ff97654975"><g filter="url(#8a4666946d)"><rect x="0" width="1419.75" y="0" height="760.499977" style="fill:#000000;fill-opacity:0.6;stroke:none;"/></g></mask></g></g></svg>