<svg xmlns="http://www.w3.org/2000/svg" xmlns:xlink="http://www.w3.org/1999/xlink" width="1084" zoomAndPan="magnify" viewBox="0 0 812.88 554.249966" height="739" preserveAspectRatio="xMidYMid meet" version="1.2"><defs><clipPath id="1a177ab72e"><path d="M 210 15 L 812.269531 15 L 812.269531 553.5 L 210 553.5 Z M 210 15 "/></clipPath><filter x="0%" y="0%" width="100%" filterUnits="objectBoundingBox" id="a17c6929d9" height="100%"><feColorMatrix values="0 0 0 0 1 0 0 0 0 1 0 0 0 0 1 0 0 0 1 0" type="matrix" in="SourceGraphic"/></filter><clipPath id="62d6cc2179"><path d="M 0.683594 215 L 408 215 L 408 459 L 0.683594 459 Z M 0.683594 215 "/></clipPath><clipPath id="917a2747ed"><path d="M 275 0.242188 L 602 0.242188 L 602 184 L 275 184 Z M 275 0.242188 "/></clipPath><clipPath id="df6bb75366"><rect x="0" width="603" y="0" height="539"/></clipPath><clipPath id="d0e3a4f46a"><path d="M 210.65625 460.089844 L 618 460.089844 L 618 474 L 210.65625 474 Z M 210.65625 460.089844 "/></clipPath><clipPath id="c6e501dbcc"><path d="M 526 460.089844 L 810 460.089844 L 810 552.964844 L 526 552.964844 Z M 526 460.089844 "/></clipPath><clipPath id="61db7862ee"><path d="M 1.160156 0 L 421.34375 0 L 421.34375 226 L 1.160156 226 Z M 1.160156 0 "/></clipPath><clipPath id="d38d837864"><rect x="0" width="423" y="0" height="227"/></clipPath><clipPath id="194afba7a3"><path d="M 0.488281 39 L 422 39 L 422 267 L 0.488281 267 Z M 0.488281 39 "/></clipPath><clipPath id="a49ab5bde9"><path d="M 0.488281 1.328125 L 420.671875 1.328125 L 420.671875 227.523438 L 0.488281 227.523438 Z M 0.488281 1.328125 "/></clipPath><clipPath id="48ee8c30b2"><rect x="0" width="422" y="0" height="228"/></clipPath></defs><g id="43291364d2"><g clip-rule="nonzero" clip-path="url(#1a177ab72e)"><g mask="url(#1157528fb6)" transform="matrix(1,0,0,1,210,15)"><g clip-path="url(#df6bb75366)"><g clip-rule="nonzero" clip-path="url(#62d6cc2179)"><path style=" stroke:none;fill-rule:nonzero;fill:#eb8b56;fill-opacity:1;" d="M 143.667969 287.945312 C 143.96875 286.566406 144.417969 285.425781 144.546875 284.253906 C 145.128906 279.027344 146.582031 274.007812 148.34375 269.101562 C 150.414062 263.332031 152.863281 257.699219 155.882812 252.347656 C 157.566406 249.367188 159.363281 246.457031 161.699219 243.90625 C 163.121094 242.355469 164.234375 240.503906 165.742188 239.058594 C 168.335938 236.570312 171.03125 234.167969 173.867188 231.960938 C 176.378906 230 179.050781 228.207031 181.804688 226.601562 C 185.355469 224.53125 188.949219 222.554688 192.808594 221.003906 C 196.464844 219.535156 200.253906 218.585938 204.007812 217.53125 C 206.8125 216.746094 209.796875 216.601562 212.6875 216.101562 C 218.253906 215.132812 223.863281 215.722656 229.445312 215.75 C 231.875 215.761719 234.386719 216.21875 236.800781 216.976562 C 239.28125 217.753906 241.890625 218.117188 244.390625 218.839844 C 252.03125 221.054688 258.914062 224.710938 265.308594 229.453125 C 268.792969 232.039062 271.882812 235.003906 274.753906 238.171875 C 278.527344 242.335938 281.476562 247.105469 283.726562 252.277344 C 283.785156 252.40625 283.820312 252.550781 283.910156 252.652344 C 284.203125 252.980469 284.519531 253.292969 284.828125 253.609375 C 284.835938 253.15625 284.929688 252.6875 284.839844 252.253906 C 284.238281 249.292969 283.515625 246.378906 282.503906 243.511719 C 281.175781 239.757812 279.824219 236.035156 277.875 232.550781 C 277.640625 232.125 277.695312 231.539062 277.617188 231.027344 C 278.035156 231.289062 278.539062 231.46875 278.855469 231.820312 C 282.683594 236.078125 285.628906 240.902344 288.164062 246.027344 C 289.964844 249.667969 291.460938 253.421875 292.550781 257.304688 C 293.355469 260.179688 293.90625 263.121094 294.21875 266.140625 C 294.628906 270.085938 294.480469 274.007812 294.542969 277.933594 C 294.566406 279.226562 294.265625 280.519531 294.121094 281.8125 C 294.054688 282.386719 294.25 282.671875 294.867188 282.453125 C 297.769531 281.4375 300.773438 281.160156 303.824219 281.167969 C 305.628906 281.175781 307.4375 281.183594 309.242188 281.167969 C 313.667969 281.121094 317.9375 282.070312 322.164062 283.246094 C 324.3125 283.847656 326.5625 284.3125 328.53125 285.304688 C 330.785156 286.433594 333.019531 287.644531 335.054688 289.25 C 337.621094 291.273438 339.792969 293.566406 341.515625 296.289062 C 343.6875 299.726562 345.351562 303.433594 346.476562 307.328125 C 346.9375 308.90625 346.875 310.648438 346.96875 312.320312 C 347.058594 313.953125 347.421875 314.46875 348.929688 314.121094 C 353.660156 313.03125 358.457031 313.273438 363.242188 313.246094 C 367.730469 313.226562 372.027344 314.179688 376.328125 315.441406 C 380.441406 316.648438 384.457031 318.027344 388.195312 320.066406 C 391.203125 321.707031 394.171875 323.5 396.574219 326.027344 C 398.511719 328.070312 400.546875 330.050781 402.292969 332.25 C 404.527344 335.070312 406.117188 338.3125 407.023438 341.792969 C 407.566406 343.863281 408.011719 346.0625 407.902344 348.179688 C 407.683594 352.507812 406.980469 356.761719 405.371094 360.882812 C 403.761719 364.980469 401.457031 368.492188 398.296875 371.511719 C 397.195312 372.566406 397.183594 372.769531 398.324219 373.832031 C 401.816406 377.085938 403.148438 381.394531 404.375 385.792969 C 405.402344 389.464844 405.644531 393.253906 405.160156 396.929688 C 404.609375 401.066406 403.617188 405.207031 401.519531 408.945312 C 400.175781 411.335938 398.585938 413.519531 396.738281 415.554688 C 391.960938 420.816406 385.980469 424.238281 379.652344 427.230469 C 375.824219 429.042969 371.808594 430.292969 367.710938 431.070312 C 364.742188 431.636719 361.6875 431.988281 358.625 432.195312 C 355.667969 432.398438 352.722656 432.445312 349.769531 432.515625 C 346.996094 432.585938 344.273438 432.152344 341.554688 431.636719 C 340.207031 431.382812 338.820312 431.335938 337.453125 431.164062 C 335.167969 430.875 332.839844 430.753906 330.609375 430.222656 C 326.792969 429.320312 323.023438 428.21875 319.269531 427.078125 C 317.277344 426.46875 315.367188 425.597656 313.421875 424.839844 C 313.191406 424.75 312.972656 424.621094 312.753906 424.507812 C 312.839844 424.816406 312.828125 425.261719 313.03125 425.417969 C 313.878906 426.054688 314.773438 426.632812 315.675781 427.191406 C 321.449219 430.769531 327.25 434.304688 333.820312 436.28125 C 335.039062 436.648438 336.328125 436.761719 337.566406 437.0625 C 337.875 437.140625 338.109375 437.503906 338.378906 437.738281 C 338.105469 437.808594 337.835938 437.925781 337.5625 437.9375 C 332.226562 438.210938 327.085938 437.25 321.960938 435.816406 C 318.3125 434.796875 314.75 433.625 311.304688 432.074219 C 305.351562 429.398438 300.527344 425.246094 296.285156 420.394531 C 295.34375 419.3125 294.800781 417.867188 294.125 416.5625 C 293.050781 414.472656 292.703125 414.4375 290.867188 416.101562 C 289.90625 416.96875 288.878906 417.789062 287.796875 418.503906 C 284.453125 420.707031 280.710938 422.105469 276.976562 423.453125 C 274.414062 424.378906 271.742188 424.992188 269.117188 425.746094 C 266.710938 426.433594 264.261719 426.804688 261.78125 427.167969 C 256.941406 427.882812 252.105469 427.480469 247.277344 427.496094 C 244.359375 427.507812 241.449219 426.902344 238.636719 426.042969 C 236.574219 425.414062 234.503906 424.757812 232.527344 423.902344 C 231.179688 423.316406 229.945312 422.441406 228.761719 421.558594 C 228.175781 421.121094 227.910156 421.222656 227.484375 421.660156 C 226.386719 422.796875 225.242188 423.894531 224.136719 425.027344 C 220.433594 428.828125 215.8125 431.164062 210.921875 432.929688 C 207.175781 434.28125 203.277344 435.109375 199.230469 435.324219 C 197.652344 435.40625 196.050781 435.664062 194.445312 435.683594 C 190.804688 435.726562 187.230469 435.074219 183.722656 434.277344 C 179.230469 433.257812 174.988281 431.4375 170.851562 429.378906 C 167.609375 427.765625 164.589844 425.878906 162.117188 423.195312 C 161.558594 422.585938 160.960938 422.011719 160.363281 421.4375 C 159.339844 420.457031 159.367188 420.484375 158.570312 421.820312 C 157.558594 423.515625 156.554688 425.222656 155.425781 426.839844 C 153.414062 429.71875 151.113281 432.289062 148.335938 434.527344 C 146.078125 436.34375 143.878906 438.222656 141.515625 439.921875 C 138.640625 441.988281 135.523438 443.585938 132.394531 445.183594 C 131.707031 445.535156 130.960938 445.90625 130.449219 446.460938 C 127.671875 449.488281 123.957031 451.074219 120.390625 452.757812 C 117.070312 454.324219 113.445312 455.238281 109.980469 456.515625 C 107.738281 457.34375 105.421875 457.703125 103.066406 457.8125 C 98.839844 458.007812 94.582031 457.878906 90.390625 458.367188 C 87.949219 458.65625 85.523438 458.824219 83.117188 458.667969 C 80.34375 458.492188 77.59375 457.882812 74.835938 457.4375 C 72.019531 456.980469 69.1875 456.578125 66.398438 455.988281 C 64.207031 455.527344 62.042969 454.902344 59.917969 454.191406 C 56.550781 453.058594 53.253906 451.722656 49.882812 450.617188 C 46.863281 449.632812 44.117188 448.1875 41.34375 446.65625 C 38.003906 444.808594 34.8125 442.742188 31.667969 440.617188 C 29.042969 438.84375 26.585938 436.792969 24.164062 434.742188 C 22.015625 432.921875 20.003906 430.933594 17.945312 429.011719 C 13.886719 425.214844 10.460938 420.855469 7.792969 416.039062 C 5.273438 411.484375 3.355469 406.59375 1.167969 401.851562 C 1.109375 401.722656 0.898438 401.605469 0.914062 401.515625 C 1.027344 400.851562 1.179688 400.199219 1.320312 399.542969 C 1.632812 400.042969 2.09375 400.5 2.226562 401.046875 C 2.707031 402.988281 4.28125 404.15625 5.429688 405.582031 C 8.128906 408.949219 10.917969 412.269531 13.898438 415.394531 C 15.796875 417.386719 18.070312 419.035156 20.234375 420.765625 C 22.652344 422.703125 25.125 424.570312 27.589844 426.453125 C 30.445312 428.636719 33.308594 430.808594 36.183594 432.972656 C 38.566406 434.769531 41.109375 436.339844 43.550781 438.03125 C 47.429688 440.722656 51.699219 442.375 56.09375 443.792969 C 60.617188 445.253906 65.199219 446.546875 69.777344 447.832031 C 70.945312 448.160156 72.199219 448.1875 73.414062 448.324219 C 73.609375 448.347656 73.820312 448.230469 74.023438 448.179688 C 73.855469 447.964844 73.730469 447.664062 73.511719 447.558594 C 73.136719 447.382812 72.691406 447.355469 72.296875 447.214844 C 69.21875 446.105469 66.207031 444.746094 63.050781 443.9375 C 60.160156 443.195312 57.507812 442.0625 54.898438 440.683594 C 49.28125 437.71875 43.789062 434.5625 38.671875 430.773438 C 34.828125 427.929688 30.890625 425.207031 27.464844 421.835938 C 25.617188 420.015625 23.628906 418.339844 21.757812 416.546875 C 18.757812 413.664062 16.457031 410.207031 14.023438 406.871094 C 12.609375 404.933594 11.351562 402.875 10.109375 400.816406 C 9.425781 399.6875 8.8125 398.492188 8.355469 397.253906 C 6.96875 393.535156 5.609375 389.804688 4.367188 386.03125 C 3.675781 383.9375 3.296875 381.773438 3.078125 379.539062 C 2.777344 376.503906 3.070312 373.433594 2.609375 370.46875 C 2.136719 367.417969 2.089844 364.371094 2.347656 361.390625 C 2.675781 357.59375 3.257812 353.820312 4.363281 350.070312 C 6.417969 343.09375 9.78125 336.871094 13.777344 330.925781 C 14.558594 329.757812 15.832031 328.9375 16.765625 327.855469 C 21.535156 322.34375 27.425781 318.1875 33.523438 314.375 C 38.445312 311.296875 43.773438 308.972656 49.542969 307.804688 C 53.246094 307.058594 56.933594 306.378906 60.734375 306.445312 C 61.644531 306.457031 62.675781 306.898438 63.5 306.035156 C 63.605469 305.921875 63.980469 305.933594 64.152344 306.03125 C 65.613281 306.867188 67.195312 306.367188 68.71875 306.460938 C 74.789062 306.828125 80.671875 307.960938 86.328125 310.304688 C 89.578125 311.652344 92.667969 313.246094 95.625 315.128906 C 96.722656 315.824219 97.3125 315.582031 97.582031 314.289062 C 98.773438 308.625 101.453125 303.78125 105.980469 300.175781 C 109.574219 297.316406 113.691406 295.371094 118.199219 294.246094 C 121.886719 293.324219 125.589844 292.664062 129.386719 292.933594 C 133.578125 293.234375 137.703125 293.929688 141.59375 295.628906 C 142.757812 296.136719 143.125 295.964844 143.214844 294.78125 C 143.378906 292.578125 143.519531 290.375 143.667969 287.945312 M 87.871094 323.1875 C 87.46875 322.886719 87.097656 322.519531 86.65625 322.292969 C 82.527344 320.164062 78.289062 318.371094 73.625 317.75 C 70.863281 317.382812 68.136719 316.679688 65.367188 316.46875 C 63.191406 316.300781 60.984375 316.515625 58.773438 316.753906 C 55.6875 317.089844 52.652344 317.585938 49.632812 318.226562 C 46.195312 318.957031 43 320.445312 39.914062 322.011719 C 36.777344 323.597656 33.824219 325.628906 31.011719 327.757812 C 28.972656 329.300781 26.960938 330.949219 25.675781 333.355469 C 24.28125 335.964844 22.601562 338.4375 20.910156 340.871094 C 18.648438 344.125 17.003906 347.679688 15.84375 351.425781 C 14.445312 355.957031 13.441406 360.597656 13.5625 365.386719 C 13.640625 368.488281 13.390625 371.699219 14.113281 374.660156 C 15.101562 378.695312 16.710938 382.605469 18.351562 386.441406 C 20.492188 391.453125 23.554688 395.980469 26.828125 400.304688 C 29.296875 403.558594 31.640625 406.960938 34.757812 409.6875 C 37.417969 412.015625 40.039062 414.386719 42.699219 416.710938 C 44.738281 418.492188 46.84375 420.191406 48.863281 421.996094 C 51.960938 424.765625 55.441406 426.898438 59.175781 428.730469 C 64.8125 431.496094 70.464844 434.207031 76.488281 436.007812 C 79.515625 436.914062 82.507812 437.941406 85.660156 438.445312 C 87.570312 438.75 89.496094 439.03125 91.371094 439.40625 C 93.441406 439.820312 95.523438 439.804688 97.582031 440.117188 C 99.417969 440.394531 101.359375 440.082031 103.269531 439.863281 C 106.421875 439.507812 109.546875 439.097656 112.632812 438.390625 C 115.792969 437.667969 118.953125 436.945312 122.085938 436.125 C 127.40625 434.730469 132.105469 432.085938 136.402344 428.707031 C 138.117188 427.363281 139.65625 425.746094 141.5 424.613281 C 143.648438 423.292969 144.980469 421.304688 146.339844 419.378906 C 149.65625 414.6875 151.046875 409.292969 151.324219 403.621094 C 151.464844 400.808594 154.34375 398.636719 156.707031 398.746094 C 158.792969 398.835938 160.796875 399.875 161.742188 402.105469 C 162.9375 404.921875 163.964844 407.835938 165.417969 410.515625 C 166.535156 412.578125 167.910156 414.691406 169.691406 416.148438 C 172.273438 418.261719 175.257812 419.882812 178.46875 421.058594 C 183.515625 422.898438 188.53125 424.734375 194.03125 424.390625 C 196.527344 424.238281 199.101562 424.417969 201.507812 423.871094 C 206.429688 422.75 211.203125 420.996094 215.289062 417.953125 C 217.164062 416.5625 218.714844 414.808594 219.246094 412.152344 C 219.644531 410.152344 219.390625 408.152344 219.910156 406.148438 C 220.363281 404.390625 221.246094 402.980469 222.566406 402.335938 C 226.113281 400.597656 229.863281 402.941406 230.464844 405.828125 C 231.230469 409.503906 233.371094 412.207031 237.015625 413.613281 C 240.746094 415.054688 244.5 416.371094 248.570312 416.246094 C 252.722656 416.117188 256.90625 416.699219 261.03125 415.808594 C 262.898438 415.40625 264.800781 415.121094 266.625 414.582031 C 271.503906 413.132812 276.371094 411.613281 280.980469 409.4375 C 282.390625 408.773438 283.691406 407.820312 284.71875 406.507812 C 286.023438 404.855469 286.769531 402.992188 287.332031 401.03125 C 288.304688 397.628906 292.210938 394.9375 295.90625 397.578125 C 297.710938 398.867188 299.289062 400.570312 300.671875 402.324219 C 302.847656 405.078125 304.921875 407.921875 307.882812 409.882812 C 310.523438 411.632812 313.136719 413.539062 316.019531 414.773438 C 319.980469 416.472656 324.136719 417.78125 328.300781 418.910156 C 331.585938 419.804688 335.011719 420.199219 338.382812 420.765625 C 339.738281 420.992188 341.15625 420.925781 342.476562 421.261719 C 345.039062 421.914062 347.660156 421.925781 350.246094 422.078125 C 354.273438 422.316406 358.28125 421.699219 362.300781 421.285156 C 366.296875 420.871094 370.050781 419.683594 373.679688 418.179688 C 379.46875 415.78125 384.71875 412.539062 389.09375 407.886719 C 392.597656 404.167969 394.136719 399.675781 394.789062 394.882812 C 395.277344 391.308594 394.515625 387.789062 393.171875 384.308594 C 392.109375 381.554688 390.273438 380.195312 387.816406 379.222656 C 387.246094 379 386.605469 378.847656 386 378.847656 C 385.375 378.847656 384.753906 379.179688 384.128906 379.191406 C 381.652344 379.246094 379.046875 377.5 378.605469 375.558594 C 377.996094 372.863281 379.007812 369.992188 381.246094 368.847656 C 383.78125 367.550781 386.1875 366.15625 388.457031 364.378906 C 390.417969 362.851562 391.921875 360.976562 392.953125 358.949219 C 394.164062 356.558594 395 353.929688 395.441406 351.148438 C 395.882812 348.398438 395.667969 345.90625 394.917969 343.316406 C 394.019531 340.21875 392.066406 337.761719 390.066406 335.402344 C 387.574219 332.46875 384.324219 330.382812 380.921875 328.632812 C 377.070312 326.652344 372.976562 325.160156 368.78125 324.164062 C 365.292969 323.335938 361.726562 322.6875 358.066406 322.695312 C 354.628906 322.703125 351.328125 323.359375 348.007812 324.066406 C 345.734375 324.554688 343.925781 325.398438 342.871094 327.695312 C 341.863281 329.886719 338.441406 331.171875 336.292969 330.3125 C 334.226562 329.484375 332.136719 326.597656 332.539062 324.480469 C 332.746094 323.382812 333.023438 322.277344 333.445312 321.246094 C 334.480469 318.722656 335.21875 316.1875 335.285156 313.40625 C 335.347656 310.808594 334.683594 308.421875 333.847656 306.070312 C 332.792969 303.105469 331.105469 300.402344 328.898438 298.214844 C 326.75 296.082031 323.964844 294.730469 321.035156 293.832031 C 318.46875 293.042969 315.9375 292.15625 313.203125 291.980469 C 311.210938 291.851562 309.242188 291.308594 307.25 291.148438 C 306.199219 291.066406 305.113281 291.566406 304.054688 291.53125 C 301.40625 291.449219 298.828125 291.820312 296.296875 292.476562 C 291.933594 293.609375 287.644531 294.957031 284.628906 298.617188 C 283.960938 299.425781 283.101562 299.726562 282.25 300.003906 C 279.355469 300.941406 275.597656 298.199219 275.621094 295.15625 C 275.628906 293.636719 275.652344 292.039062 276.125 290.628906 C 276.496094 289.515625 276.257812 288.4375 276.527344 287.40625 C 277.429688 283.953125 277.730469 280.433594 277.839844 276.894531 C 277.964844 272.953125 277.34375 269.109375 276.578125 265.242188 C 275.898438 261.820312 274.800781 258.617188 273.335938 255.496094 C 271.636719 251.875 269.390625 248.640625 266.90625 245.484375 C 264.230469 242.085938 261.011719 239.367188 257.554688 236.9375 C 252.679688 233.503906 247.390625 230.800781 241.683594 228.925781 C 235.660156 226.949219 229.578125 225.460938 223.183594 225.589844 C 220.703125 225.636719 218.214844 225.542969 215.730469 225.617188 C 213.984375 225.671875 212.21875 225.765625 210.503906 226.082031 C 207.867188 226.566406 205.25 227.171875 202.667969 227.878906 C 199.304688 228.800781 195.90625 229.636719 192.808594 231.339844 C 190.726562 232.484375 188.570312 233.488281 186.5 234.644531 C 181.355469 237.503906 176.976562 241.394531 172.625 245.28125 C 171.242188 246.519531 170.28125 248.21875 169.070312 249.660156 C 165.175781 254.296875 162.226562 259.546875 160.058594 265.125 C 158.167969 269.996094 156.304688 274.894531 155.222656 280.09375 C 154.5 283.554688 153.542969 287.03125 153.261719 290.515625 C 152.867188 295.492188 152.898438 300.546875 154.050781 305.496094 C 154.261719 306.398438 154.449219 307.320312 154.496094 308.242188 C 154.644531 311.019531 152.878906 312.339844 150.605469 313.339844 C 148.566406 314.234375 147.019531 313.238281 145.535156 312.140625 C 144.242188 311.179688 143.046875 310.074219 141.882812 308.960938 C 138.242188 305.480469 133.757812 304.148438 128.894531 303.761719 C 125.597656 303.503906 122.410156 304.328125 119.3125 305.195312 C 116.839844 305.886719 114.511719 307.148438 112.496094 308.914062 C 110.40625 310.742188 109.183594 313.015625 108.53125 315.640625 C 107.820312 318.5 107.433594 321.464844 108.511719 324.230469 C 109.148438 325.863281 109.335938 327.421875 109.328125 329.082031 C 109.320312 333.027344 105.109375 335.554688 101.390625 334.089844 C 99.679688 333.417969 98.878906 332.070312 97.78125 330.867188 C 95.015625 327.84375 91.71875 325.449219 87.871094 323.1875 Z M 87.871094 323.1875 "/></g><g clip-rule="nonzero" clip-path="url(#917a2747ed)"><path style=" stroke:none;fill-rule:nonzero;fill:#eb8b56;fill-opacity:1;" d="M 509.742188 170.589844 C 505.734375 174.191406 501.277344 176.671875 496.445312 178.675781 C 492.234375 180.425781 487.871094 181.332031 483.476562 182.300781 C 482.226562 182.578125 481.027344 182.5625 479.804688 182.675781 C 478.210938 182.828125 476.601562 183.203125 475.027344 183.082031 C 471.914062 182.835938 468.789062 182.726562 465.675781 182.308594 C 463.734375 182.046875 461.886719 181.757812 460.15625 180.859375 C 459.898438 180.726562 459.703125 180.476562 459.480469 180.277344 C 459.722656 180.175781 459.960938 179.984375 460.203125 179.980469 C 461.707031 179.953125 463.214844 179.964844 464.71875 179.964844 C 468.851562 179.972656 472.832031 178.996094 476.863281 178.242188 C 482.027344 177.28125 486.53125 175 490.910156 172.296875 C 491.550781 171.902344 492.320312 171.714844 493.003906 171.367188 C 493.304688 171.214844 493.527344 170.910156 493.785156 170.675781 C 493.378906 170.648438 492.933594 170.511719 492.570312 170.621094 C 491.371094 170.992188 490.171875 171.375 489.035156 171.894531 C 484.964844 173.75 480.585938 174.457031 476.28125 175.46875 C 473.257812 176.179688 470.214844 176.546875 467.136719 176.914062 C 464.691406 177.207031 462.269531 177.332031 459.863281 177.191406 C 457.503906 177.054688 455.128906 176.839844 452.765625 176.433594 C 450.722656 176.085938 448.617188 176.03125 446.609375 175.4375 C 444.398438 174.785156 442.140625 174.226562 440.023438 173.335938 C 436.5625 171.875 433.085938 170.386719 429.828125 168.53125 C 425.953125 166.316406 421.992188 164.164062 418.675781 161.082031 C 417.324219 159.828125 415.867188 158.6875 414.578125 157.382812 C 413.832031 156.625 413.421875 156.992188 412.988281 157.566406 C 409.605469 162.015625 405.597656 165.507812 400.148438 167.394531 C 396.371094 168.699219 392.617188 169.648438 388.636719 169.558594 C 385.835938 169.496094 383.007812 169.464844 380.25 169.058594 C 378.203125 168.757812 376.234375 167.890625 374.25 167.222656 C 373.929688 167.113281 373.667969 166.742188 373.457031 166.4375 C 373.316406 166.230469 373.3125 165.929688 373.242188 165.675781 C 373.523438 165.617188 373.832031 165.457031 374.074219 165.523438 C 376.539062 166.226562 379.066406 166.59375 381.605469 166.382812 C 385.800781 166.03125 389.953125 165.371094 393.996094 164.144531 C 394.191406 164.085938 394.375 163.945312 394.53125 163.804688 C 394.808594 163.566406 395.0625 163.300781 395.324219 163.046875 C 394.984375 162.964844 394.582031 162.714844 394.320312 162.824219 C 391.660156 163.914062 388.867188 163.636719 386.101562 163.714844 C 382.238281 163.820312 378.5 163.273438 374.878906 161.894531 C 371.648438 160.667969 368.632812 159.03125 365.847656 157 C 364.425781 155.964844 363.136719 154.734375 361.882812 153.492188 C 361.070312 152.6875 360.453125 152.59375 359.675781 153.472656 C 359.027344 154.207031 358.289062 154.855469 357.609375 155.5625 C 354.382812 158.898438 350.695312 161.585938 346.332031 163.230469 C 344.4375 163.945312 342.496094 164.5625 340.53125 165.035156 C 336.574219 165.984375 332.503906 166.367188 328.496094 165.898438 C 321.339844 165.054688 314.328125 163.425781 308.097656 159.589844 C 305.792969 158.175781 303.742188 156.390625 301.9375 154.253906 C 300.246094 152.253906 298.914062 150.132812 297.699219 147.851562 C 296.636719 145.859375 296.230469 143.695312 295.996094 141.570312 C 295.597656 137.972656 295.605469 134.328125 295.484375 130.699219 C 295.425781 128.960938 294.953125 127.875 293.390625 127.617188 C 291.40625 127.292969 289.945312 126.0625 288.65625 124.90625 C 283.671875 120.441406 279.433594 115.320312 276.824219 109.070312 C 276.152344 107.46875 275.871094 105.667969 275.632812 103.925781 C 275.445312 102.523438 275.609375 101.070312 275.589844 99.640625 C 275.550781 96.304688 276.464844 93.144531 277.636719 90.097656 C 279.519531 85.195312 282.679688 81.097656 286.753906 77.882812 C 289.429688 75.773438 292.257812 73.726562 295.710938 72.824219 C 296.964844 72.496094 298.03125 71.46875 299.285156 71.125 C 302.191406 70.324219 305.125 69.542969 308.199219 69.71875 C 309.175781 69.773438 310.15625 69.734375 311.132812 69.726562 C 312.898438 69.710938 312.800781 69.726562 312.363281 67.835938 C 311.902344 65.824219 311.320312 63.757812 311.351562 61.726562 C 311.425781 56.773438 312.710938 52.195312 315.214844 47.75 C 317.339844 43.988281 320.140625 40.996094 323.226562 38.25 C 326.164062 35.636719 329.75 33.851562 333.355469 32.242188 C 337.453125 30.410156 341.644531 28.882812 346.113281 28.117188 C 348.320312 27.742188 350.492188 27.296875 352.746094 27.238281 C 354.871094 27.179688 356.996094 26.769531 359.109375 26.839844 C 365.046875 27.046875 370.8125 28.128906 376.296875 30.566406 C 381.164062 32.734375 385.671875 35.449219 389.855469 38.730469 C 392.523438 40.820312 395.21875 42.875 397.886719 44.96875 C 398.503906 45.453125 398.703125 45.582031 398.976562 44.601562 C 399.972656 41.03125 402.101562 38.125 404.550781 35.382812 C 407.105469 32.523438 410.179688 30.414062 413.550781 28.722656 C 415.761719 27.613281 418.199219 27.117188 420.660156 26.800781 C 421.652344 26.671875 422.640625 26.472656 423.636719 26.363281 C 424.746094 26.234375 425.800781 26.382812 426.675781 27.195312 C 426.855469 27.359375 427.128906 27.414062 427.359375 27.523438 C 427.074219 27.734375 426.8125 28.0625 426.492188 28.136719 C 425.722656 28.316406 424.910156 28.296875 424.148438 28.492188 C 421.183594 29.253906 418.839844 31.121094 416.535156 32.980469 C 415.132812 34.105469 413.941406 35.492188 412.6875 36.792969 C 412.351562 37.144531 412.101562 37.597656 411.894531 38.042969 C 411.769531 38.3125 411.808594 38.65625 411.777344 38.964844 C 412.035156 38.882812 412.355469 38.875 412.539062 38.710938 C 415.695312 35.917969 419.457031 34.445312 423.515625 33.574219 C 426.601562 32.910156 429.710938 32.5 432.855469 32.699219 C 437.722656 33.003906 442.363281 34.019531 446.4375 36.984375 C 448.773438 38.683594 451.382812 40.003906 453.730469 41.6875 C 454.808594 42.457031 455.035156 42.074219 455.425781 41.160156 C 455.972656 39.878906 456.851562 38.695312 457.167969 37.371094 C 457.722656 35.035156 459.207031 33.21875 460.335938 31.230469 C 461.804688 28.640625 463.609375 26.238281 465.371094 23.828125 C 466.566406 22.183594 467.859375 20.597656 469.242188 19.109375 C 471.085938 17.125 473.007812 15.207031 474.984375 13.355469 C 477.558594 10.949219 480.476562 8.980469 483.457031 7.109375 C 486.792969 5.015625 490.382812 3.488281 494.128906 2.347656 C 495.949219 1.792969 497.828125 1.429688 499.695312 1.0625 C 503.597656 0.300781 507.558594 0.464844 511.476562 0.644531 C 519.191406 1.003906 526.695312 2.371094 533.433594 6.480469 C 535.507812 7.746094 537.613281 8.957031 539.378906 10.679688 C 542.476562 13.699219 545.625 16.664062 548.769531 19.628906 C 551.738281 22.429688 553.84375 25.847656 555.789062 29.375 C 557.203125 31.945312 558.667969 34.5 559.917969 37.148438 C 561.671875 40.859375 563.339844 44.617188 564.855469 48.429688 C 565.613281 50.328125 566.175781 52.339844 566.121094 54.460938 C 566.082031 56.046875 566.253906 56.132812 567.953125 56.175781 C 571.425781 56.261719 574.902344 56.574219 578.214844 57.59375 C 580.316406 58.242188 582.28125 59.425781 584.210938 60.535156 C 586.9375 62.101562 589.34375 64.132812 591.472656 66.433594 C 594.441406 69.636719 596.777344 73.175781 598.277344 77.390625 C 599.578125 81.039062 600.144531 84.765625 600.960938 88.484375 C 601.773438 92.199219 601.914062 95.910156 601.757812 99.640625 C 601.609375 103.265625 600.886719 106.796875 599.191406 110.085938 C 598.300781 111.8125 597.671875 113.675781 596.8125 115.421875 C 595.113281 118.875 592.90625 122.019531 590.03125 124.558594 C 587.582031 126.722656 584.984375 128.746094 582.042969 130.296875 C 579.445312 131.664062 576.871094 133.003906 574.058594 133.941406 C 571.925781 134.652344 569.8125 134.851562 567.640625 134.765625 C 566.382812 134.71875 565.605469 134.949219 564.828125 136.191406 C 562.144531 140.46875 557.976562 142.601562 553.175781 143.871094 C 549.921875 144.730469 546.640625 144.960938 543.378906 144.660156 C 539.601562 144.308594 535.910156 143.367188 532.59375 141.292969 C 531.171875 140.40625 530.546875 140.722656 529.957031 142.257812 C 527.875 147.683594 525.191406 152.816406 522.234375 157.796875 C 521.242188 159.46875 519.78125 160.882812 518.433594 162.324219 C 516.84375 164.027344 515.175781 165.664062 513.492188 167.277344 C 512.324219 168.390625 511.070312 169.414062 509.742188 170.589844 M 450.894531 50.976562 C 448.546875 49.382812 446.1875 47.808594 443.855469 46.191406 C 439.65625 43.273438 435.128906 41.390625 429.898438 41.722656 C 428.601562 41.808594 427.296875 41.921875 426.027344 42.1875 C 423.402344 42.730469 420.835938 43.671875 418.742188 45.265625 C 414.101562 48.800781 412.007812 53.871094 411.179688 59.480469 C 410.90625 61.324219 409.664062 62.128906 408.328125 62.746094 C 407.03125 63.34375 405.636719 63.039062 404.519531 61.984375 C 401.710938 59.320312 398.910156 56.644531 396.082031 54.003906 C 394.789062 52.796875 393.519531 51.546875 392.105469 50.503906 C 388.542969 47.886719 384.945312 45.308594 381.273438 42.84375 C 379.300781 41.523438 377.199219 40.363281 375.050781 39.339844 C 373.234375 38.476562 371.300781 37.839844 369.371094 37.246094 C 365.65625 36.105469 361.875 35.21875 357.945312 35.402344 C 356.121094 35.484375 354.308594 35.777344 352.484375 35.816406 C 350.664062 35.855469 348.933594 36.246094 347.214844 36.75 C 344.402344 37.582031 341.5 38.078125 338.839844 39.4375 C 334.101562 41.863281 329.351562 44.238281 325.929688 48.527344 C 322.984375 52.226562 319.679688 57.90625 320.738281 63.867188 C 321.214844 66.550781 321.664062 69.140625 323.457031 71.34375 C 324.238281 72.304688 324.71875 73.515625 325.285156 74.640625 C 326.039062 76.140625 325.734375 77.457031 324.65625 78.75 C 323.257812 80.4375 320.765625 80.398438 319.273438 79.742188 C 316.851562 78.679688 314.304688 78.054688 311.691406 77.882812 C 306.636719 77.550781 301.972656 78.832031 297.558594 81.367188 C 293.691406 83.582031 290.675781 86.507812 288.707031 90.484375 C 287.515625 92.894531 286.976562 95.5 286.335938 98.101562 C 285.753906 100.472656 286.441406 102.40625 287.082031 104.488281 C 287.535156 105.96875 288.605469 107.03125 289.4375 108.265625 C 292.113281 112.226562 295.566406 115.421875 299.242188 118.347656 C 300.785156 119.574219 302.484375 120.941406 304.757812 120.824219 C 305.214844 120.800781 305.683594 121.117188 306.15625 121.226562 C 308.660156 121.796875 310.308594 124.632812 308.996094 126.378906 C 307.476562 128.40625 305.542969 129.921875 302.777344 129.820312 C 302.023438 129.792969 301.257812 129.730469 300.523438 129.847656 C 300.097656 129.914062 299.511719 129.851562 299.851562 130.90625 C 300.582031 133.1875 300.679688 135.671875 301.402344 137.957031 C 302.226562 140.558594 303.300781 143.140625 305.214844 145.171875 C 308.851562 149.027344 313.332031 151.636719 318.332031 153.277344 C 321.195312 154.214844 324.152344 154.917969 327.105469 155.527344 C 328.65625 155.847656 330.308594 155.796875 331.886719 155.898438 C 334.292969 156.058594 336.800781 155.628906 339.167969 155.054688 C 341.378906 154.519531 343.601562 153.703125 345.574219 152.574219 C 347.4375 151.507812 349.09375 149.988281 350.644531 148.464844 C 353.078125 146.070312 355.304688 143.457031 357.707031 141.027344 C 360.089844 138.617188 364.042969 139.242188 365.539062 142.316406 C 367.183594 145.691406 369.457031 148.363281 372.675781 150.371094 C 376.9375 153.027344 381.492188 154.480469 386.492188 154.675781 C 389.855469 154.804688 393.082031 154.238281 396.332031 153.359375 C 401.003906 152.101562 405.363281 150.332031 409.210938 147.347656 C 411.539062 145.546875 414.917969 145.425781 416.601562 147.691406 C 417.34375 148.683594 418.15625 149.628906 418.996094 150.539062 C 422.644531 154.515625 427.164062 157.308594 431.878906 159.789062 C 435.019531 161.441406 438.222656 162.996094 441.480469 164.410156 C 444.25 165.609375 447.132812 166.429688 450.160156 166.953125 C 453.207031 167.476562 456.203125 168.203125 459.324219 168.230469 C 464.503906 168.28125 469.609375 167.875 474.617188 166.429688 C 477.386719 165.632812 480.253906 165.164062 483.003906 164.308594 C 488.082031 162.734375 492.988281 160.703125 497.472656 157.8125 C 501.859375 154.984375 506.324219 152.332031 509.742188 148.136719 C 512.5625 144.675781 514.695312 140.898438 516.675781 136.976562 C 517.144531 136.050781 517.589844 135.046875 517.722656 134.035156 C 518 131.929688 518.113281 129.800781 518.199219 127.675781 C 518.296875 125.320312 519.9375 123.128906 522.386719 122.253906 C 523.839844 121.738281 526.929688 122.769531 527.90625 124.433594 C 529.492188 127.148438 531.652344 129.257812 534.152344 131.054688 C 539.320312 134.773438 544.839844 136.175781 551.183594 134.214844 C 554.90625 133.0625 556.984375 130.800781 557.984375 127.222656 C 558.207031 126.425781 558.5 125.625 558.890625 124.894531 C 559.8125 123.160156 562.246094 122.089844 563.785156 122.78125 C 565.074219 123.363281 566.394531 123.925781 567.054688 125.398438 C 567.230469 125.792969 567.945312 126.132812 568.433594 126.15625 C 569.199219 126.199219 569.992188 125.984375 570.761719 125.832031 C 573.445312 125.292969 575.59375 123.625 577.859375 122.273438 C 579.886719 121.066406 581.734375 119.527344 583.542969 117.996094 C 587.304688 114.8125 589.507812 110.519531 591.304688 106.089844 C 592.28125 103.683594 592.816406 101.074219 592.832031 98.335938 C 592.855469 94.21875 592.265625 90.214844 591.359375 86.257812 C 590.617188 83 589.65625 79.804688 587.832031 76.878906 C 585.46875 73.082031 582.351562 70.058594 578.675781 67.695312 C 574.480469 64.996094 569.601562 64.605469 564.777344 64.867188 C 563.441406 64.941406 562.035156 65.078125 560.667969 65.207031 C 559.570312 65.308594 558.761719 64.765625 557.964844 64.089844 C 555.898438 62.34375 556.28125 59.847656 556.769531 57.902344 C 557.261719 55.953125 556.726562 54.285156 556.371094 52.671875 C 555.761719 49.917969 554.605469 47.246094 553.414062 44.660156 C 551.6875 40.925781 549.765625 37.28125 547.84375 33.640625 C 546.300781 30.71875 544.539062 27.914062 542.097656 25.640625 C 539.074219 22.820312 536.0625 19.980469 532.871094 17.359375 C 530.796875 15.660156 528.582031 13.933594 526.136719 12.933594 C 520.828125 10.765625 515.242188 9.488281 509.433594 9.648438 C 506.785156 9.722656 504.0625 9.59375 501.507812 10.167969 C 497.714844 11.027344 493.9375 12.078125 490.515625 14.128906 C 486.542969 16.511719 482.707031 19.035156 479.488281 22.394531 C 477.695312 24.265625 475.9375 26.175781 474.21875 28.117188 C 471.757812 30.898438 469.746094 34.023438 468.101562 37.328125 C 465.988281 41.558594 464.183594 45.941406 462.175781 50.226562 C 460.734375 53.304688 458.796875 54.097656 455.570312 52.996094 C 454.058594 52.476562 452.601562 51.804688 450.894531 50.976562 Z M 450.894531 50.976562 "/></g><path style=" stroke:none;fill-rule:nonzero;fill:#eb8b56;fill-opacity:1;" d="M 422.542969 424.957031 C 424.242188 422.449219 425.65625 419.9375 427.761719 417.917969 C 429.757812 415.996094 431.714844 414.03125 433.644531 412.035156 C 437.132812 408.429688 441.621094 406.40625 446.007812 404.242188 C 448.96875 402.777344 452.183594 402.046875 455.410156 401.292969 C 459.636719 400.304688 463.890625 400.324219 468.144531 400.488281 C 472.585938 400.65625 476.960938 401.328125 481.28125 402.527344 C 485.261719 403.636719 488.65625 405.59375 491.847656 408.144531 C 496.449219 411.820312 499.90625 416.359375 502.910156 421.371094 C 504.039062 423.253906 504.976562 425.179688 505.859375 427.164062 C 506.578125 428.777344 506.753906 428.824219 507.898438 427.695312 C 509.730469 425.886719 512.175781 425.320312 514.441406 424.402344 C 516.789062 423.453125 519.207031 422.878906 521.78125 423 C 522.839844 423.054688 523.945312 422.5 524.976562 422.628906 C 527.589844 422.957031 530.246094 423.113281 532.777344 423.941406 C 534.566406 424.527344 536.445312 424.953125 538.101562 425.796875 C 540.109375 426.820312 541.972656 428.148438 543.808594 429.46875 C 545.054688 430.363281 546.152344 431.460938 547.300781 432.488281 C 547.390625 432.570312 547.351562 432.800781 547.371094 432.960938 C 547.222656 432.964844 547.042969 433.03125 546.933594 432.964844 C 545.894531 432.378906 544.871094 431.761719 543.832031 431.171875 C 540.597656 429.324219 537.074219 428.4375 533.402344 427.992188 C 531.558594 427.769531 529.742188 427.214844 527.902344 427.152344 C 525.863281 427.082031 523.808594 427.394531 521.765625 427.570312 C 521.625 427.582031 521.410156 427.828125 521.402344 427.976562 C 521.394531 428.132812 521.585938 428.429688 521.703125 428.433594 C 522.457031 428.476562 523.207031 428.460938 523.964844 428.457031 C 527.804688 428.4375 531.597656 428.929688 535.164062 430.3125 C 537.703125 431.296875 540.125 432.53125 542.382812 434.210938 C 546.050781 436.929688 548.226562 440.636719 550.273438 444.503906 C 550.757812 445.421875 551.105469 446.425781 551.386719 447.425781 C 551.691406 448.507812 552.484375 448.464844 553.234375 448.292969 C 553.898438 448.140625 554.492188 447.703125 555.136719 447.4375 C 557.125 446.621094 559.1875 446.109375 561.347656 446.082031 C 562.777344 446.0625 564.210938 446.136719 565.636719 446.066406 C 569.011719 445.894531 572.140625 446.921875 575.15625 448.183594 C 577.722656 449.261719 580.394531 450.371094 582.554688 452.058594 C 585.3125 454.210938 587.546875 457.027344 590.117188 459.4375 C 592.632812 461.792969 594 464.894531 595.625 467.792969 C 596.65625 469.644531 597.160156 471.832031 597.695312 473.917969 C 598.15625 475.710938 598.386719 477.570312 598.617188 479.414062 C 598.796875 480.851562 598.371094 482.339844 599.058594 483.753906 C 599.238281 484.121094 599.273438 484.804688 599.050781 485.066406 C 598.292969 485.945312 598.707031 486.925781 598.648438 487.847656 C 598.359375 492.335938 597.019531 496.285156 593.75 499.628906 C 591.097656 502.335938 587.921875 503.945312 584.480469 505.117188 C 583.007812 505.617188 581.339844 505.613281 579.753906 505.695312 C 577.949219 505.785156 576.136719 505.800781 574.335938 505.6875 C 573.199219 505.613281 572.449219 506.046875 571.988281 506.964844 C 569.523438 511.886719 565.722656 515.613281 561.582031 519.132812 C 558.660156 521.613281 555.605469 523.859375 552.417969 525.953125 C 548.203125 528.722656 543.660156 530.515625 538.679688 531.546875 C 532.628906 532.796875 526.558594 532.464844 520.519531 532.277344 C 514.019531 532.082031 508.070312 529.53125 502.488281 526.296875 C 500.511719 525.152344 498.710938 523.660156 496.976562 522.160156 C 494.617188 520.125 492.394531 517.925781 490.117188 515.796875 C 489.898438 515.585938 489.664062 515.386719 489.480469 515.152344 C 488.050781 513.300781 488.042969 513.371094 486.566406 515.316406 C 484.003906 518.695312 481.402344 522.105469 477.867188 524.519531 C 475.867188 525.882812 473.582031 526.863281 471.34375 527.832031 C 467.652344 529.425781 463.863281 530.65625 459.796875 531.066406 C 456.53125 531.394531 453.285156 531.910156 450 531.894531 C 448.480469 531.886719 446.960938 531.621094 445.445312 531.46875 C 443.925781 531.316406 442.398438 531.292969 440.875 531.140625 C 438 530.847656 435.195312 530.324219 432.421875 529.632812 C 428.21875 528.582031 424.300781 526.832031 421.019531 523.925781 C 419.453125 522.539062 418.019531 521.003906 416.570312 519.488281 C 415.957031 518.84375 415.546875 518.601562 414.8125 519.394531 C 413.277344 521.054688 411.582031 522.558594 410.050781 524.214844 C 406.113281 528.476562 401.160156 531.046875 395.753906 532.789062 C 392.320312 533.898438 388.835938 534.796875 385.1875 535.144531 C 381.945312 535.449219 378.757812 536.3125 375.539062 536.878906 C 374.257812 537.101562 372.957031 537.277344 371.660156 537.324219 C 366.90625 537.515625 362.148438 537.683594 357.390625 537.78125 C 354.476562 537.839844 351.613281 537.210938 348.726562 536.964844 C 345.277344 536.667969 341.949219 535.894531 338.65625 535.023438 C 336.257812 534.382812 333.972656 533.253906 331.699219 532.203125 C 326.230469 529.6875 322.601562 525.359375 319.839844 520.125 C 318.527344 517.628906 317.257812 515.0625 316.890625 512.335938 C 316.519531 509.59375 315.90625 506.867188 316.574219 503.917969 C 317.230469 501.027344 317.660156 498.0625 318.539062 495.214844 C 319.628906 491.671875 321.355469 488.46875 323.84375 485.65625 C 325.261719 484.054688 326.253906 482.054688 327.742188 480.535156 C 329.679688 478.554688 331.734375 476.5625 334.078125 475.136719 C 337.523438 473.042969 341.210938 471.308594 344.914062 469.691406 C 346.5 469.003906 348.398438 469.050781 350.132812 468.65625 C 354.039062 467.769531 357.992188 468.410156 361.917969 468.234375 C 362.394531 468.214844 362.90625 468.382812 363.34375 468.585938 C 363.535156 468.667969 363.585938 469.066406 363.699219 469.316406 C 363.433594 469.402344 363.140625 469.613281 362.921875 469.550781 C 360.78125 468.953125 358.671875 469.597656 356.722656 470.109375 C 353.03125 471.082031 349.402344 472.375 345.964844 474.101562 C 345.335938 474.417969 344.777344 474.878906 344.203125 475.296875 C 344.070312 475.398438 344.011719 475.609375 343.914062 475.769531 C 344.125 475.8125 344.359375 475.9375 344.535156 475.882812 C 346.074219 475.417969 347.59375 474.910156 349.125 474.429688 C 351.097656 473.8125 353.117188 473.476562 355.148438 473.101562 C 358.457031 472.484375 361.566406 473.296875 364.769531 473.609375 C 368.46875 473.96875 372.074219 474.679688 375.601562 475.832031 C 376.359375 476.078125 376.890625 475.800781 377.246094 475.140625 C 377.714844 474.28125 378.042969 473.324219 378.625 472.554688 C 382.070312 467.992188 386.191406 464.347656 391.6875 462.269531 C 394.453125 461.222656 397.320312 460.632812 400.085938 459.652344 C 400.488281 459.507812 400.984375 459.632812 401.433594 459.632812 C 403.46875 459.632812 405.507812 459.738281 407.53125 459.605469 C 409.914062 459.445312 412.089844 460.128906 414.132812 461.132812 C 415.253906 461.679688 415.207031 461.277344 415.203125 460.464844 C 415.199219 459.335938 415.164062 458.203125 415.210938 457.078125 C 415.339844 454.125 415.359375 451.164062 415.6875 448.234375 C 416.25 443.15625 417.019531 438.09375 418.847656 433.285156 C 419.832031 430.691406 421.125 428.207031 422.273438 425.671875 C 422.355469 425.488281 422.378906 425.269531 422.542969 424.957031 M 385.835938 478.382812 C 385.609375 479.917969 384.820312 481.355469 385.351562 483.019531 C 385.773438 484.355469 384.992188 485.558594 384.320312 486.628906 C 383.171875 488.457031 380.613281 489.265625 378.515625 488.527344 C 377.074219 488.019531 375.730469 487.238281 374.28125 486.765625 C 372.152344 486.066406 369.980469 485.492188 367.804688 484.949219 C 366.296875 484.570312 364.757812 484.257812 363.214844 484.050781 C 361.480469 483.8125 359.683594 483.914062 357.992188 483.53125 C 355.59375 482.992188 353.308594 483.148438 350.894531 483.507812 C 347.21875 484.050781 343.796875 485.332031 340.507812 486.816406 C 336.144531 488.78125 332.707031 492.105469 329.917969 495.976562 C 329.003906 497.242188 328.164062 498.871094 328.097656 500.371094 C 327.945312 503.75 327.511719 507.230469 329.296875 510.449219 C 329.964844 511.648438 330.117188 513.128906 330.742188 514.359375 C 332.425781 517.679688 334.261719 520.859375 337.960938 522.460938 C 340.675781 523.632812 343.371094 524.652344 346.308594 525.246094 C 350.339844 526.058594 354.347656 526.839844 358.460938 526.941406 C 360.417969 526.992188 362.375 526.949219 364.332031 526.949219 C 365.914062 526.949219 367.503906 527.066406 369.070312 526.921875 C 371.066406 526.738281 373.035156 526.316406 375.023438 526.054688 C 376.539062 525.855469 378.074219 525.839844 379.574219 525.574219 C 382.652344 525.035156 385.691406 524.308594 388.769531 523.808594 C 393.070312 523.101562 397.050781 521.585938 400.601562 519.121094 C 402.835938 517.570312 404.96875 515.875 406.699219 513.648438 C 408.332031 511.546875 410.125 509.574219 411.253906 507.15625 C 412.730469 503.984375 416.851562 502.640625 419.824219 505.042969 C 421.089844 506.066406 422.046875 507.253906 422.742188 508.578125 C 424.378906 511.691406 426.605469 514.253906 429.324219 516.410156 C 430.132812 517.050781 431.117188 517.515625 432.085938 517.898438 C 437.683594 520.097656 443.570312 520.847656 449.515625 521.035156 C 452.757812 521.136719 456.003906 521.15625 459.277344 520.707031 C 462.476562 520.273438 465.519531 519.480469 468.417969 518.183594 C 471.332031 516.882812 474.152344 515.394531 475.992188 512.523438 C 477.265625 510.53125 478.761719 508.664062 480.292969 506.851562 C 481.964844 504.871094 483.753906 502.992188 485.5625 501.132812 C 485.976562 500.714844 486.648438 500.398438 487.238281 500.320312 C 490.652344 499.878906 493.277344 501.003906 495.210938 504.027344 C 496.910156 506.679688 498.839844 509.21875 500.902344 511.597656 C 502.554688 513.503906 504.816406 514.765625 506.808594 516.316406 C 511.742188 520.167969 517.375 521.644531 523.449219 521.988281 C 525.347656 522.09375 527.25 522.464844 529.132812 522.382812 C 531.351562 522.289062 533.546875 521.75 535.765625 521.542969 C 540.359375 521.121094 544.480469 519.503906 548.359375 517.035156 C 553.066406 514.039062 557.730469 511.011719 561.074219 506.425781 C 562.789062 504.074219 564.675781 501.761719 564.34375 498.503906 C 564.28125 497.890625 564.730469 497.160156 565.097656 496.582031 C 566.804688 493.898438 569.617188 494.039062 572.074219 494.523438 C 575.046875 495.101562 578.003906 495.53125 580.972656 495.257812 C 583.15625 495.058594 585.167969 494.113281 586.449219 492.066406 C 587.484375 490.414062 587.941406 488.644531 588.3125 486.722656 C 589.050781 482.902344 588.820312 479.207031 587.769531 475.53125 C 587.199219 473.527344 586.617188 471.515625 585.46875 469.710938 C 583.371094 466.421875 581.003906 463.398438 577.988281 460.871094 C 573.949219 457.484375 569.328125 455.570312 564.105469 455.152344 C 562.832031 455.050781 561.476562 455.257812 560.238281 455.597656 C 557.277344 456.414062 554.410156 457.4375 552.828125 460.449219 C 552.398438 461.265625 551.714844 461.964844 551.085938 462.664062 C 549.902344 463.976562 548.257812 464.035156 546.835938 463.539062 C 545.28125 462.996094 543.640625 462.199219 543.5 460.085938 C 543.40625 458.640625 543.355469 457.164062 543.003906 455.777344 C 542.394531 453.414062 541.792969 451.050781 540.863281 448.761719 C 540.210938 447.167969 539.421875 445.667969 538.375 444.386719 C 534.714844 439.925781 529.675781 438.289062 524.125 437.96875 C 522.226562 437.859375 520.328125 437.886719 518.433594 438.363281 C 516.546875 438.835938 514.792969 439.40625 513.320312 440.773438 C 511.652344 442.324219 510.472656 444.21875 509.367188 446.152344 C 508.175781 448.234375 506.648438 449.4375 504.117188 449.265625 C 501.929688 449.121094 499.867188 447.574219 499.71875 445.4375 C 499.527344 442.632812 498.722656 439.949219 498.339844 437.191406 C 497.960938 434.449219 496.996094 431.898438 495.875 429.402344 C 494.742188 426.886719 493.191406 424.605469 491.578125 422.375 C 489.527344 419.539062 487.113281 417.011719 484.328125 414.945312 C 480.390625 412.019531 475.726562 411.09375 470.914062 410.839844 C 470.238281 410.808594 469.511719 410.996094 468.886719 410.8125 C 465.160156 409.714844 461.453125 410.5 457.792969 411.023438 C 455.550781 411.34375 453.417969 412.410156 451.21875 413.089844 C 446.296875 414.613281 442.1875 417.527344 438.429688 420.882812 C 433.984375 424.851562 430.640625 429.65625 428.273438 435.175781 C 426.207031 439.992188 425.308594 445.039062 424.6875 450.175781 C 424.019531 455.699219 423.96875 461.21875 424.683594 466.742188 C 424.742188 467.1875 424.761719 467.65625 424.675781 468.09375 C 424.339844 469.816406 423.757812 471.464844 421.917969 472.078125 C 420.523438 472.542969 419.035156 472.496094 417.679688 471.808594 C 416 470.953125 414.402344 469.914062 412.683594 469.152344 C 411.285156 468.535156 409.785156 467.980469 408.285156 467.8125 C 404.632812 467.402344 401.019531 467.960938 397.570312 469.148438 C 392.726562 470.8125 388.484375 473.351562 385.835938 478.382812 Z M 385.835938 478.382812 "/><path style=" stroke:none;fill-rule:nonzero;fill:#eb8b56;fill-opacity:1;" d="M 442.3125 32.226562 C 439.136719 31.171875 436.1875 30.117188 433.238281 29.0625 C 432.910156 28.945312 432.589844 28.796875 432.25 28.726562 C 431.683594 28.613281 431.222656 28.34375 431.5 27.742188 C 431.679688 27.355469 432.160156 26.859375 432.523438 26.847656 C 434.628906 26.777344 436.757812 26.628906 438.761719 27.546875 C 440.53125 28.359375 442.328125 29.117188 444.070312 29.980469 C 445.410156 30.648438 446.195312 31.964844 445.777344 32.597656 C 445.300781 33.332031 444.386719 33.320312 442.859375 32.539062 C 442.730469 32.476562 442.644531 32.332031 442.3125 32.226562 Z M 442.3125 32.226562 "/><path style=" stroke:none;fill-rule:nonzero;fill:#eb8b56;fill-opacity:1;" d="M 354.660156 438.398438 C 353.148438 438.546875 351.859375 438.839844 350.574219 438.816406 C 348.382812 438.78125 346.195312 438.566406 344.007812 438.382812 C 343.609375 438.347656 343.203125 438.140625 342.855469 437.925781 C 342.667969 437.8125 342.589844 437.511719 342.460938 437.292969 C 342.648438 437.210938 342.835938 437.046875 343.015625 437.058594 C 343.585938 437.089844 344.152344 437.203125 344.722656 437.265625 C 345.441406 437.351562 346.273438 437.683594 346.859375 437.441406 C 348.300781 436.839844 349.773438 437.273438 351.1875 437.011719 C 353.011719 436.671875 354.863281 436.566406 356.695312 436.25 C 358.515625 435.9375 360.371094 435.832031 362.152344 435.25 C 362.316406 435.195312 362.722656 435.363281 362.71875 435.414062 C 362.707031 435.671875 362.671875 436.078125 362.507812 436.160156 C 361.515625 436.644531 360.515625 437.199219 359.453125 437.457031 C 358.203125 437.761719 356.882812 437.777344 355.601562 437.960938 C 355.347656 438 355.125 438.246094 354.660156 438.398438 Z M 354.660156 438.398438 "/><path style=" stroke:none;fill-rule:nonzero;fill:#eb8b56;fill-opacity:1;" d="M 553.90625 442.464844 C 553.75 442.847656 553.609375 443.054688 553.421875 443.140625 C 553.339844 443.175781 553.074219 442.988281 553.015625 442.847656 C 552.039062 440.636719 551.152344 438.386719 550.09375 436.222656 C 549.75 435.511719 550.195312 435.621094 550.441406 435.714844 C 550.875 435.875 551.480469 436.117188 551.605469 436.46875 C 552.242188 438.222656 553.476562 439.769531 553.476562 441.75 C 553.476562 441.914062 553.753906 442.078125 553.90625 442.464844 Z M 553.90625 442.464844 "/></g><mask id="1157528fb6"><g filter="url(#a17c6929d9)"><rect x="0" width="812.88" y="0" height="554.249966" style="fill:#000000;fill-opacity:0.2;stroke:none;"/></g></mask></g></g><g clip-rule="nonzero" clip-path="url(#d0e3a4f46a)"><path style=" stroke:none;fill-rule:nonzero;fill:#ffffff;fill-opacity:1;" d="M 353.667969 302.945312 C 353.96875 301.566406 354.417969 300.425781 354.546875 299.253906 C 355.128906 294.027344 356.582031 289.007812 358.34375 284.101562 C 360.414062 278.332031 362.863281 272.699219 365.882812 267.347656 C 367.566406 264.367188 369.363281 261.457031 371.699219 258.90625 C 373.121094 257.355469 374.234375 255.503906 375.742188 254.058594 C 378.335938 251.570312 381.03125 249.167969 383.867188 246.960938 C 386.378906 245 389.050781 243.207031 391.804688 241.601562 C 395.355469 239.53125 398.949219 237.554688 402.808594 236.003906 C 406.464844 234.535156 410.253906 233.585938 414.007812 232.53125 C 416.8125 231.746094 419.796875 231.601562 422.6875 231.101562 C 428.253906 230.132812 433.863281 230.722656 439.445312 230.75 C 441.875 230.761719 444.386719 231.21875 446.800781 231.976562 C 449.28125 232.753906 451.890625 233.117188 454.390625 233.839844 C 462.03125 236.054688 468.914062 239.710938 475.308594 244.453125 C 478.792969 247.039062 481.882812 250.003906 484.753906 253.171875 C 488.527344 257.335938 491.476562 262.105469 493.726562 267.277344 C 493.785156 267.40625 493.820312 267.550781 493.910156 267.652344 C 494.203125 267.980469 494.519531 268.292969 494.828125 268.609375 C 494.835938 268.15625 494.929688 267.6875 494.839844 267.253906 C 494.238281 264.292969 493.515625 261.378906 492.503906 258.511719 C 491.175781 254.757812 489.824219 251.035156 487.875 247.550781 C 487.640625 247.125 487.695312 246.539062 487.617188 246.027344 C 488.035156 246.289062 488.539062 246.46875 488.855469 246.820312 C 492.683594 251.078125 495.628906 255.902344 498.164062 261.027344 C 499.964844 264.667969 501.460938 268.421875 502.550781 272.304688 C 503.355469 275.179688 503.90625 278.121094 504.21875 281.140625 C 504.628906 285.085938 504.480469 289.007812 504.542969 292.933594 C 504.566406 294.226562 504.265625 295.519531 504.121094 296.8125 C 504.054688 297.386719 504.25 297.671875 504.867188 297.453125 C 507.769531 296.4375 510.773438 296.160156 513.824219 296.167969 C 515.628906 296.175781 517.4375 296.183594 519.242188 296.167969 C 523.667969 296.121094 527.9375 297.070312 532.164062 298.246094 C 534.3125 298.847656 536.5625 299.3125 538.53125 300.304688 C 540.785156 301.433594 543.019531 302.644531 545.054688 304.25 C 547.621094 306.273438 549.792969 308.566406 551.515625 311.289062 C 553.6875 314.726562 555.351562 318.433594 556.476562 322.328125 C 556.9375 323.90625 556.875 325.648438 556.96875 327.320312 C 557.058594 328.953125 557.421875 329.46875 558.929688 329.121094 C 563.660156 328.03125 568.457031 328.273438 573.242188 328.246094 C 577.730469 328.226562 582.027344 329.179688 586.328125 330.441406 C 590.441406 331.648438 594.457031 333.027344 598.195312 335.066406 C 601.203125 336.707031 604.171875 338.5 606.574219 341.027344 C 608.511719 343.070312 610.546875 345.050781 612.292969 347.25 C 614.527344 350.070312 616.117188 353.3125 617.023438 356.792969 C 617.566406 358.863281 618.011719 361.0625 617.902344 363.179688 C 617.683594 367.507812 616.980469 371.761719 615.371094 375.882812 C 613.761719 379.980469 611.457031 383.492188 608.296875 386.511719 C 607.195312 387.566406 607.183594 387.769531 608.324219 388.832031 C 611.816406 392.085938 613.148438 396.394531 614.375 400.792969 C 615.402344 404.464844 615.644531 408.253906 615.160156 411.929688 C 614.609375 416.066406 613.617188 420.207031 611.519531 423.945312 C 610.175781 426.335938 608.585938 428.519531 606.738281 430.554688 C 601.960938 435.816406 595.980469 439.238281 589.652344 442.230469 C 585.824219 444.042969 581.808594 445.292969 577.710938 446.070312 C 574.742188 446.636719 571.6875 446.988281 568.625 447.195312 C 565.667969 447.398438 562.722656 447.445312 559.769531 447.515625 C 556.996094 447.585938 554.273438 447.152344 551.554688 446.636719 C 550.207031 446.382812 548.820312 446.335938 547.453125 446.164062 C 545.167969 445.875 542.839844 445.753906 540.609375 445.222656 C 536.792969 444.320312 533.023438 443.21875 529.269531 442.078125 C 527.277344 441.46875 525.367188 440.597656 523.421875 439.839844 C 523.191406 439.75 522.972656 439.621094 522.753906 439.507812 C 522.839844 439.816406 522.828125 440.261719 523.03125 440.417969 C 523.878906 441.054688 524.773438 441.632812 525.675781 442.191406 C 531.449219 445.769531 537.25 449.304688 543.820312 451.28125 C 545.039062 451.648438 546.328125 451.761719 547.566406 452.0625 C 547.875 452.140625 548.109375 452.503906 548.378906 452.738281 C 548.105469 452.808594 547.835938 452.925781 547.5625 452.9375 C 542.226562 453.210938 537.085938 452.25 531.960938 450.816406 C 528.3125 449.796875 524.75 448.625 521.304688 447.074219 C 515.351562 444.398438 510.527344 440.246094 506.285156 435.394531 C 505.34375 434.3125 504.800781 432.867188 504.125 431.5625 C 503.050781 429.472656 502.703125 429.4375 500.867188 431.101562 C 499.90625 431.96875 498.878906 432.789062 497.796875 433.503906 C 494.453125 435.707031 490.710938 437.105469 486.976562 438.453125 C 484.414062 439.378906 481.742188 439.992188 479.117188 440.746094 C 476.710938 441.433594 474.261719 441.804688 471.78125 442.167969 C 466.941406 442.882812 462.105469 442.480469 457.277344 442.496094 C 454.359375 442.507812 451.449219 441.902344 448.636719 441.042969 C 446.574219 440.414062 444.503906 439.757812 442.527344 438.902344 C 441.179688 438.316406 439.945312 437.441406 438.761719 436.558594 C 438.175781 436.121094 437.910156 436.222656 437.484375 436.660156 C 436.386719 437.796875 435.242188 438.894531 434.136719 440.027344 C 430.433594 443.828125 425.8125 446.164062 420.921875 447.929688 C 417.175781 449.28125 413.277344 450.109375 409.230469 450.324219 C 407.652344 450.40625 406.050781 450.664062 404.445312 450.683594 C 400.804688 450.726562 397.230469 450.074219 393.722656 449.277344 C 389.230469 448.257812 384.988281 446.4375 380.851562 444.378906 C 377.609375 442.765625 374.589844 440.878906 372.117188 438.195312 C 371.558594 437.585938 370.960938 437.011719 370.363281 436.4375 C 369.339844 435.457031 369.367188 435.484375 368.570312 436.820312 C 367.558594 438.515625 366.554688 440.222656 365.425781 441.839844 C 363.414062 444.71875 361.113281 447.289062 358.335938 449.527344 C 356.078125 451.34375 353.878906 453.222656 351.515625 454.921875 C 348.640625 456.988281 345.523438 458.585938 342.394531 460.183594 C 341.707031 460.535156 340.960938 460.90625 340.449219 461.460938 C 337.671875 464.488281 333.957031 466.074219 330.390625 467.757812 C 327.070312 469.324219 323.445312 470.238281 319.980469 471.515625 C 317.738281 472.34375 315.421875 472.703125 313.066406 472.8125 C 308.839844 473.007812 304.582031 472.878906 300.390625 473.367188 C 297.949219 473.65625 295.523438 473.824219 293.117188 473.667969 C 290.34375 473.492188 287.59375 472.882812 284.835938 472.4375 C 282.019531 471.980469 279.1875 471.578125 276.398438 470.988281 C 274.207031 470.527344 272.042969 469.902344 269.917969 469.191406 C 266.550781 468.058594 263.253906 466.722656 259.882812 465.617188 C 256.863281 464.632812 254.117188 463.1875 251.34375 461.65625 C 248.003906 459.808594 244.8125 457.742188 241.667969 455.617188 C 239.042969 453.84375 236.585938 451.792969 234.164062 449.742188 C 232.015625 447.921875 230.003906 445.933594 227.945312 444.011719 C 223.886719 440.214844 220.460938 435.855469 217.792969 431.039062 C 215.273438 426.484375 213.355469 421.59375 211.167969 416.851562 C 211.109375 416.722656 210.898438 416.605469 210.914062 416.515625 C 211.027344 415.851562 211.179688 415.199219 211.320312 414.542969 C 211.632812 415.042969 212.09375 415.5 212.226562 416.046875 C 212.707031 417.988281 214.28125 419.15625 215.429688 420.582031 C 218.128906 423.949219 220.917969 427.269531 223.898438 430.394531 C 225.796875 432.386719 228.070312 434.035156 230.234375 435.765625 C 232.652344 437.703125 235.125 439.570312 237.589844 441.453125 C 240.445312 443.636719 243.308594 445.808594 246.183594 447.972656 C 248.566406 449.769531 251.109375 451.339844 253.550781 453.03125 C 257.429688 455.722656 261.699219 457.375 266.09375 458.792969 C 270.617188 460.253906 275.199219 461.546875 279.777344 462.832031 C 280.945312 463.160156 282.199219 463.1875 283.414062 463.324219 C 283.609375 463.347656 283.820312 463.230469 284.023438 463.179688 C 283.855469 462.964844 283.730469 462.664062 283.511719 462.558594 C 283.136719 462.382812 282.691406 462.355469 282.296875 462.214844 C 279.21875 461.105469 276.207031 459.746094 273.050781 458.9375 C 270.160156 458.195312 267.507812 457.0625 264.898438 455.683594 C 259.28125 452.71875 253.789062 449.5625 248.671875 445.773438 C 244.828125 442.929688 240.890625 440.207031 237.464844 436.835938 C 235.617188 435.015625 233.628906 433.339844 231.757812 431.546875 C 228.757812 428.664062 226.457031 425.207031 224.023438 421.871094 C 222.609375 419.933594 221.351562 417.875 220.109375 415.816406 C 219.425781 414.6875 218.8125 413.492188 218.355469 412.253906 C 216.96875 408.535156 215.609375 404.804688 214.367188 401.03125 C 213.675781 398.9375 213.296875 396.773438 213.078125 394.539062 C 212.777344 391.503906 213.070312 388.433594 212.609375 385.46875 C 212.136719 382.417969 212.089844 379.371094 212.347656 376.390625 C 212.675781 372.59375 213.257812 368.820312 214.363281 365.070312 C 216.417969 358.09375 219.78125 351.871094 223.777344 345.925781 C 224.558594 344.757812 225.832031 343.9375 226.765625 342.855469 C 231.535156 337.34375 237.425781 333.1875 243.523438 329.375 C 248.445312 326.296875 253.773438 323.972656 259.542969 322.804688 C 263.246094 322.058594 266.933594 321.378906 270.734375 321.445312 C 271.644531 321.457031 272.675781 321.898438 273.5 321.035156 C 273.605469 320.921875 273.980469 320.933594 274.152344 321.03125 C 275.613281 321.867188 277.195312 321.367188 278.71875 321.460938 C 284.789062 321.828125 290.671875 322.960938 296.328125 325.304688 C 299.578125 326.652344 302.667969 328.246094 305.625 330.128906 C 306.722656 330.824219 307.3125 330.582031 307.582031 329.289062 C 308.773438 323.625 311.453125 318.78125 315.980469 315.175781 C 319.574219 312.316406 323.691406 310.371094 328.199219 309.246094 C 331.886719 308.324219 335.589844 307.664062 339.386719 307.933594 C 343.578125 308.234375 347.703125 308.929688 351.59375 310.628906 C 352.757812 311.136719 353.125 310.964844 353.214844 309.78125 C 353.378906 307.578125 353.519531 305.375 353.667969 302.945312 M 297.871094 338.1875 C 297.46875 337.886719 297.097656 337.519531 296.65625 337.292969 C 292.527344 335.164062 288.289062 333.371094 283.625 332.75 C 280.863281 332.382812 278.136719 331.679688 275.367188 331.46875 C 273.191406 331.300781 270.984375 331.515625 268.773438 331.753906 C 265.6875 332.089844 262.652344 332.585938 259.632812 333.226562 C 256.195312 333.957031 253 335.445312 249.914062 337.011719 C 246.777344 338.597656 243.824219 340.628906 241.011719 342.757812 C 238.972656 344.300781 236.960938 345.949219 235.675781 348.355469 C 234.28125 350.964844 232.601562 353.4375 230.910156 355.871094 C 228.648438 359.125 227.003906 362.679688 225.84375 366.425781 C 224.445312 370.957031 223.441406 375.597656 223.5625 380.386719 C 223.640625 383.488281 223.390625 386.699219 224.113281 389.660156 C 225.101562 393.695312 226.710938 397.605469 228.351562 401.441406 C 230.492188 406.453125 233.554688 410.980469 236.828125 415.304688 C 239.296875 418.558594 241.640625 421.960938 244.757812 424.6875 C 247.417969 427.015625 250.039062 429.386719 252.699219 431.710938 C 254.738281 433.492188 256.84375 435.191406 258.863281 436.996094 C 261.960938 439.765625 265.441406 441.898438 269.175781 443.730469 C 274.8125 446.496094 280.464844 449.207031 286.488281 451.007812 C 289.515625 451.914062 292.507812 452.941406 295.660156 453.445312 C 297.570312 453.75 299.496094 454.03125 301.371094 454.40625 C 303.441406 454.820312 305.523438 454.804688 307.582031 455.117188 C 309.417969 455.394531 311.359375 455.082031 313.269531 454.863281 C 316.421875 454.507812 319.546875 454.097656 322.632812 453.390625 C 325.792969 452.667969 328.953125 451.945312 332.085938 451.125 C 337.40625 449.730469 342.105469 447.085938 346.402344 443.707031 C 348.117188 442.363281 349.65625 440.742188 351.5 439.613281 C 353.648438 438.292969 354.980469 436.304688 356.339844 434.378906 C 359.65625 429.6875 361.046875 424.292969 361.324219 418.621094 C 361.464844 415.808594 364.34375 413.636719 366.707031 413.746094 C 368.792969 413.835938 370.796875 414.875 371.742188 417.105469 C 372.9375 419.921875 373.964844 422.835938 375.417969 425.515625 C 376.535156 427.578125 377.910156 429.691406 379.691406 431.148438 C 382.273438 433.261719 385.257812 434.882812 388.46875 436.058594 C 393.515625 437.898438 398.53125 439.734375 404.03125 439.390625 C 406.527344 439.238281 409.101562 439.417969 411.507812 438.871094 C 416.429688 437.75 421.203125 435.996094 425.289062 432.953125 C 427.164062 431.5625 428.714844 429.808594 429.246094 427.152344 C 429.644531 425.152344 429.390625 423.152344 429.910156 421.148438 C 430.363281 419.390625 431.246094 417.980469 432.566406 417.335938 C 436.113281 415.597656 439.863281 417.941406 440.464844 420.828125 C 441.230469 424.503906 443.371094 427.207031 447.015625 428.613281 C 450.746094 430.054688 454.5 431.371094 458.570312 431.246094 C 462.722656 431.117188 466.90625 431.699219 471.03125 430.808594 C 472.898438 430.40625 474.800781 430.121094 476.625 429.582031 C 481.503906 428.132812 486.371094 426.613281 490.980469 424.4375 C 492.390625 423.773438 493.691406 422.820312 494.71875 421.507812 C 496.023438 419.855469 496.769531 417.992188 497.332031 416.03125 C 498.304688 412.628906 502.210938 409.9375 505.90625 412.578125 C 507.710938 413.867188 509.289062 415.570312 510.671875 417.324219 C 512.847656 420.078125 514.921875 422.921875 517.882812 424.882812 C 520.523438 426.632812 523.136719 428.539062 526.019531 429.773438 C 529.980469 431.472656 534.136719 432.78125 538.300781 433.910156 C 541.585938 434.804688 545.011719 435.199219 548.382812 435.765625 C 549.738281 435.992188 551.15625 435.925781 552.476562 436.261719 C 555.039062 436.914062 557.660156 436.925781 560.246094 437.078125 C 564.273438 437.316406 568.28125 436.699219 572.300781 436.285156 C 576.296875 435.871094 580.050781 434.683594 583.679688 433.179688 C 589.46875 430.78125 594.71875 427.539062 599.09375 422.886719 C 602.597656 419.167969 604.136719 414.675781 604.789062 409.882812 C 605.277344 406.308594 604.515625 402.789062 603.171875 399.308594 C 602.109375 396.554688 600.273438 395.195312 597.816406 394.222656 C 597.246094 394 596.605469 393.847656 596 393.847656 C 595.375 393.847656 594.753906 394.179688 594.128906 394.191406 C 591.652344 394.246094 589.046875 392.5 588.605469 390.558594 C 587.996094 387.863281 589.007812 384.992188 591.246094 383.847656 C 593.78125 382.550781 596.1875 381.15625 598.457031 379.378906 C 600.417969 377.851562 601.921875 375.976562 602.953125 373.949219 C 604.164062 371.558594 605 368.929688 605.441406 366.148438 C 605.882812 363.398438 605.667969 360.90625 604.917969 358.316406 C 604.019531 355.21875 602.066406 352.761719 600.066406 350.402344 C 597.574219 347.46875 594.324219 345.382812 590.921875 343.632812 C 587.070312 341.652344 582.976562 340.160156 578.78125 339.164062 C 575.292969 338.335938 571.726562 337.6875 568.066406 337.695312 C 564.628906 337.703125 561.328125 338.359375 558.007812 339.066406 C 555.734375 339.554688 553.925781 340.398438 552.871094 342.695312 C 551.863281 344.886719 548.441406 346.171875 546.292969 345.3125 C 544.226562 344.484375 542.136719 341.597656 542.539062 339.480469 C 542.746094 338.382812 543.023438 337.277344 543.445312 336.246094 C 544.480469 333.722656 545.21875 331.1875 545.285156 328.40625 C 545.347656 325.808594 544.683594 323.421875 543.847656 321.070312 C 542.792969 318.105469 541.105469 315.402344 538.898438 313.214844 C 536.75 311.082031 533.964844 309.730469 531.035156 308.832031 C 528.46875 308.042969 525.9375 307.15625 523.203125 306.980469 C 521.210938 306.851562 519.242188 306.308594 517.25 306.148438 C 516.199219 306.066406 515.113281 306.566406 514.054688 306.53125 C 511.40625 306.449219 508.828125 306.820312 506.296875 307.476562 C 501.933594 308.609375 497.644531 309.957031 494.628906 313.617188 C 493.960938 314.425781 493.101562 314.726562 492.25 315.003906 C 489.355469 315.941406 485.597656 313.199219 485.621094 310.15625 C 485.628906 308.636719 485.652344 307.039062 486.125 305.628906 C 486.496094 304.515625 486.257812 303.4375 486.527344 302.40625 C 487.429688 298.953125 487.730469 295.433594 487.839844 291.894531 C 487.964844 287.953125 487.34375 284.109375 486.578125 280.242188 C 485.898438 276.820312 484.800781 273.617188 483.335938 270.496094 C 481.636719 266.875 479.390625 263.640625 476.90625 260.484375 C 474.230469 257.085938 471.011719 254.367188 467.554688 251.9375 C 462.679688 248.503906 457.390625 245.800781 451.683594 243.925781 C 445.660156 241.949219 439.578125 240.460938 433.183594 240.589844 C 430.703125 240.636719 428.214844 240.542969 425.730469 240.617188 C 423.984375 240.671875 422.21875 240.765625 420.503906 241.082031 C 417.867188 241.566406 415.25 242.171875 412.667969 242.878906 C 409.304688 243.800781 405.90625 244.636719 402.808594 246.339844 C 400.726562 247.484375 398.570312 248.488281 396.5 249.644531 C 391.355469 252.503906 386.976562 256.394531 382.625 260.28125 C 381.242188 261.519531 380.28125 263.21875 379.070312 264.660156 C 375.175781 269.296875 372.226562 274.546875 370.058594 280.125 C 368.167969 284.996094 366.304688 289.894531 365.222656 295.09375 C 364.5 298.554688 363.542969 302.03125 363.261719 305.515625 C 362.867188 310.492188 362.898438 315.546875 364.050781 320.496094 C 364.261719 321.398438 364.449219 322.320312 364.496094 323.242188 C 364.644531 326.019531 362.878906 327.339844 360.605469 328.339844 C 358.566406 329.234375 357.019531 328.238281 355.535156 327.140625 C 354.242188 326.179688 353.046875 325.074219 351.882812 323.960938 C 348.242188 320.480469 343.757812 319.148438 338.894531 318.761719 C 335.597656 318.503906 332.410156 319.328125 329.3125 320.195312 C 326.839844 320.886719 324.511719 322.148438 322.496094 323.914062 C 320.40625 325.742188 319.183594 328.015625 318.53125 330.640625 C 317.820312 333.5 317.433594 336.464844 318.511719 339.230469 C 319.148438 340.863281 319.335938 342.421875 319.328125 344.082031 C 319.320312 348.027344 315.109375 350.554688 311.390625 349.089844 C 309.679688 348.417969 308.878906 347.070312 307.78125 345.867188 C 305.015625 342.84375 301.71875 340.449219 297.871094 338.1875 Z M 297.871094 338.1875 "/></g><g clip-rule="nonzero" clip-path="url(#c6e501dbcc)"><path style=" stroke:none;fill-rule:nonzero;fill:#ffffff;fill-opacity:1;" d="M 632.542969 439.957031 C 634.242188 437.449219 635.65625 434.9375 637.761719 432.917969 C 639.757812 430.996094 641.714844 429.03125 643.644531 427.035156 C 647.132812 423.429688 651.621094 421.40625 656.007812 419.242188 C 658.96875 417.777344 662.183594 417.046875 665.410156 416.292969 C 669.636719 415.304688 673.890625 415.324219 678.144531 415.488281 C 682.585938 415.65625 686.960938 416.328125 691.28125 417.527344 C 695.261719 418.636719 698.65625 420.59375 701.847656 423.144531 C 706.449219 426.820312 709.90625 431.359375 712.910156 436.371094 C 714.039062 438.253906 714.976562 440.179688 715.859375 442.164062 C 716.578125 443.777344 716.753906 443.824219 717.898438 442.695312 C 719.730469 440.886719 722.175781 440.320312 724.441406 439.402344 C 726.789062 438.453125 729.207031 437.878906 731.78125 438 C 732.839844 438.054688 733.945312 437.5 734.976562 437.628906 C 737.589844 437.957031 740.246094 438.113281 742.777344 438.941406 C 744.566406 439.527344 746.445312 439.953125 748.101562 440.796875 C 750.109375 441.820312 751.972656 443.148438 753.808594 444.46875 C 755.054688 445.363281 756.152344 446.460938 757.300781 447.488281 C 757.390625 447.570312 757.351562 447.800781 757.371094 447.960938 C 757.222656 447.964844 757.042969 448.03125 756.933594 447.964844 C 755.894531 447.378906 754.871094 446.761719 753.832031 446.171875 C 750.597656 444.324219 747.074219 443.4375 743.402344 442.992188 C 741.558594 442.769531 739.742188 442.214844 737.902344 442.152344 C 735.863281 442.082031 733.808594 442.394531 731.765625 442.570312 C 731.625 442.582031 731.410156 442.828125 731.402344 442.976562 C 731.394531 443.132812 731.585938 443.429688 731.703125 443.433594 C 732.457031 443.476562 733.207031 443.460938 733.964844 443.457031 C 737.804688 443.4375 741.597656 443.929688 745.164062 445.3125 C 747.703125 446.296875 750.125 447.53125 752.382812 449.210938 C 756.050781 451.929688 758.226562 455.636719 760.273438 459.503906 C 760.757812 460.421875 761.105469 461.425781 761.386719 462.425781 C 761.691406 463.507812 762.484375 463.464844 763.234375 463.292969 C 763.898438 463.140625 764.492188 462.703125 765.136719 462.4375 C 767.125 461.621094 769.1875 461.109375 771.347656 461.082031 C 772.777344 461.0625 774.210938 461.136719 775.636719 461.066406 C 779.011719 460.894531 782.140625 461.921875 785.15625 463.183594 C 787.722656 464.261719 790.394531 465.371094 792.554688 467.058594 C 795.3125 469.210938 797.546875 472.027344 800.117188 474.4375 C 802.632812 476.792969 804 479.894531 805.625 482.792969 C 806.65625 484.644531 807.160156 486.832031 807.695312 488.917969 C 808.15625 490.710938 808.386719 492.570312 808.617188 494.414062 C 808.796875 495.851562 808.371094 497.339844 809.058594 498.753906 C 809.238281 499.121094 809.273438 499.804688 809.050781 500.066406 C 808.292969 500.945312 808.707031 501.925781 808.648438 502.847656 C 808.359375 507.335938 807.019531 511.285156 803.75 514.628906 C 801.097656 517.335938 797.921875 518.945312 794.480469 520.117188 C 793.007812 520.617188 791.339844 520.613281 789.753906 520.695312 C 787.949219 520.785156 786.136719 520.800781 784.335938 520.6875 C 783.199219 520.613281 782.449219 521.046875 781.988281 521.964844 C 779.523438 526.886719 775.722656 530.613281 771.582031 534.132812 C 768.660156 536.613281 765.605469 538.859375 762.417969 540.953125 C 758.203125 543.722656 753.660156 545.515625 748.679688 546.546875 C 742.628906 547.796875 736.558594 547.464844 730.519531 547.277344 C 724.019531 547.082031 718.070312 544.53125 712.488281 541.296875 C 710.511719 540.152344 708.710938 538.660156 706.976562 537.160156 C 704.617188 535.125 702.394531 532.925781 700.117188 530.796875 C 699.898438 530.585938 699.664062 530.386719 699.480469 530.152344 C 698.050781 528.300781 698.042969 528.371094 696.566406 530.316406 C 694.003906 533.695312 691.402344 537.105469 687.867188 539.519531 C 685.867188 540.882812 683.582031 541.863281 681.34375 542.832031 C 677.652344 544.425781 673.863281 545.65625 669.796875 546.066406 C 666.53125 546.394531 663.285156 546.910156 660 546.894531 C 658.480469 546.886719 656.960938 546.621094 655.445312 546.46875 C 653.925781 546.316406 652.398438 546.292969 650.875 546.140625 C 648 545.847656 645.195312 545.324219 642.421875 544.632812 C 638.21875 543.582031 634.300781 541.832031 631.019531 538.925781 C 629.453125 537.539062 628.019531 536.003906 626.570312 534.488281 C 625.957031 533.84375 625.546875 533.601562 624.8125 534.394531 C 623.277344 536.054688 621.582031 537.558594 620.050781 539.214844 C 616.113281 543.476562 611.160156 546.046875 605.753906 547.789062 C 602.320312 548.898438 598.835938 549.796875 595.1875 550.144531 C 591.945312 550.449219 588.757812 551.3125 585.539062 551.878906 C 584.257812 552.101562 582.957031 552.277344 581.660156 552.324219 C 576.90625 552.515625 572.148438 552.683594 567.390625 552.78125 C 564.476562 552.839844 561.613281 552.210938 558.726562 551.964844 C 555.277344 551.667969 551.949219 550.894531 548.65625 550.023438 C 546.257812 549.382812 543.972656 548.253906 541.699219 547.203125 C 536.230469 544.6875 532.601562 540.359375 529.839844 535.125 C 528.527344 532.628906 527.257812 530.0625 526.890625 527.335938 C 526.519531 524.59375 525.90625 521.867188 526.574219 518.917969 C 527.230469 516.027344 527.660156 513.0625 528.539062 510.214844 C 529.628906 506.671875 531.355469 503.46875 533.84375 500.65625 C 535.261719 499.054688 536.253906 497.054688 537.742188 495.535156 C 539.679688 493.554688 541.734375 491.5625 544.078125 490.136719 C 547.523438 488.042969 551.210938 486.308594 554.914062 484.691406 C 556.5 484.003906 558.398438 484.050781 560.132812 483.65625 C 564.039062 482.769531 567.992188 483.410156 571.917969 483.234375 C 572.394531 483.214844 572.90625 483.382812 573.34375 483.585938 C 573.535156 483.667969 573.585938 484.066406 573.699219 484.316406 C 573.433594 484.402344 573.140625 484.613281 572.921875 484.550781 C 570.78125 483.953125 568.671875 484.597656 566.722656 485.109375 C 563.03125 486.082031 559.402344 487.375 555.964844 489.101562 C 555.335938 489.417969 554.777344 489.878906 554.203125 490.296875 C 554.070312 490.398438 554.011719 490.609375 553.914062 490.769531 C 554.125 490.8125 554.359375 490.9375 554.535156 490.882812 C 556.074219 490.417969 557.59375 489.910156 559.125 489.429688 C 561.097656 488.8125 563.117188 488.476562 565.148438 488.101562 C 568.457031 487.484375 571.566406 488.296875 574.769531 488.609375 C 578.46875 488.96875 582.074219 489.679688 585.601562 490.832031 C 586.359375 491.078125 586.890625 490.800781 587.246094 490.140625 C 587.714844 489.28125 588.042969 488.324219 588.625 487.554688 C 592.070312 482.992188 596.191406 479.347656 601.6875 477.269531 C 604.453125 476.222656 607.320312 475.632812 610.085938 474.652344 C 610.488281 474.507812 610.984375 474.632812 611.433594 474.632812 C 613.46875 474.632812 615.507812 474.738281 617.53125 474.605469 C 619.914062 474.445312 622.089844 475.128906 624.132812 476.132812 C 625.253906 476.679688 625.207031 476.277344 625.203125 475.464844 C 625.199219 474.335938 625.164062 473.203125 625.210938 472.078125 C 625.339844 469.125 625.359375 466.164062 625.6875 463.234375 C 626.25 458.15625 627.019531 453.09375 628.847656 448.285156 C 629.832031 445.691406 631.125 443.207031 632.273438 440.671875 C 632.355469 440.488281 632.378906 440.269531 632.542969 439.957031 M 595.835938 493.382812 C 595.609375 494.917969 594.820312 496.355469 595.351562 498.019531 C 595.773438 499.355469 594.992188 500.558594 594.320312 501.628906 C 593.171875 503.457031 590.613281 504.265625 588.515625 503.527344 C 587.074219 503.019531 585.730469 502.238281 584.28125 501.765625 C 582.152344 501.066406 579.980469 500.492188 577.804688 499.949219 C 576.296875 499.570312 574.757812 499.257812 573.214844 499.050781 C 571.480469 498.8125 569.683594 498.914062 567.992188 498.53125 C 565.59375 497.992188 563.308594 498.148438 560.894531 498.507812 C 557.21875 499.050781 553.796875 500.332031 550.507812 501.816406 C 546.144531 503.78125 542.707031 507.105469 539.917969 510.976562 C 539.003906 512.242188 538.164062 513.871094 538.097656 515.371094 C 537.945312 518.75 537.511719 522.230469 539.296875 525.449219 C 539.964844 526.648438 540.117188 528.128906 540.742188 529.359375 C 542.425781 532.679688 544.261719 535.859375 547.960938 537.460938 C 550.675781 538.632812 553.371094 539.652344 556.308594 540.246094 C 560.339844 541.058594 564.347656 541.839844 568.460938 541.941406 C 570.417969 541.992188 572.375 541.949219 574.332031 541.949219 C 575.914062 541.949219 577.503906 542.066406 579.070312 541.921875 C 581.066406 541.738281 583.035156 541.316406 585.023438 541.054688 C 586.539062 540.855469 588.074219 540.839844 589.574219 540.574219 C 592.652344 540.035156 595.691406 539.308594 598.769531 538.808594 C 603.070312 538.101562 607.050781 536.585938 610.601562 534.121094 C 612.835938 532.570312 614.96875 530.875 616.699219 528.648438 C 618.332031 526.546875 620.125 524.574219 621.253906 522.15625 C 622.730469 518.984375 626.851562 517.640625 629.824219 520.042969 C 631.089844 521.066406 632.046875 522.253906 632.742188 523.578125 C 634.378906 526.691406 636.605469 529.253906 639.324219 531.410156 C 640.132812 532.050781 641.117188 532.515625 642.085938 532.898438 C 647.683594 535.097656 653.570312 535.847656 659.515625 536.035156 C 662.757812 536.136719 666.003906 536.15625 669.277344 535.707031 C 672.476562 535.273438 675.519531 534.480469 678.417969 533.183594 C 681.332031 531.882812 684.152344 530.394531 685.992188 527.523438 C 687.265625 525.53125 688.761719 523.664062 690.292969 521.851562 C 691.964844 519.871094 693.753906 517.992188 695.5625 516.132812 C 695.976562 515.714844 696.648438 515.398438 697.238281 515.320312 C 700.652344 514.878906 703.277344 516.003906 705.210938 519.027344 C 706.910156 521.679688 708.839844 524.21875 710.902344 526.597656 C 712.554688 528.503906 714.816406 529.765625 716.808594 531.316406 C 721.742188 535.167969 727.375 536.644531 733.449219 536.988281 C 735.347656 537.09375 737.25 537.464844 739.132812 537.382812 C 741.351562 537.289062 743.546875 536.75 745.765625 536.542969 C 750.359375 536.121094 754.480469 534.503906 758.359375 532.035156 C 763.066406 529.039062 767.730469 526.011719 771.074219 521.425781 C 772.789062 519.074219 774.675781 516.761719 774.34375 513.503906 C 774.28125 512.890625 774.730469 512.160156 775.097656 511.582031 C 776.804688 508.898438 779.617188 509.039062 782.074219 509.523438 C 785.046875 510.101562 788.003906 510.53125 790.972656 510.257812 C 793.15625 510.058594 795.167969 509.113281 796.449219 507.066406 C 797.484375 505.414062 797.941406 503.644531 798.3125 501.722656 C 799.050781 497.902344 798.820312 494.207031 797.769531 490.53125 C 797.199219 488.527344 796.617188 486.515625 795.46875 484.710938 C 793.371094 481.421875 791.003906 478.398438 787.988281 475.871094 C 783.949219 472.484375 779.328125 470.570312 774.105469 470.152344 C 772.832031 470.050781 771.476562 470.253906 770.238281 470.597656 C 767.277344 471.414062 764.410156 472.4375 762.828125 475.449219 C 762.398438 476.265625 761.714844 476.964844 761.085938 477.664062 C 759.902344 478.976562 758.257812 479.035156 756.835938 478.539062 C 755.28125 477.996094 753.640625 477.199219 753.5 475.085938 C 753.40625 473.640625 753.355469 472.164062 753.003906 470.777344 C 752.394531 468.414062 751.792969 466.050781 750.863281 463.761719 C 750.210938 462.167969 749.421875 460.667969 748.375 459.386719 C 744.714844 454.925781 739.675781 453.289062 734.125 452.96875 C 732.226562 452.859375 730.328125 452.886719 728.433594 453.363281 C 726.546875 453.835938 724.792969 454.40625 723.320312 455.773438 C 721.652344 457.324219 720.472656 459.21875 719.367188 461.152344 C 718.175781 463.234375 716.648438 464.4375 714.117188 464.265625 C 711.929688 464.121094 709.867188 462.574219 709.71875 460.4375 C 709.527344 457.632812 708.722656 454.949219 708.339844 452.191406 C 707.960938 449.449219 706.996094 446.898438 705.875 444.402344 C 704.742188 441.886719 703.191406 439.605469 701.578125 437.375 C 699.527344 434.539062 697.113281 432.011719 694.328125 429.945312 C 690.390625 427.019531 685.726562 426.09375 680.914062 425.839844 C 680.238281 425.808594 679.511719 425.996094 678.886719 425.8125 C 675.160156 424.714844 671.453125 425.5 667.792969 426.023438 C 665.550781 426.34375 663.417969 427.410156 661.21875 428.089844 C 656.296875 429.613281 652.1875 432.527344 648.429688 435.882812 C 643.984375 439.851562 640.640625 444.65625 638.273438 450.175781 C 636.207031 454.992188 635.308594 460.039062 634.6875 465.175781 C 634.019531 470.699219 633.96875 476.21875 634.683594 481.742188 C 634.742188 482.1875 634.761719 482.65625 634.675781 483.09375 C 634.339844 484.816406 633.757812 486.464844 631.917969 487.078125 C 630.523438 487.542969 629.035156 487.496094 627.679688 486.808594 C 626 485.953125 624.402344 484.914062 622.683594 484.152344 C 621.285156 483.535156 619.785156 482.980469 618.285156 482.8125 C 614.632812 482.402344 611.019531 482.960938 607.570312 484.148438 C 602.726562 485.8125 598.484375 488.351562 595.835938 493.382812 Z M 595.835938 493.382812 "/></g><g mask="url(#c7c1f20737)" transform="matrix(1,0,0,1,69,0.000000000000017092)"><g clip-path="url(#d38d837864)"><path style=" stroke:none;fill-rule:nonzero;fill:#f2b581;fill-opacity:1;" d="M 358.234375 73.726562 C 358.304688 72.5625 358.464844 71.410156 358.464844 70.222656 C 358.464844 32.257812 318.195312 1.480469 268.53125 1.480469 C 239.707031 1.480469 214.121094 11.890625 197.65625 27.996094 C 184.214844 21.882812 168.570312 18.3125 151.792969 18.3125 C 107.992188 18.3125 71.546875 42.261719 63.535156 73.9375 C 28.105469 83.160156 2.589844 108.746094 2.589844 138.941406 C 2.589844 176.914062 42.855469 207.679688 92.523438 207.679688 C 111.652344 207.679688 129.351562 203.078125 143.925781 195.304688 C 160.203125 212.949219 187.027344 224.507812 217.429688 224.507812 C 245.460938 224.507812 270.496094 214.699219 286.980469 199.320312 C 299.753906 204.652344 314.402344 207.679688 329.96875 207.679688 C 379.644531 207.679688 419.910156 176.914062 419.910156 138.941406 C 419.910156 108.554688 394.046875 82.785156 358.234375 73.726562 "/><g clip-rule="nonzero" clip-path="url(#61db7862ee)"><path style=" stroke:none;fill-rule:nonzero;fill:#f2b581;fill-opacity:1;" d="M 358.234375 73.726562 L 359.648438 73.816406 C 359.714844 72.71875 359.878906 71.53125 359.878906 70.222656 C 359.878906 50.722656 349.523438 33.125 332.980469 20.488281 C 316.425781 7.84375 293.65625 0.0664062 268.53125 0.0664062 C 239.363281 0.0664062 213.433594 10.585938 196.667969 26.984375 L 197.65625 27.996094 L 198.242188 26.707031 C 184.613281 20.511719 168.769531 16.898438 151.792969 16.898438 C 129.632812 16.898438 109.316406 22.953125 93.484375 33.054688 C 77.65625 43.15625 66.277344 57.332031 62.164062 73.589844 L 63.535156 73.9375 L 63.179688 72.570312 C 45.238281 77.242188 29.773438 86.058594 18.757812 97.601562 C 7.738281 109.132812 1.171875 123.4375 1.175781 138.941406 C 1.171875 158.445312 11.527344 176.035156 28.074219 188.671875 C 44.625 201.316406 67.398438 209.089844 92.523438 209.09375 C 111.878906 209.09375 129.800781 204.445312 144.589844 196.550781 L 143.925781 195.304688 L 142.882812 196.257812 C 159.488281 214.242188 186.667969 225.910156 217.429688 225.917969 C 245.789062 225.917969 271.152344 216.015625 287.945312 200.355469 L 286.980469 199.320312 L 286.441406 200.628906 C 299.390625 206.035156 314.214844 209.09375 329.96875 209.09375 C 355.101562 209.089844 377.871094 201.316406 394.429688 188.671875 C 410.976562 176.035156 421.332031 158.445312 421.324219 138.941406 C 421.332031 123.339844 414.675781 108.941406 403.519531 97.359375 C 392.363281 85.769531 376.71875 76.949219 358.582031 72.359375 L 358.234375 73.726562 L 359.648438 73.816406 L 358.234375 73.726562 L 357.890625 75.101562 C 375.5625 79.570312 390.75 88.164062 401.480469 99.320312 C 412.21875 110.480469 418.496094 124.160156 418.496094 138.941406 C 418.496094 157.40625 408.714844 174.183594 392.710938 186.421875 C 376.710938 198.65625 354.515625 206.265625 329.96875 206.265625 C 314.582031 206.265625 300.125 203.273438 287.527344 198.015625 L 286.683594 197.667969 L 286.019531 198.285156 C 269.832031 213.386719 245.128906 223.09375 217.429688 223.09375 C 187.378906 223.09375 160.921875 211.652344 144.964844 194.34375 L 144.21875 193.542969 L 143.257812 194.054688 C 128.898438 201.722656 111.425781 206.265625 92.523438 206.265625 C 67.984375 206.265625 45.789062 198.65625 29.789062 186.421875 C 13.785156 174.183594 4.003906 157.40625 4 138.941406 C 4.003906 124.25 10.195312 110.664062 20.800781 99.550781 C 31.398438 88.445312 46.410156 79.859375 63.894531 75.308594 L 64.699219 75.097656 L 64.910156 74.285156 C 68.800781 58.867188 79.660156 45.230469 95.003906 35.441406 C 110.34375 25.648438 130.148438 19.726562 151.792969 19.726562 C 168.371094 19.726562 183.816406 23.257812 197.070312 29.28125 L 197.949219 29.683594 L 198.644531 29.003906 C 214.792969 13.195312 240.042969 2.890625 268.53125 2.890625 C 293.070312 2.890625 315.269531 10.503906 331.261719 22.738281 C 347.273438 34.980469 357.050781 51.757812 357.050781 70.222656 C 357.050781 71.28125 356.902344 72.410156 356.824219 73.644531 L 356.753906 74.8125 L 357.890625 75.101562 L 358.234375 73.726562 "/></g></g><mask id="c7c1f20737"><g filter="url(#a17c6929d9)"><rect x="0" width="812.88" y="0" height="554.249966" style="fill:#000000;fill-opacity:0.04;stroke:none;"/></g></mask></g><g clip-rule="nonzero" clip-path="url(#194afba7a3)"><g mask="url(#66e5b3423e)" transform="matrix(1,0,0,1,0.000000000000000056,39)"><g clip-path="url(#48ee8c30b2)"><path style=" stroke:none;fill-rule:nonzero;fill:#eb8b56;fill-opacity:1;" d="M 357.5625 75.054688 C 357.632812 73.890625 357.792969 72.738281 357.792969 71.550781 C 357.792969 33.585938 317.523438 2.808594 267.859375 2.808594 C 239.035156 2.808594 213.449219 13.21875 196.984375 29.324219 C 183.542969 23.210938 167.898438 19.640625 151.121094 19.640625 C 107.320312 19.640625 70.875 43.589844 62.863281 75.265625 C 27.433594 84.488281 1.917969 110.074219 1.917969 140.269531 C 1.917969 178.242188 42.183594 209.007812 91.851562 209.007812 C 110.980469 209.007812 128.679688 204.40625 143.253906 196.632812 C 159.53125 214.277344 186.355469 225.835938 216.757812 225.835938 C 244.789062 225.835938 269.824219 216.027344 286.308594 200.648438 C 299.082031 205.980469 313.730469 209.007812 329.296875 209.007812 C 378.972656 209.007812 419.238281 178.242188 419.238281 140.269531 C 419.238281 109.882812 393.375 84.113281 357.5625 75.054688 "/><g clip-rule="nonzero" clip-path="url(#a49ab5bde9)"><path style=" stroke:none;fill-rule:nonzero;fill:#eb8b56;fill-opacity:1;" d="M 357.5625 75.054688 L 358.976562 75.144531 C 359.042969 74.046875 359.207031 72.859375 359.207031 71.550781 C 359.207031 52.050781 348.851562 34.453125 332.308594 21.816406 C 315.753906 9.171875 292.984375 1.394531 267.859375 1.394531 C 238.691406 1.394531 212.765625 11.914062 195.996094 28.3125 L 196.984375 29.324219 L 197.570312 28.035156 C 183.941406 21.839844 168.097656 18.226562 151.121094 18.226562 C 128.964844 18.226562 108.644531 24.28125 92.8125 34.382812 C 76.984375 44.484375 65.605469 58.660156 61.492188 74.917969 L 62.863281 75.265625 L 62.507812 73.898438 C 44.566406 78.570312 29.101562 87.386719 18.085938 98.929688 C 7.066406 110.460938 0.5 124.765625 0.507812 140.269531 C 0.5 159.773438 10.855469 177.363281 27.402344 190 C 43.953125 202.644531 66.726562 210.417969 91.851562 210.421875 C 111.207031 210.421875 129.128906 205.773438 143.917969 197.878906 L 143.253906 196.632812 L 142.210938 197.585938 C 158.820312 215.570312 185.996094 227.238281 216.757812 227.246094 C 245.117188 227.246094 270.480469 217.34375 287.273438 201.683594 L 286.308594 200.648438 L 285.769531 201.957031 C 298.71875 207.363281 313.542969 210.421875 329.296875 210.421875 C 354.429688 210.417969 377.199219 202.644531 393.757812 190 C 410.304688 177.363281 420.660156 159.773438 420.652344 140.269531 C 420.660156 124.667969 414.003906 110.269531 402.847656 98.6875 C 391.691406 87.097656 376.046875 78.277344 357.910156 73.6875 L 357.5625 75.054688 L 358.976562 75.144531 L 357.5625 75.054688 L 357.21875 76.429688 C 374.890625 80.898438 390.078125 89.492188 400.808594 100.648438 C 411.546875 111.808594 417.824219 125.488281 417.824219 140.269531 C 417.824219 158.734375 408.042969 175.511719 392.039062 187.75 C 376.039062 199.984375 353.84375 207.59375 329.296875 207.59375 C 313.910156 207.59375 299.453125 204.601562 286.855469 199.34375 L 286.011719 198.996094 L 285.347656 199.613281 C 269.160156 214.714844 244.457031 224.421875 216.757812 224.421875 C 186.707031 224.421875 160.25 212.980469 144.292969 195.671875 L 143.546875 194.871094 L 142.585938 195.382812 C 128.226562 203.050781 110.753906 207.59375 91.851562 207.59375 C 67.3125 207.59375 45.117188 199.984375 29.117188 187.75 C 13.113281 175.511719 3.332031 158.734375 3.328125 140.269531 C 3.332031 125.578125 9.523438 111.992188 20.128906 100.878906 C 30.726562 89.773438 45.738281 81.1875 63.222656 76.636719 L 64.027344 76.425781 L 64.238281 75.613281 C 68.128906 60.195312 78.988281 46.558594 94.332031 36.769531 C 109.671875 26.976562 129.476562 21.054688 151.121094 21.054688 C 167.699219 21.054688 183.144531 24.585938 196.398438 30.609375 L 197.277344 31.011719 L 197.972656 30.332031 C 214.121094 14.523438 239.371094 4.21875 267.859375 4.21875 C 292.398438 4.21875 314.597656 11.832031 330.589844 24.066406 C 346.601562 36.308594 356.378906 53.085938 356.378906 71.550781 C 356.378906 72.609375 356.230469 73.738281 356.152344 74.972656 L 356.082031 76.140625 L 357.21875 76.429688 L 357.5625 75.054688 "/></g></g><mask id="66e5b3423e"><g filter="url(#a17c6929d9)"><rect x="0" width="812.88" y="0" height="554.249966" style="fill:#000000;fill-opacity:0.2;stroke:none;"/></g></mask></g></g></g></svg>