<svg xmlns="http://www.w3.org/2000/svg" width="573.384" height="524.072" viewBox="0 0 573.384 524.072"><defs><style>.a{opacity:0.451;}.b,.c{fill:#8a2be2;}.b{opacity:0.353;}</style></defs><g class="a" transform="translate(0)"><path class="b" d="M-29.1,92.318c-39.935-75.881-85.563-76.009-117.99-85.108C-162.467,2.9-188.925,0-202.641,0c-15.4,0-39.107,2.066-53.01,7.211-43.835,16.22-71.759,53.015-106.206,69.58C-407.229,98.61-492.045,121-522.556,169.582c-8.87,14.125-29.014,40.236-30.472,69.8-.585,11.85-.662,28.107,0,42.217.973,20.748,3.678,39.83,9.828,57.813,15.124,44.225,45.728,74.706,80.171,84.441,81.738,23.1,154.368,16.918,207.378,86S-3.408,377.4,12.645,310.734C31.955,205.315,10.83,168.2-29.1,92.318Z" transform="translate(553.496 0)"/><path class="c" d="M-69.267,56.338c-32.417-43.678-57.646-41.65-86.854-49.844C-169.968,2.609-193.8,0-206.153,0c-13.875,0-35.225,1.861-47.748,6.494C-293.385,21.1-318.538,54.241-349.565,69.16c-40.868,19.651-117.265,39.813-144.748,83.569-7.99,12.721-26.133,36.237-27.447,62.864-.527,10.673-.6,25.314,0,38.022.876,18.686,3.313,35.872,8.853,52.068,13.623,39.83,41.188,67.282,72.213,76.05,73.624,20.807,139.044,15.237,186.793,77.452,38.291,49.892,222.277-105.856,241.324-172.955C12.6,182.752-36.851,100.016-69.267,56.338Z" transform="translate(559.181 30)"/></g></svg>