<svg xmlns="http://www.w3.org/2000/svg" xmlns:xlink="http://www.w3.org/1999/xlink" width="1080" zoomAndPan="magnify" viewBox="0 0 810 809.999993" height="1080" preserveAspectRatio="xMidYMid meet" version="1.0"><defs><clipPath id="899d135414"><path d="M 0 61.460938 L 810 61.460938 L 810 810 L 0 810 Z M 0 61.460938 " clip-rule="nonzero"/></clipPath></defs><g clip-path="url(#899d135414)"><path fill="#006f8c" d="M 765.082031 417.992188 C 740.375 500.097656 792.589844 588.984375 809.949219 671.027344 L 809.949219 811.027344 L 0.0507812 811.027344 C 45.046875 737.472656 94.085938 683.199219 172.34375 668.648438 C 195.433594 664.921875 218.253906 666.125 242.101562 672.324219 C 302.402344 688.375 342.335938 725.496094 411.925781 717.53125 C 437.632812 714.679688 500.667969 703.492188 530.800781 661.261719 C 543.722656 643.164062 548.164062 622.796875 545.21875 595.230469 C 530.546875 495.5625 463.53125 396.878906 497.929688 286.488281 C 539.632812 157.265625 684.355469 98.871094 809.949219 61.476562 L 809.949219 347.480469 C 787.667969 369.25 772.878906 392.527344 765.082031 417.992188 Z M 765.082031 417.992188 " fill-opacity="1" fill-rule="nonzero"/><path fill="#05b6b1" d="M 809.949219 61.476562 L 809.949219 263.773438 C 672.894531 358.492188 674.910156 476.023438 725.664062 614.710938 C 752.542969 695.390625 778.078125 769.046875 688.066406 811.027344 L 515.3125 811.027344 C 507.800781 807.824219 500.359375 804.515625 492.859375 801.289062 C 491.5 800.878906 490.148438 800.457031 488.800781 800.015625 C 487.046875 799.453125 485.292969 798.859375 483.554688 798.253906 C 474.335938 795.035156 465.316406 791.289062 456.347656 787.429688 C 456.003906 787.320312 455.660156 787.21875 455.3125 787.113281 C 455.273438 787.101562 455.234375 787.085938 455.195312 787.078125 C 454.132812 786.753906 453.070312 786.445312 452.003906 786.136719 C 450.628906 785.75 449.25 785.359375 447.871094 785 C 445.796875 784.449219 443.710938 783.933594 441.617188 783.457031 C 441.609375 783.453125 441.601562 783.449219 441.597656 783.449219 C 441.574219 783.441406 441.554688 783.4375 441.535156 783.4375 C 441.535156 783.4375 441.53125 783.4375 441.527344 783.433594 C 441.460938 783.417969 441.394531 783.402344 441.328125 783.390625 C 440.910156 783.292969 440.488281 783.195312 440.074219 783.109375 C 439.65625 783.011719 439.246094 782.925781 438.832031 782.835938 C 438.742188 782.8125 438.648438 782.792969 438.558594 782.777344 C 437.542969 782.558594 436.515625 782.351562 435.5 782.15625 C 435.042969 782.0625 434.589844 781.976562 434.132812 781.894531 C 434.113281 781.886719 434.09375 781.882812 434.074219 781.882812 C 434 781.867188 433.929688 781.855469 433.859375 781.84375 C 433.828125 781.835938 433.796875 781.828125 433.765625 781.824219 C 433.746094 781.824219 433.730469 781.816406 433.710938 781.816406 C 433.703125 781.816406 433.695312 781.816406 433.683594 781.816406 C 432.097656 781.515625 430.503906 781.25 428.910156 781 L 428.90625 781 C 427.960938 780.851562 427.019531 780.710938 426.070312 780.582031 C 425.945312 780.5625 425.824219 780.546875 425.695312 780.53125 L 425.6875 780.53125 C 424.363281 780.347656 423.03125 780.179688 421.699219 780.03125 C 421.558594 780.011719 421.417969 780 421.269531 779.984375 C 414.410156 779.230469 407.492188 778.898438 400.59375 779.019531 C 400.261719 779.023438 399.933594 779.03125 399.597656 779.039062 L 399.515625 779.039062 C 399.089844 779.046875 398.671875 779.066406 398.25 779.074219 C 398.183594 779.074219 398.117188 779.082031 398.054688 779.082031 C 397.027344 779.113281 395.996094 779.15625 394.96875 779.214844 C 394.941406 779.214844 394.917969 779.214844 394.890625 779.214844 C 394.109375 779.25 393.335938 779.300781 392.554688 779.351562 C 392.511719 779.351562 392.464844 779.355469 392.421875 779.363281 C 390.785156 779.46875 389.148438 779.609375 387.515625 779.765625 C 387.402344 779.777344 387.285156 779.789062 387.167969 779.800781 C 387.125 779.804688 387.082031 779.808594 387.035156 779.8125 C 387.03125 779.8125 387.019531 779.8125 387.011719 779.816406 C 386.914062 779.828125 386.8125 779.835938 386.710938 779.847656 C 386.277344 779.894531 385.847656 779.9375 385.414062 779.984375 C 385.402344 779.984375 385.398438 779.988281 385.386719 779.988281 C 384.851562 780.046875 384.316406 780.113281 383.777344 780.179688 L 383.765625 780.179688 C 381.164062 780.496094 378.546875 780.867188 375.960938 781.3125 C 375.902344 781.324219 375.839844 781.332031 375.78125 781.34375 C 375.613281 781.371094 375.445312 781.398438 375.273438 781.429688 C 373.398438 781.753906 371.53125 782.113281 369.667969 782.503906 L 369.660156 782.503906 C 359.546875 784.613281 349.5625 787.667969 339.761719 791.652344 L 339.757812 791.652344 C 339.316406 791.828125 338.875 792.011719 338.433594 792.195312 C 334.578125 793.792969 330.777344 795.523438 327.039062 797.382812 C 325.851562 797.96875 324.671875 798.570312 323.496094 799.183594 C 323.339844 799.261719 323.179688 799.34375 323.027344 799.429688 C 322.929688 799.480469 322.832031 799.53125 322.734375 799.585938 C 322.5 799.703125 322.265625 799.828125 322.027344 799.957031 C 320.648438 800.691406 319.28125 801.429688 317.921875 802.207031 C 316.789062 802.839844 315.667969 803.480469 314.554688 804.144531 C 314.039062 804.445312 313.519531 804.75 313.011719 805.058594 C 312.273438 805.496094 311.539062 805.949219 310.808594 806.394531 C 310.808594 806.398438 310.800781 806.402344 310.796875 806.40625 C 310.789062 806.40625 310.78125 806.410156 310.777344 806.417969 C 308.367188 807.902344 305.988281 809.445312 303.640625 811.027344 L 0.0507812 811.027344 C 0.949219 809.558594 1.847656 808.097656 2.75 806.644531 C 3.449219 805.519531 4.152344 804.398438 4.851562 803.28125 C 5.257812 802.628906 5.667969 801.980469 6.074219 801.335938 C 6.472656 800.714844 6.871094 800.085938 7.265625 799.46875 C 7.511719 799.074219 7.761719 798.6875 8.011719 798.300781 C 8.1875 798.019531 8.363281 797.742188 8.542969 797.46875 C 9.730469 795.613281 10.921875 793.777344 12.121094 791.949219 C 12.527344 791.332031 12.933594 790.710938 13.34375 790.097656 C 13.75 789.480469 14.160156 788.863281 14.566406 788.253906 C 16.507812 785.335938 18.46875 782.453125 20.4375 779.613281 C 20.804688 779.085938 21.167969 778.5625 21.535156 778.039062 C 21.734375 777.75 21.9375 777.464844 22.140625 777.175781 C 22.449219 776.734375 22.757812 776.300781 23.066406 775.863281 C 24.839844 773.351562 26.628906 770.875 28.429688 768.433594 C 28.796875 767.929688 29.167969 767.429688 29.539062 766.929688 C 30.808594 765.21875 32.085938 763.523438 33.371094 761.84375 C 33.785156 761.308594 34.195312 760.773438 34.605469 760.242188 C 36.363281 757.964844 38.140625 755.71875 39.929688 753.507812 C 67.675781 719.988281 97.820312 694.078125 135.488281 679.160156 C 135.847656 679.015625 136.207031 678.878906 136.5625 678.738281 C 136.976562 678.578125 137.390625 678.417969 137.804688 678.261719 C 148.65625 674.125 160.128906 670.894531 172.34375 668.648438 C 186.820312 666.183594 200.664062 665.925781 214.128906 667.304688 C 231.835938 669.113281 248.878906 673.753906 265.820312 679.925781 C 266.097656 680.023438 266.371094 680.125 266.648438 680.230469 C 277.960938 684.382812 289.234375 689.210938 300.632812 694.328125 C 300.671875 694.34375 300.714844 694.359375 300.757812 694.382812 C 301.480469 694.703125 302.199219 695.027344 302.921875 695.355469 C 308.878906 697.941406 314.804688 700.488281 320.820312 702.898438 C 331.890625 707.339844 343.09375 711.242188 354.757812 714.03125 C 355.152344 714.128906 355.550781 714.222656 355.949219 714.3125 C 356.566406 714.457031 357.179688 714.59375 357.800781 714.734375 C 361.375 715.605469 365.25 716.328125 369.375 716.890625 C 369.445312 716.898438 369.511719 716.910156 369.578125 716.917969 C 382.933594 718.722656 398.871094 718.890625 415.664062 717.089844 C 440.011719 714.472656 466.152344 707.71875 488.824219 695.820312 C 488.941406 695.757812 489.050781 695.703125 489.164062 695.640625 C 505.539062 687 520.078125 675.667969 530.800781 661.261719 C 534.585938 656.125 537.558594 650.707031 539.832031 645.066406 C 539.859375 645 539.886719 644.933594 539.914062 644.863281 C 545.359375 631.242188 546.757812 616.328125 545.730469 600.933594 C 545.714844 600.691406 545.695312 600.453125 545.679688 600.210938 C 543.910156 575.597656 536.007812 549.785156 528.539062 526.078125 C 522.90625 507.722656 516.707031 489.300781 510.894531 470.738281 C 510.582031 469.734375 510.265625 468.734375 509.957031 467.730469 C 509.882812 467.488281 509.808594 467.25 509.734375 467.007812 C 509.433594 466.046875 509.136719 465.082031 508.84375 464.121094 C 508.238281 462.148438 507.636719 460.175781 507.042969 458.199219 C 506.6875 457.015625 506.339844 455.835938 505.992188 454.652344 C 505.886719 454.304688 505.785156 453.953125 505.679688 453.605469 C 505.488281 452.949219 505.292969 452.289062 505.105469 451.636719 C 504.722656 450.324219 504.34375 449.011719 503.96875 447.695312 C 503.792969 447.082031 503.621094 446.476562 503.449219 445.867188 C 503.335938 445.457031 503.21875 445.050781 503.105469 444.640625 C 502.945312 444.078125 502.789062 443.511719 502.632812 442.945312 C 502.527344 442.554688 502.417969 442.167969 502.3125 441.773438 C 502.128906 441.121094 501.949219 440.464844 501.773438 439.808594 C 501.234375 437.828125 500.707031 435.847656 500.191406 433.859375 C 500.015625 433.199219 499.847656 432.539062 499.679688 431.878906 C 499.570312 431.464844 499.46875 431.050781 499.363281 430.640625 C 499.265625 430.273438 499.175781 429.902344 499.085938 429.535156 C 499.039062 429.367188 499 429.199219 498.957031 429.03125 C 498.535156 427.332031 498.117188 425.632812 497.710938 423.933594 C 497.238281 421.945312 496.773438 419.957031 496.328125 417.960938 C 496.039062 416.683594 495.757812 415.402344 495.484375 414.121094 C 495.167969 412.652344 494.859375 411.179688 494.5625 409.703125 C 494.441406 409.125 494.328125 408.550781 494.214844 407.972656 C 493.796875 405.871094 493.398438 403.769531 493.019531 401.664062 C 492.917969 401.09375 492.816406 400.519531 492.714844 399.953125 C 486.578125 363.40625 486.101562 325.414062 497.792969 286.9375 C 497.816406 286.855469 497.835938 286.78125 497.863281 286.703125 C 498.199219 285.664062 498.535156 284.628906 498.882812 283.597656 C 499.234375 282.546875 499.597656 281.503906 499.964844 280.464844 C 500.332031 279.425781 500.707031 278.390625 501.089844 277.359375 C 501.523438 276.179688 501.96875 275.007812 502.421875 273.84375 C 502.550781 273.511719 502.679688 273.175781 502.8125 272.84375 C 502.964844 272.449219 503.125 272.058594 503.28125 271.664062 C 503.4375 271.273438 503.59375 270.878906 503.757812 270.488281 C 503.988281 269.914062 504.222656 269.347656 504.460938 268.777344 C 504.597656 268.441406 504.742188 268.109375 504.878906 267.777344 C 504.996094 267.5 505.113281 267.21875 505.234375 266.945312 C 505.378906 266.601562 505.527344 266.257812 505.675781 265.914062 C 505.882812 265.4375 506.089844 264.964844 506.296875 264.488281 C 506.507812 264.019531 506.714844 263.546875 506.925781 263.074219 C 507.300781 262.242188 507.679688 261.410156 508.066406 260.578125 C 508.214844 260.253906 508.367188 259.929688 508.519531 259.601562 C 508.636719 259.355469 508.753906 259.113281 508.871094 258.867188 C 509.085938 258.398438 509.308594 257.933594 509.535156 257.472656 C 509.753906 257.011719 509.980469 256.550781 510.203125 256.085938 C 510.429688 255.628906 510.65625 255.167969 510.886719 254.707031 C 511.117188 254.25 511.347656 253.789062 511.578125 253.335938 C 512.796875 250.921875 514.0625 248.535156 515.363281 246.179688 C 515.582031 245.78125 515.800781 245.386719 516.023438 244.984375 C 516.550781 244.046875 517.082031 243.105469 517.625 242.171875 C 517.882812 241.722656 518.144531 241.273438 518.410156 240.824219 C 518.679688 240.359375 518.953125 239.90625 519.222656 239.445312 C 519.492188 238.996094 519.765625 238.542969 520.039062 238.089844 C 520.34375 237.582031 520.652344 237.082031 520.960938 236.578125 C 521.210938 236.167969 521.464844 235.765625 521.71875 235.359375 C 521.996094 234.910156 522.28125 234.457031 522.566406 234.011719 C 522.847656 233.5625 523.132812 233.113281 523.417969 232.667969 C 523.707031 232.222656 523.996094 231.773438 524.285156 231.328125 C 525.152344 229.996094 526.035156 228.675781 526.929688 227.359375 C 527.179688 226.992188 527.429688 226.625 527.683594 226.257812 C 528.058594 225.714844 528.429688 225.175781 528.804688 224.636719 C 529.675781 223.398438 530.558594 222.164062 531.449219 220.9375 C 532.402344 219.632812 533.367188 218.332031 534.347656 217.042969 C 534.664062 216.621094 534.988281 216.199219 535.3125 215.78125 C 537.242188 213.265625 539.222656 210.785156 541.253906 208.339844 C 541.574219 207.949219 541.898438 207.5625 542.21875 207.175781 C 542.917969 206.347656 543.617188 205.523438 544.324219 204.699219 C 544.671875 204.296875 545.015625 203.898438 545.363281 203.5 C 546.773438 201.878906 548.203125 200.273438 549.652344 198.6875 C 589.570312 156.472656 634.71875 129.390625 692.433594 103.285156 C 692.496094 103.253906 692.558594 103.226562 692.621094 103.203125 C 693.777344 102.699219 694.9375 102.195312 696.097656 101.695312 C 696.140625 101.675781 696.1875 101.65625 696.226562 101.636719 C 697.390625 101.136719 698.5625 100.636719 699.730469 100.144531 C 700.863281 99.664062 701.996094 99.1875 703.128906 98.714844 C 703.296875 98.640625 703.472656 98.570312 703.644531 98.5 C 704.679688 98.066406 705.722656 97.636719 706.765625 97.207031 C 706.9375 97.132812 707.109375 97.0625 707.28125 96.992188 C 708.296875 96.574219 709.3125 96.160156 710.328125 95.75 C 710.582031 95.644531 710.832031 95.542969 711.085938 95.441406 C 712.171875 95 713.261719 94.5625 714.347656 94.128906 C 715.488281 93.675781 716.625 93.222656 717.765625 92.773438 C 718.757812 92.382812 719.75 91.992188 720.742188 91.605469 C 721.515625 91.304688 722.285156 91.003906 723.058594 90.707031 C 724.058594 90.320312 725.058594 89.9375 726.058594 89.554688 C 728.59375 88.585938 731.132812 87.628906 733.667969 86.6875 C 734.589844 86.339844 735.511719 86 736.433594 85.664062 C 736.445312 85.660156 736.453125 85.65625 736.464844 85.652344 C 737.453125 85.289062 738.4375 84.925781 739.421875 84.566406 C 742.152344 83.574219 744.882812 82.59375 747.617188 81.625 C 748.824219 81.199219 750.03125 80.769531 751.238281 80.351562 C 752.238281 80 753.246094 79.648438 754.25 79.300781 C 759.027344 77.644531 763.800781 76.027344 768.566406 74.449219 C 769.449219 74.15625 770.335938 73.863281 771.21875 73.574219 C 776.226562 71.925781 781.226562 70.316406 786.203125 68.75 C 787.199219 68.433594 788.195312 68.121094 789.191406 67.808594 C 796.152344 65.632812 803.078125 63.523438 809.949219 61.480469 Z M 809.949219 61.476562 " fill-opacity="1" fill-rule="nonzero"/><path fill="#ffc773" d="M 809.949219 61.476562 L 809.949219 208.746094 C 736.90625 246.007812 671.105469 299.09375 647.285156 376.804688 C 612.882812 487.175781 679.917969 585.898438 694.582031 685.546875 C 697.53125 713.113281 693.082031 733.476562 680.164062 751.578125 C 642.085938 802.515625 558.695312 813.746094 516.367188 806.8125 C 495.925781 803.511719 477.121094 796.351562 458.304688 788.269531 C 458.84375 788.371094 459.394531 788.472656 459.941406 788.566406 C 458.75 788.183594 457.550781 787.800781 456.347656 787.429688 C 450.308594 784.824219 444.285156 782.164062 438.21875 779.546875 L 438.210938 779.546875 C 386.710938 756.304688 338.542969 747.632812 284.527344 769.390625 L 284.523438 769.390625 C 261.667969 778.488281 239.054688 793.574219 220.148438 811.027344 L 0.0507812 811.027344 C 45.046875 737.472656 94.085938 683.199219 172.34375 668.648438 C 195.433594 664.921875 218.253906 666.125 242.101562 672.324219 C 302.402344 688.375 342.335938 725.496094 411.925781 717.53125 C 437.632812 714.679688 500.667969 703.492188 530.800781 661.261719 C 543.722656 643.164062 548.164062 622.796875 545.21875 595.230469 C 530.546875 495.5625 463.53125 396.878906 497.929688 286.488281 C 539.632812 157.265625 684.355469 98.871094 809.949219 61.476562 Z M 809.949219 61.476562 " fill-opacity="1" fill-rule="nonzero"/><path fill="#ff7045" d="M 809.949219 61.476562 L 809.949219 166.515625 C 714.496094 205.90625 624.742188 260.980469 593.472656 359.011719 C 559.066406 469.386719 626.105469 568.101562 640.765625 667.75 C 643.714844 695.320312 639.265625 715.683594 626.351562 733.785156 C 609.566406 756.273438 583.796875 771.09375 556.539062 779.988281 C 521.5 791.414062 484 793.046875 459.941406 788.566406 C 458.75 788.183594 457.550781 787.800781 456.347656 787.429688 C 450.308594 784.824219 444.292969 782.164062 438.21875 779.546875 L 438.210938 779.546875 C 420.257812 771.773438 401.21875 764.320312 381.273438 760.410156 C 292.988281 719.386719 214.113281 739.839844 148.527344 811.027344 L 0.0507812 811.027344 C 45.046875 737.472656 94.085938 683.199219 172.34375 668.648438 C 195.433594 664.921875 218.253906 666.125 242.101562 672.324219 C 302.402344 688.375 342.335938 725.496094 411.925781 717.53125 C 437.632812 714.679688 500.667969 703.492188 530.800781 661.261719 C 543.722656 643.164062 548.164062 622.796875 545.21875 595.230469 C 530.546875 495.5625 463.53125 396.878906 497.929688 286.488281 C 509.917969 249.335938 530.421875 218.039062 556.539062 191.414062 C 621.265625 125.425781 720.460938 88.121094 809.949219 61.476562 Z M 809.949219 61.476562 " fill-opacity="1" fill-rule="nonzero"/><path fill="#d45607" d="M 809.949219 61.476562 L 809.949219 110.78125 C 722.46875 141.289062 634.960938 184.105469 582.769531 255.902344 C 462.15625 424.617188 651.621094 595.6875 584.128906 693.796875 C 553.988281 736.03125 490.953125 747.214844 465.25 750.0625 C 395.667969 758.03125 355.714844 720.910156 295.429688 704.859375 C 271.574219 698.660156 248.757812 697.453125 225.667969 701.183594 C 161.757812 711.890625 113.796875 755.085938 74.320312 811.027344 L 0.0507812 811.027344 C 0.949219 809.558594 1.847656 808.097656 2.75 806.644531 C 3.449219 805.519531 4.152344 804.398438 4.851562 803.28125 C 5.257812 802.628906 5.667969 801.980469 6.074219 801.335938 C 6.472656 800.714844 6.871094 800.085938 7.265625 799.46875 C 7.511719 799.074219 7.761719 798.6875 8.011719 798.300781 C 8.1875 798.019531 8.363281 797.742188 8.542969 797.46875 C 9.730469 795.613281 10.921875 793.777344 12.121094 791.949219 C 12.527344 791.332031 12.933594 790.710938 13.34375 790.097656 C 13.75 789.480469 14.160156 788.863281 14.566406 788.25 C 16.507812 785.335938 18.46875 782.453125 20.4375 779.613281 C 20.800781 779.085938 21.167969 778.5625 21.535156 778.039062 C 21.734375 777.75 21.9375 777.464844 22.140625 777.175781 C 22.449219 776.734375 22.757812 776.300781 23.066406 775.863281 C 24.839844 773.351562 26.628906 770.875 28.429688 768.433594 C 28.796875 767.929688 29.167969 767.429688 29.539062 766.929688 C 30.808594 765.21875 32.085938 763.523438 33.371094 761.84375 C 33.78125 761.308594 34.195312 760.773438 34.605469 760.242188 C 36.363281 757.964844 38.140625 755.71875 39.929688 753.507812 C 67.015625 720.03125 97.476562 694.117188 135.488281 679.160156 C 135.847656 679.015625 136.207031 678.878906 136.5625 678.738281 C 136.976562 678.578125 137.390625 678.417969 137.804688 678.261719 C 148.671875 674.144531 160.15625 670.914062 172.34375 668.648438 C 186.273438 666.402344 200.105469 665.949219 214.128906 667.304688 C 223.34375 668.195312 232.644531 669.867188 242.101562 672.324219 C 250.347656 674.523438 258.210938 677.109375 265.820312 679.925781 C 266.097656 680.023438 266.371094 680.125 266.648438 680.230469 C 278.414062 684.609375 289.582031 689.519531 300.632812 694.328125 C 300.671875 694.34375 300.714844 694.359375 300.757812 694.382812 C 318.414062 702.058594 335.765625 709.464844 354.757812 714.03125 C 355.152344 714.128906 355.550781 714.222656 355.949219 714.3125 C 356.5625 714.457031 357.179688 714.59375 357.800781 714.734375 C 361.585938 715.578125 365.4375 716.300781 369.375 716.890625 C 369.445312 716.898438 369.511719 716.910156 369.578125 716.917969 C 382.609375 718.851562 396.539062 719.292969 411.925781 717.53125 C 413.097656 717.402344 414.34375 717.253906 415.664062 717.089844 C 432.898438 714.914062 462.222656 709.417969 488.824219 695.820312 C 488.941406 695.757812 489.050781 695.703125 489.164062 695.640625 C 505.109375 687.449219 520.050781 676.332031 530.800781 661.261719 C 534.496094 656.085938 537.496094 650.726562 539.832031 645.066406 C 539.859375 645 539.886719 644.933594 539.914062 644.863281 C 545.105469 632.167969 546.949219 617.957031 545.730469 600.933594 C 545.714844 600.691406 545.695312 600.453125 545.679688 600.210938 C 545.550781 598.574219 545.398438 596.917969 545.21875 595.230469 C 541.824219 572.179688 535.628906 549.179688 528.539062 526.078125 C 522.90625 507.722656 516.707031 489.300781 510.894531 470.738281 C 510.582031 469.734375 510.265625 468.734375 509.957031 467.730469 C 509.882812 467.488281 509.808594 467.25 509.734375 467.007812 C 509.433594 466.046875 509.136719 465.082031 508.84375 464.121094 C 508.234375 462.148438 507.636719 460.175781 507.042969 458.199219 C 506.6875 457.015625 506.339844 455.835938 505.988281 454.652344 C 505.886719 454.304688 505.785156 453.953125 505.679688 453.605469 C 505.488281 452.949219 505.292969 452.289062 505.105469 451.636719 C 504.722656 450.324219 504.34375 449.011719 503.96875 447.695312 C 503.792969 447.082031 503.621094 446.476562 503.449219 445.867188 C 503.335938 445.457031 503.21875 445.050781 503.105469 444.640625 C 502.945312 444.078125 502.789062 443.511719 502.632812 442.945312 C 502.527344 442.554688 502.417969 442.167969 502.3125 441.773438 C 502.128906 441.121094 501.949219 440.464844 501.773438 439.808594 C 501.234375 437.828125 500.707031 435.847656 500.191406 433.859375 C 500.015625 433.199219 499.847656 432.539062 499.679688 431.878906 C 499.570312 431.464844 499.464844 431.050781 499.363281 430.640625 C 499.265625 430.273438 499.175781 429.902344 499.085938 429.535156 C 499.039062 429.367188 499 429.199219 498.957031 429.03125 C 498.535156 427.332031 498.117188 425.632812 497.710938 423.933594 C 497.238281 421.945312 496.773438 419.957031 496.328125 417.960938 C 496.039062 416.683594 495.757812 415.402344 495.484375 414.121094 C 495.167969 412.652344 494.859375 411.179688 494.5625 409.703125 C 494.441406 409.125 494.328125 408.550781 494.214844 407.972656 C 493.796875 405.871094 493.398438 403.769531 493.019531 401.664062 C 492.917969 401.09375 492.816406 400.519531 492.714844 399.953125 C 486.308594 363.363281 485.75 325.878906 497.792969 286.9375 C 497.816406 286.855469 497.835938 286.78125 497.863281 286.703125 C 497.886719 286.628906 497.90625 286.558594 497.929688 286.488281 C 498.242188 285.519531 498.558594 284.558594 498.882812 283.597656 C 499.234375 282.546875 499.597656 281.503906 499.964844 280.464844 C 500.332031 279.425781 500.707031 278.390625 501.089844 277.359375 C 501.523438 276.179688 501.96875 275.007812 502.421875 273.84375 C 502.550781 273.511719 502.679688 273.175781 502.8125 272.84375 C 502.964844 272.449219 503.125 272.058594 503.28125 271.664062 C 503.4375 271.273438 503.59375 270.878906 503.757812 270.488281 C 503.988281 269.914062 504.222656 269.347656 504.460938 268.777344 C 504.597656 268.441406 504.742188 268.109375 504.878906 267.777344 C 504.996094 267.5 505.113281 267.21875 505.234375 266.945312 C 505.378906 266.601562 505.527344 266.257812 505.675781 265.914062 C 505.882812 265.4375 506.089844 264.964844 506.296875 264.488281 C 506.507812 264.019531 506.714844 263.546875 506.925781 263.074219 C 507.300781 262.242188 507.679688 261.410156 508.066406 260.578125 C 508.214844 260.253906 508.367188 259.929688 508.519531 259.601562 C 508.636719 259.355469 508.753906 259.113281 508.867188 258.867188 C 509.085938 258.398438 509.308594 257.933594 509.535156 257.472656 C 509.753906 257.011719 509.980469 256.550781 510.203125 256.085938 C 510.429688 255.628906 510.65625 255.167969 510.886719 254.707031 C 511.117188 254.25 511.347656 253.789062 511.578125 253.335938 C 512.796875 250.921875 514.0625 248.535156 515.363281 246.179688 C 515.582031 245.78125 515.800781 245.386719 516.023438 244.984375 C 516.550781 244.046875 517.082031 243.105469 517.621094 242.171875 C 517.882812 241.722656 518.144531 241.273438 518.410156 240.824219 C 518.679688 240.359375 518.953125 239.90625 519.222656 239.445312 C 519.492188 238.996094 519.765625 238.542969 520.039062 238.089844 C 520.34375 237.582031 520.652344 237.082031 520.960938 236.578125 C 521.210938 236.167969 521.464844 235.765625 521.714844 235.359375 C 521.996094 234.910156 522.28125 234.457031 522.566406 234.011719 C 522.847656 233.5625 523.132812 233.113281 523.417969 232.667969 C 523.707031 232.222656 523.996094 231.773438 524.285156 231.328125 C 525.152344 229.996094 526.035156 228.675781 526.929688 227.359375 C 527.179688 226.992188 527.429688 226.625 527.683594 226.257812 C 528.054688 225.714844 528.429688 225.175781 528.804688 224.636719 C 529.675781 223.394531 530.554688 222.164062 531.449219 220.9375 C 532.402344 219.632812 533.367188 218.332031 534.347656 217.042969 C 534.664062 216.621094 534.988281 216.199219 535.3125 215.78125 C 537.242188 213.265625 539.222656 210.785156 541.253906 208.339844 C 541.574219 207.949219 541.898438 207.5625 542.21875 207.175781 C 542.917969 206.347656 543.617188 205.523438 544.324219 204.699219 C 544.671875 204.296875 545.015625 203.898438 545.363281 203.5 C 546.773438 201.878906 548.203125 200.273438 549.652344 198.6875 C 589.570312 156.472656 634.71875 129.390625 692.433594 103.285156 C 692.496094 103.253906 692.558594 103.226562 692.621094 103.203125 C 693.777344 102.699219 694.9375 102.195312 696.097656 101.695312 C 696.140625 101.675781 696.1875 101.65625 696.226562 101.636719 C 697.390625 101.136719 698.5625 100.636719 699.730469 100.144531 C 700.863281 99.664062 701.996094 99.1875 703.128906 98.714844 C 703.296875 98.640625 703.472656 98.570312 703.644531 98.5 C 704.679688 98.066406 705.722656 97.636719 706.765625 97.207031 C 706.9375 97.132812 707.109375 97.0625 707.28125 96.992188 C 708.296875 96.574219 709.3125 96.160156 710.328125 95.75 C 710.582031 95.644531 710.832031 95.542969 711.085938 95.441406 C 712.171875 95 713.261719 94.5625 714.347656 94.128906 C 715.488281 93.675781 716.625 93.222656 717.765625 92.773438 C 718.757812 92.382812 719.75 91.992188 720.742188 91.605469 C 721.515625 91.304688 722.285156 91.003906 723.058594 90.707031 C 724.058594 90.320312 725.058594 89.9375 726.058594 89.554688 C 728.59375 88.585938 731.132812 87.628906 733.667969 86.6875 C 734.589844 86.339844 735.511719 86 736.433594 85.664062 C 736.445312 85.660156 736.453125 85.65625 736.464844 85.652344 C 737.453125 85.289062 738.4375 84.925781 739.421875 84.566406 C 742.152344 83.574219 744.882812 82.59375 747.617188 81.625 C 748.824219 81.199219 750.03125 80.769531 751.238281 80.351562 C 752.238281 80 753.246094 79.648438 754.25 79.300781 C 759.027344 77.644531 763.800781 76.027344 768.566406 74.449219 C 769.449219 74.15625 770.335938 73.863281 771.21875 73.574219 C 776.226562 71.925781 781.226562 70.316406 786.203125 68.75 C 787.199219 68.433594 788.195312 68.121094 789.191406 67.808594 C 796.152344 65.632812 803.078125 63.523438 809.949219 61.480469 Z M 809.949219 61.476562 " fill-opacity="1" fill-rule="nonzero"/></g></svg>