<svg xmlns="http://www.w3.org/2000/svg" xmlns:xlink="http://www.w3.org/1999/xlink" width="1080" zoomAndPan="magnify" viewBox="0 0 810 809.999993" height="1080" preserveAspectRatio="xMidYMid meet" version="1.0"><defs><clipPath id="e6b36457d1"><path d="M 0 0.167969 L 536 0.167969 L 536 644 L 0 644 Z M 0 0.167969 " clip-rule="nonzero"/></clipPath><clipPath id="30e4c2313b"><path d="M 0 0.167969 L 575 0.167969 L 575 685 L 0 685 Z M 0 0.167969 " clip-rule="nonzero"/></clipPath><clipPath id="c7ad63b163"><path d="M 0 0.167969 L 615 0.167969 L 615 728 L 0 728 Z M 0 0.167969 " clip-rule="nonzero"/></clipPath><clipPath id="7181519311"><path d="M 0 0.167969 L 657 0.167969 L 657 774 L 0 774 Z M 0 0.167969 " clip-rule="nonzero"/></clipPath><clipPath id="f9829e3186"><path d="M 0 0.167969 L 699 0.167969 L 699 810 L 0 810 Z M 0 0.167969 " clip-rule="nonzero"/></clipPath></defs><g clip-path="url(#e6b36457d1)"><path fill="#d45607" d="M -63.933594 542.566406 C -64.097656 526.996094 -64.097656 533.105469 -63.933594 542.566406 Z M 105.046875 148.136719 C 100.171875 142.269531 78.886719 118.390625 73.847656 92.722656 C 73.035156 87.832031 64.914062 50.558594 112.195312 29.296875 C 130.066406 21.21875 151.027344 16.863281 179.625 13.691406 C 207.898438 10.539062 243.644531 13.480469 280.851562 13.871094 C 328.132812 14.359375 358.03125 11.871094 382.890625 5.160156 C 426.109375 -6.464844 434.234375 -26.277344 437.324219 -41.476562 C 440.085938 -55.960938 437.484375 -74.539062 436.996094 -77.386719 C 436.347656 -82.230469 435.535156 -85.773438 435.535156 -85.855469 C 434.234375 -102.5 433.097656 -119.144531 431.796875 -135.789062 L 531.398438 -143.867188 C 532.699219 -127.191406 534.164062 -110.511719 535.460938 -93.835938 C 535.625 -92.5 535.460938 -85.300781 535.460938 -84.554688 C 534.648438 -49.378906 526.6875 60.765625 395.726562 74.699219 C 353.480469 79.21875 305.222656 72.683594 283.125 69.511719 C 252.582031 65.125 213.257812 58.34375 190.351562 56.996094 C 165.8125 55.566406 118.859375 59.027344 108.296875 75.574219 C 107.160156 77.332031 102.121094 86.695312 114.46875 107.761719 C 121.132812 118.976562 127.957031 126.160156 131.53125 131.558594 C 158.988281 172.40625 156.066406 199.390625 152.328125 214.71875 C 144.53125 245.894531 118.046875 267.078125 99.683594 285.738281 C 88.796875 296.773438 72.226562 314.117188 73.199219 339.332031 C 74.335938 371.289062 97.898438 399.976562 99.195312 452.53125 C 100.660156 514.007812 69.136719 556.398438 53.539062 574.851562 C 20.390625 614.1875 -29.652344 643.675781 -67.675781 643.347656 C -93.832031 643.136719 -93.832031 641.527344 -119.992188 639.644531 L -112.679688 539.835938 L -63.933594 543.183594 C -63.933594 542.972656 -63.933594 542.761719 -63.933594 542.566406 C -63.933594 542.761719 -63.933594 542.972656 -63.933594 543.183594 L -62.800781 543.25 L -62.960938 544.207031 C -62.148438 544.207031 -61.175781 544.175781 -59.875 544.015625 C -45.25 542.40625 -14.867188 530.410156 7.066406 506.984375 C 38.429688 473.402344 37.777344 436.046875 34.367188 413.46875 C 31.929688 397.523438 22.503906 368.832031 24.941406 339.460938 C 29.003906 288.289062 64.261719 263.90625 80.675781 250.21875 C 100.171875 233.996094 118.859375 218.570312 121.457031 198.886719 C 124.21875 179.136719 112.195312 159.320312 105.046875 148.136719 Z M 105.046875 148.136719 " fill-opacity="1" fill-rule="evenodd"/></g><g clip-path="url(#30e4c2313b)"><path fill="#ff7045" d="M 126.609375 168.535156 C 121.511719 162.207031 98.902344 137.039062 94.140625 110.050781 C 92.78125 102.601562 87.851562 71.222656 124.910156 50 C 148.539062 36.339844 180.5 31.953125 202.257812 29.488281 C 227.925781 26.5625 253.597656 28.128906 296.773438 29.488281 C 308.675781 29.863281 324.144531 29.84375 326.523438 29.828125 C 370.722656 29.761719 397.242188 26.410156 418.492188 20.628906 C 462.859375 8.5 472.210938 -12.210938 475.609375 -28.777344 C 478.671875 -43.351562 476.460938 -61.71875 475.949219 -64.558594 C 475.269531 -70.972656 474.25 -75.96875 474.25 -76.054688 C 472.890625 -92.6875 471.703125 -109.355469 470.339844 -125.988281 L 570.128906 -134.066406 C 571.488281 -117.382812 572.847656 -100.714844 574.207031 -84.03125 C 574.207031 -82.601562 574.039062 -75.171875 574.039062 -74.40625 C 573.359375 -36.089844 564.347656 75.339844 430.902344 90.40625 C 387.214844 95.335938 337.234375 88.839844 314.113281 85.628906 C 283.007812 81.324219 240.847656 74.113281 216.367188 72.617188 C 190.1875 71.054688 140.039062 74.691406 128.820312 92.667969 C 127.800781 94.351562 122.019531 104.300781 135.109375 126.628906 C 142.078125 138.601562 149.558594 146.375 153.300781 151.988281 C 181.519531 194.265625 178.96875 222.394531 174.550781 239.113281 C 166.21875 271.1875 138.851562 293.109375 119.808594 312.226562 C 108.761719 323.515625 90.738281 341.902344 91.589844 368.925781 C 92.441406 397.222656 109.78125 422.496094 116.070312 462.035156 C 124.398438 513.3125 111.480469 567.34375 69.152344 616.082031 C 34.8125 655.640625 -16.015625 685.078125 -54.433594 684.738281 C -80.785156 684.519531 -80.617188 682.917969 -106.792969 681.03125 L -99.484375 581.234375 L -50.695312 584.570312 C -50.695312 583.753906 -50.695312 583.617188 -50.695312 584.570312 L -49.675781 584.65625 L -49.675781 585.523438 C -44.574219 585.777344 -26.558594 582.445312 -4.796875 569.347656 C 15.941406 556.949219 27.503906 543.414062 34.300781 534.144531 C 57.082031 502.613281 57.082031 469.570312 53.511719 446.222656 C 50.789062 429.402344 40.929688 399.621094 43.3125 369.144531 C 47.5625 316.1875 83.941406 290.8125 101.109375 276.410156 C 121.679688 259.332031 141.230469 243.042969 144.121094 222.125 C 146.839844 201.171875 134.089844 180.269531 126.609375 168.535156 Z M 126.609375 168.535156 " fill-opacity="1" fill-rule="evenodd"/></g><g clip-path="url(#c7ad63b163)"><path fill="#ffc773" d="M 148.898438 189.78125 C 143.742188 183.160156 120.085938 156.96875 115.109375 128.910156 C 113.507812 119.515625 109.238281 86.117188 151.210938 64.625 C 175.222656 52.363281 205.636719 48.164062 227.511719 45.726562 C 266.816406 41.332031 309.679688 47.132812 369.617188 46.351562 C 408.566406 45.835938 433.46875 42.523438 453.921875 37.0625 C 499.808594 24.820312 511.546875 3.558594 515.636719 -16.085938 C 520.082031 -37.933594 514.390625 -65.585938 514.390625 -65.871094 C 512.96875 -82.507812 511.902344 -99.160156 510.480469 -115.816406 L 610.257812 -123.890625 C 611.5 -107.203125 612.925781 -90.53125 614.347656 -73.859375 C 614.347656 -72.71875 614.347656 -65.957031 614.347656 -65.265625 C 613.8125 -24.09375 604.742188 90.386719 467.4375 106.738281 C 423.152344 112.007812 372.820312 105.921875 348.273438 102.664062 C 314.304688 98.144531 268.953125 90.371094 242.273438 88.839844 C 215.59375 87.308594 161.882812 90.921875 149.964844 110.457031 C 146.589844 116.011719 145.699219 127.558594 156.015625 145.8125 C 163.484375 158.785156 171.664062 167.394531 175.578125 173.304688 C 204.925781 217.144531 202.433594 246.324219 197.808594 263.832031 C 189.09375 297.089844 160.636719 319.863281 140.71875 339.863281 C 128.089844 352.476562 109.058594 372.265625 110.660156 401.996094 C 112.796875 437.066406 136.804688 467.011719 138.230469 522.042969 C 140.183594 588.945312 105.859375 634.726562 89.675781 653.960938 C 53.214844 697.039062 -1.03125 728.355469 -40.871094 727.960938 C -67.195312 727.730469 -67.195312 726.148438 -93.339844 724.246094 L -86.046875 624.445312 L -37.136719 627.804688 C -37.136719 627.128906 -37.136719 627.007812 -37.136719 627.804688 L -36.246094 627.878906 L -36.246094 628.679688 C -31.445312 629.050781 -12.949219 625.886719 9.996094 612.433594 C 67.621094 578.644531 73.132812 528.609375 74.199219 520.015625 C 77.226562 495.070312 71.710938 473.433594 70.464844 467.8125 C 64.0625 438.152344 51.792969 393.207031 78.46875 349.398438 C 91.984375 327.335938 109.59375 314.453125 122.398438 303.742188 C 141.785156 287.535156 160.816406 271.664062 166.328125 251.804688 C 169.175781 241.558594 167.042969 230.703125 166.683594 228.90625 C 163.660156 213.160156 154.769531 198.710938 148.898438 189.78125 Z M 148.898438 189.78125 " fill-opacity="1" fill-rule="evenodd"/></g><g clip-path="url(#7181519311)"><path fill="#05b6b1" d="M 172.460938 212.066406 C 167.992188 206.425781 141.941406 178.054688 136.917969 147.824219 C 135.246094 136.804688 132.265625 103.242188 175.621094 81.738281 C 199.441406 69.917969 229.398438 65.375 255.078125 62.640625 C 289.875 58.917969 328.207031 62.976562 379.007812 63.703125 C 430.550781 64.425781 463.671875 61.558594 491.210938 54.320312 C 539.59375 41.585938 552.804688 19.078125 557.269531 -2.253906 C 562.292969 -25.5625 556.339844 -54.730469 556.339844 -55.179688 C 555.035156 -71.820312 553.921875 -88.464844 552.429688 -105.125 L 652.355469 -113.203125 C 655.519531 -70.832031 656.820312 -70.851562 656.261719 -49.835938 C 655.144531 -3.984375 642.492188 106.738281 505.539062 123.847656 C 461.253906 129.414062 411.199219 123.902344 386.078125 120.757812 C 348.863281 116.121094 299.738281 107.632812 270.523438 105.902344 C 239.074219 104.042969 178.414062 108.9375 170.597656 132.449219 C 165.761719 147.414062 179.714844 168.859375 180.644531 170.277344 C 188.089844 182.429688 195.160156 189.785156 199.070312 195.628906 C 229.398438 241.109375 226.980469 271.375 222.140625 289.730469 C 213.023438 324.226562 183.4375 347.90625 162.597656 368.8125 C 152.550781 378.808594 132.636719 398.132812 130.59375 425.941406 C 128.917969 450.066406 141.570312 477.394531 148.828125 501.1875 C 154.222656 518.574219 178.972656 594.265625 125.011719 674.722656 C 99.515625 712.996094 63.789062 741.71875 29.921875 758.210938 C -0.964844 773.234375 -20.875 773.386719 -27.945312 773.21875 C -32.226562 773.125 -32.039062 772.917969 -79.304688 769.511719 L -72.046875 669.714844 L -22.921875 673.082031 C -22.921875 672.542969 -22.921875 672.449219 -22.921875 673.082031 L -22.179688 673.140625 L -22.179688 673.867188 C -18.085938 674.273438 -1.894531 672.023438 19.875 660.519531 C 49.089844 645.253906 64.160156 626.433594 66.582031 623.378906 C 99.515625 583.765625 97.839844 541.378906 93.746094 516.210938 C 90.585938 497.890625 80.164062 466.339844 82.210938 434.078125 C 85.933594 376.257812 125.566406 348.316406 144.546875 332.378906 C 167.433594 313.09375 189.019531 295.039062 191.8125 271.246094 C 194.601562 247.921875 180.644531 224.855469 172.460938 212.066406 Z M 172.460938 212.066406 " fill-opacity="1" fill-rule="evenodd"/></g><g clip-path="url(#f9829e3186)"><path fill="#006f8c" d="M 195.082031 224.183594 C 190.410156 218.300781 163.351562 188.738281 158.09375 157.265625 C 155.5625 141.683594 158.289062 126.296875 168.605469 112.449219 C 192.554688 79.804688 250.179688 72.542969 279.964844 69.367188 C 322.402344 64.808594 368.542969 71.121094 433.371094 70.789062 C 476.789062 70.574219 505.015625 67.148438 528.183594 61.167969 C 579.382812 47.941406 593.984375 24.125 599.242188 1.003906 C 604.691406 -23.828125 598.464844 -54.582031 598.464844 -55.183594 C 597.101562 -71.835938 595.933594 -88.488281 594.570312 -105.140625 L 694.441406 -113.222656 C 697.753906 -71.058594 698.917969 -71.097656 698.335938 -49.339844 C 697.363281 0.0898438 683.34375 112.214844 543.757812 130.5625 C 524.875 133.054688 493.140625 135.117188 444.46875 130.601562 C 412.152344 127.601562 382.953125 122.847656 343.429688 117.492188 C 305.46875 112.351562 287.363281 110.910156 259.910156 113.226562 C 196.835938 118.601562 192.355469 139.132812 191.773438 141.625 C 190.214844 146.492188 188.660156 159.191406 202.675781 181.765625 C 210.851562 194.792969 217.664062 201.550781 221.753906 207.804688 C 253.292969 254.976562 250.761719 286.410156 245.699219 305.632812 C 236.160156 341.433594 205.402344 366.03125 183.402344 387.921875 C 169.96875 401.378906 148.75 422.882812 149.527344 455.289062 C 150.308594 486.746094 168.21875 515.082031 175.617188 555.496094 C 187.101562 617.273438 171.136719 679.558594 123.050781 733.820312 C 83.917969 778.148438 27.265625 809.839844 -13.808594 809.410156 C -40.289062 809.117188 -40.089844 807.558594 -66.375 805.667969 L -59.171875 705.871094 L -9.332031 709.28125 L -9.332031 709.945312 C -5.632812 710.488281 11.304688 708.367188 34.472656 696.308594 C 65.8125 680.066406 82.167969 659.617188 84.503906 656.714844 C 99.6875 638.5625 123.246094 601.984375 113.511719 543.480469 C 108.839844 514.789062 90.34375 467.582031 109.421875 419.21875 C 123.050781 384.085938 150.5 364.082031 163.738281 353 C 188.660156 331.964844 212.605469 312.566406 215.523438 286.566406 C 218.445312 261.929688 203.648438 237.605469 195.082031 224.183594 Z M 195.082031 224.183594 " fill-opacity="1" fill-rule="evenodd"/></g></svg>