<svg xmlns="http://www.w3.org/2000/svg" xmlns:xlink="http://www.w3.org/1999/xlink" width="2611" zoomAndPan="magnify" viewBox="0 0 1958.25 1125.749967" height="1501" preserveAspectRatio="xMidYMid meet" version="1.2"><defs><clipPath id="58dd5b5100"><path d="M 0 0.0898438 L 1957.5 0.0898438 L 1957.5 1125.410156 L 0 1125.410156 Z M 0 0.0898438 "/></clipPath><filter x="0%" y="0%" width="100%" filterUnits="objectBoundingBox" id="c92a5f3609" height="100%"><feColorMatrix values="0 0 0 0 1 0 0 0 0 1 0 0 0 0 1 0 0 0 1 0" type="matrix" in="SourceGraphic"/></filter><clipPath id="cd232989af"><path d="M 1047.945312 290 L 1690.746094 290 L 1690.746094 723.265625 L 1047.945312 723.265625 Z M 1047.945312 290 "/></clipPath><clipPath id="000aaff148"><path d="M 1800 121.496094 L 1945.671875 121.496094 L 1945.671875 216 L 1800 216 Z M 1800 121.496094 "/></clipPath><clipPath id="b09c0abebc"><path d="M 349 296 L 440 296 L 440 387 L 349 387 Z M 349 296 "/></clipPath><clipPath id="a58198a67d"><path d="M 270.09375 173.507812 L 1104.335938 615.550781 L 834.320312 1125.132812 L 0.078125 683.089844 Z M 270.09375 173.507812 "/></clipPath><clipPath id="89083d74b1"><path d="M 270.09375 173.507812 L 1104.335938 615.550781 L 834.320312 1125.132812 L 0.078125 683.089844 Z M 270.09375 173.507812 "/></clipPath><clipPath id="1ab39f18d5"><path d="M 270.09375 173.507812 L 1104.335938 615.550781 L 834.320312 1125.132812 L 0.078125 683.089844 Z M 270.09375 173.507812 "/></clipPath><clipPath id="6024d2fb3f"><path d="M 248 345 L 393 345 L 393 490 L 248 490 Z M 248 345 "/></clipPath><clipPath id="0918988e49"><path d="M 270.09375 173.507812 L 1104.335938 615.550781 L 834.320312 1125.132812 L 0.078125 683.089844 Z M 270.09375 173.507812 "/></clipPath><clipPath id="b0b2e4b1b1"><path d="M 270.09375 173.507812 L 1104.335938 615.550781 L 834.320312 1125.132812 L 0.078125 683.089844 Z M 270.09375 173.507812 "/></clipPath><clipPath id="e8baffc9d4"><path d="M 270.09375 173.507812 L 1104.335938 615.550781 L 834.320312 1125.132812 L 0.078125 683.089844 Z M 270.09375 173.507812 "/></clipPath><clipPath id="e413c510b9"><path d="M 248 348 L 391 348 L 391 490 L 248 490 Z M 248 348 "/></clipPath><clipPath id="3988dffd81"><path d="M 270.09375 173.507812 L 1104.335938 615.550781 L 834.320312 1125.132812 L 0.078125 683.089844 Z M 270.09375 173.507812 "/></clipPath><clipPath id="0a5d7838c3"><path d="M 270.09375 173.507812 L 1104.335938 615.550781 L 834.320312 1125.132812 L 0.078125 683.089844 Z M 270.09375 173.507812 "/></clipPath><clipPath id="95cb883b4b"><path d="M 270.09375 173.507812 L 1104.335938 615.550781 L 834.320312 1125.132812 L 0.078125 683.089844 Z M 270.09375 173.507812 "/></clipPath><clipPath id="887765228b"><path d="M 423 311 L 491 311 L 491 342 L 423 342 Z M 423 311 "/></clipPath><clipPath id="4d31e4fe67"><path d="M 270.09375 173.507812 L 1104.335938 615.550781 L 834.320312 1125.132812 L 0.078125 683.089844 Z M 270.09375 173.507812 "/></clipPath><clipPath id="0d95c90300"><path d="M 270.09375 173.507812 L 1104.335938 615.550781 L 834.320312 1125.132812 L 0.078125 683.089844 Z M 270.09375 173.507812 "/></clipPath><clipPath id="05f24a1767"><path d="M 270.09375 173.507812 L 1104.335938 615.550781 L 834.320312 1125.132812 L 0.078125 683.089844 Z M 270.09375 173.507812 "/></clipPath><clipPath id="7a58a0e807"><path d="M 479 330 L 496 330 L 496 347 L 479 347 Z M 479 330 "/></clipPath><clipPath id="f750475cdf"><path d="M 270.09375 173.507812 L 1104.335938 615.550781 L 834.320312 1125.132812 L 0.078125 683.089844 Z M 270.09375 173.507812 "/></clipPath><clipPath id="7cd22befbf"><path d="M 270.09375 173.507812 L 1104.335938 615.550781 L 834.320312 1125.132812 L 0.078125 683.089844 Z M 270.09375 173.507812 "/></clipPath><clipPath id="0a4cbf5e75"><path d="M 270.09375 173.507812 L 1104.335938 615.550781 L 834.320312 1125.132812 L 0.078125 683.089844 Z M 270.09375 173.507812 "/></clipPath><clipPath id="67e931d63d"><path d="M 397 250 L 428 250 L 428 317 L 397 317 Z M 397 250 "/></clipPath><clipPath id="e0511ada6b"><path d="M 270.09375 173.507812 L 1104.335938 615.550781 L 834.320312 1125.132812 L 0.078125 683.089844 Z M 270.09375 173.507812 "/></clipPath><clipPath id="279df77878"><path d="M 270.09375 173.507812 L 1104.335938 615.550781 L 834.320312 1125.132812 L 0.078125 683.089844 Z M 270.09375 173.507812 "/></clipPath><clipPath id="ae9da229f3"><path d="M 270.09375 173.507812 L 1104.335938 615.550781 L 834.320312 1125.132812 L 0.078125 683.089844 Z M 270.09375 173.507812 "/></clipPath><clipPath id="3033165fd1"><path d="M 391 244 L 408 244 L 408 261 L 391 261 Z M 391 244 "/></clipPath><clipPath id="297c813ac3"><path d="M 270.09375 173.507812 L 1104.335938 615.550781 L 834.320312 1125.132812 L 0.078125 683.089844 Z M 270.09375 173.507812 "/></clipPath><clipPath id="dc65a1194e"><path d="M 270.09375 173.507812 L 1104.335938 615.550781 L 834.320312 1125.132812 L 0.078125 683.089844 Z M 270.09375 173.507812 "/></clipPath><clipPath id="df304e5eba"><path d="M 270.09375 173.507812 L 1104.335938 615.550781 L 834.320312 1125.132812 L 0.078125 683.089844 Z M 270.09375 173.507812 "/></clipPath><clipPath id="78ae95c532"><path d="M 382 389 L 508 389 L 508 500 L 382 500 Z M 382 389 "/></clipPath><clipPath id="be77361869"><path d="M 270.09375 173.507812 L 1104.335938 615.550781 L 834.320312 1125.132812 L 0.078125 683.089844 Z M 270.09375 173.507812 "/></clipPath><clipPath id="4b31e4481d"><path d="M 270.09375 173.507812 L 1104.335938 615.550781 L 834.320312 1125.132812 L 0.078125 683.089844 Z M 270.09375 173.507812 "/></clipPath><clipPath id="9f0b8dbd71"><path d="M 270.09375 173.507812 L 1104.335938 615.550781 L 834.320312 1125.132812 L 0.078125 683.089844 Z M 270.09375 173.507812 "/></clipPath><clipPath id="9e3101c7b1"><path d="M 379 387 L 510 387 L 510 503 L 379 503 Z M 379 387 "/></clipPath><clipPath id="7b38a8051d"><path d="M 270.09375 173.507812 L 1104.335938 615.550781 L 834.320312 1125.132812 L 0.078125 683.089844 Z M 270.09375 173.507812 "/></clipPath><clipPath id="0f05fa58e5"><path d="M 270.09375 173.507812 L 1104.335938 615.550781 L 834.320312 1125.132812 L 0.078125 683.089844 Z M 270.09375 173.507812 "/></clipPath><clipPath id="a9394b6c3a"><path d="M 270.09375 173.507812 L 1104.335938 615.550781 L 834.320312 1125.132812 L 0.078125 683.089844 Z M 270.09375 173.507812 "/></clipPath><clipPath id="91c8908b48"><path d="M 368 395 L 447 395 L 447 504 L 368 504 Z M 368 395 "/></clipPath><clipPath id="b93b417a82"><path d="M 270.09375 173.507812 L 1104.335938 615.550781 L 834.320312 1125.132812 L 0.078125 683.089844 Z M 270.09375 173.507812 "/></clipPath><clipPath id="ebdbe14713"><path d="M 270.09375 173.507812 L 1104.335938 615.550781 L 834.320312 1125.132812 L 0.078125 683.089844 Z M 270.09375 173.507812 "/></clipPath><clipPath id="cb8459294d"><path d="M 270.09375 173.507812 L 1104.335938 615.550781 L 834.320312 1125.132812 L 0.078125 683.089844 Z M 270.09375 173.507812 "/></clipPath><clipPath id="6343115a42"><path d="M 367 394 L 448 394 L 448 506 L 367 506 Z M 367 394 "/></clipPath><clipPath id="025943e8ad"><path d="M 270.09375 173.507812 L 1104.335938 615.550781 L 834.320312 1125.132812 L 0.078125 683.089844 Z M 270.09375 173.507812 "/></clipPath><clipPath id="0d0dc94023"><path d="M 270.09375 173.507812 L 1104.335938 615.550781 L 834.320312 1125.132812 L 0.078125 683.089844 Z M 270.09375 173.507812 "/></clipPath><clipPath id="912002d50c"><path d="M 270.09375 173.507812 L 1104.335938 615.550781 L 834.320312 1125.132812 L 0.078125 683.089844 Z M 270.09375 173.507812 "/></clipPath><clipPath id="e086396470"><path d="M 235 231 L 346 231 L 346 355 L 235 355 Z M 235 231 "/></clipPath><clipPath id="0b18c3998a"><path d="M 270.09375 173.507812 L 1104.335938 615.550781 L 834.320312 1125.132812 L 0.078125 683.089844 Z M 270.09375 173.507812 "/></clipPath><clipPath id="9060c7c2ea"><path d="M 270.09375 173.507812 L 1104.335938 615.550781 L 834.320312 1125.132812 L 0.078125 683.089844 Z M 270.09375 173.507812 "/></clipPath><clipPath id="75be4df33c"><path d="M 270.09375 173.507812 L 1104.335938 615.550781 L 834.320312 1125.132812 L 0.078125 683.089844 Z M 270.09375 173.507812 "/></clipPath><clipPath id="f1cdf5d2e2"><path d="M 232 228 L 349 228 L 349 358 L 232 358 Z M 232 228 "/></clipPath><clipPath id="68baec30a4"><path d="M 270.09375 173.507812 L 1104.335938 615.550781 L 834.320312 1125.132812 L 0.078125 683.089844 Z M 270.09375 173.507812 "/></clipPath><clipPath id="b4b5478254"><path d="M 270.09375 173.507812 L 1104.335938 615.550781 L 834.320312 1125.132812 L 0.078125 683.089844 Z M 270.09375 173.507812 "/></clipPath><clipPath id="8eb188f177"><path d="M 270.09375 173.507812 L 1104.335938 615.550781 L 834.320312 1125.132812 L 0.078125 683.089844 Z M 270.09375 173.507812 "/></clipPath><clipPath id="68db36e76f"><path d="M 232 292 L 342 292 L 342 370 L 232 370 Z M 232 292 "/></clipPath><clipPath id="1479b5a297"><path d="M 270.09375 173.507812 L 1104.335938 615.550781 L 834.320312 1125.132812 L 0.078125 683.089844 Z M 270.09375 173.507812 "/></clipPath><clipPath id="22fc32c682"><path d="M 270.09375 173.507812 L 1104.335938 615.550781 L 834.320312 1125.132812 L 0.078125 683.089844 Z M 270.09375 173.507812 "/></clipPath><clipPath id="34882680f2"><path d="M 270.09375 173.507812 L 1104.335938 615.550781 L 834.320312 1125.132812 L 0.078125 683.089844 Z M 270.09375 173.507812 "/></clipPath><clipPath id="aa5e44feb9"><path d="M 230 291 L 343 291 L 343 372 L 230 372 Z M 230 291 "/></clipPath><clipPath id="dae9b98b03"><path d="M 270.09375 173.507812 L 1104.335938 615.550781 L 834.320312 1125.132812 L 0.078125 683.089844 Z M 270.09375 173.507812 "/></clipPath><clipPath id="746389c644"><path d="M 270.09375 173.507812 L 1104.335938 615.550781 L 834.320312 1125.132812 L 0.078125 683.089844 Z M 270.09375 173.507812 "/></clipPath><clipPath id="435b418a8e"><path d="M 270.09375 173.507812 L 1104.335938 615.550781 L 834.320312 1125.132812 L 0.078125 683.089844 Z M 270.09375 173.507812 "/></clipPath><clipPath id="44a59664be"><path d="M 196 501 L 1041 501 L 1041 885 L 196 885 Z M 196 501 "/></clipPath><clipPath id="706fa17943"><path d="M 270.09375 173.507812 L 1104.335938 615.550781 L 834.320312 1125.132812 L 0.078125 683.089844 Z M 270.09375 173.507812 "/></clipPath><clipPath id="f0b37d7210"><path d="M 270.09375 173.507812 L 1104.335938 615.550781 L 834.320312 1125.132812 L 0.078125 683.089844 Z M 270.09375 173.507812 "/></clipPath><clipPath id="bf474fbcc9"><path d="M 270.09375 173.507812 L 1104.335938 615.550781 L 834.320312 1125.132812 L 0.078125 683.089844 Z M 270.09375 173.507812 "/></clipPath><clipPath id="9727155675"><rect x="0" width="1958" y="0" height="1126"/></clipPath></defs><g id="da0fb9c7a4"><g clip-rule="nonzero" clip-path="url(#58dd5b5100)"><g mask="url(#4ec97748a3)" transform="matrix(1,0,0,1,0,-0.000000000000012365)"><g clip-path="url(#9727155675)"><path style=" stroke:none;fill-rule:nonzero;fill:#050606;fill-opacity:1;" d="M 1706.472656 278.734375 C 1706.492188 278.710938 1706.523438 278.691406 1706.550781 278.660156 C 1710.570312 274.527344 1714.546875 270.425781 1718.46875 266.355469 C 1719.675781 265.105469 1719.640625 263.101562 1718.382812 261.894531 C 1717.128906 260.6875 1715.121094 260.730469 1713.917969 261.980469 C 1710.011719 266.035156 1706.042969 270.140625 1702.023438 274.265625 C 1700.804688 275.507812 1700.835938 277.503906 1702.085938 278.71875 C 1703.308594 279.914062 1705.25 279.914062 1706.472656 278.734375 "/><g clip-rule="nonzero" clip-path="url(#cd232989af)"><path style=" stroke:none;fill-rule:nonzero;fill:#050606;fill-opacity:1;" d="M 1406.773438 318.34375 C 1395.8125 321.367188 1385.5625 326.359375 1377.113281 332.773438 C 1375.726562 333.832031 1373.753906 333.558594 1372.695312 332.171875 C 1371.640625 330.785156 1371.921875 328.8125 1373.292969 327.753906 C 1382.371094 320.855469 1393.367188 315.5 1405.101562 312.265625 C 1406.78125 311.800781 1408.511719 312.789062 1408.976562 314.46875 C 1409.300781 315.621094 1408.925781 316.808594 1408.117188 317.585938 C 1407.753906 317.9375 1407.296875 318.203125 1406.773438 318.34375 Z M 1345.882812 382.875 C 1344.15625 382.609375 1342.976562 381 1343.242188 379.277344 C 1344.6875 369.902344 1347.546875 361.058594 1351.746094 352.992188 C 1352.972656 350.648438 1354.34375 348.332031 1355.824219 346.121094 C 1356.796875 344.671875 1358.757812 344.285156 1360.210938 345.257812 C 1361.65625 346.230469 1362.042969 348.1875 1361.070312 349.632812 C 1359.710938 351.65625 1358.457031 353.765625 1357.347656 355.902344 C 1353.472656 363.359375 1350.824219 371.546875 1349.480469 380.234375 C 1349.371094 380.949219 1349.027344 381.566406 1348.550781 382.03125 C 1347.863281 382.6875 1346.890625 383.03125 1345.882812 382.875 Z M 1462.636719 320.082031 C 1453.160156 316.40625 1442.226562 314.667969 1430.167969 314.925781 C 1428.449219 314.992188 1426.996094 313.667969 1426.898438 311.953125 C 1426.796875 310.214844 1428.128906 308.71875 1429.875 308.621094 L 1430.085938 308.613281 C 1442.957031 308.355469 1454.675781 310.230469 1464.917969 314.199219 C 1466.542969 314.828125 1467.351562 316.648438 1466.722656 318.28125 C 1466.550781 318.714844 1466.292969 319.101562 1465.972656 319.410156 C 1465.113281 320.230469 1463.824219 320.539062 1462.636719 320.082031 Z M 1080.472656 702.710938 C 1080.121094 702.910156 1079.777344 703.101562 1079.441406 703.3125 C 1069.625 709.101562 1060.804688 715.539062 1053.230469 722.445312 C 1051.933594 723.617188 1049.945312 723.523438 1048.765625 722.238281 C 1047.59375 720.949219 1047.679688 718.933594 1048.972656 717.773438 C 1056.871094 710.582031 1066.042969 703.890625 1076.230469 697.875 C 1076.585938 697.664062 1076.953125 697.453125 1077.308594 697.246094 C 1078.820312 696.375 1080.75 696.890625 1081.625 698.398438 C 1082.359375 699.679688 1082.101562 701.265625 1081.078125 702.246094 C 1080.902344 702.417969 1080.691406 702.574219 1080.472656 702.710938 Z M 1357.46875 439.546875 C 1355.933594 440.359375 1354.023438 439.773438 1353.207031 438.238281 C 1347.753906 427.96875 1344.15625 416.285156 1342.796875 404.460938 C 1342.597656 402.730469 1343.835938 401.164062 1345.566406 400.96875 C 1347.304688 400.769531 1348.863281 402.015625 1349.066406 403.738281 C 1350.339844 414.792969 1353.699219 425.695312 1358.78125 435.285156 C 1359.460938 436.554688 1359.171875 438.078125 1358.179688 439.03125 C 1357.972656 439.230469 1357.734375 439.402344 1357.46875 439.546875 Z M 1134.617188 682.796875 C 1122.679688 685.578125 1111.746094 688.859375 1102.113281 692.550781 C 1100.488281 693.171875 1098.664062 692.363281 1098.035156 690.734375 C 1097.410156 689.109375 1098.226562 687.289062 1099.851562 686.660156 C 1109.75 682.867188 1120.96875 679.5 1133.179688 676.65625 C 1134.882812 676.253906 1136.578125 677.3125 1136.972656 679.007812 C 1137.234375 680.128906 1136.855469 681.261719 1136.085938 682.003906 C 1135.691406 682.382812 1135.191406 682.660156 1134.617188 682.796875 Z M 1505.894531 360.265625 C 1504.320312 361.007812 1502.441406 360.335938 1501.6875 358.765625 C 1497.417969 349.746094 1492.230469 342.039062 1486.28125 335.847656 C 1485.035156 334.5625 1483.742188 333.308594 1482.425781 332.136719 C 1481.117188 330.980469 1481 328.992188 1482.160156 327.691406 C 1483.320312 326.382812 1485.316406 326.265625 1486.617188 327.425781 C 1488.054688 328.703125 1489.472656 330.070312 1490.828125 331.480469 C 1497.253906 338.15625 1502.828125 346.429688 1507.398438 356.0625 C 1507.992188 357.320312 1507.683594 358.769531 1506.734375 359.6875 C 1506.488281 359.921875 1506.210938 360.113281 1505.894531 360.265625 Z M 1192.285156 673.695312 C 1180.28125 674.882812 1168.878906 676.371094 1158.390625 678.105469 C 1156.664062 678.386719 1155.042969 677.226562 1154.753906 675.503906 C 1154.46875 673.789062 1155.636719 672.164062 1157.351562 671.878906 C 1167.976562 670.121094 1179.523438 668.617188 1191.660156 667.417969 C 1193.398438 667.246094 1194.945312 668.511719 1195.117188 670.25 C 1195.210938 671.25 1194.832031 672.1875 1194.160156 672.828125 C 1193.664062 673.308594 1193.019531 673.625 1192.285156 673.695312 Z M 1398.519531 477.3125 C 1387.09375 473.613281 1377.007812 467.445312 1368.34375 458.792969 C 1367.113281 457.5625 1367.277344 455.734375 1368.539062 454.523438 C 1368.550781 454.511719 1368.566406 454.496094 1368.582031 454.480469 C 1369.816406 453.292969 1371.59375 453.117188 1372.808594 454.332031 C 1380.753906 462.273438 1389.90625 467.824219 1400.371094 471.210938 C 1402.03125 471.75 1402.941406 473.527344 1402.402344 475.1875 C 1402.238281 475.695312 1401.953125 476.140625 1401.585938 476.488281 C 1400.777344 477.269531 1399.664062 477.683594 1398.519531 477.3125 Z M 1250.835938 669.234375 L 1242.804688 669.777344 C 1234.199219 670.363281 1225.296875 670.964844 1216.554688 671.621094 C 1214.816406 671.75 1213.300781 670.449219 1213.171875 668.710938 C 1213.035156 666.972656 1214.339844 665.464844 1216.078125 665.328125 C 1224.847656 664.664062 1233.761719 664.0625 1242.375 663.484375 L 1250.40625 662.941406 C 1252.144531 662.820312 1253.648438 664.136719 1253.769531 665.871094 C 1253.835938 666.839844 1253.457031 667.738281 1252.804688 668.359375 C 1252.289062 668.855469 1251.609375 669.183594 1250.835938 669.234375 Z M 1458.167969 476.253906 C 1445.960938 479.769531 1434.246094 481.457031 1423.34375 481.257812 C 1421.597656 481.230469 1420.214844 479.792969 1420.246094 478.046875 C 1420.28125 476.304688 1421.71875 474.921875 1423.457031 474.953125 C 1433.730469 475.136719 1444.816406 473.535156 1456.421875 470.191406 C 1458.09375 469.710938 1459.839844 470.675781 1460.328125 472.347656 C 1460.664062 473.515625 1460.296875 474.714844 1459.476562 475.496094 C 1459.117188 475.847656 1458.675781 476.101562 1458.167969 476.253906 Z M 1519.644531 417.214844 C 1517.914062 417.421875 1516.339844 416.1875 1516.132812 414.457031 C 1514.660156 402.1875 1512.546875 390.988281 1509.84375 381.164062 C 1509.386719 379.484375 1510.375 377.746094 1512.054688 377.289062 C 1513.734375 376.824219 1515.46875 377.8125 1515.933594 379.492188 C 1518.714844 389.617188 1520.890625 401.128906 1522.398438 413.703125 C 1522.527344 414.726562 1522.140625 415.691406 1521.457031 416.355469 C 1520.976562 416.816406 1520.351562 417.128906 1519.644531 417.214844 Z M 1512.191406 451.269531 C 1501.597656 457.769531 1491.257812 463.277344 1481.480469 467.628906 C 1479.890625 468.34375 1478.023438 467.628906 1477.316406 466.035156 C 1476.601562 464.449219 1477.324219 462.582031 1478.910156 461.867188 C 1488.441406 457.628906 1498.527344 452.25 1508.886719 445.894531 C 1510.375 444.984375 1512.320312 445.449219 1513.226562 446.9375 C 1514.015625 448.226562 1513.773438 449.855469 1512.726562 450.855469 C 1512.570312 451.015625 1512.382812 451.15625 1512.191406 451.269531 Z M 1560.398438 416.886719 C 1550.398438 424.84375 1541.355469 431.652344 1532.765625 437.699219 C 1531.335938 438.707031 1529.367188 438.367188 1528.367188 436.941406 C 1527.363281 435.511719 1527.707031 433.546875 1529.132812 432.546875 C 1537.621094 426.566406 1546.566406 419.832031 1556.472656 411.953125 C 1557.832031 410.867188 1559.820312 411.09375 1560.90625 412.453125 C 1561.929688 413.742188 1561.789062 415.578125 1560.621094 416.695312 C 1560.550781 416.757812 1560.480469 416.820312 1560.398438 416.886719 Z M 1660.773438 320.589844 C 1659.542969 319.359375 1659.472656 317.277344 1660.703125 316.050781 C 1668.820312 307.96875 1676.984375 299.789062 1684.953125 291.710938 C 1686.207031 290.472656 1688.199219 290.480469 1689.4375 291.703125 C 1690.683594 292.925781 1690.742188 294.972656 1689.511719 296.207031 C 1681.535156 304.292969 1673.585938 312.738281 1665.316406 320.683594 C 1665.300781 320.695312 1665.289062 320.710938 1665.28125 320.726562 C 1664.035156 321.914062 1661.988281 321.8125 1660.773438 320.589844 Z M 1605.226562 378.410156 C 1595.238281 388.007812 1587.648438 394.65625 1582.941406 398.46875 C 1581.796875 399.398438 1580.667969 400.433594 1579.421875 401.449219 C 1578.070312 402.550781 1576.082031 402.34375 1574.980469 401 C 1573.878906 399.648438 1574.085938 397.644531 1575.421875 396.550781 C 1576.667969 395.535156 1577.863281 394.550781 1579.015625 393.613281 C 1583.542969 389.953125 1591.140625 383.125 1601.003906 373.898438 C 1602.277344 372.714844 1604.246094 372.75 1605.433594 374.023438 C 1606.613281 375.28125 1606.5 377.1875 1605.253906 378.382812 C 1605.246094 378.390625 1605.230469 378.40625 1605.226562 378.410156 Z M 1618.609375 361.589844 C 1617.40625 360.328125 1617.421875 358.3125 1618.679688 357.105469 C 1626.371094 349.71875 1634.519531 341.519531 1643.261719 333.117188 C 1643.269531 333.109375 1643.28125 333.101562 1643.289062 333.09375 C 1644.535156 331.902344 1646.550781 331.964844 1647.769531 333.195312 C 1648.992188 334.4375 1649.011719 336.476562 1647.769531 337.699219 C 1639.105469 346.222656 1630.800781 354.292969 1623.09375 361.695312 C 1621.835938 362.902344 1619.820312 362.847656 1618.609375 361.589844 Z M 1309.578125 664.105469 C 1299.253906 665.351562 1288.335938 666.417969 1275.238281 667.453125 C 1273.5 667.597656 1271.976562 666.300781 1271.839844 664.566406 C 1271.703125 662.828125 1273 661.304688 1274.738281 661.167969 C 1287.75 660.132812 1298.582031 659.074219 1308.824219 657.84375 C 1310.554688 657.636719 1312.128906 658.875 1312.335938 660.601562 C 1312.460938 661.625 1312.082031 662.589844 1311.386719 663.257812 C 1310.914062 663.714844 1310.292969 664.027344 1309.578125 664.105469 Z M 1522.234375 475.945312 C 1520.488281 475.953125 1519.074219 474.542969 1519.066406 472.808594 C 1519.023438 459.515625 1518.742188 448.640625 1518.191406 438.59375 C 1518.101562 436.847656 1519.429688 435.363281 1521.167969 435.269531 C 1522.914062 435.175781 1524.402344 436.507812 1524.496094 438.242188 C 1525.054688 448.410156 1525.339844 459.378906 1525.375 472.785156 C 1525.382812 473.679688 1525.011719 474.496094 1524.410156 475.066406 C 1523.84375 475.609375 1523.078125 475.945312 1522.234375 475.945312 Z M 1367.808594 653.53125 C 1357.105469 656.3125 1346.015625 658.644531 1333.90625 660.660156 C 1332.1875 660.945312 1330.558594 659.78125 1330.273438 658.066406 C 1329.984375 656.34375 1331.152344 654.71875 1332.867188 654.433594 C 1344.792969 652.453125 1355.703125 650.15625 1366.226562 647.425781 C 1367.914062 646.988281 1369.632812 648.003906 1370.074219 649.691406 C 1370.367188 650.835938 1370.003906 651.996094 1369.203125 652.761719 C 1368.832031 653.125 1368.359375 653.394531 1367.808594 653.53125 Z M 1516.632812 534.175781 C 1514.953125 533.695312 1513.980469 531.953125 1514.457031 530.28125 C 1517.648438 519.074219 1518.878906 510.109375 1518.996094 497.203125 C 1519.007812 495.457031 1520.433594 494.058594 1522.175781 494.070312 C 1523.914062 494.085938 1525.316406 495.515625 1525.304688 497.253906 C 1525.1875 510.617188 1523.84375 520.355469 1520.53125 532.003906 C 1520.367188 532.558594 1520.074219 533.039062 1519.679688 533.410156 C 1518.902344 534.160156 1517.75 534.496094 1516.632812 534.175781 Z M 1423.507812 633.011719 C 1413.371094 638.058594 1402.582031 642.570312 1391.4375 646.425781 C 1389.789062 646.996094 1387.988281 646.125 1387.421875 644.480469 C 1386.851562 642.828125 1387.722656 641.035156 1389.367188 640.460938 C 1400.265625 636.699219 1410.800781 632.289062 1420.695312 627.371094 C 1422.253906 626.589844 1424.148438 627.226562 1424.929688 628.785156 C 1425.558594 630.050781 1425.257812 631.539062 1424.292969 632.46875 C 1424.0625 632.683594 1423.800781 632.867188 1423.507812 633.011719 Z M 1473.753906 601.351562 C 1465.363281 608.222656 1455.75 614.90625 1445.167969 621.222656 C 1443.671875 622.113281 1441.734375 621.628906 1440.839844 620.132812 C 1439.945312 618.640625 1440.433594 616.695312 1441.933594 615.808594 C 1452.242188 609.644531 1461.605469 603.144531 1469.75 596.472656 C 1471.101562 595.375 1473.089844 595.566406 1474.199219 596.917969 C 1475.242188 598.199219 1475.121094 600.058594 1473.941406 601.1875 C 1473.882812 601.242188 1473.820312 601.300781 1473.753906 601.351562 Z M 1487.382812 584.503906 C 1486.09375 583.339844 1485.992188 581.34375 1487.167969 580.050781 C 1495.144531 571.277344 1501.339844 562.289062 1506.125 552.585938 C 1506.898438 551.023438 1508.785156 550.378906 1510.351562 551.148438 C 1511.910156 551.914062 1512.554688 553.808594 1511.789062 555.367188 C 1506.738281 565.613281 1500.214844 575.074219 1491.839844 584.296875 C 1491.789062 584.347656 1491.738281 584.398438 1491.6875 584.449219 C 1490.5 585.59375 1488.621094 585.628906 1487.382812 584.503906 "/></g><path style=" stroke:none;fill-rule:nonzero;fill:#050606;fill-opacity:1;" d="M 1849.632812 129.90625 C 1860.898438 111.484375 1856.992188 80.320312 1836.375 67.71875 C 1815.75 55.121094 1786.222656 65.855469 1774.953125 84.273438 C 1763.6875 102.699219 1789.664062 97.773438 1810.285156 110.371094 C 1830.910156 122.976562 1838.363281 148.332031 1849.632812 129.90625 "/><path style=" stroke:none;fill-rule:nonzero;fill:#050606;fill-opacity:1;" d="M 1830.386719 124.386719 C 1833.722656 127.996094 1836.597656 131.105469 1839.074219 132.621094 C 1840.847656 133.707031 1843.066406 135.058594 1847.140625 128.390625 C 1857.371094 111.664062 1854.175781 81.976562 1834.867188 70.179688 C 1815.558594 58.382812 1787.667969 69.078125 1777.445312 85.796875 C 1773.359375 92.472656 1775.578125 93.824219 1777.351562 94.914062 C 1779.824219 96.421875 1783.910156 97.558594 1788.640625 98.875 C 1795.484375 100.78125 1804.003906 103.15625 1811.789062 107.910156 C 1819.578125 112.671875 1825.574219 119.164062 1830.386719 124.386719 Z M 1772.464844 82.757812 C 1784.296875 63.410156 1815.445312 51.554688 1837.878906 65.261719 C 1860.3125 78.96875 1863.953125 112.078125 1852.121094 131.425781 C 1847.421875 139.121094 1842.011719 141.179688 1836.0625 137.539062 C 1832.886719 135.601562 1829.75 132.207031 1826.125 128.273438 C 1821.316406 123.070312 1815.867188 117.164062 1808.785156 112.832031 C 1801.695312 108.503906 1793.953125 106.34375 1787.128906 104.449219 C 1781.972656 103.011719 1777.515625 101.769531 1774.339844 99.832031 C 1768.386719 96.199219 1767.757812 90.449219 1772.464844 82.757812 "/><path style=" stroke:none;fill-rule:nonzero;fill:#f3ca2a;fill-opacity:1;" d="M 1814.527344 102.207031 C 1844.617188 120.589844 1855.375 157.789062 1832.714844 194.847656 C 1811.804688 229.03125 1777.113281 246.585938 1747.71875 234.359375 C 1745.25 233.332031 1728.761719 223.191406 1726.496094 221.1875 C 1702.9375 200.398438 1703.058594 162.066406 1723.734375 128.261719 C 1746.398438 91.207031 1784.433594 83.816406 1814.527344 102.207031 "/><path style=" stroke:none;fill-rule:nonzero;fill:#050606;fill-opacity:1;" d="M 1726.222656 129.78125 C 1705.8125 163.160156 1706.714844 199.847656 1728.425781 219 C 1731.882812 222.046875 1746.390625 230.648438 1748.84375 231.664062 C 1776.035156 242.976562 1809.5 227.21875 1830.222656 193.324219 C 1850.703125 159.84375 1843.621094 123.398438 1813.003906 104.6875 C 1782.386719 85.980469 1746.695312 96.300781 1726.222656 129.78125 Z M 1724.492188 223.3125 C 1712.503906 212.695312 1705.972656 197.601562 1705.613281 179.660156 C 1705.269531 162.582031 1710.820312 143.789062 1721.242188 126.746094 C 1732.46875 108.390625 1747.8125 96.242188 1765.613281 91.617188 C 1782.4375 87.246094 1800.351562 90.121094 1816.046875 99.710938 C 1831.742188 109.304688 1842.472656 123.925781 1846.25 140.886719 C 1850.246094 158.828125 1846.425781 178.011719 1835.203125 196.371094 C 1813.203125 232.328125 1777.378906 249.089844 1747.683594 237.484375 C 1738.328125 240.007812 1727.726562 255.882812 1724.511719 252 C 1720.171875 246.738281 1728.398438 232.242188 1724.492188 223.3125 "/><path style=" stroke:none;fill-rule:nonzero;fill:#050606;fill-opacity:1;" d="M 1709.183594 178.308594 C 1770.667969 185.867188 1796.449219 229.21875 1796.707031 229.65625 L 1819.636719 214.613281 C 1818.355469 212.394531 1787.335938 160.234375 1713.90625 151.210938 L 1709.183594 178.308594 "/><path style=" stroke:none;fill-rule:nonzero;fill:#050606;fill-opacity:1;" d="M 1722.238281 126.980469 C 1783.910156 134.230469 1834.101562 191.722656 1834.351562 192.167969 L 1842.734375 164.789062 C 1841.460938 162.558594 1821.617188 112.222656 1747.957031 103.5625 L 1722.238281 126.980469 "/><path style=" stroke:none;fill-rule:nonzero;fill:#050606;fill-opacity:1;" d="M 1749.242188 232.070312 L 1729.0625 219.773438 C 1741.796875 228.777344 1742.832031 228.890625 1749.242188 232.070312 "/><path style=" stroke:none;fill-rule:nonzero;fill:#050606;fill-opacity:1;" d="M 1810.128906 64.824219 L 1815.394531 67.261719 C 1815.542969 66.847656 1819.015625 56.886719 1820.800781 45.382812 C 1823.335938 29.011719 1821.195312 18.429688 1814.257812 13.03125 C 1807.605469 7.851562 1797.816406 8.296875 1784.339844 14.394531 L 1787.796875 18.75 C 1798.882812 13.730469 1806.996094 12.835938 1811.296875 16.175781 C 1820.410156 23.269531 1815.414062 49.78125 1810.128906 64.824219 "/><path style=" stroke:none;fill-rule:nonzero;fill:#050606;fill-opacity:1;" d="M 1787.214844 9.570312 C 1782.070312 13.714844 1781.183594 20.066406 1785.226562 23.746094 C 1789.269531 27.421875 1796.714844 27.035156 1801.859375 22.882812 C 1806.996094 18.734375 1807.890625 12.386719 1803.839844 8.710938 C 1799.800781 5.027344 1792.351562 5.414062 1787.214844 9.570312 "/><path style=" stroke:none;fill-rule:nonzero;fill:#050606;fill-opacity:1;" d="M 1849.8125 89.0625 L 1845.230469 85.496094 C 1845.539062 85.175781 1852.824219 77.542969 1862.25 70.714844 C 1875.679688 60.992188 1886.078125 58.074219 1894.050781 61.777344 C 1901.695312 65.339844 1905.761719 74.25 1906.476562 89.019531 L 1901.015625 87.925781 C 1900.429688 75.777344 1897.53125 68.148438 1892.605469 65.855469 C 1882.132812 60.976562 1860.796875 77.507812 1849.8125 89.0625 "/><path style=" stroke:none;fill-rule:nonzero;fill:#050606;fill-opacity:1;" d="M 1909.464844 84.257812 C 1908.113281 90.730469 1902.863281 94.410156 1897.742188 92.496094 C 1892.625 90.570312 1889.570312 83.773438 1890.921875 77.300781 C 1892.28125 70.839844 1897.527344 67.15625 1902.648438 69.070312 C 1907.769531 70.996094 1910.816406 77.796875 1909.464844 84.257812 "/><path style=" stroke:none;fill-rule:nonzero;fill:#ffffff;fill-opacity:1;" d="M 1803.125 158.324219 C 1803.125 158.324219 1867.042969 154.910156 1881.722656 191.480469 C 1896.402344 228.0625 1873.820312 250.390625 1845.90625 242.5625 C 1817.984375 234.730469 1803.125 158.324219 1803.125 158.324219 "/><path style=" stroke:none;fill-rule:nonzero;fill:#050606;fill-opacity:1;" d="M 1806.378906 160.9375 C 1809.347656 174.414062 1821.78125 225.5 1842.113281 237.921875 C 1843.636719 238.855469 1845.183594 239.542969 1846.714844 239.972656 C 1858.925781 243.398438 1870.300781 240.730469 1877.152344 232.828125 C 1885.101562 223.671875 1885.886719 209.011719 1879.304688 192.617188 C 1876.222656 184.925781 1870.492188 178.480469 1862.285156 173.46875 C 1843.1875 161.800781 1815.722656 160.878906 1806.378906 160.9375 Z M 1800.570312 158.992188 L 1799.957031 155.824219 L 1803.132812 155.652344 C 1804.65625 155.574219 1840.597656 153.835938 1865.125 168.824219 C 1874.246094 174.398438 1880.644531 181.636719 1884.140625 190.34375 C 1891.507812 208.707031 1890.351562 225.445312 1880.957031 236.277344 C 1872.6875 245.808594 1859.273438 249.125 1845.089844 245.148438 C 1843.136719 244.597656 1841.175781 243.734375 1839.273438 242.566406 C 1814.085938 227.179688 1801.117188 161.765625 1800.570312 158.992188 "/><path style=" stroke:none;fill-rule:nonzero;fill:#ffffff;fill-opacity:1;" d="M 1769.738281 137.925781 C 1769.738281 137.925781 1743.640625 79.511719 1704.382812 83.128906 C 1665.125 86.753906 1655.539062 117.019531 1675.230469 138.285156 C 1694.925781 159.546875 1769.738281 137.925781 1769.738281 137.925781 "/><path style=" stroke:none;fill-rule:nonzero;fill:#050606;fill-opacity:1;" d="M 1729.285156 92.210938 C 1721.078125 87.199219 1712.730469 85.039062 1704.476562 85.796875 C 1686.878906 87.425781 1674.179688 94.804688 1669.644531 106.050781 C 1665.738281 115.742188 1668.550781 127.082031 1677.171875 136.382812 C 1678.242188 137.546875 1679.566406 138.613281 1681.089844 139.542969 C 1701.40625 151.957031 1752.585938 139.730469 1765.941406 136.226562 C 1761.734375 127.886719 1748.40625 103.894531 1729.285156 92.210938 Z M 1673.300781 140.1875 C 1663.292969 129.382812 1660.128906 115.941406 1664.84375 104.234375 C 1670.203125 90.945312 1684.582031 82.277344 1704.296875 80.460938 C 1713.640625 79.597656 1723.003906 81.984375 1732.125 87.5625 C 1756.65625 102.546875 1771.5 135.316406 1772.121094 136.703125 L 1773.417969 139.605469 L 1770.320312 140.507812 C 1767.601562 141.289062 1703.429688 159.578125 1678.25 144.191406 C 1676.347656 143.023438 1674.679688 141.679688 1673.300781 140.1875 "/><path style=" stroke:none;fill-rule:nonzero;fill:#ffffff;fill-opacity:1;" d="M 1769.695312 136.632812 C 1769.695312 136.632812 1785.382812 52.5625 1742.847656 26.566406 C 1700.320312 0.566406 1668.707031 26.480469 1673.363281 64.867188 C 1678.019531 103.257812 1769.695312 136.632812 1769.695312 136.632812 "/><path style=" stroke:none;fill-rule:nonzero;fill:#050606;fill-opacity:1;" d="M 1741.410156 28.875 C 1722.09375 17.078125 1703.558594 15.503906 1690.570312 24.578125 C 1679.335938 32.414062 1673.871094 47.300781 1675.945312 64.386719 C 1677.570312 77.730469 1691.492188 92.761719 1716.222656 107.867188 C 1736.960938 120.539062 1759.636719 129.824219 1767.671875 132.949219 C 1769.960938 117.304688 1777.320312 50.832031 1741.410156 28.875 Z M 1670.773438 65.339844 C 1668.441406 46.132812 1674.808594 29.261719 1687.808594 20.195312 C 1702.585938 9.875 1723.160156 11.34375 1744.273438 24.242188 C 1762.386719 35.316406 1772.949219 58.410156 1774.824219 91.042969 C 1776.21875 115.363281 1772.421875 136.117188 1772.257812 136.996094 L 1771.65625 140.230469 L 1768.707031 139.164062 C 1768.414062 139.058594 1739.414062 128.417969 1713.382812 112.515625 C 1686.949219 96.363281 1672.613281 80.496094 1670.773438 65.339844 "/><path style=" stroke:none;fill-rule:nonzero;fill:#ffffff;fill-opacity:1;" d="M 1804.304688 157.777344 C 1804.304688 157.777344 1872.007812 105.496094 1914.550781 131.46875 C 1957.09375 157.445312 1948.4375 197.394531 1912.132812 210.75 C 1875.820312 224.105469 1804.304688 157.777344 1804.304688 157.777344 "/><g clip-rule="nonzero" clip-path="url(#000aaff148)"><path style=" stroke:none;fill-rule:nonzero;fill:#050606;fill-opacity:1;" d="M 1844.488281 137.289062 C 1827.871094 144.621094 1814.113281 153.894531 1808.503906 157.898438 C 1814.945312 163.609375 1833.550781 179.554688 1854.289062 192.230469 C 1854.296875 192.230469 1854.296875 192.230469 1854.296875 192.230469 C 1879.027344 207.339844 1898.761719 212.875 1911.375 208.234375 C 1927.542969 202.285156 1938.308594 190.636719 1940.160156 177.074219 C 1942.316406 161.378906 1932.472656 145.613281 1913.136719 133.792969 C 1892.097656 120.945312 1864.195312 128.601562 1844.488281 137.289062 Z M 1802.503906 159.804688 L 1800.207031 157.675781 L 1802.8125 155.667969 C 1803.511719 155.121094 1820.265625 142.273438 1842.5625 132.429688 C 1872.464844 119.222656 1897.855469 118.085938 1915.988281 129.160156 C 1937.078125 142.046875 1947.773438 159.675781 1945.328125 177.53125 C 1943.171875 193.226562 1931.046875 206.582031 1912.890625 213.265625 C 1898.554688 218.535156 1877.890625 213.023438 1851.457031 196.878906 C 1851.457031 196.871094 1851.457031 196.878906 1851.449219 196.871094 C 1825.421875 180.96875 1802.726562 160.019531 1802.503906 159.804688 "/></g><g clip-rule="nonzero" clip-path="url(#b09c0abebc)"><g clip-rule="nonzero" clip-path="url(#a58198a67d)"><g clip-rule="nonzero" clip-path="url(#89083d74b1)"><g clip-rule="nonzero" clip-path="url(#1ab39f18d5)"><path style=" stroke:none;fill-rule:nonzero;fill:#040606;fill-opacity:1;" d="M 349.824219 339.0625 C 348.445312 363.84375 367.417969 385.058594 392.210938 386.449219 C 417.003906 387.847656 438.214844 368.890625 439.597656 344.105469 C 440.976562 319.324219 421.996094 298.109375 397.207031 296.714844 C 372.417969 295.324219 351.203125 314.285156 349.824219 339.0625 "/></g></g></g></g><g clip-rule="nonzero" clip-path="url(#6024d2fb3f)"><g clip-rule="nonzero" clip-path="url(#0918988e49)"><g clip-rule="nonzero" clip-path="url(#b0b2e4b1b1)"><g clip-rule="nonzero" clip-path="url(#e8baffc9d4)"><path style=" stroke:none;fill-rule:nonzero;fill:#f9d940;fill-opacity:1;" d="M 255.085938 479.195312 C 255.085938 479.195312 330.421875 505.152344 363.835938 473.796875 C 397.25 442.4375 402.738281 394.015625 376.09375 365.644531 C 349.449219 337.273438 300.757812 339.695312 267.34375 371.050781 C 233.925781 402.40625 255.085938 479.195312 255.085938 479.195312 "/><path style=" stroke:none;fill-rule:nonzero;fill:#f9d940;fill-opacity:1;" d="M 261.296875 377.996094 C 255.667969 385.867188 252.292969 395.433594 250.429688 405.507812 C 248.769531 414.480469 248.308594 423.863281 248.539062 432.796875 C 249.011719 451.730469 252.554688 468.710938 254.21875 475.753906 C 254.617188 477.445312 254.914062 478.558594 255.03125 478.996094 C 255.066406 479.125 255.164062 479.21875 255.285156 479.261719 C 255.765625 479.425781 257.09375 479.863281 259.121094 480.46875 C 267.050781 482.851562 285.6875 487.839844 305.988281 489.027344 C 315.273438 489.574219 324.914062 489.3125 334.023438 487.632812 C 344.113281 485.789062 353.5625 482.214844 361.203125 476.074219 C 362.109375 475.351562 362.988281 474.589844 363.835938 473.796875 C 368.792969 469.144531 373.128906 464.125 376.84375 458.847656 C 383.570312 449.28125 388.238281 438.878906 390.761719 428.367188 C 393.898438 415.304688 393.734375 402.070312 390.097656 390.042969 C 387.390625 381.042969 382.742188 372.722656 376.097656 365.648438 C 368.355469 357.40625 358.753906 351.761719 348.195312 348.675781 C 336.003906 345.097656 322.550781 344.9375 309.246094 348.121094 C 298.609375 350.660156 288.074219 355.335938 278.351562 362.113281 C 274.546875 364.765625 270.859375 367.75 267.34375 371.050781 C 265.078125 373.167969 263.074219 375.492188 261.296875 377.996094 "/></g></g></g></g><g clip-rule="nonzero" clip-path="url(#e413c510b9)"><g clip-rule="nonzero" clip-path="url(#3988dffd81)"><g clip-rule="nonzero" clip-path="url(#0a5d7838c3)"><g clip-rule="nonzero" clip-path="url(#95cb883b4b)"><path style=" stroke:none;fill-rule:nonzero;fill:#040606;fill-opacity:1;" d="M 248.539062 432.796875 C 249.011719 451.730469 252.554688 468.710938 254.21875 475.753906 C 254.4375 476.652344 255.085938 479.195312 255.085938 479.195312 C 255.085938 479.195312 257.910156 480.101562 259.121094 480.46875 C 267.050781 482.851562 285.6875 487.839844 305.988281 489.027344 C 288.972656 468.222656 269.703125 449.355469 248.539062 432.796875 Z M 261.296875 377.996094 C 255.667969 385.867188 252.292969 395.433594 250.429688 405.507812 C 282.910156 427.753906 311.210938 455.5625 334.023438 487.632812 C 344.113281 485.789062 353.5625 482.214844 361.203125 476.074219 C 334.570312 437.21875 300.636719 403.90625 261.296875 377.996094 Z M 278.351562 362.113281 C 317.550781 387.164062 351.09375 420.117188 376.84375 458.847656 C 383.570312 449.28125 388.238281 438.878906 390.761719 428.367188 C 368 397.480469 340.480469 370.390625 309.246094 348.121094 C 298.609375 350.660156 288.074219 355.335938 278.351562 362.113281 Z M 348.195312 348.675781 C 363.351562 361.207031 377.375 375.042969 390.097656 390.042969 C 387.390625 381.042969 387.21875 368.164062 380.570312 361.09375 C 372.828125 352.851562 358.753906 351.761719 348.195312 348.675781 "/></g></g></g></g><g clip-rule="nonzero" clip-path="url(#887765228b)"><g clip-rule="nonzero" clip-path="url(#4d31e4fe67)"><g clip-rule="nonzero" clip-path="url(#0d95c90300)"><g clip-rule="nonzero" clip-path="url(#05f24a1767)"><path style=" stroke:none;fill-rule:nonzero;fill:#040606;fill-opacity:1;" d="M 424.171875 324.125 C 424.914062 324.851562 426.105469 324.945312 426.960938 324.289062 C 440.359375 314.003906 458.113281 312.546875 471.148438 320.664062 C 479.632812 325.945312 483.855469 333.914062 485.90625 339.664062 C 486.296875 340.773438 487.519531 341.351562 488.625 340.957031 C 489.730469 340.5625 490.3125 339.34375 489.917969 338.238281 C 487.640625 331.847656 482.925781 322.984375 473.402344 317.050781 C 458.867188 307.996094 439.160156 309.550781 424.359375 320.910156 C 423.429688 321.625 423.253906 322.964844 423.972656 323.898438 C 424.035156 323.980469 424.097656 324.050781 424.171875 324.125 "/></g></g></g></g><g clip-rule="nonzero" clip-path="url(#7a58a0e807)"><g clip-rule="nonzero" clip-path="url(#f750475cdf)"><g clip-rule="nonzero" clip-path="url(#7cd22befbf)"><g clip-rule="nonzero" clip-path="url(#0a4cbf5e75)"><path style=" stroke:none;fill-rule:nonzero;fill:#fab918;fill-opacity:1;" d="M 495.5 336.507812 C 496.644531 340.78125 494.105469 345.164062 489.835938 346.3125 C 485.566406 347.449219 481.171875 344.914062 480.027344 340.640625 C 478.882812 336.375 481.421875 331.980469 485.695312 330.84375 C 489.960938 329.703125 494.355469 332.238281 495.5 336.507812 "/></g></g></g></g><g clip-rule="nonzero" clip-path="url(#67e931d63d)"><g clip-rule="nonzero" clip-path="url(#e0511ada6b)"><g clip-rule="nonzero" clip-path="url(#279df77878)"><g clip-rule="nonzero" clip-path="url(#ae9da229f3)"><path style=" stroke:none;fill-rule:nonzero;fill:#040606;fill-opacity:1;" d="M 415.488281 315.601562 C 415.558594 315.671875 415.636719 315.738281 415.714844 315.800781 C 416.660156 316.5 417.996094 316.296875 418.695312 315.351562 C 429.78125 300.347656 430.964844 280.621094 421.644531 266.265625 C 415.527344 256.855469 406.570312 252.3125 400.140625 250.15625 C 399.019531 249.78125 397.816406 250.382812 397.441406 251.5 C 397.070312 252.613281 397.667969 253.824219 398.789062 254.195312 C 404.578125 256.136719 412.625 260.207031 418.066406 268.585938 C 426.429688 281.460938 425.304688 299.234375 415.269531 312.820312 C 414.632812 313.683594 414.742188 314.871094 415.488281 315.601562 "/></g></g></g></g><g clip-rule="nonzero" clip-path="url(#3033165fd1)"><g clip-rule="nonzero" clip-path="url(#297c813ac3)"><g clip-rule="nonzero" clip-path="url(#dc65a1194e)"><g clip-rule="nonzero" clip-path="url(#df304e5eba)"><path style=" stroke:none;fill-rule:nonzero;fill:#fab918;fill-opacity:1;" d="M 397.921875 260.082031 C 393.625 259.019531 391.003906 254.679688 392.066406 250.386719 C 393.128906 246.097656 397.472656 243.484375 401.761719 244.546875 C 406.058594 245.605469 408.675781 249.949219 407.613281 254.242188 C 406.554688 258.53125 402.214844 261.152344 397.921875 260.082031 "/></g></g></g></g><g clip-rule="nonzero" clip-path="url(#78ae95c532)"><g clip-rule="nonzero" clip-path="url(#be77361869)"><g clip-rule="nonzero" clip-path="url(#4b31e4481d)"><g clip-rule="nonzero" clip-path="url(#9f0b8dbd71)"><path style=" stroke:none;fill-rule:nonzero;fill:#ffffff;fill-opacity:1;" d="M 382.28125 395.332031 C 382.28125 395.332031 380.230469 452.867188 412.9375 477.972656 C 445.640625 503.085938 484.941406 506.796875 500.710938 486.265625 C 516.484375 465.734375 502.761719 428.734375 470.058594 403.621094 C 437.351562 378.511719 382.28125 395.332031 382.28125 395.332031 "/></g></g></g></g><g clip-rule="nonzero" clip-path="url(#9e3101c7b1)"><g clip-rule="nonzero" clip-path="url(#7b38a8051d)"><g clip-rule="nonzero" clip-path="url(#0f05fa58e5)"><g clip-rule="nonzero" clip-path="url(#a9394b6c3a)"><path style=" stroke:none;fill-rule:nonzero;fill:#040606;fill-opacity:1;" d="M 502.246094 478.457031 C 505.804688 469.945312 505.457031 459.242188 501.125 447.5625 C 495.5 432.40625 483.90625 417.535156 468.46875 405.683594 C 440.488281 384.203125 394.546875 394.757812 384.863281 397.316406 C 384.886719 407.328125 386.542969 454.429688 414.523438 475.914062 C 429.957031 487.761719 447.320312 495.125 463.421875 496.648438 C 479.074219 498.128906 491.585938 493.875 498.644531 484.675781 C 500.113281 482.769531 501.316406 480.691406 502.246094 478.457031 Z M 379.746094 393.382812 L 381.519531 392.84375 C 383.820312 392.140625 438.253906 375.925781 471.640625 401.558594 C 487.839844 413.996094 500.046875 429.691406 506.003906 445.757812 C 512.117188 462.234375 510.96875 477.183594 502.78125 487.851562 C 494.585938 498.515625 480.433594 503.484375 462.933594 501.828125 C 445.871094 500.21875 427.550781 492.480469 411.351562 480.042969 C 377.964844 454.40625 379.59375 397.640625 379.675781 395.234375 L 379.746094 393.382812 "/></g></g></g></g><g clip-rule="nonzero" clip-path="url(#91c8908b48)"><g clip-rule="nonzero" clip-path="url(#b93b417a82)"><g clip-rule="nonzero" clip-path="url(#ebdbe14713)"><g clip-rule="nonzero" clip-path="url(#cb8459294d)"><path style=" stroke:none;fill-rule:nonzero;fill:#ffffff;fill-opacity:1;" d="M 382.714844 395.53125 C 382.714844 395.53125 359.667969 433.789062 372.414062 463.125 C 385.160156 492.460938 410.4375 509.757812 428.867188 501.765625 C 447.304688 493.769531 451.917969 463.503906 439.171875 434.171875 C 426.429688 404.835938 382.714844 395.53125 382.714844 395.53125 "/></g></g></g></g><g clip-rule="nonzero" clip-path="url(#6343115a42)"><g clip-rule="nonzero" clip-path="url(#025943e8ad)"><g clip-rule="nonzero" clip-path="url(#0d0dc94023)"><g clip-rule="nonzero" clip-path="url(#912002d50c)"><path style=" stroke:none;fill-rule:nonzero;fill:#040606;fill-opacity:1;" d="M 383.363281 397.019531 C 380.183594 402.683594 362.289062 436.554688 373.605469 462.605469 C 379.675781 476.574219 388.78125 488.207031 399.246094 495.363281 C 409.523438 502.402344 419.859375 504.25 428.351562 500.570312 C 436.84375 496.890625 442.554688 488.078125 444.429688 475.777344 C 446.335938 463.246094 444.046875 448.65625 437.976562 434.6875 C 426.660156 408.640625 389.671875 398.566406 383.363281 397.019531 Z M 375.117188 408.019531 C 378.277344 400.445312 381.265625 395.417969 381.597656 394.863281 L 382.082031 394.066406 L 382.988281 394.257812 C 384.800781 394.640625 427.503906 404.046875 440.367188 433.652344 C 446.628906 448.0625 448.980469 463.160156 447.003906 476.167969 C 444.984375 489.394531 438.726562 498.90625 429.386719 502.957031 C 420.046875 507.007812 408.816406 505.078125 397.773438 497.515625 C 386.910156 490.082031 377.480469 478.050781 371.21875 463.640625 C 362.886719 444.460938 369.300781 421.941406 375.117188 408.019531 "/></g></g></g></g><g clip-rule="nonzero" clip-path="url(#e086396470)"><g clip-rule="nonzero" clip-path="url(#0b18c3998a)"><g clip-rule="nonzero" clip-path="url(#9060c7c2ea)"><g clip-rule="nonzero" clip-path="url(#75be4df33c)"><path style=" stroke:none;fill-rule:nonzero;fill:#ffffff;fill-opacity:1;" d="M 341.082031 354.910156 C 341.082031 354.910156 283.574219 358.03125 257.84375 325.8125 C 232.117188 293.597656 227.671875 254.390625 247.914062 238.242188 C 268.15625 222.09375 305.421875 235.121094 331.148438 267.339844 C 356.875 299.558594 341.082031 354.910156 341.082031 354.910156 "/></g></g></g></g><g clip-rule="nonzero" clip-path="url(#f1cdf5d2e2)"><g clip-rule="nonzero" clip-path="url(#68baec30a4)"><g clip-rule="nonzero" clip-path="url(#b4b5478254)"><g clip-rule="nonzero" clip-path="url(#8eb188f177)"><path style=" stroke:none;fill-rule:nonzero;fill:#040606;fill-opacity:1;" d="M 339.046875 352.363281 C 341.421875 342.640625 351.125 296.519531 329.109375 268.960938 C 316.972656 253.757812 301.878906 242.445312 286.613281 237.109375 C 271.773438 231.921875 258.601562 233.042969 249.539062 240.277344 C 240.476562 247.507812 236.453125 260.089844 238.230469 275.710938 C 240.046875 291.769531 247.738281 308.984375 259.882812 324.195312 C 281.890625 351.753906 329.035156 352.523438 339.046875 352.363281 Z M 236.0625 249.949219 C 238.363281 244.441406 241.796875 239.792969 246.285156 236.207031 C 256.800781 227.820312 271.734375 226.394531 288.332031 232.195312 C 304.511719 237.847656 320.433594 249.753906 333.183594 265.714844 C 359.441406 298.601562 344.246094 353.3125 343.582031 355.625 L 343.074219 357.410156 L 341.222656 357.511719 C 338.816406 357.640625 282.074219 360.324219 255.8125 327.4375 C 243.0625 311.480469 234.984375 293.3125 233.050781 276.292969 C 231.917969 266.289062 232.976562 257.347656 236.0625 249.949219 "/></g></g></g></g><g clip-rule="nonzero" clip-path="url(#68db36e76f)"><g clip-rule="nonzero" clip-path="url(#1479b5a297)"><g clip-rule="nonzero" clip-path="url(#22fc32c682)"><g clip-rule="nonzero" clip-path="url(#34882680f2)"><path style=" stroke:none;fill-rule:nonzero;fill:#ffffff;fill-opacity:1;" d="M 341.195312 354.796875 C 341.195312 354.796875 303.359375 378.546875 273.785156 366.355469 C 244.203125 354.164062 226.425781 329.226562 234.074219 310.652344 C 241.730469 292.078125 271.910156 286.902344 301.492188 299.09375 C 331.070312 311.277344 341.195312 354.796875 341.195312 354.796875 "/></g></g></g></g><g clip-rule="nonzero" clip-path="url(#aa5e44feb9)"><g clip-rule="nonzero" clip-path="url(#dae9b98b03)"><g clip-rule="nonzero" clip-path="url(#746389c644)"><g clip-rule="nonzero" clip-path="url(#435b418a8e)"><path style=" stroke:none;fill-rule:nonzero;fill:#040606;fill-opacity:1;" d="M 339.695312 354.175781 C 338.03125 347.894531 327.261719 311.117188 300.992188 300.296875 C 286.914062 294.492188 272.277344 292.472656 259.78125 294.617188 C 247.554688 296.714844 238.871094 302.546875 235.324219 311.050781 C 235.308594 311.082031 235.292969 311.117188 235.28125 311.148438 C 231.757812 319.703125 233.800781 330 241.027344 340.144531 C 248.386719 350.46875 260.191406 359.351562 274.277344 365.152344 C 300.5625 375.984375 334.09375 357.460938 339.695312 354.175781 Z M 232.921875 310.046875 C 236.824219 300.691406 246.203125 294.304688 259.339844 292.054688 C 272.3125 289.828125 287.453125 291.902344 301.988281 297.890625 C 331.84375 310.191406 342.042969 352.695312 342.464844 354.5 L 342.671875 355.402344 L 341.886719 355.894531 C 340.316406 356.878906 303.144531 379.863281 273.285156 367.558594 C 258.757812 361.570312 246.546875 352.375 238.90625 341.652344 C 231.140625 330.753906 229 319.566406 232.871094 310.160156 C 232.886719 310.117188 232.90625 310.082031 232.921875 310.046875 "/></g></g></g></g><g clip-rule="nonzero" clip-path="url(#44a59664be)"><g clip-rule="nonzero" clip-path="url(#706fa17943)"><g clip-rule="nonzero" clip-path="url(#f0b37d7210)"><g clip-rule="nonzero" clip-path="url(#bf474fbcc9)"><path style=" stroke:none;fill-rule:nonzero;fill:#040606;fill-opacity:1;" d="M 1021.597656 759.03125 C 1021.457031 758.953125 1021.328125 758.875 1021.191406 758.785156 C 1019.507812 757.601562 1019.097656 755.269531 1020.28125 753.582031 C 1024.984375 746.871094 1029.347656 739.882812 1033.246094 732.816406 C 1034.246094 731.011719 1036.539062 730.332031 1038.328125 731.347656 C 1040.136719 732.347656 1040.796875 734.621094 1039.796875 736.425781 C 1035.769531 743.730469 1031.257812 750.945312 1026.40625 757.871094 C 1025.308594 759.429688 1023.242188 759.898438 1021.597656 759.03125 Z M 571.136719 581.21875 C 570.929688 581.105469 570.722656 580.96875 570.53125 580.816406 C 564.195312 575.6875 557.429688 571.15625 550.417969 567.332031 C 548.605469 566.34375 547.941406 564.070312 548.929688 562.261719 C 549.917969 560.449219 552.175781 559.804688 553.996094 560.773438 C 561.402344 564.8125 568.546875 569.597656 575.234375 575.007812 C 576.835938 576.304688 577.085938 578.660156 575.789062 580.261719 C 574.644531 581.679688 572.683594 582.035156 571.136719 581.21875 Z M 979.875 805.042969 C 979.476562 804.832031 979.121094 804.546875 978.804688 804.1875 C 977.457031 802.632812 977.621094 800.273438 979.171875 798.917969 C 985.390625 793.511719 991.375 787.816406 996.945312 781.976562 C 998.371094 780.484375 1000.738281 780.433594 1002.230469 781.851562 C 1003.71875 783.273438 1003.777344 785.644531 1002.347656 787.132812 C 996.617188 793.140625 990.480469 799.003906 984.078125 804.558594 C 982.878906 805.605469 981.195312 805.742188 979.875 805.042969 Z M 490.78125 552.015625 C 489.605469 551.394531 488.796875 550.160156 488.785156 548.746094 C 488.765625 546.679688 490.425781 544.992188 492.488281 544.976562 C 500.28125 544.910156 508.023438 545.578125 515.515625 546.972656 C 516.359375 547.125 517.199219 547.289062 518.03125 547.460938 C 520.054688 547.878906 521.355469 549.859375 520.941406 551.882812 C 520.519531 553.902344 518.542969 555.199219 516.523438 554.78125 C 515.738281 554.621094 514.945312 554.464844 514.15625 554.316406 C 507.136719 553.011719 499.867188 552.386719 492.558594 552.445312 C 491.914062 552.453125 491.308594 552.296875 490.78125 552.015625 Z M 609.734375 629.492188 C 609.0625 629.136719 608.496094 628.578125 608.136719 627.84375 C 604.59375 620.640625 600.367188 613.671875 595.570312 607.117188 C 594.347656 605.449219 594.710938 603.113281 596.382812 601.894531 C 598.046875 600.675781 600.382812 601.039062 601.601562 602.707031 C 606.65625 609.609375 611.113281 616.960938 614.847656 624.546875 C 615.753906 626.402344 614.992188 628.640625 613.144531 629.554688 C 612.023438 630.097656 610.757812 630.035156 609.734375 629.492188 Z M 431.160156 567.761719 C 430.542969 567.4375 430.007812 566.929688 429.644531 566.273438 C 428.644531 564.472656 429.296875 562.195312 431.097656 561.195312 C 438.527344 557.070312 446.441406 553.664062 454.625 551.0625 C 456.589844 550.4375 458.691406 551.523438 459.320312 553.492188 C 459.945312 555.457031 458.855469 557.554688 456.894531 558.183594 C 449.183594 560.632812 441.726562 563.84375 434.726562 567.726562 C 433.582031 568.363281 432.238281 568.335938 431.160156 567.761719 Z M 928.839844 840.542969 C 928.222656 840.21875 927.695312 839.714844 927.328125 839.058594 C 926.324219 837.25 926.976562 834.976562 928.789062 833.980469 C 935.996094 829.988281 943.082031 825.695312 949.824219 821.21875 C 951.542969 820.078125 953.863281 820.546875 955.011719 822.265625 C 956.148438 823.980469 955.675781 826.300781 953.960938 827.441406 C 947.046875 832.027344 939.789062 836.425781 932.40625 840.515625 C 931.261719 841.15625 929.917969 841.113281 928.839844 840.542969 Z M 624.375 689.550781 C 623.234375 688.941406 622.433594 687.753906 622.398438 686.371094 C 622.125 678.203125 621.207031 670.089844 619.667969 662.246094 C 619.261719 660.214844 620.582031 658.25 622.609375 657.855469 C 624.640625 657.464844 626.59375 658.777344 627.003906 660.804688 C 628.617188 669.042969 629.585938 677.566406 629.859375 686.128906 C 629.933594 688.195312 628.3125 689.917969 626.25 689.984375 C 625.574219 690.003906 624.941406 689.847656 624.375 689.550781 Z M 871.800781 865.339844 C 870.972656 864.902344 870.320312 864.164062 869.996094 863.199219 C 869.359375 861.242188 870.417969 859.128906 872.382812 858.484375 C 880.183594 855.929688 887.960938 853.058594 895.488281 849.957031 C 897.402344 849.167969 899.585938 850.078125 900.378906 851.988281 C 901.160156 853.894531 900.253906 856.082031 898.347656 856.867188 C 890.640625 860.039062 882.695312 862.980469 874.722656 865.59375 C 873.714844 865.921875 872.667969 865.796875 871.800781 865.339844 Z M 387.371094 610.871094 C 387.355469 610.863281 387.332031 610.851562 387.3125 610.839844 C 385.507812 609.839844 384.851562 607.5625 385.851562 605.757812 C 386.683594 604.261719 387.558594 602.765625 388.445312 601.316406 C 392.015625 595.527344 396.195312 589.996094 400.878906 584.886719 C 402.273438 583.363281 404.636719 583.257812 406.15625 584.652344 C 407.683594 586.042969 407.785156 588.410156 406.394531 589.933594 C 402.03125 594.695312 398.132812 599.847656 394.816406 605.234375 C 393.984375 606.589844 393.167969 607.984375 392.394531 609.378906 C 391.402344 611.167969 389.171875 611.824219 387.371094 610.871094 Z M 224.035156 530.960938 C 222.292969 530.039062 221.558594 527.898438 222.394531 526.089844 C 224.347656 521.890625 226.425781 517.695312 228.578125 513.632812 C 230.351562 510.289062 232.210938 506.957031 234.113281 503.71875 C 235.160156 501.9375 237.445312 501.332031 239.230469 502.386719 C 241.011719 503.4375 241.609375 505.730469 240.5625 507.507812 C 238.714844 510.652344 236.90625 513.890625 235.183594 517.132812 C 233.09375 521.078125 231.074219 525.15625 229.179688 529.234375 C 228.308594 531.105469 226.089844 531.917969 224.214844 531.050781 C 224.15625 531.019531 224.09375 530.992188 224.035156 530.960938 Z M 614.785156 750.714844 C 613.179688 749.867188 612.394531 747.941406 613.019531 746.175781 C 615.71875 738.527344 617.871094 730.628906 619.425781 722.691406 C 619.820312 720.667969 621.785156 719.347656 623.808594 719.742188 C 625.835938 720.144531 627.152344 722.101562 626.757812 724.128906 C 625.144531 732.421875 622.886719 740.671875 620.0625 748.664062 C 619.382812 750.609375 617.246094 751.628906 615.300781 750.945312 C 615.121094 750.878906 614.953125 750.804688 614.785156 750.714844 Z M 811.203125 879.378906 C 810.179688 878.835938 809.425781 877.84375 809.257812 876.621094 C 808.957031 874.578125 810.367188 872.683594 812.402344 872.378906 C 820.59375 871.191406 828.769531 869.738281 836.691406 868.0625 C 838.722656 867.640625 840.703125 868.925781 841.128906 870.949219 C 841.554688 872.960938 840.265625 874.949219 838.246094 875.378906 C 830.164062 877.082031 821.832031 878.566406 813.488281 879.777344 C 812.667969 879.890625 811.875 879.734375 811.203125 879.378906 Z M 373.363281 670.765625 C 372.207031 670.152344 371.40625 668.945312 371.371094 667.546875 C 371.164062 658.84375 371.78125 650.257812 373.210938 642.027344 C 373.558594 639.996094 375.496094 638.632812 377.527344 638.988281 C 379.5625 639.335938 380.925781 641.273438 380.570312 643.304688 C 379.230469 651.054688 378.652344 659.152344 378.847656 667.371094 C 378.898438 669.4375 377.261719 671.152344 375.199219 671.199219 C 374.539062 671.210938 373.910156 671.054688 373.363281 670.765625 Z M 204.601562 589.972656 C 203.171875 589.214844 202.347656 587.578125 202.6875 585.917969 C 204.394531 577.6875 206.488281 569.460938 208.917969 561.453125 C 209.519531 559.480469 211.605469 558.371094 213.582031 558.964844 C 215.550781 559.574219 216.671875 561.65625 216.074219 563.628906 C 213.710938 571.417969 211.667969 579.429688 210.011719 587.429688 C 209.59375 589.453125 207.613281 590.75 205.59375 590.335938 C 205.242188 590.257812 204.90625 590.136719 204.601562 589.972656 Z M 749.121094 883.828125 C 747.945312 883.207031 747.132812 881.96875 747.128906 880.539062 C 747.121094 878.476562 748.789062 876.792969 750.859375 876.796875 C 759.171875 876.761719 767.480469 876.519531 775.5625 876.0625 C 777.621094 875.949219 779.382812 877.519531 779.507812 879.585938 C 779.628906 881.644531 778.046875 883.40625 775.992188 883.527344 C 767.777344 883.996094 759.328125 884.234375 750.878906 884.261719 C 750.242188 884.265625 749.648438 884.109375 749.121094 883.828125 Z M 583.949219 804.414062 C 583.71875 804.292969 583.496094 804.148438 583.292969 803.972656 C 581.714844 802.644531 581.507812 800.289062 582.839844 798.710938 C 588.089844 792.441406 592.925781 785.824219 597.183594 779.015625 C 598.273438 777.265625 600.585938 776.742188 602.332031 777.835938 C 604.082031 778.929688 604.621094 781.238281 603.523438 782.988281 C 599.078125 790.078125 594.046875 796.984375 588.558594 803.515625 C 587.40625 804.890625 585.480469 805.226562 583.949219 804.414062 Z M 686.941406 880.34375 C 685.632812 879.648438 684.808594 878.199219 684.980469 876.625 C 685.207031 874.578125 687.054688 873.101562 689.105469 873.328125 C 697.417969 874.253906 705.710938 875.003906 713.765625 875.550781 C 715.832031 875.699219 717.390625 877.476562 717.242188 879.535156 C 717.109375 881.59375 715.324219 883.152344 713.257812 883.003906 C 705.105469 882.453125 696.695312 881.695312 688.289062 880.757812 C 687.796875 880.699219 687.351562 880.558594 686.941406 880.34375 Z M 387.558594 730.984375 C 386.851562 730.605469 386.257812 730 385.902344 729.210938 C 382.390625 721.417969 379.457031 713.371094 377.1875 705.304688 C 376.625 703.316406 377.78125 701.253906 379.769531 700.695312 C 381.757812 700.140625 383.824219 701.292969 384.378906 703.28125 C 386.550781 711 389.359375 718.691406 392.722656 726.148438 C 393.570312 728.027344 392.726562 730.242188 390.847656 731.089844 C 389.753906 731.578125 388.542969 731.503906 387.558594 730.984375 Z M 625.425781 870.597656 C 624 869.839844 623.179688 868.21875 623.511719 866.554688 C 623.921875 864.53125 625.894531 863.226562 627.917969 863.640625 C 636.136719 865.296875 644.339844 866.820312 652.304688 868.160156 C 654.335938 868.503906 655.710938 870.429688 655.363281 872.464844 C 655.023438 874.5 653.097656 875.871094 651.0625 875.527344 C 643.023438 874.175781 634.730469 872.636719 626.4375 870.957031 C 626.070312 870.882812 625.738281 870.761719 625.425781 870.597656 Z M 198.957031 651.867188 C 197.800781 651.253906 197 650.046875 196.964844 648.648438 C 196.777344 640.296875 196.96875 631.800781 197.546875 623.40625 C 197.6875 621.347656 199.472656 619.796875 201.53125 619.9375 C 203.59375 620.082031 205.148438 621.863281 205.003906 623.921875 C 204.445312 632.089844 204.253906 640.355469 204.441406 648.480469 C 204.488281 650.542969 202.855469 652.253906 200.792969 652.300781 C 200.132812 652.3125 199.503906 652.15625 198.957031 651.867188 Z M 564.851562 856.050781 C 563.335938 855.246094 562.527344 853.464844 563.007812 851.738281 C 563.5625 849.753906 565.628906 848.597656 567.621094 849.15625 C 574.332031 851.039062 581.222656 852.867188 588.667969 854.726562 L 591.597656 855.453125 C 593.601562 855.953125 594.832031 857.976562 594.332031 859.980469 C 593.847656 861.984375 591.816406 863.207031 589.8125 862.707031 L 586.855469 861.972656 C 579.335938 860.09375 572.382812 858.253906 565.597656 856.347656 C 565.339844 856.277344 565.085938 856.175781 564.851562 856.050781 Z M 422.804688 781.945312 C 422.488281 781.777344 422.183594 781.5625 421.917969 781.292969 C 420.871094 780.242188 419.832031 779.191406 418.804688 778.121094 C 414.011719 773.128906 409.449219 767.730469 405.234375 762.078125 C 404 760.421875 404.34375 758.082031 405.992188 756.847656 C 407.652344 755.613281 409.996094 755.957031 411.230469 757.613281 C 415.253906 763.019531 419.621094 768.179688 424.199219 772.945312 C 425.1875 773.976562 426.1875 774.996094 427.195312 776.003906 C 428.652344 777.457031 428.660156 779.824219 427.203125 781.289062 C 426.015625 782.480469 424.222656 782.695312 422.804688 781.945312 Z M 536.96875 844.898438 C 536.410156 844.601562 535.910156 844.15625 535.554688 843.578125 C 534.453125 841.820312 535 839.523438 536.746094 838.429688 C 543.691406 834.109375 550.386719 829.351562 556.679688 824.285156 C 558.28125 822.984375 560.636719 823.234375 561.925781 824.84375 C 563.230469 826.457031 562.972656 828.800781 561.371094 830.101562 C 554.847656 835.351562 547.898438 840.296875 540.703125 844.777344 C 539.527344 845.5 538.105469 845.5 536.96875 844.898438 Z M 505.988281 835.773438 C 504.289062 834.871094 503.53125 832.800781 504.292969 831.003906 C 505.101562 829.105469 507.296875 828.21875 509.203125 829.035156 C 516.46875 832.121094 524.207031 835.132812 532.214844 837.988281 C 534.164062 838.679688 535.175781 840.8125 534.480469 842.753906 C 533.792969 844.703125 531.65625 845.71875 529.710938 845.023438 C 521.5625 842.125 513.679688 839.054688 506.277344 835.910156 C 506.175781 835.867188 506.074219 835.816406 505.988281 835.773438 Z M 472.472656 819.261719 C 472.4375 819.242188 472.402344 819.226562 472.367188 819.207031 C 464.890625 814.9375 457.707031 810.382812 451.03125 805.664062 C 449.339844 804.480469 448.941406 802.148438 450.128906 800.460938 C 451.316406 798.777344 453.648438 798.375 455.335938 799.5625 C 461.824219 804.140625 468.804688 808.566406 476.074219 812.714844 C 477.867188 813.738281 478.492188 816.023438 477.464844 817.8125 C 476.464844 819.566406 474.25 820.203125 472.472656 819.261719 Z M 207.761719 713.371094 C 206.878906 712.90625 206.179688 712.089844 205.902344 711.050781 C 203.71875 703.003906 201.902344 694.695312 200.507812 686.355469 C 200.171875 684.320312 201.542969 682.394531 203.578125 682.058594 C 205.617188 681.714844 207.542969 683.09375 207.886719 685.125 C 209.238281 693.222656 210.996094 701.289062 213.117188 709.097656 C 213.660156 711.085938 212.476562 713.140625 210.484375 713.675781 C 209.535156 713.941406 208.570312 713.800781 207.761719 713.371094 Z M 480.050781 869.609375 C 479.15625 869.132812 478.460938 868.3125 478.179688 867.269531 C 477.644531 865.273438 478.832031 863.226562 480.824219 862.691406 C 484.5 861.707031 488.199219 860.609375 491.792969 859.425781 C 495.902344 858.082031 500.007812 856.578125 504.03125 854.976562 C 505.949219 854.210938 508.121094 855.140625 508.894531 857.058594 C 509.65625 858.976562 508.730469 861.152344 506.816406 861.917969 C 502.648438 863.574219 498.386719 865.128906 494.132812 866.523438 C 490.40625 867.753906 486.578125 868.890625 482.761719 869.914062 C 481.808594 870.167969 480.847656 870.03125 480.050781 869.609375 Z M 231.792969 770.609375 C 231.203125 770.296875 230.691406 769.828125 230.328125 769.21875 C 226.066406 762.027344 222.144531 754.472656 218.667969 746.753906 C 217.820312 744.875 218.65625 742.664062 220.539062 741.8125 C 222.421875 740.972656 224.632812 741.808594 225.484375 743.6875 C 228.847656 751.152344 232.636719 758.460938 236.757812 765.40625 C 237.8125 767.183594 237.226562 769.476562 235.449219 770.527344 C 234.285156 771.214844 232.902344 771.199219 231.792969 770.609375 Z M 418.390625 876.898438 C 417.183594 876.257812 416.375 874.976562 416.40625 873.519531 C 416.449219 871.449219 418.15625 869.816406 420.222656 869.859375 C 428.394531 870.039062 436.632812 869.769531 444.699219 869.054688 C 446.757812 868.871094 448.570312 870.386719 448.753906 872.445312 C 448.941406 874.503906 447.417969 876.316406 445.367188 876.496094 C 437.023438 877.238281 428.507812 877.519531 420.0625 877.332031 C 419.457031 877.320312 418.890625 877.164062 418.390625 876.898438 Z M 270.84375 818.828125 C 270.570312 818.683594 270.308594 818.5 270.066406 818.28125 C 263.863281 812.585938 257.9375 806.460938 252.445312 800.074219 C 251.105469 798.507812 251.277344 796.152344 252.84375 794.808594 C 254.410156 793.464844 256.769531 793.640625 258.113281 795.210938 C 263.410156 801.375 269.132812 807.285156 275.121094 812.777344 C 276.640625 814.171875 276.742188 816.535156 275.347656 818.054688 C 274.171875 819.335938 272.3125 819.605469 270.84375 818.828125 Z M 357.03125 867.214844 C 355.488281 866.398438 354.679688 864.582031 355.203125 862.847656 C 355.792969 860.867188 357.871094 859.746094 359.851562 860.335938 C 367.652344 862.664062 375.664062 864.597656 383.675781 866.085938 C 385.707031 866.460938 387.046875 868.414062 386.671875 870.441406 C 386.296875 872.472656 384.347656 873.808594 382.316406 873.429688 C 374.046875 871.898438 365.765625 869.902344 357.714844 867.496094 C 357.472656 867.421875 357.246094 867.332031 357.03125 867.214844 Z M 315.460938 850.21875 C 310.277344 847.472656 305.15625 844.496094 300.238281 841.375 C 298.496094 840.265625 297.976562 837.957031 299.082031 836.214844 C 300.1875 834.476562 302.496094 833.953125 304.242188 835.066406 C 311.070312 839.398438 318.265625 843.421875 325.625 847.007812 C 327.503906 847.925781 328.253906 850.144531 327.351562 852 C 326.445312 853.855469 324.207031 854.628906 322.351562 853.722656 C 320.039062 852.597656 317.722656 851.417969 315.460938 850.21875 "/></g></g></g></g></g><mask id="4ec97748a3"><g filter="url(#c92a5f3609)"><rect x="0" width="1958.25" y="0" height="1125.749967" style="fill:#000000;fill-opacity:0.4;stroke:none;"/></g></mask></g></g></g></svg>