<svg xmlns="http://www.w3.org/2000/svg" xmlns:xlink="http://www.w3.org/1999/xlink" width="986" zoomAndPan="magnify" viewBox="0 0 739.5 809.999993" height="1080" preserveAspectRatio="xMidYMid meet" version="1.2"><defs><clipPath id="da6e3a8038"><path d="M 0 0.273438 L 739 0.273438 L 739 799 L 0 799 Z M 0 0.273438 "/></clipPath><filter x="0%" y="0%" width="100%" filterUnits="objectBoundingBox" id="79fcaecd90" height="100%"><feColorMatrix values="0 0 0 0 1 0 0 0 0 1 0 0 0 0 1 0 0 0 1 0" type="matrix" in="SourceGraphic"/></filter><clipPath id="bd902958bd"><path d="M 3 3 L 465.546875 3 L 465.546875 309 L 3 309 Z M 3 3 "/></clipPath><clipPath id="20c6837a01"><path d="M 282.707031 3.648438 C 228.191406 3.648438 182.140625 42.832031 167.816406 96.339844 C 161.851562 92.539062 154.988281 90.351562 147.652344 90.351562 C 124.964844 90.351562 106.554688 111.097656 106.554688 136.671875 C 106.554688 136.929688 106.550781 137.179688 106.554688 137.4375 C 99.757812 135.867188 92.632812 134.980469 85.257812 134.980469 C 40.285156 134.980469 3.792969 166.128906 3.792969 204.488281 C 3.792969 242.84375 40.289062 273.996094 85.257812 273.996094 C 103.070312 273.996094 119.527344 269.070312 132.9375 260.789062 C 140.949219 287.800781 163.554688 307.3125 190.203125 307.3125 C 208.261719 307.3125 224.453125 298.351562 235.523438 284.179688 C 246.261719 290.511719 258.890625 294.160156 272.398438 294.160156 C 290.769531 294.160156 307.539062 287.421875 320.125 276.347656 C 337.082031 296.1875 362.015625 308.746094 389.828125 308.746094 C 423.949219 308.746094 453.773438 289.824219 469.796875 261.761719 C 472.210938 262.160156 474.683594 262.375 477.199219 262.375 C 504.34375 262.375 526.332031 238.316406 526.332031 208.636719 C 526.332031 178.953125 504.34375 154.84375 477.199219 154.84375 C 472.339844 154.84375 467.644531 155.65625 463.210938 157.09375 C 448.585938 137.660156 426.714844 124.1875 401.726562 120.90625 C 396.613281 55.261719 345.269531 3.648438 282.699219 3.648438 Z M 282.707031 3.648438 "/></clipPath><clipPath id="0a28d483e6"><path d="M 2 2 L 465.546875 2 L 465.546875 310 L 2 310 Z M 2 2 "/></clipPath><clipPath id="261e273fb9"><path d="M 0.414062 0.453125 L 465.546875 0.453125 L 465.546875 312.664062 L 0.414062 312.664062 Z M 0.414062 0.453125 "/></clipPath><clipPath id="0e660d86b5"><path d="M 280.101562 0.730469 C 230.273438 0.898438 181.558594 38.414062 166.074219 91.992188 C 143.539062 79.109375 113.265625 94.011719 105.949219 121.113281 C 104.75 125.222656 103.964844 129.53125 103.769531 133.859375 C 68.410156 126.839844 26.59375 139.882812 7.636719 176.238281 C -5.042969 199.957031 1.117188 232.132812 19.171875 250.046875 C 48.445312 281.425781 96.378906 284.738281 131.46875 266.117188 C 142.855469 300.390625 179.800781 319.78125 210.53125 307.164062 C 220.316406 303.597656 229.234375 296.527344 236.324219 288.636719 C 262.679688 302.964844 296.046875 300.421875 319.835938 281.011719 C 357.992188 324.203125 427.589844 322.445312 463.472656 276.660156 C 467.757812 273.363281 468.980469 263.714844 475.234375 265.910156 C 504.214844 268.179688 531.507812 238.9375 529.183594 205.925781 C 528.234375 171.925781 497.050781 145.871094 467.785156 152.851562 C 461.75 155.667969 459.4375 145.609375 454.480469 143.074219 C 440.445312 129.179688 421.820312 121.605469 404.347656 117.789062 C 399.019531 58.5 353.519531 9.988281 301.78125 2.289062 C 294.628906 1.070312 287.355469 0.542969 280.105469 0.734375 Z M 280.101562 0.730469 "/></clipPath><clipPath id="81a9c978f7"><path d="M 0.414062 0.453125 L 465.546875 0.453125 L 465.546875 312.664062 L 0.414062 312.664062 Z M 0.414062 0.453125 "/></clipPath><clipPath id="a4ea07325f"><rect x="0" width="466" y="0" height="313"/></clipPath><clipPath id="697ca29dbf"><path d="M 129 489 L 653 489 L 653 795 L 129 795 Z M 129 489 "/></clipPath><clipPath id="d9bf635c8f"><path d="M 408.535156 489.140625 C 354.023438 489.140625 307.972656 528.324219 293.644531 581.828125 C 287.679688 578.027344 280.820312 575.839844 273.480469 575.839844 C 250.792969 575.839844 232.386719 596.589844 232.386719 622.160156 C 232.386719 622.421875 232.382812 622.671875 232.386719 622.929688 C 225.589844 621.359375 218.464844 620.472656 211.085938 620.472656 C 166.117188 620.472656 129.621094 651.621094 129.621094 689.980469 C 129.621094 728.335938 166.117188 759.484375 211.085938 759.484375 C 228.898438 759.484375 245.355469 754.5625 258.769531 746.28125 C 266.78125 773.292969 289.382812 792.804688 316.03125 792.804688 C 334.089844 792.804688 350.28125 783.84375 361.351562 769.671875 C 372.09375 776.003906 384.722656 779.652344 398.226562 779.652344 C 416.601562 779.652344 433.371094 772.914062 445.953125 761.839844 C 462.910156 781.675781 487.847656 794.238281 515.660156 794.238281 C 549.78125 794.238281 579.605469 775.316406 595.628906 747.253906 C 598.039062 747.652344 600.515625 747.867188 603.03125 747.867188 C 630.175781 747.867188 652.164062 723.808594 652.164062 694.125 C 652.164062 664.445312 630.175781 640.332031 603.03125 640.332031 C 598.171875 640.332031 593.476562 641.148438 589.042969 642.585938 C 574.417969 623.152344 552.546875 609.679688 527.554688 606.398438 C 522.445312 540.753906 471.101562 489.140625 408.53125 489.140625 Z M 408.535156 489.140625 "/></clipPath><clipPath id="aaf3799d62"><path d="M 126 486 L 656 486 L 656 798 L 126 798 Z M 126 486 "/></clipPath><clipPath id="d05d7fddd9"><path d="M 405.933594 486.222656 C 356.105469 486.390625 307.386719 523.90625 291.90625 577.484375 C 269.367188 564.601562 239.09375 579.503906 231.78125 606.605469 C 230.582031 610.714844 229.796875 615.023438 229.601562 619.351562 C 194.242188 612.332031 152.425781 625.375 133.46875 661.730469 C 120.785156 685.449219 126.949219 717.621094 145 735.539062 C 174.273438 766.917969 222.210938 770.230469 257.300781 751.609375 C 268.6875 785.882812 305.632812 805.273438 336.359375 792.65625 C 346.148438 789.089844 355.066406 782.015625 362.15625 774.128906 C 388.511719 788.457031 421.878906 785.910156 445.664062 766.503906 C 483.824219 809.695312 553.421875 807.9375 589.300781 762.152344 C 593.585938 758.855469 594.8125 749.207031 601.0625 751.402344 C 630.046875 753.671875 657.335938 724.429688 655.011719 691.417969 C 654.0625 657.414062 622.878906 631.363281 593.617188 638.339844 C 587.582031 641.160156 585.269531 631.101562 580.3125 628.566406 C 566.277344 614.671875 547.652344 607.097656 530.175781 603.28125 C 524.851562 543.988281 479.347656 495.480469 427.609375 487.78125 C 420.460938 486.558594 413.183594 486.035156 405.933594 486.222656 Z M 405.933594 486.222656 "/></clipPath><clipPath id="e577c1d357"><path d="M 125 485.945312 L 657 485.945312 L 657 798.214844 L 125 798.214844 Z M 125 485.945312 "/></clipPath><clipPath id="992b7013c3"><path d="M 318 0.273438 L 739 0.273438 L 739 377 L 318 377 Z M 318 0.273438 "/></clipPath><clipPath id="e2d2b2e271"><path d="M 0.0234375 150 L 285 150 L 285 321 L 0.0234375 321 Z M 0.0234375 150 "/></clipPath><clipPath id="a6c287f746"><path d="M 191 0.273438 L 420 0.273438 L 420 129 L 191 129 Z M 191 0.273438 "/></clipPath><clipPath id="4135ea51c8"><path d="M 220 279 L 419 279 L 419 375.769531 L 220 375.769531 Z M 220 279 "/></clipPath><clipPath id="2b9e351d7c"><rect x="0" width="421" y="0" height="377"/></clipPath><clipPath id="c1e4b6dc2e"><path d="M 0.988281 1 L 254.316406 1 L 254.316406 137.390625 L 0.988281 137.390625 Z M 0.988281 1 "/></clipPath><clipPath id="31d8f6aaf7"><rect x="0" width="256" y="0" height="138"/></clipPath><clipPath id="8dc1dc4307"><path d="M 0 276.289062 L 253.328125 276.289062 L 253.328125 412.695312 L 0 412.695312 Z M 0 276.289062 "/></clipPath><clipPath id="8de9e40ed6"><rect x="0" width="739" y="0" height="799"/></clipPath></defs><g id="cc8d860e1a"><g clip-rule="nonzero" clip-path="url(#da6e3a8038)"><g mask="url(#cf1aa5278d)" transform="matrix(1,0,0,1,0,-0.000000000000061395)"><g clip-path="url(#8de9e40ed6)"><g mask="url(#f1724bcd00)" transform="matrix(1,0,0,1,273,410)"><g id="58813a6810" clip-path="url(#a4ea07325f)"><g clip-rule="nonzero" clip-path="url(#bd902958bd)"><g clip-rule="nonzero" clip-path="url(#20c6837a01)"><path style=" stroke:none;fill-rule:nonzero;fill:#eb8b56;fill-opacity:1;" d="M 3.792969 3.648438 L 3.792969 308.746094 L 465.546875 308.746094 L 465.546875 3.648438 Z M 3.792969 3.648438 "/></g></g><g clip-rule="nonzero" clip-path="url(#0a28d483e6)"><path style="fill:none;stroke-width:2.587;stroke-linecap:butt;stroke-linejoin:miter;stroke:#000000;stroke-opacity:1;stroke-miterlimit:4;" d="M 4626.816074 336.393067 C 3749.709631 336.393067 3008.794766 966.821179 2778.331215 1827.712842 C 2682.362346 1766.561755 2571.93844 1731.366885 2453.909929 1731.366885 C 2088.888847 1731.366885 1792.686306 2065.15252 1792.686306 2476.618261 C 1792.686306 2480.766227 1792.623458 2484.788498 1792.686306 2488.936465 C 1683.330817 2463.671576 1568.696097 2449.405084 1450.039106 2449.405084 C 726.470284 2449.405084 139.344432 2950.554896 139.344432 3567.722084 C 139.344432 4184.826423 726.533132 4686.039083 1450.039106 4686.039083 C 1736.625906 4686.039083 2001.404456 4606.787777 2217.16158 4473.550054 C 2346.062792 4908.143853 2709.764066 5222.069525 3138.513002 5222.069525 C 3429.059225 5222.069525 3689.564112 5077.896254 3867.675294 4849.883773 C 4040.444398 4951.760353 4243.631925 5010.460368 4460.960249 5010.460368 C 4756.53431 5010.460368 5026.340699 4902.047599 5228.836898 4723.873568 C 5501.65999 5043.078471 5902.818662 5245.134735 6350.296296 5245.134735 C 6899.273423 5245.134735 7379.117769 4940.699108 7636.920193 4489.199202 C 7675.760246 4495.609696 7715.543019 4499.066335 7756.01712 4499.066335 C 8192.74775 4499.066335 8546.519043 4111.985612 8546.519043 3634.466641 C 8546.519043 3156.884822 8192.74775 2768.987075 7756.01712 2768.987075 C 7677.834229 2768.987075 7602.290955 2782.059455 7530.958495 2805.187513 C 7295.655648 2492.5188 6943.769795 2275.756109 6541.731251 2222.963803 C 6459.463242 1166.803459 5633.389361 336.393067 4626.690378 336.393067 Z M 4626.816074 336.393067 " transform="matrix(0.0621539,0,0,0.0621539,-4.867837,-17.259718)"/></g><g clip-rule="nonzero" clip-path="url(#261e273fb9)"><g clip-rule="nonzero" clip-path="url(#0e660d86b5)"><path style=" stroke:none;fill-rule:nonzero;fill:#eb8b56;fill-opacity:1;" d="M 0.414062 0.542969 L 0.414062 312.664062 L 465.546875 312.664062 L 465.546875 0.542969 Z M 0.414062 0.542969 "/></g></g><g clip-rule="nonzero" clip-path="url(#81a9c978f7)"><path style="fill:none;stroke-width:2.587;stroke-linecap:butt;stroke-linejoin:miter;stroke:#a3ced5;stroke-opacity:1;stroke-miterlimit:4;" d="M 4584.89647 289.445624 C 3783.207606 292.148087 2999.430417 895.74011 2750.301015 1757.763037 C 2387.731004 1550.490391 1900.65914 1790.255444 1782.944869 2226.294747 C 1763.650538 2292.410824 1751.018094 2361.732149 1747.875695 2431.367713 C 1178.975758 2318.429889 506.188106 2528.279302 201.186847 3113.205475 C -2.817704 3494.818424 96.293564 4012.497255 386.776939 4300.718103 C 857.75972 4805.575946 1628.967312 4858.871035 2193.530738 4559.274702 C 2376.732607 5110.7029 2971.148825 5422.680285 3465.573903 5219.681302 C 3623.008099 5162.301094 3766.490043 5048.546246 3880.559131 4921.593321 C 4304.594468 5152.119721 4841.441934 5111.205684 5224.186147 4798.91406 C 5838.08524 5493.824201 6957.847743 5465.542609 7535.169309 4728.901407 C 7604.113546 4675.85771 7623.784965 4520.623193 7724.404584 4555.943759 C 8190.673766 4592.458437 8629.792619 4121.978441 8592.39807 3590.850141 C 8577.12601 3043.821302 8075.410566 2624.625259 7604.553482 2736.934604 C 7507.453349 2782.247999 7470.247343 2620.414444 7390.493254 2579.626104 C 7164.680453 2356.07583 6865.021273 2234.213592 6583.902247 2172.811113 C 6498.177599 1218.904436 5766.1243 438.395342 4933.702772 314.521969 C 4818.628117 294.913398 4701.605173 286.428921 4584.959318 289.508472 Z M 4584.89647 289.445624 " transform="matrix(0.0621539,0,0,0.0621539,-4.867837,-17.259718)"/></g></g><mask id="f1724bcd00"><g filter="url(#79fcaecd90)"><rect x="0" width="739" height="799" y="0" style="fill:#000000;fill-opacity:0.15;stroke:none;"/></g></mask></g><g clip-rule="nonzero" clip-path="url(#697ca29dbf)"><g clip-rule="nonzero" clip-path="url(#d9bf635c8f)"><path style=" stroke:none;fill-rule:nonzero;fill:#eb8b56;fill-opacity:1;" d="M 129.621094 489.140625 L 129.621094 794.238281 L 652.164062 794.238281 L 652.164062 489.140625 Z M 129.621094 489.140625 "/></g></g><path style="fill:none;stroke-width:2.587;stroke-linecap:butt;stroke-linejoin:miter;stroke:#000000;stroke-opacity:1;stroke-miterlimit:4;" d="M 4626.776063 336.403769 C 3749.732469 336.403769 3008.817604 966.83188 2778.291204 1827.660696 C 2682.322335 1766.509609 2571.961278 1731.314739 2453.869919 1731.314739 C 2088.848837 1731.314739 1792.709143 2065.163221 1792.709143 2476.566114 C 1792.709143 2480.776929 1792.646295 2484.7992 1792.709143 2488.947167 C 1683.353654 2463.682278 1568.718934 2449.415786 1449.999095 2449.415786 C 726.493121 2449.415786 139.304422 2950.565598 139.304422 3567.732785 C 139.304422 4184.837125 726.493121 4685.986937 1449.999095 4685.986937 C 1736.585895 4685.986937 2001.364445 4606.798479 2217.184417 4473.560756 C 2346.085629 4908.154555 2709.724055 5222.080227 3138.472991 5222.080227 C 3429.019214 5222.080227 3689.524101 5077.906955 3867.635284 4849.894475 C 4040.467235 4951.771055 4243.654762 5010.47107 4460.920238 5010.47107 C 4756.557147 5010.47107 5026.363536 4902.058301 5228.796887 4723.88427 C 5501.619979 5043.026325 5902.841499 5245.145437 6350.319134 5245.145437 C 6899.29626 5245.145437 7379.140606 4940.70981 7636.94303 4489.209904 C 7675.720235 4495.620398 7715.565856 4499.077037 7756.039957 4499.077037 C 8192.770587 4499.077037 8546.54188 4111.996313 8546.54188 3634.414495 C 8546.54188 3156.895524 8192.770587 2768.934929 7756.039957 2768.934929 C 7677.857067 2768.934929 7602.313792 2782.070157 7530.981332 2805.198215 C 7295.678486 2492.529502 6943.792632 2275.766811 6541.69124 2222.974505 C 6459.486079 1166.81416 5633.412198 336.403769 4626.713215 336.403769 Z M 4626.776063 336.403769 " transform="matrix(0.0621539,0,0,0.0621539,120.962774,468.231804)"/><g clip-rule="nonzero" clip-path="url(#aaf3799d62)"><g clip-rule="nonzero" clip-path="url(#d05d7fddd9)"><path style=" stroke:none;fill-rule:nonzero;fill:#eb8b56;fill-opacity:1;" d="M 120.785156 486.035156 L 120.785156 798.214844 L 657.332031 798.214844 L 657.332031 486.035156 Z M 120.785156 486.035156 "/></g></g><g clip-rule="nonzero" clip-path="url(#e577c1d357)"><path style="fill:none;stroke-width:2.587;stroke-linecap:butt;stroke-linejoin:miter;stroke:#a3ced5;stroke-opacity:1;stroke-miterlimit:4;" d="M 4584.919307 289.456326 C 3783.230443 292.158789 2999.390406 895.750812 2750.323852 1757.773739 C 2387.690993 1550.501093 1900.619129 1790.266146 1782.967706 2226.305448 C 1763.673376 2292.421526 1751.040931 2361.74285 1747.898532 2431.378415 C 1178.998595 2318.440591 506.210943 2528.290004 201.209684 3113.216176 C -2.857715 3494.829126 96.316402 4012.445109 386.736928 4300.728805 C 857.719709 4805.586647 1628.990149 4858.881737 2193.553575 4559.285404 C 2376.755444 5110.713602 2971.171662 5422.690987 3465.533892 5219.692004 C 3623.030936 5162.311796 3766.51288 5048.4941 3880.581968 4921.604023 C 4304.617305 5152.130423 4841.464771 5111.153538 5224.146136 4798.924761 C 5838.108077 5493.834903 6957.87058 5465.553311 7535.129299 4728.912109 C 7604.073535 4675.868412 7623.807802 4520.633895 7724.364574 4555.954461 C 8190.696603 4592.469139 8629.752609 4121.989143 8592.358059 3590.860843 C 8577.085999 3043.769156 8075.370556 2624.635961 7604.576319 2736.882458 C 7507.476186 2782.258701 7470.270181 2620.425146 7390.516091 2579.636806 C 7164.70329 2356.086532 6865.04411 2234.224294 6583.862236 2172.821815 C 6498.200436 1218.85229 5766.084289 438.406044 4933.662762 314.532671 C 4818.650954 294.861252 4701.565163 286.439622 4584.919307 289.456326 Z M 4584.919307 289.456326 " transform="matrix(0.0621539,0,0,0.0621539,120.962774,468.231804)"/></g><g clip-rule="nonzero" clip-path="url(#992b7013c3)"><g mask="url(#5afaf8f3fa)" transform="matrix(1,0,0,1,318,-0.000000000000061395)"><g id="f1a185aae4" clip-path="url(#2b9e351d7c)"><g clip-rule="nonzero" clip-path="url(#e2d2b2e271)"><path style=" stroke:none;fill-rule:nonzero;fill:#eb8b56;fill-opacity:1;" d="M 99.800781 201.25 C 100.011719 200.285156 100.324219 199.488281 100.414062 198.671875 C 100.824219 195.019531 101.835938 191.511719 103.066406 188.085938 C 104.515625 184.054688 106.222656 180.121094 108.332031 176.382812 C 109.507812 174.300781 110.765625 172.269531 112.398438 170.484375 C 113.390625 169.402344 114.167969 168.109375 115.222656 167.097656 C 117.03125 165.359375 118.917969 163.683594 120.894531 162.140625 C 122.652344 160.773438 124.515625 159.519531 126.441406 158.398438 C 128.921875 156.953125 131.433594 155.570312 134.128906 154.488281 C 136.683594 153.460938 139.328125 152.796875 141.953125 152.0625 C 143.914062 151.511719 145.996094 151.414062 148.015625 151.0625 C 151.90625 150.386719 155.820312 150.796875 159.71875 150.816406 C 161.417969 150.824219 163.171875 151.144531 164.859375 151.671875 C 166.59375 152.214844 168.414062 152.46875 170.164062 152.976562 C 175.496094 154.519531 180.308594 157.074219 184.773438 160.390625 C 187.207031 162.195312 189.367188 164.265625 191.371094 166.480469 C 194.007812 169.386719 196.070312 172.71875 197.640625 176.332031 C 197.679688 176.421875 197.703125 176.523438 197.765625 176.59375 C 197.972656 176.824219 198.191406 177.042969 198.40625 177.265625 C 198.414062 176.945312 198.480469 176.617188 198.417969 176.316406 C 197.996094 174.25 197.492188 172.210938 196.785156 170.210938 C 195.859375 167.585938 194.914062 164.988281 193.550781 162.550781 C 193.386719 162.257812 193.425781 161.847656 193.371094 161.488281 C 193.664062 161.671875 194.015625 161.796875 194.238281 162.042969 C 196.910156 165.015625 198.96875 168.386719 200.738281 171.964844 C 201.996094 174.511719 203.042969 177.132812 203.804688 179.84375 C 204.367188 181.851562 204.75 183.90625 204.96875 186.015625 C 205.257812 188.773438 205.152344 191.511719 205.195312 194.257812 C 205.210938 195.160156 205.003906 196.0625 204.898438 196.964844 C 204.855469 197.363281 204.992188 197.566406 205.421875 197.414062 C 207.449219 196.703125 209.546875 196.507812 211.675781 196.515625 C 212.941406 196.519531 214.203125 196.527344 215.464844 196.515625 C 218.554688 196.480469 221.539062 197.144531 224.488281 197.96875 C 225.992188 198.386719 227.5625 198.710938 228.9375 199.402344 C 230.511719 200.191406 232.074219 201.039062 233.496094 202.160156 C 235.285156 203.574219 236.804688 205.175781 238.007812 207.078125 C 239.527344 209.476562 240.6875 212.066406 241.472656 214.789062 C 241.792969 215.894531 241.75 217.109375 241.816406 218.277344 C 241.878906 219.417969 242.132812 219.777344 243.1875 219.535156 C 246.492188 218.773438 249.84375 218.941406 253.1875 218.925781 C 256.320312 218.910156 259.320312 219.574219 262.328125 220.457031 C 265.199219 221.300781 268.003906 222.261719 270.617188 223.6875 C 272.71875 224.832031 274.792969 226.085938 276.46875 227.851562 C 277.824219 229.277344 279.246094 230.660156 280.464844 232.199219 C 282.027344 234.167969 283.136719 236.433594 283.769531 238.863281 C 284.148438 240.3125 284.457031 241.847656 284.382812 243.324219 C 284.230469 246.347656 283.738281 249.320312 282.613281 252.199219 C 281.492188 255.0625 279.878906 257.515625 277.671875 259.625 C 276.902344 260.363281 276.894531 260.503906 277.691406 261.246094 C 280.132812 263.519531 281.0625 266.527344 281.917969 269.601562 C 282.636719 272.164062 282.804688 274.8125 282.464844 277.378906 C 282.082031 280.269531 281.390625 283.160156 279.921875 285.773438 C 278.984375 287.445312 277.875 288.96875 276.582031 290.390625 C 273.246094 294.066406 269.070312 296.457031 264.648438 298.546875 C 261.972656 299.8125 259.167969 300.6875 256.308594 301.230469 C 254.234375 301.625 252.101562 301.871094 249.960938 302.015625 C 247.894531 302.15625 245.835938 302.1875 243.773438 302.238281 C 241.835938 302.289062 239.933594 301.984375 238.035156 301.625 C 237.09375 301.449219 236.125 301.414062 235.171875 301.292969 C 233.574219 301.09375 231.949219 301.007812 230.390625 300.636719 C 227.722656 300.007812 225.089844 299.238281 222.46875 298.441406 C 221.078125 298.015625 219.742188 297.40625 218.382812 296.878906 C 218.222656 296.816406 218.070312 296.722656 217.914062 296.644531 C 217.976562 296.863281 217.96875 297.171875 218.109375 297.28125 C 218.703125 297.726562 219.328125 298.128906 219.960938 298.519531 C 223.992188 301.019531 228.042969 303.488281 232.632812 304.871094 C 233.484375 305.125 234.386719 305.203125 235.25 305.417969 C 235.464844 305.46875 235.628906 305.722656 235.816406 305.886719 C 235.625 305.9375 235.4375 306.019531 235.246094 306.027344 C 231.519531 306.214844 227.929688 305.546875 224.347656 304.546875 C 221.800781 303.832031 219.3125 303.015625 216.902344 301.929688 C 212.746094 300.0625 209.375 297.160156 206.414062 293.773438 C 205.753906 293.015625 205.375 292.007812 204.90625 291.09375 C 204.152344 289.636719 203.910156 289.609375 202.628906 290.773438 C 201.957031 291.378906 201.238281 291.953125 200.484375 292.453125 C 198.144531 293.992188 195.535156 294.964844 192.925781 295.910156 C 191.132812 296.554688 189.269531 296.984375 187.433594 297.511719 C 185.753906 297.988281 184.042969 298.25 182.308594 298.503906 C 178.929688 299 175.550781 298.722656 172.175781 298.734375 C 170.140625 298.742188 168.105469 298.316406 166.144531 297.71875 C 164.699219 297.277344 163.253906 296.820312 161.871094 296.222656 C 160.933594 295.8125 160.070312 295.203125 159.242188 294.585938 C 158.835938 294.277344 158.648438 294.351562 158.351562 294.65625 C 157.582031 295.449219 156.785156 296.214844 156.015625 297.007812 C 153.425781 299.664062 150.195312 301.296875 146.78125 302.527344 C 144.164062 303.472656 141.441406 304.050781 138.613281 304.203125 C 137.511719 304.257812 136.394531 304.441406 135.269531 304.453125 C 132.730469 304.480469 130.230469 304.027344 127.78125 303.46875 C 124.640625 302.757812 121.679688 301.488281 118.792969 300.046875 C 116.527344 298.917969 114.417969 297.605469 112.691406 295.730469 C 112.300781 295.304688 111.882812 294.902344 111.464844 294.5 C 110.75 293.816406 110.769531 293.832031 110.210938 294.769531 C 109.503906 295.953125 108.804688 297.144531 108.015625 298.273438 C 106.609375 300.285156 105 302.082031 103.0625 303.644531 C 101.484375 304.914062 99.949219 306.226562 98.296875 307.414062 C 96.289062 308.855469 94.113281 309.972656 91.925781 311.089844 C 91.445312 311.335938 90.921875 311.59375 90.566406 311.980469 C 88.625 314.09375 86.03125 315.203125 83.542969 316.378906 C 81.222656 317.472656 78.6875 318.113281 76.269531 319.003906 C 74.703125 319.582031 73.085938 319.832031 71.441406 319.910156 C 68.488281 320.046875 65.511719 319.957031 62.585938 320.300781 C 60.878906 320.5 59.183594 320.617188 57.503906 320.507812 C 55.566406 320.382812 53.644531 319.960938 51.71875 319.648438 C 49.75 319.328125 47.773438 319.050781 45.824219 318.636719 C 44.292969 318.3125 42.78125 317.875 41.296875 317.378906 C 38.945312 316.589844 36.644531 315.65625 34.285156 314.882812 C 32.179688 314.195312 30.261719 313.1875 28.324219 312.117188 C 25.988281 310.824219 23.761719 309.382812 21.5625 307.898438 C 19.730469 306.660156 18.015625 305.226562 16.320312 303.792969 C 14.820312 302.523438 13.414062 301.136719 11.976562 299.789062 C 9.140625 297.136719 6.75 294.09375 4.886719 290.726562 C 3.125 287.546875 1.785156 284.128906 0.257812 280.816406 C 0.21875 280.730469 0.0703125 280.648438 0.0820312 280.582031 C 0.160156 280.121094 0.265625 279.664062 0.363281 279.207031 C 0.582031 279.554688 0.902344 279.875 0.996094 280.257812 C 1.332031 281.613281 2.433594 282.425781 3.234375 283.425781 C 5.121094 285.777344 7.066406 288.097656 9.148438 290.277344 C 10.476562 291.671875 12.066406 292.820312 13.574219 294.03125 C 15.265625 295.386719 16.992188 296.691406 18.714844 298.003906 C 20.710938 299.527344 22.710938 301.046875 24.714844 302.558594 C 26.382812 303.8125 28.15625 304.910156 29.863281 306.09375 C 32.574219 307.972656 35.554688 309.125 38.625 310.117188 C 41.785156 311.136719 44.988281 312.042969 48.1875 312.9375 C 49 313.167969 49.875 313.1875 50.726562 313.28125 C 50.863281 313.296875 51.007812 313.214844 51.152344 313.179688 C 51.035156 313.03125 50.945312 312.820312 50.792969 312.746094 C 50.53125 312.625 50.222656 312.605469 49.945312 312.507812 C 47.792969 311.730469 45.691406 310.78125 43.484375 310.21875 C 41.464844 309.699219 39.613281 308.910156 37.789062 307.945312 C 33.867188 305.875 30.03125 303.667969 26.457031 301.023438 C 23.769531 299.035156 21.019531 297.136719 18.625 294.777344 C 17.335938 293.507812 15.949219 292.335938 14.640625 291.082031 C 12.542969 289.070312 10.9375 286.65625 9.238281 284.324219 C 8.25 282.972656 7.371094 281.53125 6.503906 280.09375 C 6.027344 279.304688 5.597656 278.472656 5.277344 277.609375 C 4.308594 275.007812 3.359375 272.402344 2.492188 269.769531 C 2.007812 268.304688 1.746094 266.792969 1.589844 265.230469 C 1.382812 263.113281 1.585938 260.964844 1.265625 258.898438 C 0.933594 256.765625 0.902344 254.636719 1.082031 252.554688 C 1.3125 249.902344 1.71875 247.265625 2.488281 244.644531 C 3.921875 239.773438 6.273438 235.425781 9.0625 231.273438 C 9.609375 230.457031 10.5 229.882812 11.152344 229.128906 C 14.484375 225.277344 18.601562 222.375 22.859375 219.710938 C 26.296875 217.5625 30.019531 215.9375 34.050781 215.121094 C 36.636719 214.601562 39.210938 214.125 41.867188 214.171875 C 42.503906 214.179688 43.222656 214.488281 43.796875 213.886719 C 43.875 213.804688 44.136719 213.816406 44.253906 213.882812 C 45.277344 214.464844 46.382812 214.117188 47.445312 214.183594 C 51.6875 214.4375 55.796875 215.230469 59.746094 216.871094 C 62.015625 217.808594 64.175781 218.925781 66.242188 220.238281 C 67.007812 220.726562 67.417969 220.554688 67.609375 219.652344 C 68.4375 215.695312 70.3125 212.308594 73.476562 209.792969 C 75.984375 207.792969 78.859375 206.4375 82.007812 205.648438 C 84.585938 205.003906 87.171875 204.546875 89.824219 204.734375 C 92.753906 204.941406 95.632812 205.429688 98.351562 206.617188 C 99.164062 206.972656 99.421875 206.851562 99.484375 206.023438 C 99.597656 204.488281 99.695312 202.945312 99.800781 201.25 M 60.824219 225.867188 C 60.542969 225.65625 60.28125 225.402344 59.972656 225.242188 C 57.09375 223.753906 54.128906 222.503906 50.871094 222.070312 C 48.941406 221.8125 47.039062 221.324219 45.105469 221.175781 C 43.585938 221.058594 42.042969 221.207031 40.496094 221.375 C 38.34375 221.609375 36.222656 221.953125 34.113281 222.402344 C 31.710938 222.914062 29.480469 223.953125 27.324219 225.046875 C 25.132812 226.15625 23.070312 227.570312 21.105469 229.058594 C 19.679688 230.140625 18.273438 231.289062 17.375 232.972656 C 16.402344 234.792969 15.230469 236.519531 14.046875 238.21875 C 12.46875 240.496094 11.320312 242.976562 10.511719 245.59375 C 9.53125 248.757812 8.832031 252 8.917969 255.347656 C 8.972656 257.511719 8.796875 259.757812 9.300781 261.824219 C 9.988281 264.640625 11.117188 267.375 12.261719 270.050781 C 13.757812 273.554688 15.894531 276.71875 18.183594 279.738281 C 19.90625 282.011719 21.542969 284.390625 23.722656 286.292969 C 25.582031 287.917969 27.410156 289.574219 29.269531 291.199219 C 30.691406 292.441406 32.164062 293.628906 33.574219 294.890625 C 35.738281 296.824219 38.167969 298.316406 40.777344 299.59375 C 44.714844 301.527344 48.664062 303.421875 52.875 304.679688 C 54.984375 305.3125 57.078125 306.027344 59.28125 306.378906 C 60.613281 306.59375 61.960938 306.789062 63.269531 307.054688 C 64.714844 307.339844 66.171875 307.332031 67.609375 307.546875 C 68.890625 307.742188 70.246094 307.523438 71.582031 307.375 C 73.78125 307.121094 75.964844 306.835938 78.121094 306.34375 C 80.328125 305.835938 82.535156 305.335938 84.726562 304.761719 C 88.441406 303.785156 91.722656 301.941406 94.726562 299.578125 C 95.925781 298.640625 97 297.507812 98.285156 296.71875 C 99.789062 295.796875 100.71875 294.40625 101.667969 293.0625 C 103.984375 289.785156 104.957031 286.019531 105.152344 282.054688 C 105.246094 280.089844 107.261719 278.574219 108.910156 278.648438 C 110.367188 278.710938 111.765625 279.4375 112.429688 280.996094 C 113.261719 282.964844 113.976562 285 114.992188 286.871094 C 115.773438 288.308594 116.734375 289.789062 117.980469 290.808594 C 119.785156 292.28125 121.867188 293.414062 124.113281 294.234375 C 127.636719 295.519531 131.140625 296.804688 134.980469 296.5625 C 136.726562 296.457031 138.523438 296.582031 140.207031 296.199219 C 143.644531 295.417969 146.976562 294.191406 149.832031 292.066406 C 151.140625 291.09375 152.226562 289.871094 152.597656 288.015625 C 152.875 286.617188 152.699219 285.21875 153.058594 283.820312 C 153.378906 282.589844 153.992188 281.609375 154.914062 281.15625 C 157.394531 279.945312 160.015625 281.582031 160.433594 283.59375 C 160.96875 286.164062 162.464844 288.054688 165.007812 289.035156 C 167.617188 290.042969 170.238281 290.960938 173.082031 290.875 C 175.980469 290.785156 178.902344 291.191406 181.785156 290.566406 C 183.089844 290.285156 184.417969 290.089844 185.695312 289.710938 C 189.101562 288.699219 192.5 287.636719 195.722656 286.117188 C 196.707031 285.65625 197.613281 284.988281 198.332031 284.070312 C 199.242188 282.917969 199.765625 281.617188 200.160156 280.246094 C 200.835938 277.867188 203.566406 275.988281 206.148438 277.832031 C 207.410156 278.734375 208.511719 279.925781 209.476562 281.148438 C 210.996094 283.074219 212.445312 285.058594 214.515625 286.429688 C 216.359375 287.652344 218.183594 288.984375 220.199219 289.847656 C 222.964844 291.03125 225.867188 291.945312 228.777344 292.734375 C 231.074219 293.359375 233.464844 293.636719 235.820312 294.03125 C 236.765625 294.1875 237.757812 294.144531 238.679688 294.375 C 240.46875 294.832031 242.300781 294.839844 244.105469 294.949219 C 246.921875 295.113281 249.722656 294.683594 252.527344 294.394531 C 255.316406 294.105469 257.941406 293.273438 260.476562 292.222656 C 264.519531 290.546875 268.1875 288.285156 271.246094 285.035156 C 273.691406 282.433594 274.765625 279.300781 275.222656 275.953125 C 275.5625 273.453125 275.03125 270.996094 274.09375 268.5625 C 273.351562 266.640625 272.066406 265.6875 270.351562 265.011719 C 269.953125 264.855469 269.507812 264.75 269.082031 264.75 C 268.644531 264.75 268.210938 264.980469 267.773438 264.988281 C 266.046875 265.027344 264.226562 263.808594 263.917969 262.453125 C 263.492188 260.570312 264.199219 258.566406 265.761719 257.765625 C 267.53125 256.855469 269.210938 255.882812 270.796875 254.644531 C 272.167969 253.574219 273.222656 252.265625 273.941406 250.847656 C 274.785156 249.179688 275.367188 247.34375 275.679688 245.398438 C 275.984375 243.476562 275.835938 241.738281 275.3125 239.929688 C 274.683594 237.765625 273.320312 236.046875 271.921875 234.398438 C 270.183594 232.351562 267.914062 230.894531 265.535156 229.671875 C 262.84375 228.289062 259.984375 227.246094 257.054688 226.550781 C 254.617188 225.96875 252.125 225.515625 249.570312 225.523438 C 247.167969 225.53125 244.863281 225.988281 242.542969 226.484375 C 240.953125 226.820312 239.691406 227.414062 238.953125 229.015625 C 238.25 230.546875 235.859375 231.445312 234.359375 230.84375 C 232.917969 230.265625 231.457031 228.25 231.738281 226.773438 C 231.882812 226.003906 232.078125 225.230469 232.371094 224.511719 C 233.09375 222.75 233.609375 220.980469 233.65625 219.035156 C 233.699219 217.222656 233.234375 215.550781 232.652344 213.910156 C 231.914062 211.839844 230.734375 209.949219 229.195312 208.421875 C 227.691406 206.933594 225.746094 205.988281 223.703125 205.359375 C 221.910156 204.808594 220.140625 204.191406 218.230469 204.066406 C 216.839844 203.976562 215.464844 203.601562 214.070312 203.488281 C 213.339844 203.429688 212.578125 203.777344 211.839844 203.753906 C 209.992188 203.695312 208.191406 203.957031 206.417969 204.414062 C 203.371094 205.203125 200.375 206.148438 198.269531 208.703125 C 197.804688 209.269531 197.203125 209.480469 196.609375 209.671875 C 194.585938 210.328125 191.960938 208.414062 191.976562 206.289062 C 191.984375 205.226562 192 204.109375 192.328125 203.125 C 192.589844 202.347656 192.421875 201.59375 192.609375 200.871094 C 193.238281 198.460938 193.449219 196 193.527344 193.527344 C 193.613281 190.777344 193.179688 188.089844 192.644531 185.390625 C 192.171875 183 191.40625 180.761719 190.382812 178.582031 C 189.195312 176.050781 187.625 173.792969 185.890625 171.589844 C 184.019531 169.214844 181.773438 167.3125 179.359375 165.617188 C 175.949219 163.21875 172.257812 161.332031 168.269531 160.023438 C 164.0625 158.640625 159.816406 157.601562 155.347656 157.691406 C 153.613281 157.722656 151.875 157.65625 150.140625 157.707031 C 148.921875 157.746094 147.6875 157.8125 146.488281 158.035156 C 144.648438 158.371094 142.820312 158.792969 141.015625 159.289062 C 138.667969 159.933594 136.292969 160.515625 134.128906 161.707031 C 132.675781 162.507812 131.167969 163.207031 129.71875 164.015625 C 126.128906 166.015625 123.066406 168.730469 120.027344 171.445312 C 119.0625 172.308594 118.390625 173.496094 117.546875 174.503906 C 114.824219 177.742188 112.765625 181.410156 111.25 185.308594 C 109.929688 188.710938 108.628906 192.132812 107.871094 195.761719 C 107.367188 198.183594 106.699219 200.609375 106.503906 203.042969 C 106.226562 206.523438 106.246094 210.050781 107.054688 213.507812 C 107.203125 214.140625 107.332031 214.785156 107.367188 215.429688 C 107.46875 217.367188 106.234375 218.292969 104.648438 218.988281 C 103.222656 219.613281 102.140625 218.917969 101.105469 218.152344 C 100.203125 217.480469 99.367188 216.707031 98.554688 215.929688 C 96.011719 213.496094 92.878906 212.566406 89.480469 212.296875 C 87.175781 212.117188 84.953125 212.695312 82.789062 213.296875 C 81.058594 213.78125 79.433594 214.664062 78.027344 215.894531 C 76.566406 217.175781 75.710938 218.761719 75.257812 220.597656 C 74.761719 222.59375 74.488281 224.664062 75.242188 226.59375 C 75.6875 227.738281 75.816406 228.824219 75.8125 229.984375 C 75.808594 232.742188 72.863281 234.507812 70.265625 233.484375 C 69.070312 233.011719 68.515625 232.074219 67.746094 231.234375 C 65.816406 229.121094 63.511719 227.445312 60.824219 225.867188 Z M 60.824219 225.867188 "/></g><g clip-rule="nonzero" clip-path="url(#a6c287f746)"><path style=" stroke:none;fill-rule:nonzero;fill:#eb8b56;fill-opacity:1;" d="M 355.523438 119.269531 C 352.722656 121.785156 349.609375 123.519531 346.234375 124.917969 C 343.292969 126.140625 340.246094 126.773438 337.175781 127.453125 C 336.300781 127.644531 335.464844 127.632812 334.613281 127.714844 C 333.496094 127.816406 332.371094 128.082031 331.273438 127.996094 C 329.097656 127.824219 326.914062 127.746094 324.742188 127.457031 C 323.382812 127.273438 322.09375 127.070312 320.882812 126.445312 C 320.703125 126.351562 320.570312 126.175781 320.414062 126.039062 C 320.582031 125.964844 320.75 125.832031 320.917969 125.828125 C 321.96875 125.808594 323.019531 125.820312 324.074219 125.820312 C 326.960938 125.824219 329.738281 125.144531 332.558594 124.617188 C 336.164062 123.941406 339.308594 122.351562 342.367188 120.464844 C 342.816406 120.1875 343.355469 120.054688 343.832031 119.8125 C 344.039062 119.707031 344.195312 119.492188 344.375 119.328125 C 344.09375 119.3125 343.78125 119.214844 343.527344 119.292969 C 342.691406 119.550781 341.851562 119.816406 341.058594 120.179688 C 338.214844 121.480469 335.15625 121.972656 332.148438 122.679688 C 330.039062 123.175781 327.910156 123.429688 325.761719 123.6875 C 324.054688 123.890625 322.359375 123.980469 320.679688 123.882812 C 319.03125 123.785156 317.371094 123.636719 315.722656 123.351562 C 314.296875 123.109375 312.824219 123.070312 311.421875 122.65625 C 309.878906 122.203125 308.300781 121.8125 306.820312 121.1875 C 304.40625 120.167969 301.972656 119.128906 299.699219 117.832031 C 296.992188 116.285156 294.226562 114.78125 291.90625 112.628906 C 290.964844 111.753906 289.945312 110.957031 289.046875 110.042969 C 288.523438 109.515625 288.238281 109.773438 287.9375 110.171875 C 285.574219 113.28125 282.773438 115.722656 278.964844 117.035156 C 276.328125 117.949219 273.707031 118.613281 270.925781 118.550781 C 268.96875 118.503906 266.992188 118.484375 265.066406 118.199219 C 263.636719 117.988281 262.261719 117.386719 260.875 116.917969 C 260.652344 116.84375 260.46875 116.582031 260.320312 116.367188 C 260.222656 116.226562 260.21875 116.015625 260.171875 115.835938 C 260.367188 115.796875 260.582031 115.683594 260.753906 115.730469 C 262.472656 116.222656 264.242188 116.480469 266.015625 116.332031 C 268.941406 116.085938 271.84375 115.625 274.667969 114.769531 C 274.804688 114.726562 274.933594 114.628906 275.042969 114.53125 C 275.234375 114.363281 275.414062 114.179688 275.597656 114 C 275.359375 113.941406 275.078125 113.769531 274.894531 113.84375 C 273.035156 114.609375 271.085938 114.410156 269.15625 114.464844 C 266.457031 114.542969 263.84375 114.160156 261.316406 113.199219 C 259.054688 112.339844 256.949219 111.195312 255.003906 109.777344 C 254.011719 109.054688 253.109375 108.195312 252.234375 107.328125 C 251.667969 106.761719 251.238281 106.699219 250.691406 107.3125 C 250.242188 107.824219 249.726562 108.28125 249.25 108.769531 C 246.996094 111.105469 244.421875 112.980469 241.371094 114.128906 C 240.050781 114.628906 238.695312 115.058594 237.320312 115.390625 C 234.558594 116.054688 231.710938 116.320312 228.914062 115.992188 C 223.914062 115.402344 219.015625 114.265625 214.664062 111.585938 C 213.054688 110.597656 211.621094 109.351562 210.359375 107.859375 C 209.179688 106.460938 208.25 104.980469 207.398438 103.386719 C 206.65625 101.992188 206.375 100.484375 206.210938 99 C 205.933594 96.484375 205.9375 93.9375 205.851562 91.40625 C 205.8125 90.191406 205.480469 89.429688 204.390625 89.253906 C 203.003906 89.027344 201.984375 88.164062 201.085938 87.359375 C 197.601562 84.238281 194.640625 80.660156 192.816406 76.296875 C 192.347656 75.175781 192.152344 73.917969 191.988281 72.703125 C 191.855469 71.722656 191.96875 70.707031 191.957031 69.707031 C 191.929688 67.378906 192.566406 65.171875 193.386719 63.039062 C 194.699219 59.617188 196.90625 56.753906 199.753906 54.507812 C 201.621094 53.035156 203.597656 51.605469 206.011719 50.976562 C 206.886719 50.746094 207.632812 50.027344 208.507812 49.789062 C 210.539062 49.230469 212.585938 48.683594 214.734375 48.804688 C 215.414062 48.84375 216.101562 48.816406 216.785156 48.808594 C 218.015625 48.800781 217.949219 48.8125 217.644531 47.488281 C 217.320312 46.085938 216.914062 44.644531 216.9375 43.222656 C 216.988281 39.761719 217.886719 36.566406 219.636719 33.460938 C 221.117188 30.832031 223.074219 28.742188 225.230469 26.824219 C 227.285156 25 229.789062 23.75 232.308594 22.625 C 235.167969 21.347656 238.097656 20.277344 241.21875 19.746094 C 242.761719 19.484375 244.28125 19.171875 245.851562 19.128906 C 247.335938 19.089844 248.820312 18.804688 250.296875 18.855469 C 254.445312 18.996094 258.472656 19.753906 262.304688 21.457031 C 265.703125 22.96875 268.855469 24.867188 271.777344 27.160156 C 273.640625 28.617188 275.523438 30.054688 277.386719 31.515625 C 277.816406 31.855469 277.957031 31.945312 278.148438 31.257812 C 278.84375 28.765625 280.328125 26.734375 282.039062 24.820312 C 283.824219 22.824219 285.972656 21.347656 288.328125 20.167969 C 289.875 19.394531 291.574219 19.046875 293.292969 18.824219 C 293.988281 18.738281 294.675781 18.597656 295.375 18.519531 C 296.148438 18.429688 296.886719 18.535156 297.496094 19.101562 C 297.621094 19.214844 297.816406 19.253906 297.976562 19.328125 C 297.773438 19.476562 297.59375 19.707031 297.367188 19.757812 C 296.832031 19.882812 296.261719 19.871094 295.730469 20.007812 C 293.660156 20.539062 292.023438 21.84375 290.414062 23.140625 C 289.433594 23.929688 288.601562 24.898438 287.726562 25.808594 C 287.492188 26.050781 287.316406 26.367188 287.171875 26.679688 C 287.085938 26.867188 287.113281 27.105469 287.089844 27.324219 C 287.269531 27.265625 287.492188 27.261719 287.621094 27.144531 C 289.828125 25.195312 292.453125 24.167969 295.289062 23.554688 C 297.445312 23.09375 299.617188 22.804688 301.8125 22.945312 C 305.210938 23.160156 308.457031 23.871094 311.300781 25.941406 C 312.933594 27.125 314.753906 28.050781 316.394531 29.222656 C 317.152344 29.765625 317.308594 29.496094 317.582031 28.855469 C 317.964844 27.960938 318.578125 27.136719 318.796875 26.210938 C 319.1875 24.578125 320.222656 23.308594 321.011719 21.917969 C 322.035156 20.113281 323.296875 18.433594 324.527344 16.75 C 325.363281 15.601562 326.265625 14.492188 327.234375 13.453125 C 328.519531 12.066406 329.863281 10.726562 331.242188 9.433594 C 333.042969 7.75 335.082031 6.378906 337.160156 5.070312 C 339.492188 3.609375 342 2.539062 344.617188 1.742188 C 345.886719 1.355469 347.199219 1.101562 348.507812 0.847656 C 351.230469 0.3125 353.996094 0.425781 356.734375 0.554688 C 362.121094 0.804688 367.367188 1.761719 372.074219 4.632812 C 373.523438 5.515625 374.992188 6.359375 376.226562 7.5625 C 378.390625 9.671875 380.589844 11.742188 382.785156 13.816406 C 384.859375 15.773438 386.332031 18.160156 387.6875 20.625 C 388.679688 22.417969 389.699219 24.203125 390.574219 26.054688 C 391.800781 28.648438 392.964844 31.269531 394.023438 33.933594 C 394.550781 35.261719 394.945312 36.664062 394.910156 38.148438 C 394.878906 39.253906 395 39.316406 396.1875 39.34375 C 398.613281 39.40625 401.042969 39.625 403.355469 40.335938 C 404.824219 40.789062 406.195312 41.613281 407.542969 42.390625 C 409.449219 43.488281 411.128906 44.902344 412.617188 46.511719 C 414.6875 48.75 416.320312 51.222656 417.371094 54.167969 C 418.277344 56.714844 418.671875 59.316406 419.242188 61.914062 C 419.8125 64.511719 419.910156 67.101562 419.800781 69.710938 C 419.695312 72.242188 419.191406 74.707031 418.007812 77.003906 C 417.386719 78.210938 416.949219 79.511719 416.347656 80.730469 C 415.160156 83.144531 413.617188 85.339844 411.609375 87.113281 C 409.898438 88.625 408.082031 90.039062 406.027344 91.121094 C 404.214844 92.078125 402.417969 93.015625 400.453125 93.667969 C 398.960938 94.164062 397.488281 94.304688 395.96875 94.246094 C 395.089844 94.210938 394.546875 94.375 394.003906 95.242188 C 392.128906 98.226562 389.214844 99.71875 385.863281 100.605469 C 383.589844 101.207031 381.300781 101.367188 379.019531 101.15625 C 376.378906 100.910156 373.800781 100.253906 371.488281 98.804688 C 370.492188 98.183594 370.058594 98.40625 369.644531 99.480469 C 368.191406 103.269531 366.316406 106.855469 364.25 110.332031 C 363.554688 111.5 362.535156 112.488281 361.597656 113.496094 C 360.484375 114.6875 359.320312 115.828125 358.140625 116.957031 C 357.324219 117.734375 356.449219 118.449219 355.523438 119.269531 M 314.414062 35.714844 C 312.777344 34.601562 311.128906 33.5 309.5 32.371094 C 306.566406 30.332031 303.402344 29.015625 299.75 29.25 C 298.84375 29.308594 297.929688 29.390625 297.042969 29.574219 C 295.210938 29.953125 293.417969 30.609375 291.953125 31.726562 C 288.710938 34.191406 287.25 37.738281 286.671875 41.652344 C 286.480469 42.941406 285.613281 43.503906 284.679688 43.933594 C 283.773438 44.351562 282.800781 44.140625 282.019531 43.402344 C 280.058594 41.542969 278.101562 39.675781 276.125 37.828125 C 275.222656 36.988281 274.335938 36.113281 273.347656 35.382812 C 270.859375 33.554688 268.347656 31.753906 265.78125 30.035156 C 264.402344 29.109375 262.933594 28.296875 261.433594 27.585938 C 260.164062 26.984375 258.8125 26.535156 257.46875 26.125 C 254.871094 25.324219 252.230469 24.707031 249.484375 24.832031 C 248.210938 24.890625 246.945312 25.097656 245.671875 25.125 C 244.398438 25.152344 243.1875 25.421875 241.988281 25.777344 C 240.023438 26.355469 237.996094 26.703125 236.140625 27.652344 C 232.828125 29.347656 229.511719 31.007812 227.121094 34.003906 C 225.0625 36.585938 222.753906 40.554688 223.496094 44.71875 C 223.828125 46.59375 224.140625 48.402344 225.394531 49.941406 C 225.9375 50.613281 226.277344 51.460938 226.671875 52.246094 C 227.199219 53.292969 226.984375 54.214844 226.230469 55.117188 C 225.253906 56.292969 223.511719 56.265625 222.46875 55.808594 C 220.78125 55.066406 219 54.628906 217.175781 54.507812 C 213.640625 54.277344 210.386719 55.171875 207.300781 56.941406 C 204.601562 58.492188 202.496094 60.535156 201.117188 63.3125 C 200.285156 64.996094 199.910156 66.816406 199.464844 68.632812 C 199.054688 70.289062 199.535156 71.640625 199.984375 73.09375 C 200.300781 74.128906 201.046875 74.871094 201.628906 75.734375 C 203.5 78.5 205.910156 80.730469 208.480469 82.777344 C 209.554688 83.632812 210.742188 84.589844 212.332031 84.503906 C 212.652344 84.488281 212.976562 84.710938 213.308594 84.789062 C 215.054688 85.183594 216.210938 87.167969 215.292969 88.386719 C 214.230469 89.800781 212.878906 90.859375 210.945312 90.789062 C 210.421875 90.769531 209.886719 90.730469 209.375 90.808594 C 209.074219 90.855469 208.667969 90.8125 208.902344 91.550781 C 209.414062 93.144531 209.480469 94.878906 209.984375 96.472656 C 210.5625 98.292969 211.3125 100.097656 212.652344 101.515625 C 215.191406 104.207031 218.320312 106.03125 221.8125 107.175781 C 223.8125 107.832031 225.878906 108.324219 227.941406 108.746094 C 229.027344 108.972656 230.179688 108.9375 231.28125 109.007812 C 232.960938 109.117188 234.714844 108.820312 236.367188 108.417969 C 237.914062 108.042969 239.464844 107.472656 240.84375 106.6875 C 242.144531 105.941406 243.304688 104.878906 244.382812 103.816406 C 246.085938 102.140625 247.640625 100.316406 249.320312 98.617188 C 250.984375 96.9375 253.746094 97.371094 254.792969 99.519531 C 255.941406 101.878906 257.527344 103.746094 259.777344 105.148438 C 262.753906 107.003906 265.933594 108.015625 269.425781 108.152344 C 271.777344 108.242188 274.027344 107.847656 276.300781 107.234375 C 279.566406 106.355469 282.609375 105.117188 285.296875 103.035156 C 286.921875 101.777344 289.285156 101.691406 290.460938 103.273438 C 290.980469 103.96875 291.546875 104.628906 292.132812 105.265625 C 294.683594 108.039062 297.835938 109.992188 301.132812 111.722656 C 303.328125 112.878906 305.566406 113.964844 307.839844 114.953125 C 309.773438 115.789062 311.789062 116.367188 313.902344 116.730469 C 316.03125 117.097656 318.125 117.601562 320.304688 117.621094 C 323.921875 117.65625 327.488281 117.375 330.988281 116.363281 C 332.921875 115.808594 334.925781 115.480469 336.847656 114.882812 C 340.390625 113.78125 343.820312 112.363281 346.953125 110.34375 C 350.019531 108.367188 353.136719 106.515625 355.523438 103.585938 C 357.492188 101.167969 358.984375 98.527344 360.367188 95.789062 C 360.691406 95.140625 361.003906 94.441406 361.097656 93.734375 C 361.292969 92.265625 361.371094 90.777344 361.433594 89.292969 C 361.5 87.648438 362.644531 86.117188 364.355469 85.503906 C 365.371094 85.144531 367.53125 85.863281 368.210938 87.027344 C 369.320312 88.925781 370.828125 90.394531 372.574219 91.652344 C 376.183594 94.25 380.042969 95.230469 384.472656 93.859375 C 387.074219 93.054688 388.523438 91.476562 389.222656 88.976562 C 389.378906 88.417969 389.585938 87.859375 389.855469 87.347656 C 390.5 86.136719 392.199219 85.390625 393.273438 85.875 C 394.175781 86.277344 395.097656 86.671875 395.558594 87.703125 C 395.679688 87.976562 396.183594 88.214844 396.519531 88.230469 C 397.058594 88.261719 397.609375 88.113281 398.148438 88.003906 C 400.023438 87.628906 401.523438 86.460938 403.109375 85.519531 C 404.523438 84.675781 405.8125 83.597656 407.078125 82.53125 C 409.703125 80.308594 411.246094 77.308594 412.5 74.214844 C 413.183594 72.53125 413.554688 70.710938 413.566406 68.796875 C 413.582031 65.921875 413.167969 63.125 412.539062 60.359375 C 412.019531 58.085938 411.347656 55.851562 410.074219 53.808594 C 408.421875 51.15625 406.246094 49.042969 403.675781 47.390625 C 400.746094 45.507812 397.339844 45.234375 393.96875 45.417969 C 393.035156 45.46875 392.054688 45.566406 391.097656 45.652344 C 390.332031 45.726562 389.765625 45.347656 389.207031 44.875 C 387.765625 43.65625 388.03125 41.910156 388.375 40.554688 C 388.71875 39.191406 388.34375 38.023438 388.097656 36.898438 C 387.667969 34.972656 386.863281 33.105469 386.03125 31.300781 C 384.824219 28.695312 383.480469 26.148438 382.140625 23.605469 C 381.0625 21.5625 379.832031 19.601562 378.125 18.015625 C 376.015625 16.042969 373.910156 14.0625 371.679688 12.230469 C 370.230469 11.042969 368.683594 9.835938 366.976562 9.140625 C 363.265625 7.625 359.363281 6.730469 355.308594 6.84375 C 353.457031 6.894531 351.554688 6.804688 349.773438 7.207031 C 347.121094 7.808594 344.480469 8.542969 342.089844 9.976562 C 339.320312 11.636719 336.636719 13.402344 334.390625 15.746094 C 333.136719 17.054688 331.910156 18.390625 330.710938 19.746094 C 328.988281 21.6875 327.585938 23.871094 326.433594 26.179688 C 324.960938 29.136719 323.699219 32.195312 322.296875 35.191406 C 321.289062 37.339844 319.933594 37.894531 317.683594 37.125 C 316.625 36.761719 315.609375 36.292969 314.414062 35.714844 Z M 314.414062 35.714844 "/></g><g clip-rule="nonzero" clip-path="url(#4135ea51c8)"><path style=" stroke:none;fill-rule:nonzero;fill:#eb8b56;fill-opacity:1;" d="M 294.613281 296.957031 C 295.796875 295.207031 296.785156 293.453125 298.253906 292.039062 C 299.648438 290.699219 301.019531 289.328125 302.363281 287.933594 C 304.800781 285.414062 307.9375 284 311 282.488281 C 313.070312 281.464844 315.316406 280.957031 317.570312 280.429688 C 320.523438 279.738281 323.496094 279.753906 326.464844 279.867188 C 329.566406 279.984375 332.625 280.453125 335.640625 281.292969 C 338.421875 282.066406 340.792969 283.433594 343.023438 285.214844 C 346.238281 287.78125 348.652344 290.953125 350.75 294.457031 C 351.539062 295.769531 352.195312 297.113281 352.8125 298.5 C 353.3125 299.628906 353.4375 299.660156 354.234375 298.871094 C 355.515625 297.609375 357.222656 297.210938 358.804688 296.570312 C 360.445312 295.90625 362.132812 295.507812 363.933594 295.59375 C 364.671875 295.628906 365.445312 295.242188 366.164062 295.332031 C 367.992188 295.5625 369.847656 295.671875 371.613281 296.25 C 372.863281 296.660156 374.175781 296.953125 375.335938 297.546875 C 376.734375 298.261719 378.039062 299.1875 379.320312 300.109375 C 380.191406 300.734375 380.957031 301.503906 381.761719 302.222656 C 381.824219 302.277344 381.792969 302.4375 381.808594 302.550781 C 381.707031 302.550781 381.578125 302.597656 381.503906 302.554688 C 380.777344 302.144531 380.0625 301.710938 379.339844 301.300781 C 377.078125 300.011719 374.617188 299.390625 372.050781 299.078125 C 370.765625 298.921875 369.492188 298.535156 368.207031 298.492188 C 366.785156 298.441406 365.351562 298.664062 363.921875 298.785156 C 363.824219 298.792969 363.675781 298.964844 363.667969 299.066406 C 363.664062 299.175781 363.796875 299.382812 363.878906 299.386719 C 364.40625 299.417969 364.929688 299.40625 365.457031 299.402344 C 368.140625 299.390625 370.789062 299.734375 373.28125 300.703125 C 375.054688 301.386719 376.746094 302.25 378.324219 303.421875 C 380.886719 305.324219 382.40625 307.910156 383.835938 310.613281 C 384.175781 311.253906 384.417969 311.957031 384.613281 312.65625 C 384.828125 313.410156 385.382812 313.378906 385.90625 313.257812 C 386.371094 313.152344 386.78125 312.847656 387.234375 312.664062 C 388.621094 312.09375 390.0625 311.734375 391.574219 311.714844 C 392.570312 311.703125 393.574219 311.753906 394.570312 311.703125 C 396.925781 311.585938 399.109375 312.300781 401.21875 313.183594 C 403.011719 313.9375 404.875 314.710938 406.386719 315.890625 C 408.3125 317.394531 409.871094 319.363281 411.667969 321.046875 C 413.429688 322.691406 414.382812 324.855469 415.515625 326.882812 C 416.238281 328.175781 416.589844 329.703125 416.964844 331.164062 C 417.285156 332.414062 417.449219 333.710938 417.605469 335 C 417.730469 336.003906 417.4375 337.046875 417.917969 338.03125 C 418.039062 338.285156 418.066406 338.765625 417.910156 338.949219 C 417.382812 339.5625 417.671875 340.246094 417.628906 340.890625 C 417.425781 344.027344 416.492188 346.785156 414.207031 349.121094 C 412.355469 351.011719 410.136719 352.136719 407.730469 352.953125 C 406.703125 353.304688 405.539062 353.300781 404.429688 353.359375 C 403.171875 353.421875 401.902344 353.429688 400.644531 353.351562 C 399.851562 353.300781 399.328125 353.605469 399.007812 354.246094 C 397.285156 357.683594 394.628906 360.285156 391.738281 362.746094 C 389.695312 364.476562 387.5625 366.046875 385.335938 367.511719 C 382.390625 369.445312 379.21875 370.695312 375.738281 371.417969 C 371.511719 372.292969 367.269531 372.058594 363.050781 371.929688 C 358.511719 371.789062 354.355469 370.011719 350.453125 367.75 C 349.074219 366.953125 347.816406 365.910156 346.605469 364.859375 C 344.957031 363.4375 343.40625 361.902344 341.8125 360.414062 C 341.660156 360.269531 341.496094 360.128906 341.371094 359.964844 C 340.371094 358.671875 340.367188 358.722656 339.335938 360.078125 C 337.542969 362.441406 335.726562 364.820312 333.257812 366.507812 C 331.859375 367.460938 330.265625 368.148438 328.699219 368.820312 C 326.121094 369.9375 323.472656 370.796875 320.632812 371.082031 C 318.351562 371.3125 316.085938 371.671875 313.789062 371.660156 C 312.730469 371.65625 311.667969 371.46875 310.609375 371.363281 C 309.546875 371.253906 308.480469 371.242188 307.417969 371.132812 C 305.410156 370.929688 303.449219 370.5625 301.511719 370.078125 C 298.574219 369.347656 295.839844 368.121094 293.546875 366.09375 C 292.453125 365.125 291.449219 364.054688 290.4375 362.992188 C 290.011719 362.542969 289.722656 362.375 289.210938 362.929688 C 288.136719 364.089844 286.953125 365.140625 285.882812 366.296875 C 283.132812 369.273438 279.671875 371.066406 275.898438 372.285156 C 273.5 373.058594 271.0625 373.6875 268.515625 373.933594 C 266.25 374.144531 264.023438 374.746094 261.777344 375.140625 C 260.878906 375.296875 259.972656 375.417969 259.066406 375.453125 C 255.746094 375.585938 252.421875 375.703125 249.097656 375.773438 C 247.0625 375.8125 245.0625 375.375 243.046875 375.203125 C 240.636719 374.992188 238.3125 374.457031 236.011719 373.84375 C 234.335938 373.398438 232.738281 372.609375 231.152344 371.878906 C 227.332031 370.117188 224.796875 367.09375 222.867188 363.4375 C 221.949219 361.695312 221.0625 359.902344 220.804688 357.996094 C 220.546875 356.082031 220.117188 354.179688 220.585938 352.117188 C 221.042969 350.097656 221.34375 348.027344 221.957031 346.039062 C 222.71875 343.5625 223.925781 341.328125 225.664062 339.363281 C 226.65625 338.242188 227.347656 336.84375 228.386719 335.78125 C 229.742188 334.398438 231.175781 333.007812 232.8125 332.011719 C 235.21875 330.546875 237.796875 329.339844 240.382812 328.210938 C 241.492188 327.726562 242.816406 327.761719 244.027344 327.484375 C 246.753906 326.863281 249.515625 327.3125 252.261719 327.191406 C 252.59375 327.175781 252.949219 327.292969 253.257812 327.433594 C 253.390625 327.496094 253.425781 327.769531 253.503906 327.949219 C 253.320312 328.007812 253.113281 328.15625 252.960938 328.109375 C 251.464844 327.691406 249.992188 328.140625 248.628906 328.5 C 246.054688 329.179688 243.519531 330.082031 241.117188 331.289062 C 240.675781 331.507812 240.289062 331.832031 239.886719 332.125 C 239.792969 332.195312 239.75 332.34375 239.683594 332.453125 C 239.828125 332.484375 239.992188 332.570312 240.117188 332.535156 C 241.191406 332.207031 242.253906 331.851562 243.324219 331.519531 C 244.699219 331.085938 246.113281 330.851562 247.53125 330.589844 C 249.84375 330.160156 252.015625 330.726562 254.25 330.945312 C 256.835938 331.195312 259.355469 331.691406 261.820312 332.496094 C 262.347656 332.671875 262.71875 332.476562 262.96875 332.015625 C 263.296875 331.414062 263.527344 330.746094 263.929688 330.210938 C 266.339844 327.019531 269.214844 324.472656 273.054688 323.023438 C 274.988281 322.292969 276.992188 321.878906 278.921875 321.195312 C 279.203125 321.097656 279.550781 321.179688 279.863281 321.179688 C 281.285156 321.179688 282.710938 321.257812 284.125 321.164062 C 285.789062 321.050781 287.308594 321.527344 288.734375 322.230469 C 289.515625 322.609375 289.484375 322.332031 289.484375 321.761719 C 289.480469 320.972656 289.453125 320.183594 289.488281 319.394531 C 289.578125 317.335938 289.589844 315.265625 289.820312 313.21875 C 290.214844 309.671875 290.753906 306.132812 292.027344 302.777344 C 292.71875 300.964844 293.621094 299.230469 294.421875 297.457031 C 294.480469 297.328125 294.496094 297.175781 294.613281 296.957031 M 268.96875 334.277344 C 268.808594 335.351562 268.257812 336.355469 268.628906 337.519531 C 268.925781 338.449219 268.378906 339.292969 267.910156 340.039062 C 267.105469 341.320312 265.320312 341.882812 263.855469 341.367188 C 262.847656 341.011719 261.90625 340.464844 260.898438 340.136719 C 259.410156 339.648438 257.894531 339.246094 256.375 338.867188 C 255.316406 338.601562 254.246094 338.382812 253.164062 338.238281 C 251.957031 338.074219 250.699219 338.144531 249.519531 337.875 C 247.84375 337.5 246.246094 337.609375 244.5625 337.859375 C 241.992188 338.238281 239.601562 339.132812 237.304688 340.171875 C 234.257812 341.542969 231.855469 343.867188 229.90625 346.570312 C 229.269531 347.453125 228.683594 348.589844 228.636719 349.640625 C 228.527344 352 228.226562 354.429688 229.472656 356.679688 C 229.9375 357.519531 230.046875 358.550781 230.484375 359.414062 C 231.660156 361.730469 232.941406 363.953125 235.527344 365.070312 C 237.421875 365.890625 239.304688 366.601562 241.355469 367.015625 C 244.171875 367.585938 246.972656 368.128906 249.84375 368.199219 C 251.210938 368.234375 252.582031 368.207031 253.945312 368.207031 C 255.050781 368.207031 256.164062 368.289062 257.257812 368.1875 C 258.652344 368.058594 260.027344 367.765625 261.414062 367.582031 C 262.472656 367.441406 263.546875 367.429688 264.59375 367.246094 C 266.742188 366.871094 268.867188 366.363281 271.019531 366.011719 C 274.019531 365.519531 276.804688 364.460938 279.28125 362.738281 C 280.84375 361.65625 282.332031 360.46875 283.542969 358.914062 C 284.683594 357.449219 285.9375 356.070312 286.722656 354.378906 C 287.753906 352.164062 290.632812 351.226562 292.710938 352.90625 C 293.59375 353.617188 294.261719 354.449219 294.75 355.375 C 295.894531 357.546875 297.449219 359.339844 299.347656 360.84375 C 299.910156 361.289062 300.601562 361.617188 301.277344 361.882812 C 305.1875 363.417969 309.300781 363.941406 313.453125 364.074219 C 315.71875 364.144531 317.984375 364.160156 320.269531 363.847656 C 322.507812 363.542969 324.632812 362.988281 326.65625 362.082031 C 328.691406 361.171875 330.664062 360.136719 331.949219 358.128906 C 332.835938 356.734375 333.882812 355.433594 334.949219 354.167969 C 336.117188 352.78125 337.371094 351.46875 338.632812 350.171875 C 338.921875 349.878906 339.390625 349.660156 339.804688 349.605469 C 342.1875 349.296875 344.023438 350.082031 345.375 352.195312 C 346.558594 354.046875 347.90625 355.820312 349.347656 357.480469 C 350.503906 358.8125 352.082031 359.695312 353.472656 360.777344 C 356.921875 363.46875 360.855469 364.5 365.097656 364.738281 C 366.425781 364.8125 367.753906 365.074219 369.070312 365.015625 C 370.621094 364.949219 372.152344 364.574219 373.699219 364.429688 C 376.914062 364.132812 379.789062 363.003906 382.5 361.28125 C 385.789062 359.1875 389.042969 357.074219 391.382812 353.867188 C 392.582031 352.226562 393.898438 350.613281 393.664062 348.335938 C 393.621094 347.90625 393.933594 347.398438 394.191406 346.992188 C 395.382812 345.117188 397.351562 345.21875 399.066406 345.554688 C 401.144531 345.957031 403.207031 346.257812 405.28125 346.066406 C 406.808594 345.929688 408.210938 345.269531 409.109375 343.839844 C 409.832031 342.683594 410.152344 341.449219 410.410156 340.105469 C 410.925781 337.4375 410.761719 334.855469 410.03125 332.289062 C 409.632812 330.886719 409.222656 329.484375 408.421875 328.222656 C 406.957031 325.925781 405.304688 323.8125 403.199219 322.046875 C 400.375 319.679688 397.144531 318.34375 393.5 318.050781 C 392.609375 317.980469 391.664062 318.125 390.796875 318.363281 C 388.730469 318.933594 386.726562 319.648438 385.621094 321.753906 C 385.320312 322.324219 384.84375 322.8125 384.40625 323.296875 C 383.578125 324.214844 382.429688 324.257812 381.4375 323.910156 C 380.347656 323.53125 379.203125 322.976562 379.105469 321.5 C 379.039062 320.488281 379.003906 319.457031 378.757812 318.488281 C 378.332031 316.835938 377.910156 315.1875 377.261719 313.589844 C 376.808594 312.472656 376.257812 311.425781 375.523438 310.53125 C 372.96875 307.414062 369.449219 306.273438 365.570312 306.046875 C 364.246094 305.972656 362.917969 305.992188 361.59375 306.324219 C 360.277344 306.65625 359.050781 307.054688 358.023438 308.007812 C 356.855469 309.089844 356.035156 310.414062 355.261719 311.765625 C 354.429688 313.21875 353.363281 314.058594 351.59375 313.941406 C 350.066406 313.839844 348.625 312.757812 348.523438 311.265625 C 348.386719 309.304688 347.824219 307.433594 347.558594 305.503906 C 347.292969 303.589844 346.617188 301.808594 345.835938 300.066406 C 345.046875 298.304688 343.964844 296.714844 342.835938 295.15625 C 341.402344 293.175781 339.714844 291.40625 337.769531 289.964844 C 335.019531 287.921875 331.761719 287.273438 328.398438 287.097656 C 327.925781 287.074219 327.421875 287.207031 326.984375 287.078125 C 324.382812 286.3125 321.789062 286.859375 319.234375 287.226562 C 317.667969 287.449219 316.175781 288.195312 314.640625 288.667969 C 311.203125 289.730469 308.332031 291.769531 305.707031 294.113281 C 302.601562 296.886719 300.265625 300.242188 298.613281 304.097656 C 297.167969 307.460938 296.542969 310.988281 296.105469 314.578125 C 295.640625 318.433594 295.605469 322.289062 296.105469 326.148438 C 296.144531 326.457031 296.160156 326.789062 296.101562 327.09375 C 295.863281 328.292969 295.457031 329.449219 294.175781 329.875 C 293.199219 330.199219 292.160156 330.167969 291.214844 329.6875 C 290.039062 329.089844 288.925781 328.363281 287.722656 327.832031 C 286.746094 327.402344 285.699219 327.011719 284.648438 326.894531 C 282.097656 326.609375 279.574219 327 277.164062 327.828125 C 273.78125 328.992188 270.816406 330.765625 268.96875 334.277344 Z M 268.96875 334.277344 "/></g><path style=" stroke:none;fill-rule:nonzero;fill:#eb8b56;fill-opacity:1;" d="M 308.417969 22.617188 C 306.199219 21.878906 304.140625 21.144531 302.082031 20.40625 C 301.851562 20.324219 301.628906 20.21875 301.390625 20.171875 C 300.996094 20.089844 300.675781 19.902344 300.867188 19.484375 C 300.992188 19.214844 301.328125 18.867188 301.582031 18.859375 C 303.050781 18.808594 304.539062 18.703125 305.9375 19.347656 C 307.175781 19.914062 308.433594 20.441406 309.648438 21.046875 C 310.585938 21.511719 311.132812 22.433594 310.839844 22.875 C 310.507812 23.390625 309.871094 23.378906 308.800781 22.835938 C 308.710938 22.789062 308.652344 22.691406 308.417969 22.617188 Z M 308.417969 22.617188 "/><path style=" stroke:none;fill-rule:nonzero;fill:#eb8b56;fill-opacity:1;" d="M 247.191406 306.347656 C 246.132812 306.453125 245.234375 306.65625 244.335938 306.640625 C 242.804688 306.617188 241.277344 306.464844 239.75 306.335938 C 239.472656 306.3125 239.1875 306.167969 238.945312 306.019531 C 238.8125 305.9375 238.757812 305.730469 238.667969 305.578125 C 238.800781 305.519531 238.933594 305.402344 239.054688 305.410156 C 239.457031 305.433594 239.851562 305.511719 240.25 305.558594 C 240.75 305.617188 241.332031 305.851562 241.742188 305.679688 C 242.746094 305.257812 243.777344 305.5625 244.765625 305.378906 C 246.039062 305.140625 247.332031 305.066406 248.613281 304.847656 C 249.882812 304.628906 251.179688 304.554688 252.425781 304.148438 C 252.539062 304.113281 252.820312 304.226562 252.820312 304.261719 C 252.8125 304.445312 252.785156 304.726562 252.671875 304.785156 C 251.980469 305.121094 251.28125 305.507812 250.539062 305.691406 C 249.664062 305.902344 248.742188 305.914062 247.847656 306.042969 C 247.671875 306.070312 247.515625 306.242188 247.191406 306.347656 Z M 247.191406 306.347656 "/><path style=" stroke:none;fill-rule:nonzero;fill:#eb8b56;fill-opacity:1;" d="M 386.375 309.1875 C 386.265625 309.457031 386.167969 309.601562 386.035156 309.660156 C 385.980469 309.6875 385.792969 309.554688 385.75 309.457031 C 385.070312 307.914062 384.449219 306.339844 383.710938 304.828125 C 383.472656 304.332031 383.785156 304.40625 383.957031 304.472656 C 384.257812 304.585938 384.679688 304.753906 384.769531 305 C 385.214844 306.226562 386.074219 307.308594 386.074219 308.691406 C 386.074219 308.804688 386.269531 308.917969 386.375 309.1875 Z M 386.375 309.1875 "/></g><mask id="5afaf8f3fa"><g filter="url(#79fcaecd90)"><rect x="0" width="739" height="799" y="0" style="fill:#000000;fill-opacity:0.1;stroke:none;"/></g></mask></g></g><g mask="url(#cc9c7acd30)" transform="matrix(1,0,0,1,41,251)"><g id="ebf135c8b3" clip-path="url(#31d8f6aaf7)"><path style=" stroke:none;fill-rule:nonzero;fill:#f2b581;fill-opacity:1;" d="M 216.246094 45.429688 C 216.289062 44.730469 216.386719 44.03125 216.386719 43.316406 C 216.386719 20.429688 192.109375 1.878906 162.167969 1.878906 C 144.792969 1.878906 129.367188 8.152344 119.445312 17.859375 C 111.339844 14.175781 101.910156 12.023438 91.792969 12.023438 C 65.390625 12.023438 43.417969 26.460938 38.589844 45.558594 C 17.230469 51.117188 1.847656 66.542969 1.847656 84.742188 C 1.847656 107.636719 26.125 126.183594 56.0625 126.183594 C 67.597656 126.183594 78.265625 123.410156 87.054688 118.722656 C 96.863281 129.359375 113.035156 136.328125 131.363281 136.328125 C 148.261719 136.328125 163.355469 130.414062 173.292969 121.144531 C 180.992188 124.359375 189.824219 126.183594 199.207031 126.183594 C 229.15625 126.183594 253.429688 107.636719 253.429688 84.742188 C 253.429688 66.425781 237.839844 50.890625 216.246094 45.429688 "/><g clip-rule="nonzero" clip-path="url(#c1e4b6dc2e)"><path style=" stroke:none;fill-rule:nonzero;fill:#f2b581;fill-opacity:1;" d="M 216.246094 45.429688 L 217.101562 45.484375 C 217.140625 44.820312 217.238281 44.105469 217.238281 43.316406 C 217.238281 31.5625 210.996094 20.953125 201.023438 13.335938 C 191.042969 5.710938 177.316406 1.023438 162.167969 1.023438 C 144.585938 1.023438 128.957031 7.367188 118.847656 17.253906 L 119.445312 17.859375 L 119.796875 17.085938 C 111.582031 13.351562 102.027344 11.171875 91.792969 11.171875 C 78.4375 11.171875 66.1875 14.820312 56.644531 20.910156 C 47.101562 27 40.242188 35.546875 37.761719 45.347656 L 38.589844 45.558594 L 38.375 44.730469 C 27.558594 47.550781 18.234375 52.867188 11.59375 59.824219 C 4.953125 66.777344 0.992188 75.398438 0.996094 84.742188 C 0.992188 96.503906 7.234375 107.105469 17.210938 114.722656 C 27.1875 122.347656 40.917969 127.03125 56.0625 127.035156 C 67.734375 127.035156 78.535156 124.234375 87.453125 119.476562 L 87.054688 118.722656 L 86.425781 119.300781 C 96.433594 130.140625 112.820312 137.175781 131.363281 137.175781 C 148.460938 137.175781 163.75 131.207031 173.875 121.769531 L 173.292969 121.144531 L 172.964844 121.933594 C 180.773438 125.191406 189.710938 127.035156 199.207031 127.035156 C 214.359375 127.03125 228.085938 122.347656 238.066406 114.722656 C 248.042969 107.105469 254.285156 96.503906 254.28125 84.742188 C 254.285156 75.339844 250.273438 66.660156 243.546875 59.675781 C 236.824219 52.6875 227.390625 47.371094 216.457031 44.605469 L 216.246094 45.429688 L 217.101562 45.484375 L 216.246094 45.429688 L 216.042969 46.261719 C 226.695312 48.953125 235.851562 54.132812 242.320312 60.859375 C 248.792969 67.589844 252.578125 75.835938 252.578125 84.742188 C 252.578125 95.878906 246.679688 105.992188 237.03125 113.371094 C 227.386719 120.742188 214.007812 125.332031 199.207031 125.332031 C 189.933594 125.332031 181.214844 123.527344 173.621094 120.359375 L 173.113281 120.148438 L 172.714844 120.519531 C 162.957031 129.625 148.0625 135.476562 131.363281 135.476562 C 113.25 135.476562 97.296875 128.578125 87.679688 118.144531 L 87.230469 117.660156 L 86.652344 117.96875 C 77.996094 122.589844 67.460938 125.332031 56.0625 125.332031 C 41.273438 125.332031 27.890625 120.742188 18.246094 113.371094 C 8.597656 105.992188 2.703125 95.878906 2.699219 84.742188 C 2.703125 75.886719 6.433594 67.699219 12.824219 61 C 19.214844 54.304688 28.265625 49.125 38.804688 46.382812 L 39.289062 46.257812 L 39.417969 45.769531 C 41.765625 36.472656 48.308594 28.253906 57.558594 22.347656 C 66.808594 16.445312 78.746094 12.878906 91.792969 12.878906 C 101.789062 12.878906 111.101562 15.003906 119.089844 18.636719 L 119.621094 18.878906 L 120.039062 18.46875 C 129.773438 8.9375 144.996094 2.726562 162.167969 2.726562 C 176.964844 2.726562 190.34375 7.316406 199.988281 14.691406 C 209.640625 22.074219 215.535156 32.1875 215.535156 43.316406 C 215.535156 43.957031 215.445312 44.636719 215.398438 45.382812 L 215.355469 46.082031 L 216.042969 46.261719 L 216.246094 45.429688 "/></g></g><mask id="cc9c7acd30"><g filter="url(#79fcaecd90)"><rect x="0" width="739" height="799" y="0" style="fill:#000000;fill-opacity:0.2;stroke:none;"/></g></mask></g><path style=" stroke:none;fill-rule:nonzero;fill:#eb8b56;fill-opacity:1;" d="M 215.261719 320.734375 C 215.304688 320.03125 215.398438 319.335938 215.398438 318.621094 C 215.398438 295.734375 191.121094 277.179688 161.183594 277.179688 C 143.804688 277.179688 128.382812 283.457031 118.457031 293.164062 C 110.355469 289.480469 100.921875 287.328125 90.808594 287.328125 C 64.402344 287.328125 42.433594 301.765625 37.601562 320.859375 C 16.242188 326.421875 0.863281 341.847656 0.863281 360.046875 C 0.863281 382.941406 25.136719 401.488281 55.078125 401.488281 C 66.609375 401.488281 77.28125 398.714844 86.066406 394.027344 C 95.878906 404.664062 112.046875 411.632812 130.375 411.632812 C 147.277344 411.632812 162.367188 405.71875 172.304688 396.445312 C 180.007812 399.664062 188.835938 401.488281 198.222656 401.488281 C 228.167969 401.488281 252.441406 382.941406 252.441406 360.046875 C 252.441406 341.730469 236.851562 326.195312 215.261719 320.734375 "/><g clip-rule="nonzero" clip-path="url(#8dc1dc4307)"><path style=" stroke:none;fill-rule:nonzero;fill:#eb8b56;fill-opacity:1;" d="M 215.261719 320.734375 L 216.113281 320.789062 C 216.152344 320.125 216.253906 319.410156 216.253906 318.621094 C 216.253906 306.863281 210.011719 296.257812 200.035156 288.640625 C 190.058594 281.015625 176.332031 276.328125 161.183594 276.328125 C 143.601562 276.328125 127.96875 282.671875 117.859375 292.554688 L 118.457031 293.164062 L 118.808594 292.390625 C 110.59375 288.652344 101.042969 286.476562 90.808594 286.476562 C 77.449219 286.476562 65.203125 290.125 55.65625 296.214844 C 46.113281 302.304688 39.257812 310.851562 36.777344 320.652344 L 37.601562 320.859375 L 37.386719 320.035156 C 26.570312 322.851562 17.25 328.167969 10.605469 335.128906 C 3.964844 342.078125 0.0078125 350.703125 0.0117188 360.046875 C 0.0078125 371.804688 6.25 382.410156 16.222656 390.027344 C 26.203125 397.652344 39.933594 402.335938 55.078125 402.339844 C 66.746094 402.339844 77.550781 399.535156 86.464844 394.777344 L 86.066406 394.027344 L 85.4375 394.601562 C 95.449219 405.441406 111.832031 412.476562 130.375 412.480469 C 147.472656 412.480469 162.765625 406.511719 172.886719 397.074219 L 172.304688 396.445312 L 171.980469 397.234375 C 179.785156 400.496094 188.722656 402.339844 198.222656 402.339844 C 213.371094 402.335938 227.097656 397.652344 237.082031 390.027344 C 247.054688 382.410156 253.296875 371.804688 253.292969 360.046875 C 253.296875 350.640625 249.285156 341.960938 242.5625 334.980469 C 235.835938 327.992188 226.402344 322.675781 215.46875 319.910156 L 215.261719 320.734375 L 216.113281 320.789062 L 215.261719 320.734375 L 215.054688 321.5625 C 225.707031 324.257812 234.863281 329.4375 241.332031 336.164062 C 247.804688 342.890625 251.589844 351.136719 251.589844 360.046875 C 251.589844 371.179688 245.695312 381.296875 236.046875 388.671875 C 226.398438 396.046875 213.019531 400.636719 198.222656 400.636719 C 188.945312 400.636719 180.230469 398.832031 172.636719 395.660156 L 172.125 395.453125 L 171.726562 395.824219 C 161.96875 404.925781 147.074219 410.78125 130.375 410.78125 C 112.261719 410.78125 96.3125 403.882812 86.691406 393.445312 L 86.242188 392.964844 L 85.664062 393.273438 C 77.007812 397.894531 66.472656 400.636719 55.078125 400.636719 C 40.285156 400.636719 26.902344 396.046875 17.257812 388.671875 C 7.609375 381.296875 1.714844 371.179688 1.710938 360.046875 C 1.714844 351.191406 5.445312 343 11.839844 336.300781 C 18.226562 329.605469 27.277344 324.429688 37.816406 321.6875 L 38.304688 321.558594 L 38.429688 321.070312 C 40.777344 311.777344 47.324219 303.554688 56.570312 297.652344 C 65.820312 291.75 77.757812 288.179688 90.808594 288.179688 C 100.800781 288.179688 110.113281 290.308594 118.105469 293.941406 L 118.632812 294.183594 L 119.054688 293.773438 C 128.789062 284.242188 144.007812 278.03125 161.183594 278.03125 C 175.976562 278.03125 189.359375 282.621094 199 289.996094 C 208.652344 297.375 214.546875 307.492188 214.546875 318.621094 C 214.546875 319.261719 214.457031 319.9375 214.410156 320.683594 L 214.367188 321.386719 L 215.054688 321.5625 L 215.261719 320.734375 "/></g></g><mask id="cf1aa5278d"><g filter="url(#79fcaecd90)"><rect x="0" width="739.5" y="0" height="809.999993" style="fill:#000000;fill-opacity:0.2;stroke:none;"/></g></mask></g></g></g></svg>