<svg xmlns="http://www.w3.org/2000/svg" width="593.208" height="536.102" viewBox="0 0 593.208 536.102"><defs><style>.a,.b{fill:#f0f2f8;}.a{opacity:0.497;}</style></defs><g transform="translate(0)"><path class="a" d="M-409.894,7.211C-394.521,2.9-368.064,0-354.348,0c15.4,0,39.107,2.066,53.01,7.211,43.835,16.22,71.759,53.015,106.206,69.58C-149.76,98.61-64.944,121-34.432,169.582c8.87,14.125,29.014,40.236,30.472,69.8.585,11.85.662,28.107,0,42.217-.973,20.748-3.678,39.83-9.828,57.813-15.124,44.225-45.728,74.706-80.171,84.441-81.738,23.1-154.368,24.979-207.378,94.059S-500.1,437.04-565.985,437.04s-12-253.5,33.328-344.057S-442.321,16.309-409.894,7.211Z" transform="translate(596.701)"/><path class="b" d="M-369.423,6.494C-355.576,2.609-331.745,0-319.391,0c13.875,0,35.225,1.861,47.748,6.494,39.484,14.608,64.636,47.747,95.663,62.666,40.868,19.651,117.265,39.813,144.748,83.569,7.99,12.721,26.133,36.237,27.447,62.864.527,10.673.6,25.314,0,38.022C-4.66,272.3-7.1,289.486-12.637,305.682c-13.623,39.83-41.188,67.282-72.213,76.05-73.624,20.807-139.044,15.237-186.793,77.452-38.291,49.892-192.52-43.294-228.54-66.684-43.1-27.873-5.8-254.222,20.182-308.758S-398.631,14.688-369.423,6.494Z" transform="translate(559.571 30)"/></g></svg>