<svg xmlns="http://www.w3.org/2000/svg" viewBox="0 0 958.09 449.46">
  <defs>
    <style>
      .cls-1 {
        opacity: 0.28;
      }

      .cls-2 {
        fill: #ae6fe2;
      }

      .cls-17, .cls-3, .cls-39, .cls-4, .cls-7, .cls-9 {
        fill: none;
        stroke-miterlimit: 10;
      }

      .cls-3, .cls-4 {
        stroke: #f1f1f2;
      }

      .cls-3 {
        opacity: 0.83;
      }

      .cls-5 {
        fill: #7e4eb9;
      }

      .cls-6 {
        opacity: 0.85;
      }

      .cls-7 {
        stroke: #412111;
      }

      .cls-8 {
        fill: #79b473;
      }

      .cls-11, .cls-15, .cls-24, .cls-33, .cls-34, .cls-8 {
        isolation: isolate;
      }

      .cls-9 {
        stroke: #fff;
      }

      .cls-10 {
        fill: #fff;
      }

      .cls-11 {
        fill: #98dfea;
      }

      .cls-12 {
        fill: #f9baa0;
      }

      .cls-13 {
        fill: #9a4622;
      }

      .cls-14 {
        fill: #f9ad78;
      }

      .cls-15 {
        opacity: 0.1;
      }

      .cls-16, .cls-38 {
        fill: #f1856c;
      }

      .cls-16 {
        opacity: 0.6;
      }

      .cls-17 {
        stroke: #b97343;
      }

      .cls-17, .cls-39 {
        stroke-width: 0.75px;
      }

      .cls-18 {
        fill: #b97343;
      }

      .cls-19, .cls-21 {
        fill: #050505;
      }

      .cls-19 {
        opacity: 0.04;
      }

      .cls-20 {
        opacity: 0.25;
      }

      .cls-21 {
        opacity: 0.13;
      }

      .cls-22 {
        fill: #764ea0;
      }

      .cls-23 {
        opacity: 0.15;
      }

      .cls-24 {
        fill: #fe5f55;
      }

      .cls-25 {
        fill: #080808;
        opacity: 0.11;
      }

      .cls-26 {
        fill: #faa819;
      }

      .cls-27 {
        fill: #c45f2a;
      }

      .cls-28 {
        opacity: 0.18;
      }

      .cls-29, .cls-35 {
        fill: #020202;
      }

      .cls-30, .cls-32 {
        opacity: 0.1;
      }

      .cls-31 {
        opacity: 0.89;
      }

      .cls-33 {
        fill: #ffba08;
      }

      .cls-34 {
        fill: #07a0c3;
      }

      .cls-35 {
        opacity: 0.09;
      }

      .cls-36 {
        fill: #421513;
      }

      .cls-37 {
        opacity: 0.39;
      }

      .cls-39 {
        stroke: #784423;
      }

      .cls-40 {
        fill: #72401c;
      }

      .cls-41 {
        fill: #231f20;
      }



      #head{
        animation: zoom 5s cubic-bezier(0.18,-0.21, 0.59, 1.02) infinite alternate;
        transform-box:fill-box;
        transform-origin: bottom;
      }
      @keyframes zoom{

      0%{
        transform: rotate(0deg);
        }
      50%{
        transform: rotate(10deg);
        }
      100%{
        transform: rotate(0deg);
        }
      }

      #leg{
        animation: legf 9s infinite linear;
        transform-box:fill-box;
        transform-origin: bottom;
      }

      @keyframes legf{

      0%{
          transform: skewX(-10deg);
        }
      50%{
        transform: skewX(0deg);
        }
      100%{
          transform: skewX(-10deg);
        }

      }

      #darckleaf{
      animation: leafE 9s infinite linear;
        transform-box:fill-box;
        transform-origin: bottom;
      }

      @keyframes leafE{

      0%{
          transform: skewX(-2deg);
        }
      50%{
        transform: skewX(0deg);
        }
      100%{
          transform: skewX(-2deg);
        }

      #lightleaf{
      animation: leaf 5s infinite linear;
        transform-box:fill-box;
        transform-origin: bottom;
      }
      #darkleaf{
      animation: leaf 6s infinite linear;
        transform-box:fill-box;
        transform-origin: bottom;
      }
      #lightleaf_1_{
        animation: leaf 4s infinite linear;
        transform-box:fill-box;
        transform-origin: bottom;
      }
      @keyframes leaf{

      0%{
          transform: skewX(-10deg);
        }
      50%{
        transform: skewX(0deg);
        }
      100%{
          transform: skewX(-10deg);
        }

      }


      #pinkflower_1_{
        animation: wiggle 7s ease infinite;
          animation-direction: alternate;
          transform-box:fill-box;
          transform-origin:bottom;
      }

      #whiteflower_1_{
        animation: wiggle 10s ease infinite;
          animation-direction: alternate;
          transform-box:fill-box;
          transform-origin:bottom;
      }
      #pinkflower{
        animation: wiggle 8s ease infinite;
          animation-direction: alternate;
          transform-box:fill-box;
          transform-origin:bottom;

      }
      #whiteflower{
        animation: wiggle 10s ease infinite;
          animation-direction: alternate;
          transform-box:fill-box;
          transform-origin:bottom;
      }

        @keyframes wiggle{
      0%{
          transform: rotate(0deg);
        }
      50%{
        transform: rotate(10deg);
        }
      100%{
          transform: rotate(0deg);
        }
      }
    </style>
  </defs>
  <g id="Layer_2" data-name="Layer 2">
    <g id="Layer_1-2" data-name="Layer 1">
      <g>
        <g>
          <g id="lightleaf" class="cls-1">
            <path class="cls-2" d="M119,326.41s-66.25,7.7-76.06-35.9a1.06,1.06,0,0,1,1.39-1.25c4.79,1.77,18,5.74,24.2-1.31,0,0-37.39,0-32.92-15.77,0,0-4.36-3.85,1.72-17.57l15.94-3.28s-13.48-4.94-17.89-17.68c0,0-4.54-27.56,14.23-53.24a2.85,2.85,0,0,1,3.09-1c6.58,1.86,28.69,8.42,41.25,16.1A2.4,2.4,0,0,1,95.11,198c-1,5.23-4.41,22-9.34,29.47,0,0-4.93,13.49,6.4,2.25,0,0,16.22-33.61,30.69-15.23,0,0,13.5,7.9,1.06,25.3l-17.64,23.82,23.54-12.06a3,3,0,0,1,3.52.62C137.39,256.56,144.8,272.94,119,326.41Z"/>
            <path class="cls-3" d="M51.33,179.92C79.12,249.83,67.49,271.67,119,326.41"/>
            <path class="cls-3" d="M61.57,301.26c16.72,13.32,20.93,16.34,49.52,16"/>
            <path class="cls-3" d="M46.69,258.55c16.73,13.32,15.79,14.81,36.6,18.07"/>
            <path class="cls-3" d="M39,210.06c10.49,18.63,13.43,19.15,31.49,30"/>
            <path class="cls-4" d="M122.27,267c-13.44,14.33-.85,19.52-18.17,42.27"/>
            <path class="cls-3" d="M110.34,225.54c-8.45,9.14-18.14,22.71-26.87,52"/>
            <path class="cls-3" d="M62.33,186.09c15.88,18.43,15,24.22,5.33,43.17"/>
          </g>
          <g id="darkleaf">
            <path class="cls-5" d="M100.82,332.09S45.49,304,60.56,265.18a.86.86,0,0,1,1.49-.19c2.66,3.68,10.93,13.85,19.49,11.56,0,0-28.87-19.15-17.35-29,0,0-1.29-4.82,9.07-11.86a2.76,2.76,0,0,1,2.58-.29l12.66,5.09s-7.88-10.71-4.76-22.81c0,0,10.62-23.65,38.32-33.86a2.54,2.54,0,0,1,2.8.74c4,4.65,17.3,20.53,23.29,32.84a3.42,3.42,0,0,1-.65,3.9c-4,4.08-14.46,14.27-21.68,17.35,0,0-10.72,7.89,3.79,5,0,0,29.73-17.66,31.5,3.95,0,0,6.38,13-12.14,20.09L123.15,277l24.38,2.75A2.68,2.68,0,0,1,149.9,282C150.79,287.38,148.34,303.85,100.82,332.09Z"/>
            <g class="cls-6">
              <path class="cls-5" d="M123.71,183.19c-14.34,68.23-34.67,80.24-22.89,148.9"/>
              <path class="cls-5" d="M69.32,283.24c6.09,18.86,7.79,23.34,30.06,37.72"/>
              <path class="cls-5" d="M79.7,242.64c6.09,18.85,4.61,19.52,19,32.7"/>
              <path class="cls-5" d="M98.6,201.26c-1.44,19.76.56,21.67,9,39.29"/>
              <path class="cls-5" d="M133.72,287.9C116,292.08,123.07,302.53,98,311.24"/>
              <path class="cls-5" d="M145.75,249.73c-11.21,2.74-25.64,8.26-47.37,26.4"/>
              <path class="cls-5" d="M128.87,194.69c2.83,22.36-.85,26.36-18,36.06"/>
            </g>
          </g>
          <g id="pinkflower">
            <g>
              <path class="cls-7" d="M56.26,237.84C74.56,282.31,67.63,297,101,331.63"/>
              <path class="cls-7" d="M64.07,316c10.79,8.38,13.5,10.28,31.78,9.84"/>
              <path class="cls-7" d="M54.23,288.82c10.79,8.38,10.21,9.34,23.53,11.26"/>
              <path class="cls-7" d="M49,257.89c6.85,11.82,8.73,12.13,20.36,18.92"/>
              <path class="cls-7" d="M102.6,293.66c-8.48,9.26-.39,12.48-11.28,27.16"/>
              <path class="cls-7" d="M94.65,267.23c-5.33,5.91-11.42,14.65-16.77,33.43"/>
              <path class="cls-7" d="M69.08,244.32c5,15.74,4.33,13.43-1.68,25.62"/>
            </g>
            <ellipse class="cls-8" cx="53.67" cy="224.5" rx="10.17" ry="20.34" transform="translate(-50.17 18.35) rotate(-13.29)"/>
            <ellipse class="cls-8" cx="93.73" cy="261.5" rx="12.75" ry="6.37" transform="translate(-184.02 257.14) rotate(-69.38)"/>
            <ellipse class="cls-8" cx="62.04" cy="315.1" rx="6.37" ry="12.75" transform="translate(-238.63 202.24) rotate(-58.29)"/>
            <ellipse class="cls-8" cx="47.25" cy="256.72" rx="7.34" ry="14.69" transform="translate(-145.01 80.16) rotate(-37.01)"/>
            <ellipse class="cls-8" cx="101.85" cy="286.91" rx="14.69" ry="7.34" transform="translate(-199.73 328.68) rotate(-78.34)"/>
            <ellipse class="cls-8" cx="72.7" cy="245.5" rx="9.1" ry="4.55" transform="translate(-179.34 290.53) rotate(-83.64)"/>
            <ellipse class="cls-8" cx="49.17" cy="284.03" rx="4.55" ry="9.1" transform="translate(-192.39 126.75) rotate(-47.11)"/>
          </g>
          <g id="whiteflower">
            <g>
              <path class="cls-9" d="M112.1,256.5c-5.52,34-15.27,40.34-7.91,73.92"/>
              <path class="cls-9" d="M87.56,307.05c3.43,9.16,4.37,11.33,15.67,17.91"/>
              <path class="cls-9" d="M91.75,286.8c3.44,9.16,2.72,9.52,10.12,15.69"/>
              <path class="cls-9" d="M100.13,266c-.26,9.78.77,10.67,5.31,19.17"/>
              <path class="cls-9" d="M119.41,307.89c-8.64,2.46-4.92,7.45-17.06,12.31"/>
              <path class="cls-9" d="M124.48,288.8c-5.47,1.6-12.46,4.65-22.76,14.09"/>
              <path class="cls-9" d="M117.48,265.25c-2.88,11.46-2.4,9.81-10.62,15"/>
            </g>
            <ellipse class="cls-10" cx="115.52" cy="247.4" rx="14.55" ry="7.28" transform="matrix(0.31, -0.95, 0.95, 0.31, -155.65, 279.33)"/>
            <ellipse class="cls-10" cx="127.85" cy="284.22" rx="9.12" ry="4.56" transform="matrix(0.79, -0.61, 0.61, 0.79, -147.31, 137.89)"/>
            <ellipse class="cls-10" cx="87.26" cy="306.12" rx="4.56" ry="9.12" transform="translate(-128.17 71.79) rotate(-26.68)"/>
            <ellipse class="cls-10" cx="99.75" cy="265.37" rx="5.25" ry="10.51" transform="translate(-24.56 10.58) rotate(-5.41)"/>
            <ellipse class="cls-10" cx="121.48" cy="303.5" rx="10.51" ry="5.25" transform="translate(-179.02 174.79) rotate(-45)"/>
            <ellipse class="cls-10" cx="119.25" cy="267.33" rx="6.51" ry="3.26" transform="translate(-164.87 196.87) rotate(-52.03)"/>
            <ellipse class="cls-10" cx="90.06" cy="282.13" rx="3.26" ry="6.51" transform="translate(-72.15 34.35) rotate(-15.51)"/>
          </g>
        </g>
        <g>
          <polygon class="cls-11" points="144.01 311 85.67 338.74 532.41 338.74 478.77 311 144.01 311"/>
          <path class="cls-12" d="M324.39,80.06l-33.13-4.23-16.49,53.85s1.46,38.83,30.64,13.43l12.43-16Z"/>
          <path class="cls-13" d="M282.81,26.81l15.1,25.5-21.42,71.74-3.79,44.38S241,132.68,261.17,79.75C261.17,79.75,263.76,63,282.81,26.81Z"/>
          <ellipse class="cls-14" cx="341.81" cy="69.12" rx="12.29" ry="8.92" transform="translate(55.38 268.04) rotate(-46.21)"/>
          <path class="cls-12" d="M280.25,93.12c-14.43-13.58-10.25-41,7.34-59.64a60,60,0,0,1,5.07-4.8C305.37,18,321,14,333.62,17.55a28.8,28.8,0,0,1,11.93,6.71,23.82,23.82,0,0,1,4.19,5.18c8.58,14.14,1.81,35.64-13.65,52.13a1.31,1.31,0,0,1-.11.12c-.9,1-1.83,1.9-2.77,2.79A69.15,69.15,0,0,1,326.77,90C310.77,101.93,292.28,104.45,280.25,93.12Z"/>
          <path class="cls-15" d="M289.43,97.88s9.21,5.66,22.21.39l7.4-3s4.7,10.42,4.7,15.88S289.43,97.88,289.43,97.88Z"/>
          <g id="hand1">
            <circle class="cls-16" cx="294.52" cy="55.7" r="3.39"/>
            <circle class="cls-16" cx="313.98" cy="69.59" r="3.86"/>
            <path class="cls-17" d="M301.44,68.21l-1.77-2.35a2.55,2.55,0,0,1,.67-2.73l7.56-5.46"/>
            <path class="cls-17" d="M302.6,78.64s-6.18,5.37-11.11.77a7.06,7.06,0,0,1-1.92-9.09"/>
            <circle class="cls-18" cx="303.1" cy="43.86" r="2.32"/>
            <circle class="cls-18" cx="322.64" cy="56.76" r="2.32"/>
            <path class="cls-12" d="M427.23,188.91a32.77,32.77,0,0,1-4.84,0c-14.74.71-84.75-33.17-84.75-33.17l.95-6.61,3.22-22.45,69.6,30.55c-14.11-14.9-16.31-40.77-16.31-40.77L383.5,62.94l-9.88-2.49c-7.69-.15-14.9-8.14-14.9-8.14h12.55l-17.78-8.45c-20.9-22.4,4.91-18.69,4.91-18.69,10.63,6.07,15.1,12.15,15.37,12.52a62.29,62.29,0,0,0-3.41-7.87.52.52,0,0,1,.79-.63C385,39.94,393.38,59.1,393.38,59.1c32.47,43.55,45.87,118.51,45.87,118.51C441.21,186.49,432.87,188.52,427.23,188.91Z"/>
            <path class="cls-19" d="M427.23,188.91a32.77,32.77,0,0,1-4.84,0c-14.74.71-84.75-33.17-84.75-33.17l.95-6.61Z"/>
          </g>
          <g id="leg">
            <path class="cls-12" d="M468.82,283.94l-31.23-.83L434,283h-.17a4.84,4.84,0,0,1-.3-.44c-18-26.9-11.63-75.15-11.63-75.15l2.67-55.69L418,146.87c-12.39-5.64-6.75-14.74-6.75-14.74,2.59-.74,4.41-11,5.06-15.32.19-1.19.28-1.94.28-1.94-.54-1-1-2-1.45-3C409.45,99,415,93.39,415,93.39s3.76-6.59,10.35-8.23c6.37-1.6,3.06,1.87,2.83,2.1h0l-2.82,9.43s28.51,106,29.64,109.61C465.68,240,468.82,283.94,468.82,283.94Z"/>
            <g class="cls-20">
              <path class="cls-21" d="M415.14,111.9C409.45,99,415,93.39,415,93.39s3.76-6.59,10.35-8.23c6.37-1.6,3.06,1.87,2.83,2.1-9.6,0-13.05,10.82-13.05,10.82C412.73,98.12,413.6,104.9,415.14,111.9Z"/>
              <path class="cls-21" d="M439.54,288.38,434,283l-.47-.44c-18-26.9-11.63-75.15-11.63-75.15l2.67-55.69L418,146.87c-12.39-5.64-6.75-14.74-6.75-14.74,2.59-.74,3.24-15.88,3.89-20.23a69.79,69.79,0,0,1,1.58,13.25c-14.74,17.26,11.92,24.28,11.92,24.28l.31,19.44c-7,59.71,4,100.36,8.64,114.24C438.76,286.58,439.54,288.38,439.54,288.38Z"/>
            </g>
          </g>
          <path class="cls-22" d="M465.52,311a19.77,19.77,0,0,1-6.15,6.2,18.23,18.23,0,0,1-2,1.09s-76.69,8-105.87,0a169.84,169.84,0,0,0-19.32-4.57h0c-2.37-.41-4.84-.78-7.32-1.06a72,72,0,0,0-13.35-.43c-1.24.1-2.45.24-3.6.43l-5.61,2.6-1.51.69s-7.67-2-18.71-4.94c-20.38-5.39-52.3-13.87-69.08-18.44h0a1.57,1.57,0,0,0-.26,0l-.24,0c-3.88-.22-30.17-1.52-48.43,5.06l-.05,0c-6.9,2.5-12.64,6.11-15.58,11.36a.35.35,0,0,0-.05.08,14.35,14.35,0,0,0-.94,2,16.87,16.87,0,0,0-1.14,5.61,20,20,0,0,0,.09,2.87,22.37,22.37,0,0,1-2.27-8.48c-.8-10.52,5-28.12,48.39-36.7,0,0,25.87-7.76,57.87-13.64a61.43,61.43,0,0,1,.08-13.55,20.57,20.57,0,0,1,.77-3.47c.65-2,1.63-3.63,3.07-4.3l.17-.09,51.69-8.57,7.85-1.31a20.49,20.49,0,0,1,4,.38l.25,0c7.52,1.32,23.55,7,35.29,30.87,0,0,47.89,4.94,78,25.17l-2.83-10.21s.49.33,1.38.86c4.87,2.89,21.81,11.37,38.17.45.46-.31.93-.63,1.39-1C469.6,275.94,473.93,297.92,465.52,311Z"/>
          <path class="cls-23" d="M459.37,317.19a18.23,18.23,0,0,1-2,1.09s-76.69,8-105.87,0a186.44,186.44,0,0,0-20.44-4.87s1.11.29,1.11.29c-2.37-.41-7.32-3.18-9.8-3.46l3.81-1.5s124.35,15,135.64,6.61Z"/>
          <g>
            <path class="cls-12" d="M354.27,21.43c-1.67-3.2-8.86-5.33-12.41-5.92-8.87-1.46-12.2-1.6-12.6-1.49,1.39-1,5.28-.8,7.67-1.87.5-.22.34-2-.21-2-13.16-.47-27,3.57-33.05,5.61-5.88.66-14.07,1.62-17,2.14-13.73,2.43-41.54,5.93-51.82,12.2,0,0-17.41.65-9.64,22.2,0,0,11.14,46.28,19.89,76.94,3.22,11.29,6.12,20.46,8,24.43a5.36,5.36,0,0,0,1.35,2.06l6-8.8,8.19-12,4.9-7.14,3.08-4.48.13-.2h0l.39-.58v0a2.13,2.13,0,0,1-.12-.29h0c-.23-.58-.75-1.88-1.49-3.76-.3-.73-.62-1.55-1-2.45-.29-.7-.58-1.45-.9-2.24l-.91-2.31c-3.19-8.1-7.66-19.59-11.91-30.88-4.39-11.69-8.54-23.17-10.75-30.48l24.53-6.89,1.82-.52,4.18-1.17.66-.19.36-.1L290,37.9l1.17-.33L308,29l6.77-.43c3.61,2.89,9.25,5.8,13.17,5.25a1.69,1.69,0,0,0,.57-3.13l-3.89-2.23a.45.45,0,0,1,.34-.82l15.89,3.07C356,30.19,356.12,25,354.27,21.43Z"/>
            <path class="cls-19" d="M276.27,124.7l-1.5,1.37-3.25,4.73v-3L246.9,49.12l35.4-11-1.66,3.4-6,1.69L250.11,50.1c2.21,7.31,6.36,18.79,10.75,30.48,4.25,11.29,8.72,22.78,11.91,30.88l.91,2.31c.32.79.61,1.54.9,2.24.35.9,1.59,4,2.58,6.56Z"/>
          </g>
          <path class="cls-24" d="M318.1,229.6l-.15.14a61.82,61.82,0,0,1-6.07,4.84c-10.25,7.23-32.09,18.94-57.49,10.24-1.06-.36-2.13-.75-3.19-1.19l-.38-.16v-58.1s-19.29-14.11.94-29.87c0,0,.49-.66,1.32-1.82,1.39-2,3.75-5.34,6.36-9.48,5.72-9,13.06-22.55,13.88-31.35l6.24.92s-1,3.68-2.39,8.77a.06.06,0,0,0,0,0c-.32,1.19-.61,2.46-.86,3.78a36.42,36.42,0,0,0-.7,8.12,25.82,25.82,0,0,0,.25,2.79,18.21,18.21,0,0,0,2.07,6.33,0,0,0,0,0,0,0s.05.1.11.21c.76,1.3,5,7.34,18.15,4.62a11.85,11.85,0,0,0,5.85-3.12,72.06,72.06,0,0,0,16.44-24.4l.09-.25.16,0,11.48,3.21,3.11.87c-.17,1-6.72,36.4-21.82,87.71-.51,1.76-1.05,3.53-1.58,5.33a6.68,6.68,0,0,0,1.25,6.19C313.28,226.6,316.36,229.89,318.1,229.6Z"/>
          <path class="cls-25" d="M309.92,217.84a6.68,6.68,0,0,0,1.25,6.19c2.11,2.57,5.19,5.86,6.93,5.57l-.15.14.25,0-5.69,5-.63-.16a9.36,9.36,0,0,1-5.76-3.91c-3.62-5.82,1.25-15.06,1.25-15.06l1.54-6.18,21.3-85.5,3.11-12.46,14.25,5.33L325.06,221.25a75.76,75.76,0,0,1-12.55-7.89,10.1,10.1,0,0,1-1-.85C311,214.27,310.45,216,309.92,217.84Z"/>
          <path class="cls-26" d="M334.56,125.15l-1.24-.35a0,0,0,0,0,0,0Z"/>
          <path class="cls-27" d="M370.14,92.11c-6.38,23.67-23.33,107.61-23.33,107.61,2.81,23.06,14.1,7.52,14.1,7.52-1,5.32-2.87,9.4-5.35,12.34-6.72,8-18.09,7.75-30.5,1.67a76.17,76.17,0,0,1-12.55-7.89,11.64,11.64,0,0,1-1-.85,16.12,16.12,0,0,1-2.6-3.07c-14-21.33,8-84,9.57-88.51l.1-.25.47-25.4c6.7-3.62,22.17-19.75,22.17-19.75-7-3.75-3.35-36.15-3.35-36.15-33.4-1.78-41.24-13.76-41.24-13.76l-15.89,16.6C275.94,6.85,311.54,1.63,311.54,1.63c11.75-2.4,20.82-1.94,27.8,0a35.73,35.73,0,0,1,7.45,3,30.41,30.41,0,0,1,15.06,18.67c7.6,14.06,9.07,47.73,9.35,60.19A30.3,30.3,0,0,1,370.14,92.11Z"/>
          <path class="cls-12" d="M366.8,336.88l-3.29-3.06s-12.95,2.58-43.06-.24l-113.86-1.32s-47.71-.07-55.27-7a3.13,3.13,0,0,1-.71-.86S133.22,309.24,167,296.26c0,0,35-18.91,138.47,20.14l1.95,1.18s4.85-15.29,27.2-2.58l7.29,5.64,13.88.23s6.59-2.58,12.23,5.41a16.23,16.23,0,0,1,2.92,5.31,8.33,8.33,0,0,1,.37,2S374.79,342.52,366.8,336.88Z"/>
          <path class="cls-19" d="M366.8,336.88l-3.29-3.06s-12.95,2.58-43.06-.24l-113.86-1.32s-47.71-.07-55.27-7l219.57,6.33a8.33,8.33,0,0,1,.37,2S374.79,342.52,366.8,336.88Z"/>
          <g>
            <g class="cls-28">
              <path class="cls-29" d="M307.9,312.64c-3.25-1.79-6.44-3.68-9.62-5.58s-6.33-3.85-9.48-5.81-6.26-4-9.35-6l-4.63-3.07c-1.53-1.06-3.07-2.08-4.58-3.16,1.63.88,3.22,1.83,4.84,2.74l4.78,2.84c3.19,1.89,6.33,3.85,9.48,5.81s6.26,4,9.35,6S304.87,310.5,307.9,312.64Z"/>
            </g>
            <g class="cls-28">
              <path class="cls-29" d="M325.26,310c.24-2.58.59-5.14.95-7.71s.78-5.11,1.21-7.66.91-5.09,1.44-7.62l.8-3.8c.31-1.26.58-2.52.91-3.78-.11,1.3-.28,2.58-.42,3.87l-.53,3.84c-.35,2.56-.78,5.11-1.21,7.66s-.91,5.09-1.44,7.63S325.91,307.46,325.26,310Z"/>
            </g>
            <g class="cls-28">
              <path class="cls-29" d="M448.09,297.6a102.51,102.51,0,0,1-9.13-5.77,99.1,99.1,0,0,1-8.57-6.6,117.27,117.27,0,0,1,17.7,12.37Z"/>
            </g>
            <g class="cls-28">
              <path class="cls-29" d="M353.1,261a54.64,54.64,0,0,1-5.17,5.88,53.7,53.7,0,0,1-5.88,5.17,53.7,53.7,0,0,1,5.17-5.88A54.64,54.64,0,0,1,353.1,261Z"/>
            </g>
            <g class="cls-28">
              <path class="cls-29" d="M265,264.6a61.89,61.89,0,0,1-15.13-4,61.89,61.89,0,0,1,15.13,4Z"/>
            </g>
            <g class="cls-30">
              <path class="cls-29" d="M253.21,251.05a78,78,0,0,0,9.49,2.29,85.19,85.19,0,0,0,9.67,1.23,73,73,0,0,0,19.36-1A57.28,57.28,0,0,0,309.91,247a22.91,22.91,0,0,0,2.08-1.25c.68-.44,1.38-.85,2-1.32,1.31-1,2.65-1.88,3.87-3a63.17,63.17,0,0,0,7-6.76,53.84,53.84,0,0,1-14.64,12.95,49.91,49.91,0,0,1-8.88,4.24,57.78,57.78,0,0,1-9.49,2.63,71.25,71.25,0,0,1-19.61.78A75,75,0,0,1,253.21,251.05Z"/>
            </g>
          </g>
          <ellipse class="cls-12" cx="337.64" cy="75.8" rx="11.32" ry="8.22" transform="translate(36.74 246.69) rotate(-42.25)"/>
        </g>
        <g>
          <g id="lightleaf-2" data-name="lightleaf" class="cls-1">
            <path class="cls-2" d="M859.57,429.31s-99-19-93.26-86.33a1.6,1.6,0,0,1,2.57-1.14c6.1,4.72,23.28,16.43,35.47,9.11,0,0-53.87-17-40.27-37.69,0,0-4.52-7.53,10.47-24.53L799,291.25S781.83,278,781.27,257.64c0,0,6-42.1,45.17-70.57a3.49,3.49,0,0,1,4-.09c7.88,5.16,36.85,24.6,51.94,41.53a5,5,0,0,1,.69,5.68c-4.26,7.9-16.28,29.15-26.39,37.38,0,0-13.24,17.18,8.2,6.14,0,0,38.65-41.06,51.14-8,0,0,15.86,17.52-10,36.94L869.76,333l40.11-6.78a3.51,3.51,0,0,1,3.66,1.75C917.43,335,923.32,361.52,859.57,429.31Z"/>
            <path class="cls-3" d="M828.39,185.68C836.65,299,810.19,327,859.57,429.31"/>
            <path class="cls-3" d="M788.21,366.94c18,26.8,22.72,33.07,64.08,45.57"/>
            <path class="cls-3" d="M786.19,298.64c18,26.8,16,28.52,44.52,42.68"/>
            <path class="cls-3" d="M797.18,225.29c6.65,31.61,10.64,33.7,31.74,57.54"/>
            <path class="cls-3" d="M891.23,345.24c-25.89,14.54-10.11,27.73-45.4,52.65"/>
            <path class="cls-3" d="M892.9,280c-16.34,9.33-36.46,24.48-62.35,62.69"/>
            <path class="cls-3" d="M841.67,201.36c14.5,33.77,10.53,41.7-11.95,64.61"/>
          </g>
          <g id="darckleaf">
            <path class="cls-5" d="M839.76,429.64s-71.15-60.13-36.32-111.87a1.61,1.61,0,0,1,2.82.26c2.88,6.74,11.4,23.62,24.44,23.24,0,0-35.81-38.19-15.44-48.72,0,0-.22-7.51,17.33-14.25a4.47,4.47,0,0,1,4.16.52l16.72,11.79s-7.87-18.5.92-35.2c0,0,23.56-30.74,67.35-36.38a4.83,4.83,0,0,1,4.92,2.57c4.05,7.85,15.05,29.91,20.62,48.54a14.32,14.32,0,0,1-6.42,16.41c-9,5.32-22.67,12.72-31.89,14.31,0,0-18.49,7.87,3.84,8.68,0,0,49.85-15.63,44.94,16.75,0,0,4.87,21.35-24.82,25.32l-41.21,4.8,34.85,12.49a4.17,4.17,0,0,1,2.74,4.27C928.6,381.62,918.78,404.82,839.76,429.64Z"/>
            <g class="cls-31">
              <path class="cls-5" d="M925.11,218.64c-44.76,95.34-78.83,105.94-85.35,211"/>
              <path class="cls-5" d="M810.39,346.87c2.42,29.83,3.36,37,31.11,65.89"/>
              <path class="cls-5" d="M839.76,290.77c2.42,29.84,0,30.31,16.6,54.68"/>
              <path class="cls-5" d="M881.92,236.49c-9,28.56-6.69,32.06-.47,60.89"/>
              <path class="cls-5" d="M903.48,376.08c-27.51,0-20.75,17.82-60.57,21.94"/>
              <path class="cls-5" d="M934.43,324.14c-17.44.13-40.57,3.23-78.83,22.36"/>
              <path class="cls-5" d="M928.72,237.34c-3.61,33.87-10.41,38.47-39,46.78"/>
            </g>
          </g>
          <g id="pinkflower-2" data-name="pinkflower">
            <g>
              <path class="cls-7" d="M806.27,278.51c11.47,71.74-3.85,91,33.2,153.44"/>
              <path class="cls-7" d="M790.61,396.15c13,16.07,16.28,19.81,43.31,25.5"/>
              <path class="cls-7" d="M785.58,352.77c13,16.07,11.76,17.28,30.69,24.74"/>
              <path class="cls-7" d="M788.56,305.45c6,19.77,8.62,20.88,23.36,34.9"/>
              <path class="cls-7" d="M855,376.68c-15.69,10.68-4.92,18.22-26,36"/>
              <path class="cls-7" d="M852.52,335.06c-9.9,6.84-21.88,17.58-36.27,43.34"/>
              <path class="cls-7" d="M822.87,292.49c1.82,24.87,1.7,21.26-11.36,37.09"/>
            </g>
            <ellipse class="cls-8" cx="807.09" cy="258" rx="15.37" ry="30.73"/>
            <ellipse class="cls-8" cx="853.35" cy="326.51" rx="19.26" ry="9.63" transform="translate(106.32 852.59) rotate(-56.09)"/>
            <ellipse class="cls-8" cx="789.4" cy="394.46" rx="9.63" ry="19.26" transform="translate(-47.72 673.73) rotate(-45)"/>
            <ellipse class="cls-8" cx="787.4" cy="303.84" rx="11.09" ry="22.19" transform="translate(-55.7 342.44) rotate(-23.72)"/>
            <ellipse class="cls-8" cx="856.26" cy="366.5" rx="22.19" ry="11.09" transform="translate(162.78 988.27) rotate(-65.05)"/>
            <ellipse class="cls-8" cx="828.78" cy="295.48" rx="13.75" ry="6.88" transform="translate(271.78 976.61) rotate(-70.35)"/>
            <ellipse class="cls-8" cx="779.85" cy="344.25" rx="6.88" ry="13.75" transform="translate(-59.64 492.34) rotate(-33.82)"/>
          </g>
          <g id="whiteflower-2" data-name="whiteflower">
            <g>
              <path class="cls-9" d="M883.28,319.46c-19.9,48-36.46,54-37.29,106"/>
              <path class="cls-9" d="M829.64,385.27c1.87,14.65,2.49,18.18,16.83,31.78"/>
              <path class="cls-9" d="M842.84,357c1.87,14.65.69,14.94,9.43,26.58"/>
              <path class="cls-9" d="M862.4,329.24c-3.78,14.28-2.58,15.95,1.15,30"/>
              <path class="cls-9" d="M876.19,397.56c-13.56.62-9.82,9.25-29.36,12.19"/>
              <path class="cls-9" d="M890.26,371.25c-8.59.46-19.92,2.52-38.34,12.81"/>
              <path class="cls-9" d="M888.16,334.2c-8.22,15.84-6.93,13.59-20.83,18.34"/>
            </g>
            <ellipse class="cls-10" cx="891.48" cy="307.27" rx="21.99" ry="10.99" transform="translate(162.6 905.51) rotate(-58.4)"/>
            <ellipse class="cls-10" cx="892.4" cy="364.64" rx="13.78" ry="6.89" transform="translate(-70.87 402.7) rotate(-24.49)"/>
            <ellipse class="cls-10" cx="829.54" cy="383.79" rx="6.89" ry="13.78" transform="translate(-66.35 202.62) rotate(-13.4)"/>
            <ellipse class="cls-10" cx="863.51" cy="328.57" rx="15.87" ry="7.94" transform="translate(419.62 1138.86) rotate(-82.12)"/>
            <ellipse class="cls-10" cx="880.76" cy="391.82" rx="15.87" ry="7.94" transform="translate(-70.1 550.33) rotate(-33.45)"/>
            <ellipse class="cls-10" cx="890.03" cy="337.86" rx="9.84" ry="4.92" transform="translate(-15.6 631.35) rotate(-38.74)"/>
            <ellipse class="cls-10" cx="844.92" cy="350.18" rx="4.92" ry="9.84" transform="translate(-12.92 32.97) rotate(-2.22)"/>
          </g>
        </g>
        <g>
          <polygon class="cls-11" points="78.34 416.29 0 449.46 401.57 449.46 911.83 449.46 832.08 416.29 429.3 416.99 78.34 416.29"/>
          <polygon class="cls-32" points="863.54 429.66 330.02 426.41 337.42 426.16 845.99 421.71 863.54 429.66"/>
          <path class="cls-14" d="M262.62,427.43H74.42a6.93,6.93,0,0,1,.33-2.93c1.72-4.72,9.08-3.34,9.08-3.34l5-5c9.4-6.9,15.05-3.29,15.05-3.29h12.54l15.07-12.7c8-9.89,15.05-.48,15.05-.48l11.76,8.47,102.9-20.71,1.26,35.78Z"/>
          <path class="cls-32" d="M262.62,427.43H74.42a6.93,6.93,0,0,1,.33-2.93l187.73-1.29Z"/>
          <path class="cls-14" d="M804.22,427.78l-48.65-2.18L742.64,425,701.65,289s-6.75-26.82-10.23-34.37c0,0-.55-1.19-1.46-3.31-6-13.78-27.78-66.64-20.51-83.86,0,0,10.07-15.09,23.3-4.75,0,0,6.13,2.81,10.29,19.78.78,3.18,1.66,6.31,2.74,9.4,5,14.34,19.64,61.89,24,88.49,0,0,11.52,37.25,25.94,125.49C755.76,405.83,800.62,413.49,804.22,427.78Z"/>
          <path class="cls-15" d="M755.57,425.6,742.64,425,701.65,289s-6.75-26.82-10.23-34.37c0,0-.55-1.19-1.46-3.31l4.4-1.79Z"/>
          <path class="cls-33" d="M583.18,372.76s-82.87,40-153.88,44.23c0,0-50.79,9.41-71,8.48l-97.39,3.25-.79-5.67-4.85-34.75s40-15.07,87-2.83c0,0,83.27-44.7,116.21-53.17,0,0,12.71-64,99.75-42.34l21,69.77Z"/>
          <path class="cls-32" d="M583.18,372.76s-82.87,40-153.88,44.23c0,0-50.79,9.41-71,8.48l-97.39,3.25-.79-5.67c54.35,2.17,171.9-14.21,171.9-14.21,44-2.86,131.81-42.08,147.26-49.11Z"/>
          <path class="cls-34" d="M711.71,249.16l-24.93,35.28s-.4,1.06-1.2,2.93a223.89,223.89,0,0,1-18.89,35.1c-17.62,26.71-46.6,57.08-85.86,53.59-1.33-.13-3.62-1.75-6.33-4.7-11-11.9-29-45.35-19.46-87.85l42.88-1.71s6.78-59.74,20.77-93.33c5.18-12.48,11.37-21.36,18.57-22.21h0a10.21,10.21,0,0,1,5.08.75h0a13.47,13.47,0,0,1,1.59.76s22.65,26.79,24.91,29.26c3,3.27,15.57,15.74,21.79,4.3a16.52,16.52,0,0,0,1.19-12.45l-9.35-29.82,4.18,4.31,8.16,20.22,13.54,33.59S725.36,238.8,711.71,249.16Z"/>
          <path class="cls-32" d="M642.41,167c-.08.06-.6.38-1.41,1-4.25,3.08-16.92,13.5-20.26,31a45.44,45.44,0,0,0-.83,8.69l-22,74.17s6.78-59.74,20.77-93.33c-.75-5.57-.66-10.36.62-13.82,0,0,5.38-8.9,13.94-9l4,.58h.11l5.08.75Z"/>
          <path class="cls-35" d="M710.68,250.62l-22.55,31.91a20.32,20.32,0,0,0-2,3.56c-1.65,4.11-38.81,96.3-105.84,89.58-1-.11-2.47-1-4.44-2.83-.74-.71-1-1.73,0-1.94,11.18-2.28,32.33-7.57,49-17.41a42.24,42.24,0,0,0,13.36-12.61c11.07-16.17,36.53-62.06,59-86.49,15.5-16.81,10.28-16.41,6.16-30.66C697.2,202.56,690.55,179.45,687,164l6.9,19.55c.07-1.35,2.59,4,3.09,5.23l11.44,28.36c0,.1,3.05,5.42,3.12,5.51,1.36,1.78,10.9,17.93-.07,26.81C711.38,249.57,710.74,250.53,710.68,250.62Z"/>
          <path class="cls-14" d="M765.6,428.72H704L666.69,322.47l-9.76-27.84s-7.95-26.48-11.77-33.88c0,0-17.72-35-24.42-61.81a92.93,92.93,0,0,1-2-10.47c-.75-5.57-.66-10.36.62-13.82,0,0,5.38-8.9,13.94-9a12.82,12.82,0,0,1,4,.58l.06,0A16.77,16.77,0,0,1,641,168c.45.27.92.58,1.38.91,0,0,6.24,2.53,11.16,19.29.92,3.14,2,6.23,3.16,9.27,5.64,14.1,22.4,60.95,28,87.32,0,0,.31.86.89,2.62,3.25,9.78,15.08,47.45,30.62,121.59C716.2,409,761.38,414.6,765.6,428.72Z"/>
          <g id="head">
            <path class="cls-14" d="M643,137.52l33.13-4.24,13.75,55.05s5,33.88-23.44,6.35L643,169.37Z"/>
            <ellipse class="cls-14" cx="684.73" cy="96.13" rx="8.92" ry="12.29" transform="translate(7.88 237.45) rotate(-19.79)"/>
            <path class="cls-14" d="M681.89,145.61c-18,13.26-47.46,3.13-64.63-20.12a68.75,68.75,0,0,1-4.3-6.59c-9.31-16.24-10.63-34.4-4.1-47.63a32.32,32.32,0,0,1,9.83-11.87,26.93,26.93,0,0,1,6.59-3.61c17.38-6.66,39.86,5.16,55,25.6l.11.15c.88,1.2,1.73,2.41,2.53,3.63a76.84,76.84,0,0,1,4.77,8.24C697.78,113.55,696.86,134.55,681.89,145.61Z"/>
            <ellipse class="cls-14" cx="616.18" cy="128.63" rx="8.92" ry="12.29" transform="translate(230.6 626.18) rotate(-64.02)"/>
            <path class="cls-36" d="M681.32,86c.63.69,1.26,1.4,1.92,2.11,0,0-.06-1.09-.29-3-1-8.35-5.22-32.1-21.81-42.64-8-5.06-18.52-8-27.88-6.89-15,1.85-38.33,8-44,28.16,0,0-35-3.37-30.29,35.61,0,0,6.6,33.09,32.23,19.6,0,0,10.41,8.13,12.76,7.7a.52.52,0,0,0,.46-.53c.36-5.24,3.58-7.43,8.49-7.28a17.94,17.94,0,0,1,2.82.3s6-18.25-6.24-31.75a2.75,2.75,0,0,1-.43-3.11h0a19.5,19.5,0,0,0,8.93,8.3,15.65,15.65,0,0,1-4.91-10.17h0l1.34-.27h0c3.73,5.94,11.44,8.39,11.44,8.39-4.65-1.81-6.43-5.58-6.9-9.46.54-.14,1.11-.29,1.67-.47,3.92,5.94,11.55,8.15,11.55,8.15-4-3.71-5.94-7-6.68-9.74l.05,0a19.5,19.5,0,0,0,8.93,8.3,15.56,15.56,0,0,1-4.88-10c.42-.19.83-.38,1.25-.59,3.69,6,11.51,8.51,11.51,8.51-5.25-2-6.84-6.58-7-11l.88-.55c3.49,7.12,12.47,9.72,12.47,9.72-6.26-5.82-7.55-10.51-6.91-14,.53-.49,1-1,1.55-1.52,1.94,7.9,10,11.3,10,11.3-4.08-3.75-5.21-8.76-5-13.63,2.45,8.27,12.89,11.58,12.89,11.58-6.34-2.46-7.36-8.55-7-13.62,2.55,8.73,13.28,11.84,13.28,11.84-5.13-4.77-6.92-8.79-7-12C665.07,67.58,671.28,74.94,681.32,86Z"/>
            <g class="cls-37">
              <circle class="cls-38" cx="678.67" cy="102.16" r="4.14"/>
              <circle class="cls-38" cx="654.33" cy="118.29" r="4.71"/>
              <path class="cls-39" d="M662.25,104l9,7a3.11,3.11,0,0,1,.7,3.36l-2.26,2.79"/>
              <path class="cls-39" d="M684.09,120.2a8.62,8.62,0,0,1-2.72,11c-6.21,5.4-13.52-1.4-13.52-1.4"/>
              <circle class="cls-40" cx="668.69" cy="87.34" r="2.83"/>
              <circle class="cls-40" cx="644.29" cy="102.27" r="2.83"/>
            </g>
            <path class="cls-15" d="M643,164.94V147.35s.09,1.58,11.35,4.16S673,150.06,673,150.06,643,169.44,643,164.94Z"/>
          </g>
          <path class="cls-15" d="M597.93,281.8l-44.69,12.49,1.8-10.78Z"/>
          <g class="cls-30">
            <path class="cls-41" d="M342.29,385.47c-1.46,1.53-3,3-4.54,4.41s-3.12,2.82-4.7,4.2-3.21,2.73-4.86,4l-2.48,2c-.86.62-1.68,1.27-2.56,1.87.73-.77,1.49-1.5,2.24-2.25l2.3-2.16c1.53-1.44,3.12-2.82,4.7-4.2s3.21-2.73,4.86-4S340.56,386.69,342.29,385.47Z"/>
          </g>
          <g class="cls-30">
            <path class="cls-41" d="M458.5,332.3c2.9,1.31,5.76,2.71,8.61,4.13s5.67,2.89,8.48,4.37,5.61,3,8.38,4.57l4.15,2.36c1.37.82,2.75,1.61,4.1,2.45-1.46-.64-2.89-1.34-4.33-2l-4.28-2.11c-2.85-1.41-5.67-2.89-8.49-4.37s-5.6-3-8.37-4.57S461.21,334,458.5,332.3Z"/>
          </g>
        </g>
      </g>
    </g>
  </g>
</svg>
