<svg xmlns="http://www.w3.org/2000/svg" viewBox="0 0 128 128"><switch><g><path d="M97.2 64.6H63.6c-1.7 0-3.1-1.4-3.1-3.1 0-1.7 1.4-3.1 3.1-3.1h33.6c5.9 0 11.4-2.3 15.5-6.4 4.1-4.1 6.4-9.6 6.4-15.5 0-12.1-9.8-21.9-21.9-21.9H30c-5.9 0-11.4 2.3-15.5 6.4-4.1 4.1-6.4 9.6-6.4 15.5 0 12.1 9.8 21.9 21.9 21.9h18.1c1.7 0 3.1 1.4 3.1 3.1 0 1.7-1.4 3.1-3.1 3.1H30C14.5 64.6 1.9 52 1.9 36.5c0-7.5 2.9-14.6 8.2-19.8 5.3-5.3 12.3-8.2 19.8-8.2h67.2c15.5 0 28.1 12.6 28.1 28.1 0 7.5-2.9 14.5-8.2 19.8-5.3 5.3-12.3 8.2-19.8 8.2z"/><path d="M91.4 122H49.1c-.8 0-1.6-.3-2.2-.9-.6-.6-.9-1.4-.9-2.2l.2-12.2L29.5 93c-.3-.2-.5-.5-.7-.8-.3-.5-3.1-5.3-1.4-10.1.6-1.9 2.3-4.5 6.3-6.2 4.5-1.8 8.4-.6 11.4 1.6v-34-.4c.1-.6.9-6.2 4.7-9.1 1.9-1.4 4.1-1.9 6.5-1.4 8.6 1.5 10.2 10.9 10.3 11.3v21.6L82.9 70c4.8.7 13.5 4.7 12.8 14.8-.6 9.9-1.2 33.9-1.2 34.2 0 1.7-1.4 3-3.1 3zm-39.2-6.1h36.3c.2-6.8.6-23.4 1.1-31.4.5-7-6.9-8.3-7.8-8.4-.1 0-.3 0-.4-.1l-18.7-5.1c-1.3-.4-2.3-1.6-2.3-3V44.8c-.2-1-1.4-5.4-5.3-6.1-1-.2-1.5.1-1.8.3-1.4 1-2.1 3.7-2.3 4.7V86c0 1.4-1 2.7-2.4 3-1.4.3-2.8-.4-3.4-1.7-.2-.4-3.8-8-9.4-5.7-2.3.9-2.6 2-2.8 2.4-.5 1.6.2 3.6.7 4.6L51 102.9c.7.6 1.1 1.5 1.1 2.4l.1 10.6z"/><path d="M50.2 108.4c-1.7 0-3-1.3-3.1-3 0-1.7 1.3-3.1 3-3.1l41.7-1.1c1.7-.1 3.1 1.3 3.1 3s-1.3 3.1-3 3.1l-41.7 1.1z"/><circle cx="89" cy="35" r="19.1" fill="#d6b2f5"/><path d="M85.1 46.1c-.8 0-1.6-.3-2.3-1L73.4 35c-1.1-1.2-1.1-3.2.2-4.3 1.2-1.2 3.2-1.1 4.3.2l7.4 8 15-12.8c1.3-1.1 3.2-.9 4.3.3 1.1 1.3.9 3.2-.3 4.3L87.1 45.4c-.6.4-1.3.7-2 .7z"/></g></switch></svg>