<svg version="1.1" id="Layer_1" xmlns="http://www.w3.org/2000/svg" x="0" y="0" viewBox="0 0 100 100" xml:space="preserve"><style>.st0{fill:#231f20}</style><switch><g><path class="st0" d="M73.7 100.2H13.5c-1.4 0-2.5-1.1-2.5-2.5V19.8c0-1.4 1.1-2.5 2.5-2.5h10.8c1.4 0 2.5 1.1 2.5 2.5s-1.1 2.5-2.5 2.5H16v72.9h55.2V22.3H43c-1.4 0-2.5-1.1-2.5-2.5s1.1-2.5 2.5-2.5h30.7c1.4 0 2.5 1.1 2.5 2.5v77.9c0 1.4-1.1 2.5-2.5 2.5z"/><path class="st0" d="M80.3 92.3h-6.6c-1.4 0-2.5-1.1-2.5-2.5s1.1-2.5 2.5-2.5h4.1V14.7H24.3v3.5c0 1.4-1.1 2.5-2.5 2.5s-2.5-1.1-2.5-2.5v-6c0-1.4 1.1-2.5 2.5-2.5h58.5c1.4 0 2.5 1.1 2.5 2.5v77.7c0 1.3-1.1 2.4-2.5 2.4z"/><path class="st0" d="M88.3 87.9h-6.7c-1.4 0-2.5-1.1-2.5-2.5s1.1-2.5 2.5-2.5h4.2V6H31.1v4.9c0 1.4-1.1 2.5-2.5 2.5s-2.5-1.1-2.5-2.5V3.5c0-1.4 1.1-2.5 2.5-2.5h59.7c1.4 0 2.5 1.1 2.5 2.5v81.9c0 1.4-1.1 2.5-2.5 2.5zM32.4 54.7H21.2c-1.4 0-2.5-1.1-2.5-2.5V40c0-1.4 1.1-2.5 2.5-2.5h11.3c1.4 0 2.5 1.1 2.5 2.5v12.3c-.1 1.3-1.2 2.4-2.6 2.4zm-8.7-5H30v-7.3h-6.3v7.3zM32.4 74.7H21.2c-1.4 0-2.5-1.1-2.5-2.5V59.9c0-1.4 1.1-2.5 2.5-2.5h11.3c1.4 0 2.5 1.1 2.5 2.5v12.3c-.1 1.4-1.2 2.5-2.6 2.5zm-8.7-5H30v-7.3h-6.3v7.3zM32.4 93.4H21.2c-1.4 0-2.5-1.1-2.5-2.5V78.6c0-1.4 1.1-2.5 2.5-2.5h11.3c1.4 0 2.5 1.1 2.5 2.5v12.3c-.1 1.4-1.2 2.5-2.6 2.5zm-8.7-5H30v-7.3h-6.3v7.3z"/><path class="st0" d="M65 49.3H38.5c-1.4 0-2.5-1.1-2.5-2.5s1.1-2.5 2.5-2.5H65c1.4 0 2.5 1.1 2.5 2.5s-1.1 2.5-2.5 2.5zM64.5 68.6H39c-1.4 0-2.5-1.1-2.5-2.5s1.1-2.5 2.5-2.5h25.5c1.4 0 2.5 1.1 2.5 2.5s-1.1 2.5-2.5 2.5zM64.5 86.9H39c-1.4 0-2.5-1.1-2.5-2.5s1.1-2.5 2.5-2.5h25.5c1.4 0 2.5 1.1 2.5 2.5s-1.1 2.5-2.5 2.5z"/><ellipse cx="32.9" cy="25" rx="10.6" ry="10.5" fill="#d6b2f5"/><path fill="none" stroke="#231f20" stroke-width="3" stroke-linecap="round" stroke-linejoin="round" stroke-miterlimit="10" d="M29.1 17.3h7.6l.3 14.3h-7.9v-8.1l3.8-.1"/></g></switch></svg>