<svg xmlns="http://www.w3.org/2000/svg" xmlns:xlink="http://www.w3.org/1999/xlink" width="162" zoomAndPan="magnify" viewBox="0 0 121.5 121.499994" height="162" preserveAspectRatio="xMidYMid meet" version="1.2"><g id="7f863f32ec"><path style=" stroke:none;fill-rule:nonzero;fill:#004aad;fill-opacity:1;" d="M 120.699219 60.347656 C 120.699219 27.019531 93.679688 0 60.347656 0 C 27.019531 0 0 27.019531 0 60.347656 C 0 90.472656 22.070312 115.4375 50.917969 119.964844 L 50.917969 77.792969 L 35.597656 77.792969 L 35.597656 60.347656 L 50.917969 60.347656 L 50.917969 47.054688 C 50.917969 31.929688 59.929688 23.574219 73.714844 23.574219 C 80.316406 23.574219 87.222656 24.753906 87.222656 24.753906 L 87.222656 39.605469 L 79.613281 39.605469 C 72.117188 39.605469 69.777344 44.257812 69.777344 49.027344 L 69.777344 60.347656 L 86.515625 60.347656 L 83.839844 77.792969 L 69.777344 77.792969 L 69.777344 119.964844 C 98.628906 115.4375 120.699219 90.472656 120.699219 60.347656 "/></g></svg>