<svg version="1.1" id="Layer_1" xmlns="http://www.w3.org/2000/svg" x="0" y="0" viewBox="0 0 128 128" xml:space="preserve"><style>.st0{fill:#231f20}</style><switch><g><path class="st0" d="M116 108.5c-1.4 0-2.5-1.1-2.5-2.5v-9.5c0-1.4 1.1-2.5 2.5-2.5s2.5 1.1 2.5 2.5v9.5c0 1.4-1.1 2.5-2.5 2.5z"/><path d="M83.1 108.5H20.4c-1.4 0-2.5-1.1-2.5-2.5V2.6c0-1.4 1.1-2.5 2.5-2.5h65.5c1.4 0 2.5 1.1 2.5 2.5s-1.1 2.5-2.5 2.5h-63v98.4h60.3c1.4 0 2.5 1.1 2.5 2.5s-1.2 2.5-2.6 2.5z"/><path class="st0" d="M116 62c-1.4 0-2.5-1.1-2.5-2.5V33.9c0-1.4 1.1-2.5 2.5-2.5s2.5 1.1 2.5 2.5v25.6c0 1.4-1.1 2.5-2.5 2.5z"/><path d="M116 36.4c-.7 0-1.3-.3-1.8-.8l-.9-.9L89 9.5c-1-1-.9-2.6.1-3.5 1-1 2.6-.9 3.5.1l25.1 26.1c1 1 .9 2.6-.1 3.5-.3.5-1 .7-1.6.7z"/><path d="M90.8 10.3c-.7 0-1.3-.3-1.8-.8l-4.9-5.1c-1-1-.9-2.6.1-3.5 1-1 2.6-.9 3.5.1l.7.7L92.6 6c1 1 .9 2.6-.1 3.5-.4.5-1 .8-1.7.8z"/><path d="M116.3 37.3H86.4c-1.3 0-2.4-1.1-2.5-2.4L82.7 2.7c0-1 .6-2 1.5-2.4 1-.4 2.1-.2 2.8.6l31.1 32.2c.7.7.9 1.8.5 2.7-.4.9-1.3 1.5-2.3 1.5zm-27.5-5h21.6L87.9 9.1l.9 23.2zM95.2 48.7H35.7c-1.4 0-2.5-1.1-2.5-2.5s1.1-2.5 2.5-2.5h59.5c1.4 0 2.5 1.1 2.5 2.5s-1.1 2.5-2.5 2.5zM68.2 63H35.7c-1.4 0-2.5-1.1-2.5-2.5s1.1-2.5 2.5-2.5h32.5c1.4 0 2.5 1.1 2.5 2.5S69.5 63 68.2 63zM68.2 77.7H37c-1.4 0-2.5-1.1-2.5-2.5s1.1-2.5 2.5-2.5h31.2c1.4 0 2.5 1.1 2.5 2.5s-1.2 2.5-2.5 2.5zM68.2 91.3H37.9c-1.4 0-2.5-1.1-2.5-2.5s1.1-2.5 2.5-2.5h30.3c1.4 0 2.5 1.1 2.5 2.5s-1.2 2.5-2.5 2.5zM21.4 127.9c-15.6-.2-19.9-20.5-20-21.4-.1-.7 0-1.5.5-2.1.5-.6 1.2-.9 1.9-.9h15.8c1.4 0 2.5 1.1 2.5 2.5s-1.1 2.5-2.5 2.5H7.1c1.6 4.9 5.8 14.3 14.3 14.4l75-.1c1.4 0 2.5 1.1 2.5 2.5s-1.1 2.5-2.5 2.5l-75 .1z"/><path d="M99.6 127.9c-6.5 0-11.4-2-14.7-5.8-5.6-6.5-4.2-16-4.2-16.4.2-1.4 1.5-2.3 2.8-2.1 1.4.2 2.3 1.5 2.1 2.8 0 .1-1.1 7.6 3.1 12.4 2.3 2.7 6 4.1 10.9 4.1s8.6-1.4 10.9-4.1c4.1-4.8 3-12.3 3-12.4-.2-1.4.7-2.6 2.1-2.8 1.4-.2 2.6.7 2.9 2.1.1.4 1.5 9.9-4.1 16.4-3.4 3.8-8.3 5.8-14.8 5.8z"/><circle cx="102.1" cy="81.2" r="25.9" fill="#d6b2f5"/><g><path d="M99.1 105.6c-15.2 0-27.6-12.4-27.6-27.6s12.4-27.6 27.6-27.6 27.6 12.4 27.6 27.6-12.4 27.6-27.6 27.6zm0-50.1c-12.4 0-22.6 10.1-22.6 22.6s10.1 22.6 22.6 22.6 22.6-10.1 22.6-22.6-10.2-22.6-22.6-22.6z" fill="#070707"/></g><g><path d="M97.4 65.2V62h3.6v3.1c4 .4 6.6 2.3 7.8 5.7l-5.8 1.8c-.6-1.6-1.8-2.4-3.6-2.4-1.5 0-2.3.5-2.3 1.5 0 .4.1.7.4.9.3.3 1 .5 2.2.8 2.7.6 4.6 1.1 5.8 1.6 1.2.5 2.1 1.3 2.9 2.4.8 1.1 1.2 2.4 1.2 3.9 0 2.1-.8 3.9-2.3 5.3-1.5 1.4-3.6 2.3-6.2 2.6v3.2h-3.6v-3.2c-4.5-.5-7.3-2.9-8.5-7.1l6.5-1.2c.6 1.9 2 2.9 4.2 2.9 1.8 0 2.6-.5 2.6-1.5 0-.5-.2-.9-.6-1.2s-1.1-.5-2.2-.7c-4.1-.8-6.7-1.9-7.8-3.2s-1.6-2.8-1.6-4.4c0-1.8.6-3.5 1.8-4.9 1.2-1.4 3.1-2.3 5.5-2.7z" fill="#050505"/></g></g></switch></svg>