<svg xmlns="http://www.w3.org/2000/svg" xmlns:xlink="http://www.w3.org/1999/xlink" width="500" zoomAndPan="magnify" viewBox="0 0 375 374.999991" height="500" preserveAspectRatio="xMidYMid meet" version="1.0"><defs><clipPath id="21d68dd68a"><path d="M 37.5 1.875 L 339 1.875 L 339 373.125 L 37.5 373.125 Z M 37.5 1.875 " clip-rule="nonzero"/></clipPath></defs><g clip-path="url(#21d68dd68a)"><path fill="#ffffff" d="M 74.933594 144.785156 C 95.671875 144.785156 112.8125 128.15625 112.8125 107.476562 C 112.8125 86.8125 95.671875 69.71875 74.933594 69.71875 C 54.207031 69.71875 37.515625 86.8125 37.515625 107.476562 C 37.515625 128.15625 54.207031 144.785156 74.933594 144.785156 Z M 301.242188 144.785156 C 321.980469 144.785156 338.65625 128.15625 338.65625 107.476562 C 338.65625 86.8125 321.980469 69.71875 301.242188 69.71875 C 280.515625 69.71875 263.835938 86.8125 263.835938 107.476562 C 263.835938 128.15625 280.515625 144.785156 301.242188 144.785156 Z M 301.242188 126.355469 C 312.066406 126.355469 320.179688 117.824219 320.179688 107.476562 C 320.179688 97.144531 312.066406 88.597656 301.242188 88.597656 C 290.878906 88.597656 282.316406 97.144531 282.316406 107.476562 C 282.316406 117.824219 290.875 126.355469 301.242188 126.355469 Z M 188.09375 76.925781 C 209.28125 76.925781 225.957031 59.835938 225.957031 39.167969 C 225.957031 18.9375 209.28125 1.875 188.09375 1.875 C 167.351562 1.875 150.675781 18.9375 150.675781 39.167969 C 150.675781 59.832031 167.351562 76.925781 188.09375 76.925781 Z M 188.09375 58.046875 C 198.917969 58.046875 207.480469 49.949219 207.480469 39.167969 C 207.480469 28.820312 198.917969 20.292969 188.09375 20.292969 C 177.730469 20.292969 169.167969 28.824219 169.167969 39.167969 C 169.167969 49.949219 177.730469 58.046875 188.09375 58.046875 Z M 56.453125 225.226562 L 56.453125 200.066406 C 56.453125 189.734375 65.015625 181.1875 75.394531 181.1875 C 85.757812 181.1875 93.871094 189.734375 93.871094 200.066406 L 93.871094 231.523438 L 112.8125 231.523438 L 112.8125 200.066406 C 112.8125 179.386719 95.671875 162.753906 75.394531 162.753906 C 54.652344 162.757812 37.515625 179.386719 37.515625 200.066406 L 37.515625 234.21875 C 37.515625 249.957031 50.140625 262.539062 65.925781 262.539062 L 93.871094 262.539062 L 93.871094 335.785156 C 93.871094 356.019531 110.996094 373.097656 131.75 373.097656 C 152.476562 373.097656 169.167969 356.019531 169.167969 335.785156 L 169.167969 274.671875 L 150.675781 274.671875 L 150.675781 335.785156 C 150.675781 345.671875 142.113281 354.21875 131.75 354.21875 C 121.375 354.21875 112.8125 345.671875 112.8125 335.785156 L 112.8125 262.539062 L 207.035156 262.539062 L 207.035156 335.785156 C 207.035156 356.019531 224.15625 373.097656 244.898438 373.097656 C 265.175781 373.097656 282.316406 356.019531 282.316406 335.785156 L 282.316406 274.671875 L 263.375 274.671875 L 263.375 335.785156 C 263.375 345.671875 255.261719 354.21875 244.898438 354.21875 C 234.535156 354.21875 225.957031 345.671875 225.957031 335.785156 L 225.957031 262.539062 L 310.710938 262.539062 C 326.046875 262.539062 338.65625 249.957031 338.65625 234.21875 L 338.65625 200.066406 C 338.65625 179.386719 321.980469 162.753906 301.242188 162.753906 C 280.515625 162.753906 263.375 179.386719 263.375 200.066406 L 263.375 243.65625 L 169.167969 243.65625 L 169.167969 224.332031 L 169.167969 225.226562 L 169.167969 132.207031 C 169.167969 121.859375 177.730469 113.328125 188.09375 113.328125 C 198.917969 113.328125 207.035156 121.859375 207.035156 132.207031 L 207.035156 225.226562 L 207.035156 224.332031 L 207.035156 231.523438 L 225.957031 231.523438 L 225.957031 224.332031 L 225.957031 225.226562 L 225.957031 132.207031 C 225.957031 111.527344 208.835938 94.449219 188.09375 94.449219 C 167.351562 94.449219 150.675781 111.527344 150.675781 132.207031 L 150.675781 225.226562 L 150.675781 224.332031 L 150.675781 243.660156 L 65.925781 243.660156 C 60.519531 243.660156 56.453125 239.160156 56.453125 234.21875 Z M 282.316406 243.660156 L 282.316406 200.066406 C 282.316406 189.734375 290.878906 181.1875 301.242188 181.1875 C 311.617188 181.1875 320.179688 189.734375 320.179688 200.066406 L 320.179688 234.21875 C 320.179688 239.164062 315.667969 243.660156 310.710938 243.660156 Z M 74.933594 126.355469 C 85.757812 126.355469 93.871094 117.824219 93.871094 107.476562 C 93.871094 97.144531 85.757812 88.597656 74.933594 88.597656 C 64.570312 88.597656 56.007812 97.144531 56.007812 107.476562 C 56.007812 117.824219 64.570312 126.355469 74.933594 126.355469 Z M 74.933594 126.355469 " fill-opacity="1" fill-rule="evenodd"/></g></svg>