<svg xmlns="http://www.w3.org/2000/svg" viewBox="0 0 100 100"><switch><g><path d="M44.2 34.5H8.6c-4.4 0-8-3.6-8-8V11.4c0-4.4 3.6-8 8-8h27.7c1.4 0 2.5 1.1 2.5 2.5s-1.1 2.5-2.5 2.5H8.6c-1.7 0-3 1.4-3 3v15.1c0 1.7 1.4 3 3 3h35.7c1.4 0 2.5 1.1 2.5 2.5s-1.2 2.5-2.6 2.5zM90.4 34.5H54.7c-1.4 0-2.5-1.1-2.5-2.5s1.1-2.5 2.5-2.5h35.7c1.7 0 3-1.4 3-3V11.4c0-1.7-1.4-3-3-3H62.2c-1.4 0-2.5-1.1-2.5-2.5s1.1-2.5 2.5-2.5h28.2c4.4 0 8 3.6 8 8v15.1c0 4.4-3.6 8-8 8zM97.3 93.2H3.8c-1.4 0-2.5-1.1-2.5-2.5s1.1-2.5 2.5-2.5h93.5c1.4 0 2.5 1.1 2.5 2.5s-1.1 2.5-2.5 2.5zM18.952 40.549c-6.2 0-11.2 5-11.2 11.2v3.7c.1 6.2 5.1 11.2 11.3 11.1 6.1-.1 11-5 11.1-11.1v-3.7c0-6.2-5-11.2-11.2-11.2zm0 4.4c3.1 0 5.7 2 6.6 5l-2.5-1.4c-.9-.5-2.1-.3-2.8.5-1.5 1.7-3.6 2.8-5.9 2.8h-2.2c0-3.8 3-6.9 6.8-6.9zm6.8 10.6c0 3.8-3 6.8-6.8 6.8-3.5 0-6.5-2.7-6.8-6.2h2.2c2.9 0 5.7-1.1 7.9-3l3.5 2v.4zM81.752 39.549c-6.2 0-11.2 5-11.2 11.2v3.7c.1 6.2 5.1 11.2 11.3 11.1 6.1 0 11.1-4.9 11.1-11v-3.7c0-6.3-5-11.3-11.2-11.3zm0 4.4c3.1 0 5.7 2 6.6 5l-2.5-1.4c-.9-.5-2.1-.3-2.8.5-1.5 1.7-3.6 2.8-5.9 2.8h-2.2c0-3.8 3.1-6.9 6.8-6.9zm6.8 10.6c0 3.8-3 6.8-6.8 6.8-3.5 0-6.5-2.7-6.8-6.2h2.2c2.9 0 5.7-1.1 7.9-3l3.5 2v.4zM49.352 39.549c-6.2 0-11.2 5-11.2 11.2v3.7c0 6.3 5.1 11.2 11.3 11.2 6.1-.1 11-5 11.1-11.1v-3.7c0-6.3-5-11.3-11.2-11.3zm0 4.4c3.1 0 5.7 2 6.6 5l-2.5-1.4c-.9-.5-2.1-.3-2.8.5-1.5 1.7-3.6 2.8-5.9 2.8h-2.2c0-3.8 3-6.9 6.8-6.9zm6.8 10.6c0 3.8-3 6.8-6.8 6.8-3.5 0-6.5-2.7-6.8-6.2h2.2c2.9 0 5.7-1.1 7.9-3l3.5 2v.4z"/><path d="M33.1 93.2c-.3 0-.6-.1-.9-.2-1.3-.5-1.9-1.9-1.4-3.2.6-1.5.9-3.1.9-4.8 0-7.3-5.9-13.2-13.2-13.2s-13.2 6-13.2 13.3c0 1.7.3 3.3.9 4.8.4 1.2-.2 2.6-1.5 3.1s-2.7-.1-3.2-1.4C.7 89.5.3 87.3.3 85c0-10 8.2-18.2 18.2-18.2S36.7 75 36.7 85.1c0 2.3-.4 4.5-1.2 6.6-.4.9-1.4 1.5-2.4 1.5z"/><path d="M64.7 93.2H35.3c-1 0-2-.6-2.3-1.6-.8-2.1-1.2-4.3-1.2-6.6 0-10 8.2-18.2 18.2-18.2S68.2 75 68.2 85.1c0 2.3-.4 4.5-1.2 6.6-.4.9-1.3 1.5-2.3 1.5zm-27.5-5h25.7c.2-1 .4-2.1.4-3.2 0-7.3-5.9-13.2-13.2-13.2S36.9 77.7 36.9 85c-.1 1.1 0 2.2.3 3.2z"/><path d="M96.3 93.2c-.3 0-.6-.1-.9-.2-1.3-.5-1.9-1.9-1.4-3.2.6-1.5.9-3.1.9-4.8 0-7.3-5.9-13.2-13.2-13.2S68.5 77.7 68.5 85c0 1.7.3 3.3.9 4.8.5 1.3-.1 2.7-1.4 3.2-1.3.5-2.7-.1-3.2-1.4-.8-2.1-1.2-4.3-1.2-6.6 0-10 8.2-18.2 18.2-18.2s18 8.2 18 18.3c0 2.3-.4 4.5-1.2 6.6-.4.9-1.3 1.5-2.3 1.5zM18.6 28.4c-.2 0-.5 0-.7-.1-.3-.1-6.2-2.1-7.9-9.1-.3-1.4-.1-2.8.7-3.9.7-1 3.2-3.7 8.2-1.6 1.3-.7 3.4-1.4 5.4-.7 1.1.4 2.6 1.4 3.3 3.9.1.4.2.8.2 1.2.1 3.9-2.1 8.7-8.7 10.3h-.5zm-3.1-11c-.5 0-.9.2-1.1.5v.3c.8 3.5 3.2 5.1 4.3 5.6 4.2-1.3 4.6-4.3 4.6-5.6v-.1c-.1-.5-.3-.8-.5-.9-.5-.2-1.7.3-2.5.8-.7.5-1.6.5-2.4.1-1-.5-1.8-.7-2.4-.7zM76.4 28.4c-.2 0-.5 0-.7-.1-.3-.1-6.2-2.1-7.9-9.1-.3-1.4-.1-2.8.7-3.9.7-1 3.2-3.7 8.2-1.6 1.3-.7 3.4-1.4 5.4-.7 1.1.4 2.6 1.4 3.3 3.9.1.4.2.8.2 1.2.1 3.9-2.1 8.7-8.7 10.3h-.5zm-3-11c-.5 0-.9.2-1.1.5v.3c.8 3.5 3.2 5.1 4.3 5.6 4.2-1.3 4.6-4.3 4.6-5.6v-.1c-.1-.5-.3-.8-.5-.9-.5-.2-1.7.3-2.5.8-.7.5-1.6.5-2.4.1-1-.5-1.8-.7-2.4-.7zM49.5 39.4c-.6 0-1.2-.2-1.7-.7l-5.2-4.9c-1-.9-1.1-2.5-.1-3.5.9-1 2.5-1.1 3.5-.1l3.5 3.3 3.5-3.3c1-.9 2.6-.9 3.5.1.9 1 .9 2.6-.1 3.5l-5.2 4.9c-.5.5-1.1.7-1.7.7zM10.6 90.7c-1.4 0-2.5-1.1-2.5-2.5V80c0-1.4 1.1-2.5 2.5-2.5s2.5 1.1 2.5 2.5v8.3c0 1.3-1.1 2.4-2.5 2.4zM24 90.7c-1.4 0-2.5-1.1-2.5-2.5V80c0-1.4 1.1-2.5 2.5-2.5s2.5 1.1 2.5 2.5v8.3c0 1.3-1.2 2.4-2.5 2.4zM43.5 90.7c-1.4 0-2.5-1.1-2.5-2.5V80c0-1.4 1.1-2.5 2.5-2.5S46 78.6 46 80v8.3c0 1.3-1.2 2.4-2.5 2.4zM56.1 90.7c-1.4 0-2.5-1.1-2.5-2.5v-8.3c0-1.4 1.1-2.5 2.5-2.5s2.5 1.1 2.5 2.5v8.3c0 1.4-1.1 2.5-2.5 2.5z"/><path d="M76.8 91c-1.4 0-2.5-1.1-2.5-2.5v-8.3c0-1.4 1.1-2.5 2.5-2.5s2.5 1.1 2.5 2.5v8.3c0 1.4-1.1 2.5-2.5 2.5zM90.2 90.7c-1.4 0-2.5-1.1-2.5-2.5v-8.3c0-1.4 1.1-2.5 2.5-2.5s2.5 1.1 2.5 2.5v8.3c0 1.4-1.2 2.5-2.5 2.5z"/><circle cx="50" cy="15.3" r="15" fill="#d6b2f5"/><path d="M49 29.8c-1 0-1.8-.5-2.2-1.4l-3.3-6.7-7.4-1.1c-.9-.1-1.7-.8-2-1.7-.3-.9 0-1.9.6-2.6l5.4-5.2-1.3-7.4c-.2-.9.2-1.9 1-2.4.8-.6 1.8-.6 2.6-.2L49 4.6l6.6-3.5c.8-.4 1.9-.4 2.6.2.8.6 1.2 1.5 1 2.4L58 11.1l5.4 5.2c.7.7.9 1.7.6 2.6-.3.9-1.1 1.6-2 1.7l-7.4 1.1-3.3 6.7c-.4.8-1.3 1.4-2.3 1.4zm-7.2-13.4l3.7.5c.8.1 1.5.6 1.9 1.4l1.6 3.3 1.6-3.3c.4-.7 1.1-1.2 1.9-1.4l3.7-.5-2.7-2.6c-.6-.6-.9-1.4-.7-2.2l.6-3.7-3.3 1.7c-.7.4-1.6.4-2.3 0l-3.3-1.7.6 3.7c.1.8-.1 1.6-.7 2.2l-2.6 2.6z"/></g></switch></svg>