<svg xmlns="http://www.w3.org/2000/svg" viewBox="0 0 128 128"><switch><g><path d="M113 103.8H15.2c-8 0-14.5-6.5-14.5-14.5v-68c0-8 6.5-14.5 14.5-14.5H113c8 0 14.5 6.5 14.5 14.5v68c0 8-6.5 14.5-14.5 14.5zm-97.8-92c-5.2 0-9.5 4.3-9.5 9.5v68c0 5.2 4.3 9.5 9.5 9.5H113c5.2 0 9.5-4.3 9.5-9.5v-68c0-5.2-4.3-9.5-9.5-9.5H15.2z"/><path d="M57.7 49.3H15.2c-1.4 0-2.5-1.1-2.5-2.5V15.9c0-1.4 1.1-2.5 2.5-2.5h42.5c1.4 0 2.5 1.1 2.5 2.5v30.9c0 1.4-1.1 2.5-2.5 2.5zm-40-5h37.5V18.4H17.7v25.9zM59.7 55.8H11.3c-1.4 0-2.5-1.1-2.5-2.5s1.1-2.5 2.5-2.5h48.4c1.4 0 2.5 1.1 2.5 2.5s-1.1 2.5-2.5 2.5zM59.6 63.9H11.2c-1.4 0-2.5-1.1-2.5-2.5s1.1-2.5 2.5-2.5h48.4c1.4 0 2.5 1.1 2.5 2.5s-1.1 2.5-2.5 2.5zM59.6 72.1H11.2c-1.4 0-2.5-1.1-2.5-2.5s1.1-2.5 2.5-2.5h48.4c1.4 0 2.5 1.1 2.5 2.5s-1.1 2.5-2.5 2.5zM59.6 80.3H11.2c-1.4 0-2.5-1.1-2.5-2.5s1.1-2.5 2.5-2.5h48.4c1.4 0 2.5 1.1 2.5 2.5s-1.1 2.5-2.5 2.5zM65.9 82.8c-1.4 0-2.5-1.1-2.5-2.5V16.8c0-1.4 1.1-2.5 2.5-2.5s2.5 1.1 2.5 2.5v63.5c0 1.4-1.1 2.5-2.5 2.5zM117.4 26H73.5c-1.4 0-2.5-1.1-2.5-2.5s1.1-2.5 2.5-2.5h43.9c1.4 0 2.5 1.1 2.5 2.5s-1.1 2.5-2.5 2.5z"/><path d="M125 86.9H3.3c-1.4 0-2.5-1.1-2.5-2.5s1.1-2.5 2.5-2.5H125c1.4 0 2.5 1.1 2.5 2.5s-1.2 2.5-2.5 2.5zM85.6 125.5H47c-.8.1-1.6.1-2.4 0-1.3-.2-2.2-1.4-2.1-2.7.1-1.3 1.2-2.3 2.5-2.3h1.5c.4-.1.6-.3.8-.5 2.7-2.6 2.8-12.3 2-18.3-.2-1.4.8-2.6 2.2-2.8 1.4-.2 2.6.8 2.8 2.2.2 1.5 1.5 12.8-1.5 19.5l26.7.1c-3.9-5-7-12.6-2.9-20.4.7-1.2 2.2-1.7 3.4-1 1.2.6 1.7 2.2 1 3.4-5.1 9.6 5.5 18.2 6 18.6.8.7 1.2 1.8.8 2.8-.2.8-1.1 1.4-2.2 1.4z"/><circle cx="96.7" cy="50.7" r="24.2" fill="#d6b2f5"/><path d="M110 49.3h-3.6c-1.4 0-2.5-1.1-2.5-2.5s1.1-2.5 2.5-2.5h3.6c1.3 0 2.5-.5 3.4-1.4.9-.9 1.4-2.1 1.4-3.4 0-2.7-2.2-4.8-4.8-4.8H82.1c-1.3 0-2.5.5-3.4 1.4-.9.9-1.4 2.1-1.4 3.4 0 2.7 2.2 4.8 4.8 4.8h9.4c1.4 0 2.5 1.1 2.5 2.5s-1.1 2.5-2.5 2.5h-9.4c-5.4 0-9.8-4.4-9.8-9.8 0-2.6 1-5.1 2.9-6.9 1.8-1.9 4.3-2.9 6.9-2.9H110c5.4 0 9.8 4.4 9.8 9.8 0 2.6-1 5.1-2.9 7-1.8 1.8-4.3 2.8-6.9 2.8z"/><path d="M106 77.7c-.2 0-.4 0-.6-.1-.7-.2-1.2-.6-1.5-1.2l-5.4-9.3-6 2.3c-.8.3-1.6.2-2.3-.3-.7-.5-1.2-1.3-1.2-2.1V37.7c0-.9.5-1.7 1.3-2.2.8-.4 1.8-.4 2.5.1l25.3 15.6c.8.5 1.2 1.3 1.2 2.2 0 .9-.5 1.7-1.3 2.1l-7.7 4.3 5.6 9.4c.7 1.2.3 2.7-.9 3.4l-7.8 4.7c-.3.3-.8.4-1.2.4zm-6.4-16.2c.9 0 1.7.5 2.2 1.3l5.1 9 3.5-2.1-5.6-9.5c-.3-.6-.4-1.3-.3-1.9.2-.7.6-1.2 1.2-1.5l6.3-3.5-18-11.2v21.3l4.6-1.7c.4-.1.7-.2 1-.2z"/></g></switch></svg>