<svg version="1.1" id="Layer_1" xmlns="http://www.w3.org/2000/svg" x="0" y="0" viewBox="0 0 128 128" xml:space="preserve"><style>.st1{fill:#020202}</style><switch><g><path d="M61.1 79c0 4.3-1.2 8.3-3.4 11.7-3.9 6-10.6 10-18.3 10-12 0-21.7-9.7-21.7-21.7s9.7-21.7 21.7-21.7S61.1 67 61.1 79z" fill="#d6b2f5"/><path class="st1" d="M112.3 119.6H17.6C9 119.6 2 112.6 2 104V36.9c0-8.6 7-15.6 15.6-15.6h66.2v5H17.6C11.7 26.3 7 31.1 7 36.9V104c0 5.9 4.8 10.6 10.6 10.6h94.8c5.9 0 10.6-4.8 10.6-10.6V36.9c0-5.9-4.8-10.6-10.6-10.6h-2.2v-5h2.2c8.6 0 15.6 7 15.6 15.6V104c0 8.6-7 15.6-15.7 15.6z"/><path class="st1" d="M103.6 111.4H30.3c-8.6 0-15.6-7-15.6-15.6V45.1c0-8.6 7-15.6 15.6-15.6h51.5v5H30.3c-5.9 0-10.6 4.8-10.6 10.6v50.6c0 5.9 4.8 10.6 10.6 10.6h73.4c5.9 0 10.7-4.8 10.7-10.6V45.1c0-8.3-2-10.2-5.4-10.6l.6-5c9.8 1.1 9.8 11.2 9.8 15.5v50.6c-.1 8.8-7.1 15.8-15.8 15.8z"/><path class="st1" d="M99.5 101.8h-5.1c-4.5 0-8.2-3.7-8.2-8.2V19.5c0-4.5 3.7-8.2 8.2-8.2h5.1c4.5 0 8.2 3.7 8.2 8.2V41h-5V19.5c0-1.7-1.4-3.2-3.2-3.2h-5.1c-1.7 0-3.2 1.4-3.2 3.2v74.2c0 1.7 1.4 3.2 3.2 3.2h5.1c1.7 0 3.2-1.4 3.2-3.2v-42h5v42c0 4.5-3.7 8.1-8.2 8.1zM76.9 103.2h-5.5c-3.9 0-6.6-4.5-7.6-8.2h-.4v-2.7h5c0 2.6 2.2 5.9 3 6h5.5c1.6 0 2.9-1.3 2.9-3V49.4c0-1.6-1.3-3-2.9-3h-5.5c-1.6 0-3 1.3-3 3v32h-5v-32c0-4.4 3.6-8 8-8h5.5c4.4 0 7.9 3.6 7.9 8v45.9c.1 4.4-3.5 7.9-7.9 7.9zM25.3 38.5h35.8v5H25.3zM24.9 45.7h35.8v5H24.9zM24.5 54.1h35.8v5H24.5zM48.2 95.2c-2.6 0-5.5-1.7-7.8-4.6-1.4-1.8-4.1-2.7-7-3.6-2.2-.7-4.4-1.4-6.4-2.6-3.1-1.9-4.1-5.3-2.8-9.2.6-1.9 2-3.5 3.9-4.4 3.3-1.6 4.8-1.8 5.4-1.8 1.5-.4 7.2-4.5 10-6.8 1.8-1.5 4.2-1.6 6.6-.2 1.5.9 2.5 2.5 2.6 4.3 0 1.6.1 4.4.2 7.6.4 17.1-.1 18.2-.4 18.9-.6 1.4-1.9 2.3-3.5 2.5-.4-.1-.6-.1-.8-.1zm-1.6-29.3c-.1.1-9.3 7.8-12.8 8-.1 0-1 .1-3.6 1.3-.6.3-1.1.8-1.3 1.5-.8 2.5.2 3.1.7 3.4 1.5.9 3.3 1.5 5.3 2.1 3.5 1.1 7 2.3 9.4 5.3 1.4 1.8 2.7 2.5 3.4 2.7.1-1.4.2-5.4 0-16.3-.1-3.2-.1-6-.2-7.5 0 0 0-.1-.1-.1-.4-.3-.7-.4-.8-.4zm-13.1 3z"/><path class="st1" d="M53.2 86.5l-1-4.9c.1 0 3.4-.8 4.6-4.4.2-.4.1-.6 0-.8-.7-1.2-3.6-2.3-5.5-2.6l.9-4.9c1.1.2 6.8 1.4 8.9 5 .9 1.5 1 3.2.4 5-2.1 6.3-8 7.6-8.3 7.6zM41.9 104.3L27.6 103V84.2h5v14.3l2.6.2c-1-4.7-1.7-11.2 1.4-13.9l3.3 3.8c-1 1-.5 6.9 1 12.2l1 3.5z"/></g></switch></svg>