<svg xmlns="http://www.w3.org/2000/svg" viewBox="0 0 100 100"><switch><g><ellipse cx="47.9" cy="47.1" rx="44.6" ry="44.4" fill="#d6b2f5"/><path d="M52.2 93.5C28 93.5 8.3 73.8 8.3 49.6S28 5.7 52.2 5.7s43.9 19.7 43.9 43.9-19.7 43.9-43.9 43.9zm0-82.8c-21.5 0-38.9 17.5-38.9 38.9s17.5 38.9 38.9 38.9S91.1 71 91.1 49.6 73.7 10.7 52.2 10.7z"/><path d="M37.1 65.1c-.6 0-1.3-.2-1.7-.7-7.9-7.7-11.2-15.2-9.8-22.3 2.3-11.5 16-17.1 16.6-17.3 1.3-.5 2.7.1 3.2 1.4.5 1.3-.1 2.7-1.4 3.2-.1 0-11.9 4.9-13.6 13.7-1.1 5.3 1.8 11.3 8.4 17.7 1 1 1 2.5 0 3.5-.4.5-1 .8-1.7.8zM62.4 68.7c-1 0-2-.7-2.4-1.7-.4-1.3.3-2.7 1.6-3.2 9.2-3 14.4-7.1 15.4-12.2 1.8-8.7-8.6-18-8.7-18.1-1-.9-1.1-2.5-.2-3.5.9-1 2.5-1.1 3.5-.2.5.5 12.6 11.3 10.3 22.8-1.4 7-7.7 12.4-18.7 16-.2.1-.5.1-.8.1z"/><path d="M50.3 74.9H50l-19.4-2.5c-.9-.1-1.6-.7-2-1.5-.3-.8-.2-1.8.3-2.5l11.9-15.6c.5-.7 1.4-1.1 2.3-1 .9.1 1.6.7 2 1.5l7.6 18.1c.3.8.2 1.8-.3 2.5-.6.6-1.3 1-2.1 1zM35.5 68l10.9 1.4-2.1-5-2.1-5-6.7 8.6zM63.8 44.3h-.1c-.9 0-1.7-.6-2.1-1.4l-8.9-17.5c-.4-.8-.4-1.7.1-2.5.5-.7 1.3-1.2 2.2-1.1l9.8.5 9.8.5c.9 0 1.7.6 2.1 1.4.4.8.4 1.7-.1 2.5L65.9 43.1c-.5.8-1.3 1.2-2.1 1.2zM59.1 27l5 9.7 6-9.2-11-.5z"/></g></switch></svg>