<svg version="1.1" id="Layer_1" xmlns="http://www.w3.org/2000/svg" x="0" y="0" viewBox="0 0 128 128" xml:space="preserve"><style>.st0{fill:#050505}</style><switch><g><path class="st0" d="M62.7 127H25.6c-12.3 0-22.3-10-22.3-22.3V27.2c0-12.3 10-22.3 22.3-22.3h78c12.3 0 22.3 10 22.3 22.3v24.4c0 1.4-1.1 2.5-2.5 2.5s-2.5-1.1-2.5-2.5V27.2c0-9.6-7.8-17.3-17.3-17.3h-78C16 9.9 8.3 17.7 8.3 27.2v77.5c0 9.6 7.8 17.3 17.3 17.3h37.1c1.4 0 2.5 1.1 2.5 2.5s-1.1 2.5-2.5 2.5z"/><path class="st0" d="M83.4 32.4H47.8c-1.4 0-2.5-1.1-2.5-2.5s1.1-2.5 2.5-2.5h35.6c1.4 0 2.5 1.1 2.5 2.5s-1.1 2.5-2.5 2.5z"/><circle cx="89.3" cy="85.7" r="35.4" fill="#d6b2f5"/><path class="st0" d="M76 108.8c-3.8 0-7.4-1.8-9.6-4.9-4.8-6.7-4-13.9 2.1-19.9.1-10.1 4.5-28 20.6-29.6 16.7-1.7 23.5 16.1 25 26.5 2.6 2.6 10.6 11.4 7 18.4-2 3.9-4.8 6.1-6.8 7.4-1.9 1.2-4.2 1.8-6.5 1.8l-31.6.3H76zm15.2-49.5c-.5 0-1.1 0-1.7.1-16.4 1.7-16.1 25.4-16.1 25.7 0 .7-.3 1.4-.8 1.9-5 4.5-5.8 9-2.2 14 1.3 1.8 3.4 2.8 5.6 2.8h.1l31.6-.3c1.4 0 2.8-.4 3.9-1.1 1.5-.9 3.5-2.5 5-5.4 1.8-3.5-3.7-10.3-6.6-13.1-.4-.4-.7-1-.8-1.5-.2-.9-2.9-23.1-18-23.1zM92.3 124.1h-.8c-7-.5-11.3-7.8-11.5-8.1-.7-1.2-.3-2.7.9-3.4 1.2-.7 2.7-.3 3.4.9 0 .1 3.3 5.3 7.6 5.6 2.5.2 5.2-1.4 7.9-4.8.9-1.1 2.4-1.3 3.5-.4s1.2 2.4.4 3.5c-3.6 4.4-7.4 6.7-11.4 6.7z"/></g></switch></svg>