<?xml version="1.0" encoding="utf-8"?>
<!-- Generator: Adobe Illustrator 24.3.0, SVG Export Plug-In . SVG Version: 6.00 Build 0)  -->
<svg version="1.1" id="Layer_1" xmlns="http://www.w3.org/2000/svg" xmlns:xlink="http://www.w3.org/1999/xlink" x="0px" y="0px"
	 viewBox="0 0 128 128" style="enable-background:new 0 0 128 128;" xml:space="preserve">
<style type="text/css">
	.st0{fill:#070707;}
	.st1{fill:#D6B2F5;}
</style>
<g>
	<g>
		<path class="st0" d="M105.3,113.3H10.9c-1.4,0-2.5-1.1-2.5-2.5V2.9c0-1.4,1.1-2.5,2.5-2.5h94.4c1.4,0,2.5,1.1,2.5,2.5v107.9
			C107.8,112.2,106.7,113.3,105.3,113.3z M13.4,108.3h89.4V5.4H13.4V108.3z"/>
	</g>
	<g>
		<path class="st0" d="M117.5,125.9H21.8c-1.4,0-2.5-1.1-2.5-2.5v-12.6c0-1.4,1.1-2.5,2.5-2.5s2.5,1.1,2.5,2.5v10.1H115V19.5h-8
			c-1.4,0-2.5-1.1-2.5-2.5s1.1-2.5,2.5-2.5h10.5c1.4,0,2.5,1.1,2.5,2.5v106.4C120,124.8,118.8,125.9,117.5,125.9z"/>
	</g>
	<g>
		<path class="st0" d="M24,104.1c-4.3,0-7.7-3.5-7.7-7.7s3.5-7.7,7.7-7.7c4.3,0,7.7,3.5,7.7,7.7S28.3,104.1,24,104.1z M24,93.6
			c-1.5,0-2.7,1.2-2.7,2.7s1.2,2.7,2.7,2.7s2.7-1.2,2.7-2.7S25.5,93.6,24,93.6z"/>
	</g>
	<g>
		<path class="st0" d="M44.6,77c-4.3,0-7.7-3.5-7.7-7.7c0-4.3,3.5-7.7,7.7-7.7c4.3,0,7.7,3.5,7.7,7.7C52.3,73.5,48.8,77,44.6,77z
			 M44.6,66.5c-1.5,0-2.7,1.2-2.7,2.7c0,1.5,1.2,2.7,2.7,2.7s2.7-1.2,2.7-2.7C47.3,67.7,46.1,66.5,44.6,66.5z"/>
	</g>
	<g>
		<path class="st0" d="M67.9,91.3c-4.3,0-7.7-3.5-7.7-7.7c0-4.3,3.5-7.7,7.7-7.7c4.3,0,7.7,3.5,7.7,7.7
			C75.7,87.8,72.2,91.3,67.9,91.3z M67.9,80.8c-1.5,0-2.7,1.2-2.7,2.7c0,1.5,1.2,2.7,2.7,2.7c1.5,0,2.7-1.2,2.7-2.7
			C70.7,82,69.5,80.8,67.9,80.8z"/>
	</g>
	<g>
		<path class="st0" d="M93.2,64.8c-4.3,0-7.7-3.5-7.7-7.7c0-4.3,3.5-7.7,7.7-7.7s7.7,3.5,7.7,7.7C100.9,61.4,97.4,64.8,93.2,64.8z
			 M93.2,54.3c-1.5,0-2.7,1.2-2.7,2.7s1.2,2.7,2.7,2.7s2.7-1.2,2.7-2.7S94.7,54.3,93.2,54.3z"/>
	</g>
	<g>
		<path class="st0" d="M26.6,91.3c-0.6,0-1.1-0.2-1.6-0.6c-1.1-0.9-1.2-2.5-0.3-3.5l12.1-14.3c0.9-1.1,2.5-1.2,3.5-0.3
			c1.1,0.9,1.2,2.5,0.3,3.5L28.5,90.4C28,91,27.3,91.3,26.6,91.3z"/>
	</g>
	<g>
		<path class="st0" d="M62.7,82.1c-0.5,0-0.9-0.1-1.4-0.4l-11.3-7.4c-1.2-0.8-1.5-2.3-0.7-3.5c0.8-1.2,2.3-1.5,3.5-0.7l11.3,7.4
			c1.2,0.8,1.5,2.3,0.7,3.5C64.3,81.7,63.5,82.1,62.7,82.1z"/>
	</g>
	<g>
		<path class="st0" d="M73.2,80.8c-0.6,0-1.2-0.2-1.7-0.7c-1-0.9-1.1-2.5-0.2-3.5l14.5-15.9c0.9-1,2.5-1.1,3.5-0.2
			c1,0.9,1.1,2.5,0.2,3.5L75,79.9C74.5,80.5,73.9,80.8,73.2,80.8z"/>
	</g>
	<g>
		<circle class="st1" cx="58.1" cy="30.6" r="23.6"/>
	</g>
	<g>
		<path class="st0" d="M91.5,22.8H21.8c-1.4,0-2.5-1.1-2.5-2.5s1.1-2.5,2.5-2.5h69.7c1.4,0,2.5,1.1,2.5,2.5S92.9,22.8,91.5,22.8z"/>
	</g>
	<g>
		<path class="st0" d="M91.5,33.1H22.8c-1.4,0-2.5-1.1-2.5-2.5s1.1-2.5,2.5-2.5h68.7c1.4,0,2.5,1.1,2.5,2.5S92.9,33.1,91.5,33.1z"/>
	</g>
	<g>
		<path class="st0" d="M90.4,43.4H22.8c-1.4,0-2.5-1.1-2.5-2.5s1.1-2.5,2.5-2.5h67.6c1.4,0,2.5,1.1,2.5,2.5S91.7,43.4,90.4,43.4z"/>
	</g>
</g>
</svg>
