<svg version="1.1" id="Layer_1" xmlns="http://www.w3.org/2000/svg" x="0" y="0" viewBox="0 0 128 128" xml:space="preserve"><style>.st0{fill:#070707}</style><switch><g><path class="st0" d="M122 123.8H5.7c-1.4 0-2.5-1.1-2.5-2.5V29.8c0-1.4 1.1-2.5 2.5-2.5h16.7c1.4 0 2.5 1.1 2.5 2.5s-1.1 2.5-2.5 2.5H8.2v86.5h111.3V32.3h-9.8c-1.4 0-2.5-1.1-2.5-2.5s1.1-2.5 2.5-2.5H122c1.4 0 2.5 1.1 2.5 2.5v91.5c0 1.4-1.1 2.5-2.5 2.5z"/><path class="st0" d="M103.5 85H22.4c-1.4 0-2.5-1.1-2.5-2.5S21 80 22.4 80h81.2c1.4 0 2.5 1.1 2.5 2.5s-1.2 2.5-2.6 2.5zM103.5 98.4h-81c-1.4 0-2.5-1.1-2.5-2.5s1.1-2.5 2.5-2.5h81c1.4 0 2.5 1.1 2.5 2.5s-1.1 2.5-2.5 2.5zM103.5 112.4h-81c-1.4 0-2.5-1.1-2.5-2.5s1.1-2.5 2.5-2.5h81c1.4 0 2.5 1.1 2.5 2.5s-1.1 2.5-2.5 2.5z"/><circle cx="64.6" cy="42" r="33" fill="#d6b2f5"/><path class="st0" d="M87.8 77.7c-.4 0-.9-.1-1.3-.4L65.3 64.5 42.7 74.7c-.9.4-1.9.3-2.6-.4-.7-.6-1.1-1.6-.8-2.5L45 47.7 28.3 29.3c-.6-.7-.8-1.7-.5-2.6s1.2-1.5 2.1-1.6l24.7-2L67 1.6C67.5.8 68.4.3 69.3.3c.9.1 1.8.7 2.2 1.5L81 24.7l24.3 5.1c.9.2 1.7.9 1.9 1.8.2.9-.1 1.9-.8 2.5L87.6 50.3 90.3 75c.1.9-.3 1.9-1.1 2.4-.5.2-.9.3-1.4.3zM65.5 59.2c.5 0 .9.1 1.3.4l18 10.9-2.3-20.9c-.1-.8.2-1.6.9-2.2l16-13.7-20.6-4.3c-.8-.2-1.5-.7-1.8-1.5L68.8 8.5 58.3 26.7c-.4.7-1.1 1.2-2 1.2l-21 1.7 14.1 15.6c.6.6.8 1.5.6 2.3L45.3 68l19.2-8.6c.3-.1.6-.2 1-.2zm-9.4-33.7z"/></g></switch></svg>