<svg version="1.1" id="Layer_1" xmlns="http://www.w3.org/2000/svg" x="0" y="0" viewBox="0 0 100 100" xml:space="preserve"><style>.st1{fill:#020202}</style><switch><g><circle cx="35.8" cy="37.4" r="8.1" fill="#d6b2f5"/><path class="st1" d="M86.3 37.1h-7.9c-1.4 0-2.5-1.1-2.5-2.5V15.8c0-1.4 1.1-2.5 2.5-2.5h7.9c1.4 0 2.5 1.1 2.5 2.5v18.8c0 1.4-1.1 2.5-2.5 2.5zm-5.4-5h2.9V18.3h-2.9v13.8z"/><path class="st1" d="M95.2 37.6h-8.5c-1.4 0-2.5-1.1-2.5-2.5V10.3c0-1.4 1.1-2.5 2.5-2.5h8.5c1.4 0 2.5 1.1 2.5 2.5v24.8c0 1.4-1.1 2.5-2.5 2.5zm-6-5h3.5V12.8h-3.5v19.8zM76.7 19.5c-.3 0-.7-.1-1-.2l-8.1-3.4c-.5-.2-.9-.6-1.2-1-.3-.4-6.5-10.5-21.4-4.5-2.2 2.1-11.1 10.2-18.1 6l-4.3-2.7c-1.2-.7-1.5-2.3-.8-3.4.7-1.2 2.3-1.5 3.4-.8l4.2 2.7c3.3 2 9.7-2.9 12.3-5.6.2-.2.5-.4.8-.6C59.2-1 67.9 8.8 70 11.7l7.5 3.2c1.3.5 1.9 2 1.3 3.3-.2.8-1.1 1.3-2.1 1.3z"/><path class="st1" d="M65.1 44.8c-5.7 0-9.5-3.9-11.2-7l-15.6-6.1c-.5-.2-.9-.5-1.2-.9-2.1-3.2-2.6-6-1.5-8.5 1.8-4 7.1-4.7 7.7-4.8.4 0 .7 0 1.1.1L62 23.5c1.3.4 2 1.9 1.6 3.2-.4 1.3-1.9 2-3.2 1.6l-16.9-5.7c-1.1.2-2.8.8-3.3 1.8-.3.6 0 1.7.7 3l15.7 6.2c.6.2 1.1.7 1.4 1.3.3.7 3.3 7 10.6 4.2 6.5-2.4 8.1-4.2 8.3-4.6.3-1.1 1.3-1.9 2.5-1.9 1.4 0 2.5 1.2 2.5 2.5 0 2-2 5.1-11.5 8.6-1.9.8-3.7 1.1-5.3 1.1zm11.8-9.7zm0 0zm0 0zm.1-.7z"/><path class="st1" d="M45.1 65.9c-.7 0-1.3-.3-1.8-.8L6.9 26.9c-.5-.5-.7-1.1-.7-1.8s.3-1.3.8-1.8L29.4 2.8c1-.9 2.4-.9 3.4 0L48 16.9c1 .9 1.1 2.5.1 3.5-.9 1-2.5 1.1-3.5.1L31.1 8 12.3 25.3l32.8 34.4L61 42.9c1-1 2.5-1 3.5-.1s1 2.5.1 3.5L46.9 65.1c-.4.5-1.1.8-1.8.8z"/><path class="st1" d="M18.7 37c-.7 0-1.4-.3-1.9-.9-.9-1.1-.7-2.6.3-3.5 5.2-4.4-.3-14.1-.3-14.2-.7-1.2-.3-2.7.9-3.4 1.2-.7 2.7-.3 3.4.9.3.5 7.7 13.4-.8 20.5-.5.4-1 .6-1.6.6zM53.5 55.5c-.5 0-1.1-.2-1.5-.5-6.8-5.2-13.3-.2-13.6 0-1.1.9-2.7.7-3.5-.4-.9-1.1-.7-2.6.4-3.5 3.3-2.7 11.7-6.2 19.7 0 1.1.8 1.3 2.4.5 3.5-.5.6-1.2.9-2 .9zM59.4 50.8H59c-6.7-1-7.9-9.6-7.5-14.6.1-1.4 1.3-2.4 2.7-2.3 1.4.1 2.4 1.3 2.3 2.7-.1 1.8 0 8.7 3.2 9.2 1.4.2 2.3 1.5 2.1 2.8-.1 1.3-1.2 2.2-2.4 2.2zM39.9 44c-2.6 0-5.3-1-7.4-2.9-3-2.7-4.4-5.6-4.2-8.8.3-5.6 5.7-9.5 6-9.6 1.1-.8 2.7-.5 3.5.6.8 1.1.5 2.7-.6 3.5-1 .7-3.7 3.2-3.9 5.9-.1 1.6.8 3.2 2.6 4.8 1.4 1.3 3.2 1.9 4.9 1.6 2.3-.4 4-2.1 4.9-5.3.4-1.3 1.8-2.1 3.1-1.6s2.1 1.8 1.6 3.1c-2 6.4-6 8.3-9 8.7h-1.5z"/><circle class="st1" cx="67.6" cy="27.6" r="1.7"/><path class="st1" d="M13.5 95.3H4.3c-1.4 0-2.5-1.1-2.5-2.5V68.4c0-1.4 1.1-2.5 2.5-2.5h9.2c1.4 0 2.5 1.1 2.5 2.5v24.4c0 1.4-1.2 2.5-2.5 2.5zm-6.7-5H11V70.9H6.8v19.4z"/><path class="st1" d="M22 92.4h-7.2c-1.4 0-2.5-1.1-2.5-2.5V68.4c0-1.4 1.1-2.5 2.5-2.5H22c1.4 0 2.5 1.1 2.5 2.5V90c0 1.3-1.1 2.4-2.5 2.4zm-4.7-5h2.2V70.9h-2.2v16.5z"/><path class="st1" d="M48.1 98.9c-2.9 0-6-.7-9-2.9-6-4.3-10-5.4-10.9-5.6l-5.2.2c-1.4.1-2.5-1-2.6-2.4s1-2.5 2.4-2.6l5.5-.2h.5c.5.1 5.5.9 13.3 6.6 6 4.4 13.3.1 13.6-.1.1-.1.2-.1.3-.2l15.6-6.8c.2-.1.4-.1.5-.2 9.8-1.8 11.9-4 12.2-4.4v-.1c.2-1.1.1-2-.4-2.6-.8-1.1-2.6-1.7-3.5-1.9L64.6 79c-1.2.3-2.3-.4-2.8-1.5-.5-1.3-3.6-3.1-5.7-3.9-1.3-.4-9.8-2.8-18.3-8.5-1.8-1.2-3.5-1.6-5.2-1.3-3.8.8-6.5 5.2-6.6 5.2-.7 1.2-2.3 1.5-3.4.8-1.2-.7-1.5-2.3-.8-3.4.2-.3 3.8-6.2 9.8-7.5 3.1-.7 6.2 0 9.1 2 8.3 5.6 16.8 7.9 16.9 7.9.1 0 .2.1.3.1.9.4 5.1 2.1 7.4 4.8l14.5-3.1c.3-.1.5-.1.8 0 .5.1 4.8.7 7.3 3.9 1.3 1.7 1.8 3.9 1.4 6.2 0 2.4-2.3 6.3-16 8.9l-15.2 6.6c-.9.5-5 2.7-10 2.7zm36.2-18z"/><path class="st1" d="M57.9 87c-1.7 0-3-.3-3.3-.3-.1 0-.2-.1-.3-.1-7-2.6-14.8-5.3-16.4-5.7-.6 0-1.2-.3-1.6-.7-1-1-1-2.5-.1-3.5 1.4-1.5 1.4-1.5 19.6 5.2 1.1.2 4.2.5 5.7-.8.3-.2 1.1-.9 1-3.1-.1-1.4 1-2.6 2.4-2.6 1.4-.1 2.6 1 2.6 2.4.2 3.9-1.4 6.1-2.7 7.2-2.1 1.6-4.8 2-6.9 2zm-18.3-6.8zm.1-.1l-.1.1c.1 0 .1-.1.1-.1zm0 0zm.1 0s-.1 0 0 0c-.1 0 0 0 0 0z"/><circle class="st1" cx="32.7" cy="76.7" r="1.6"/></g></switch></svg>