<svg xmlns="http://www.w3.org/2000/svg" width="85.81" height="85.81" viewBox="0 0 85.81 85.81"><defs><style>.a{fill:#d6b3f5;}.b{stroke:#000;}</style></defs><g transform="translate(0.5 0.5)"><g transform="translate(-841.989 -5013.095)"><circle class="a" cx="10" cy="10" r="10" transform="translate(878 5041)"/></g><g transform="translate(-54.425 -2592.152)"><path class="b" d="M158.858,2724.265a25.79,25.79,0,1,1,25.79-25.791A25.82,25.82,0,0,1,158.858,2724.265Zm0-48.641a22.851,22.851,0,1,0,22.851,22.851A22.877,22.877,0,0,0,158.858,2675.624Z" transform="translate(-62.129 -63.622)"/><path class="b" d="M234.964,2603.532a5.69,5.69,0,1,1,5.69-5.69A5.7,5.7,0,0,1,234.964,2603.532Zm0-8.44a2.75,2.75,0,1,0,2.751,2.75A2.753,2.753,0,0,0,234.964,2595.092Z" transform="translate(-138.134)"/><rect class="b" width="2.94" height="8.086" transform="translate(95.36 2601.899)"/><path class="b" d="M234.964,2953.229a5.69,5.69,0,1,1,5.69-5.69A5.7,5.7,0,0,1,234.964,2953.229Zm0-8.44a2.75,2.75,0,1,0,2.751,2.75A2.754,2.754,0,0,0,234.964,2944.789Z" transform="translate(-138.134 -276.267)"/><rect class="b" width="2.94" height="8.086" transform="translate(95.36 2659.129)"/><path class="b" d="M409.812,2778.381a5.69,5.69,0,1,1,5.69-5.69A5.7,5.7,0,0,1,409.812,2778.381Zm0-8.44a2.75,2.75,0,1,0,2.75,2.75A2.754,2.754,0,0,0,409.812,2769.94Z" transform="translate(-276.267 -138.134)"/><rect class="b" width="8.085" height="2.94" transform="translate(121.402 2633.087)"/><path class="b" d="M60.115,2778.381a5.69,5.69,0,1,1,5.69-5.69A5.7,5.7,0,0,1,60.115,2778.381Zm0-8.44a2.75,2.75,0,1,0,2.75,2.75A2.754,2.754,0,0,0,60.115,2769.94Z" transform="translate(0 -138.134)"/><rect class="b" width="8.085" height="2.94" transform="translate(64.173 2633.087)"/><path class="b" d="M358.611,2654.744a5.69,5.69,0,1,1,4.023-1.667h0A5.652,5.652,0,0,1,358.611,2654.744Zm0-8.44a2.75,2.75,0,1,0,1.945,4.7h0a2.75,2.75,0,0,0-1.945-4.7Z" transform="translate(-235.819 -40.458)"/><path class="b" d="M215,2723.322a10.949,10.949,0,1,1,7.746-3.2h0A10.921,10.921,0,0,1,215,2723.322Zm0-18.963a8.015,8.015,0,1,0,5.667,2.348A7.96,7.96,0,0,0,215,2704.359Z" transform="translate(-118.203 -86.323)"/><rect class="b" width="8.085" height="2.94" transform="matrix(0.707, -0.707, 0.707, 0.707, 113.166, 2616.143)"/><path class="b" d="M111.338,2902.024a5.688,5.688,0,1,1,4.024-1.664h0A5.674,5.674,0,0,1,111.338,2902.024Zm0-8.437a2.75,2.75,0,1,0,1.945,4.694h0a2.749,2.749,0,0,0-1.945-4.694Z" transform="translate(-40.469 -235.818)"/><rect class="b" width="8.085" height="2.94" transform="translate(72.698 2656.61) rotate(-45)"/><path class="b" d="M358.611,2902.024a5.687,5.687,0,1,1,4.023-1.664A5.672,5.672,0,0,1,358.611,2902.024Zm0-8.437a2.748,2.748,0,1,0,1.945.8A2.742,2.742,0,0,0,358.611,2893.587Z" transform="translate(-235.82 -235.818)"/><rect class="b" width="2.94" height="8.085" transform="matrix(0.707, -0.707, 0.707, 0.707, 113.166, 2652.972)"/><path class="b" d="M111.337,2654.744a5.69,5.69,0,1,1,4.024-1.667A5.651,5.651,0,0,1,111.337,2654.744Zm0-8.44a2.75,2.75,0,0,0-1.945,4.7h0a2.75,2.75,0,1,0,1.945-4.7Z" transform="translate(-40.468 -40.458)"/><rect class="b" width="2.94" height="8.085" transform="translate(72.698 2612.504) rotate(-45)"/><path class="b" d="M174.215,2819.1A25.762,25.762,0,0,1,152.75,2807.6l-.372-.557.177-.646a17.143,17.143,0,0,1,7.74-9.763,27.338,27.338,0,0,1,27.812.025,17.1,17.1,0,0,1,7.722,9.822l.172.645-.373.554A25.774,25.774,0,0,1,174.215,2819.1Zm-18.629-12.557a22.853,22.853,0,0,0,37.212.067c-2.091-6.306-9.783-10.817-18.618-10.817C165.391,2795.789,157.708,2800.271,155.585,2806.539Z" transform="translate(-77.385 -158.554)"/></g></g></svg>