<svg xmlns="http://www.w3.org/2000/svg" xmlns:xlink="http://www.w3.org/1999/xlink" width="144" zoomAndPan="magnify" viewBox="0 0 108 121.500001" height="162" preserveAspectRatio="xMidYMid meet" version="1.2"><defs><clipPath id="8f798fce42"><path d="M 0.222656 42 L 42 42 L 42 110 L 0.222656 110 Z M 0.222656 42 "/></clipPath><clipPath id="24a61cd320"><path d="M 15 32 L 107 32 L 107 121.003906 L 15 121.003906 Z M 15 32 "/></clipPath></defs><g id="32bcb7e19e"><g clip-rule="nonzero" clip-path="url(#8f798fce42)"><path style=" stroke:none;fill-rule:nonzero;fill:#25f4ee;fill-opacity:1;" d="M 41.851562 47.644531 L 41.851562 42.921875 C 40.238281 42.703125 38.601562 42.566406 36.929688 42.566406 C 16.789062 42.566406 0.402344 59.023438 0.402344 79.257812 C 0.402344 91.671875 6.578125 102.65625 16 109.296875 C 9.917969 102.738281 6.191406 93.957031 6.191406 84.3125 C 6.191406 64.371094 22.113281 48.109375 41.855469 47.644531 Z M 41.851562 47.644531 "/></g><path style=" stroke:none;fill-rule:nonzero;fill:#25f4ee;fill-opacity:1;" d="M 42.710938 101.070312 C 51.699219 101.070312 59.027344 93.890625 59.363281 84.945312 L 59.394531 5.058594 L 73.921875 5.058594 C 73.621094 3.417969 73.453125 1.730469 73.453125 0 L 53.613281 0 L 53.578125 79.886719 C 53.246094 88.828125 45.914062 96.011719 36.929688 96.011719 C 34.136719 96.011719 31.503906 95.308594 29.191406 94.085938 C 32.222656 98.308594 37.148438 101.070312 42.710938 101.070312 Z M 42.710938 101.070312 "/><path style=" stroke:none;fill-rule:nonzero;fill:#25f4ee;fill-opacity:1;" d="M 101.0625 32.171875 L 101.0625 27.730469 C 95.519531 27.730469 90.355469 26.078125 86.027344 23.238281 C 89.882812 27.6875 95.117188 30.894531 101.0625 32.171875 Z M 101.0625 32.171875 "/><path style=" stroke:none;fill-rule:nonzero;fill:#fe2c55;fill-opacity:1;" d="M 86.03125 23.238281 C 81.804688 18.367188 79.242188 12.011719 79.242188 5.054688 L 73.925781 5.054688 C 75.324219 12.652344 79.8125 19.167969 86.03125 23.238281 Z M 86.03125 23.238281 "/><path style=" stroke:none;fill-rule:nonzero;fill:#fe2c55;fill-opacity:1;" d="M 36.929688 62.5 C 27.730469 62.5 20.246094 70.019531 20.246094 79.257812 C 20.246094 85.691406 23.882812 91.28125 29.191406 94.085938 C 27.210938 91.332031 26.035156 87.960938 26.035156 84.3125 C 26.035156 75.074219 33.519531 67.554688 42.714844 67.554688 C 44.433594 67.554688 46.078125 67.839844 47.636719 68.332031 L 47.636719 47.980469 C 46.023438 47.757812 44.386719 47.621094 42.714844 47.621094 C 42.425781 47.621094 42.140625 47.636719 41.855469 47.644531 L 41.855469 63.269531 C 40.296875 62.78125 38.648438 62.496094 36.933594 62.496094 Z M 36.929688 62.5 "/><g clip-rule="nonzero" clip-path="url(#24a61cd320)"><path style=" stroke:none;fill-rule:nonzero;fill:#fe2c55;fill-opacity:1;" d="M 101.0625 32.171875 L 101.0625 47.664062 C 90.773438 47.664062 81.238281 44.359375 73.453125 38.746094 L 73.453125 79.257812 C 73.453125 99.488281 57.066406 115.945312 36.929688 115.945312 C 29.144531 115.945312 21.929688 113.480469 15.996094 109.296875 C 22.667969 116.492188 32.171875 121.003906 42.710938 121.003906 C 62.855469 121.003906 79.238281 104.542969 79.238281 84.3125 L 79.238281 43.804688 C 87.019531 49.417969 96.558594 52.722656 106.847656 52.722656 L 106.847656 32.789062 C 104.859375 32.789062 102.925781 32.574219 101.0625 32.171875 Z M 101.0625 32.171875 "/></g><path style=" stroke:none;fill-rule:nonzero;fill:#000000;fill-opacity:1;" d="M 73.453125 79.257812 L 73.453125 38.746094 C 81.238281 44.359375 90.773438 47.664062 101.0625 47.664062 L 101.0625 32.171875 C 95.117188 30.894531 89.882812 27.691406 86.027344 23.238281 C 79.808594 19.167969 75.320312 12.652344 73.921875 5.054688 L 59.394531 5.054688 L 59.363281 84.941406 C 59.027344 93.886719 51.699219 101.066406 42.710938 101.066406 C 37.148438 101.066406 32.222656 98.304688 29.191406 94.082031 C 23.882812 91.277344 20.246094 85.683594 20.246094 79.253906 C 20.246094 70.015625 27.730469 62.496094 36.929688 62.496094 C 38.644531 62.496094 40.292969 62.78125 41.851562 63.269531 L 41.851562 47.644531 C 22.109375 48.105469 6.1875 64.371094 6.1875 84.308594 C 6.1875 93.957031 9.917969 102.738281 15.996094 109.292969 C 21.925781 113.476562 29.144531 115.941406 36.929688 115.941406 C 57.066406 115.941406 73.453125 99.484375 73.453125 79.253906 Z M 73.453125 79.257812 "/></g></svg>