<svg version="1.1" id="Layer_1" xmlns="http://www.w3.org/2000/svg" x="0" y="0" viewBox="0 0 128 128" xml:space="preserve"><style>.st1{fill:#050505}</style><switch><g><ellipse cx="34" cy="47.4" rx="30.2" ry="30" fill="#d6b2f5"/><path class="st1" d="M35.1 82.4c-17.3 0-31.3-14-31.3-31.3s14-31.3 31.3-31.3c15.1 0 28 10.7 30.8 25.6.3 1.4-.6 2.7-2 2.9-1.4.3-2.7-.6-2.9-2-2.3-12.4-13.2-21.5-25.8-21.5-14.5 0-26.3 11.8-26.3 26.3s11.8 26.3 26.3 26.3c4.9 0 9.6-1.3 13.7-3.9 1.2-.7 2.7-.4 3.4.8s.4 2.7-.8 3.4c-5 3.1-10.6 4.7-16.4 4.7z"/><path class="st1" d="M90.9 126.8c-.7 0-1.3-.3-1.8-.8L48.4 83.7c-.4-.5-.7-1.1-.7-1.7v-6.4l1-29.3c0-1.3 1.1-2.3 2.3-2.4h.2l32.6-1.5c.8 0 1.5.3 2 .8L127 89.6c.9 1 .8 2.5-.1 3.5l-34.3 33c-.5.4-1.1.7-1.7.7zM52.6 81l38.3 39.7 30.7-29.6-38.8-43.7-29.2 1.4-.9 26.9-.1 5.3z"/><path class="st1" d="M75.1 88.7c-.6 0-1.2-.2-1.7-.7-1-.9-1-2.5-.1-3.5l14-14.8c.9-1 2.5-1 3.5-.1s1 2.5.1 3.5L77 87.9c-.5.5-1.2.8-1.9.8zM83.7 96c-.6 0-1.3-.2-1.7-.7-1-1-1-2.5-.1-3.5L96.3 77c1-1 2.5-1 3.5-.1 1 1 1 2.5.1 3.5L85.5 95.3c-.5.5-1.2.7-1.8.7zM69.8 72.9c-4.9 0-8.9-4-8.9-8.9s4-8.9 8.9-8.9 8.9 4 8.9 8.9c.1 4.9-3.9 8.9-8.9 8.9zm0-12.8c-2.2 0-3.9 1.8-3.9 3.9s1.8 3.9 3.9 3.9 3.9-1.8 3.9-3.9-1.7-3.9-3.9-3.9zM85.1 33.6c-3.6 0-6.2-2.8-6.2-6.9s2.5-6.9 6.2-6.9 6.2 2.8 6.2 6.9-2.5 6.9-6.2 6.9zm0-8.8c-1 0-1.2 1-1.2 1.9s.2 1.9 1.2 1.9 1.2-1 1.2-1.9-.2-1.9-1.2-1.9zM101.2 43.5c-3.6 0-6.2-2.8-6.2-6.9 0-4 2.5-6.9 6.2-6.9s6.2 2.8 6.2 6.9c0 4-2.5 6.9-6.2 6.9zm0-8.8c-1 0-1.2 1-1.2 1.9 0 .9.2 1.9 1.2 1.9s1.2-1 1.2-1.9c0-.9-.2-1.9-1.2-1.9z"/><path class="st1" d="M87.7 42.8c-.4 0-.9-.1-1.3-.4-1.2-.7-1.6-2.2-.9-3.4l11.6-19.4c.7-1.2 2.2-1.6 3.4-.9 1.2.7 1.6 2.2.9 3.4L89.8 41.6c-.5.8-1.3 1.2-2.1 1.2z"/><path class="st1" d="M99.4 54.5c-.6 0-1.2-.1-1.7-.2-2.1-.5-3.9-1.7-5-3.5-.6-1-2.6-.8-2.6-.8-1.4.2-2.7-.7-2.9-2-.2-1.4.7-2.7 2-2.9 2-.3 5.8-.1 7.7 3.1.4.6 1 1.1 1.8 1.2.5.1 1 .1 1.4 0v-.1c-.3-.9-.7-2.4.3-3.9s2.7-1.8 3.3-1.9c1.8-.3 3.3-.1 4.4 0 .5.1 1.1.1 1.3.1 0 0 .1-.1.2-.3.1-.2.1-.3.1-.3s-.2-.3-.3-.5c-.6-1-2-3-.2-5.8 1.4-2.2 2.9-2.5 4.1-2.6.4 0 .7-.1 1.5-1 .2-.2.2-.4.2-.4 0-.3-.8-1.2-1.7-1.7-.8-.3-1.8-.9-2.4-2-.9-1.6-.7-3.7.4-6.3.8-1.9 0-3.6-.7-4.5-2.2.2-5.1.3-6.6-.4-1.9-.9-2.1-2.7-2.2-3.5-.1-.8-.1-1.3-1.1-2.1-.2-.2-.3-.2-.3-.2-.2.1-.8.6-1.2.9-.9.7-1.9 1.5-3.3 1.8-2.6.6-4.3-.9-5.4-2-.6-.6-1.2-1.1-1.9-1.3h-.2c-.2.2-.6 1.1-.8 2.6-.1 1.1-.6 2-1.5 2.8-2 1.6-5.5 1.6-7.4 1.5-.3.3-.5.5-.5.7 0 0 0 .2.2.4 1.3 1.7 1.3 3.3 1.1 4.4-.5 2.3-2.4 3.9-3.2 4.5-.8.8-1.9 2.5-1.4 3.1 2.6 3.1 3.8 7.8 3.9 8.3.3 1.3-.5 2.7-1.8 3-1.3.3-2.7-.5-3-1.8-.3-1.1-1.4-4.5-2.9-6.3-3-3.6-.2-8 1.9-10 .1-.1.3-.2.4-.3.4-.3 1.1-.9 1.2-1.4 0-.1 0-.3-.2-.4C73 20.6 73 19 73.3 18c.6-2.6 3.1-4.1 3.6-4.3.4-.2.9-.3 1.4-.3 1.6.2 3.6.1 4.4-.2.3-2 1-4.5 3-5.8.8-.6 2.3-1.2 4.3-.5 1.8.6 2.9 1.6 3.7 2.4.3.3.8.7.9.8.3-.1.9-.6 1.3-.9 1.5-1.1 4.5-3.4 7.9-.4 2.1 1.9 2.5 3.7 2.7 4.9 1 0 2.9-.1 4.6-.3.7-.1 1.5.1 2 .6 2 1.8 4.8 6.2 2.6 11.1-.4.8-.5 1.3-.5 1.6.7.3 4 2.2 4.6 5.3.2 1.1.2 2.8-1.4 4.6-2 2.3-3.5 2.6-4.8 2.7-.1.1-.1.2-.2.3v.1c.1.1.1.2.2.3.6.9 1.9 2.9.6 5.6-1.7 3.6-4.7 3.2-6.6 3-.8-.1-1.5-.2-2.4-.1.3 1.2.6 3.4-1.6 4.8-1.3.8-2.7 1.2-4.2 1.2zM83.7 115.9c-.6 0-1.3-.2-1.8-.7-1-1-1-2.6 0-3.5l3.5-3.5c1-1 2.5-1 3.5 0-.9-1-.9-2.5 0-3.5l3.5-3.5c1-1 2.5-1 3.5 0-.9-1-.9-2.5 0-3.5l3.5-3.5c1-1 2.5-1 3.5 0-.9-1-.9-2.5 0-3.5l3.5-3.5c1-1 2.5-1 3.5 0-.9-1-.9-2.5 0-3.5l3.5-3.5c1-1 2.6-1 3.5 0 1 1 1 2.6 0 3.5l-3.5 3.5c-1 1-2.5 1-3.5 0 .9 1 .9 2.5 0 3.5l-3.5 3.5c-1 1-2.5 1-3.5 0 .9 1 .9 2.5 0 3.5l-3.5 3.5c-1 1-2.5 1-3.5 0 .9 1 .9 2.5 0 3.5l-3.5 3.5c-1 1-2.5 1-3.5 0 .9 1 .9 2.5 0 3.5l-3.5 3.5c-.4.5-1.1.7-1.7.7z"/></g></switch></svg>